<?xml version="1.0" encoding="UTF-8"?>
<svg id="Layer_1" data-name="Layer 1" xmlns="http://www.w3.org/2000/svg" viewBox="0 0 45.18 34.35">
  <defs>
    <style>
      .cls-1 {
        fill: #fff;
      }
    </style>
  </defs>
  <path class="cls-1" d="M22.7,0C11.51.13,2.43,10.44,0,17.21v.33c1.35,5.45,12.02,16.68,22.9,16.81,10.88.13,22.28-13.86,22.28-17.14C45.18,13.46,33.89-.13,22.7,0ZM37.92,17.21c0,8.45-6.88,15.33-15.33,15.33s-15.33-6.88-15.33-15.33S14.14,1.88,22.59,1.88s15.33,6.88,15.33,15.33Z"/>
  <path class="cls-1" d="M18.78,28.9c.07-.58.14-1.17.22-1.75.15-1.2.3-2.39.46-3.59.05-.41.1-.82.16-1.23.05-.33.05-.32-.26-.4-1.84-.44-3.52-1.2-4.97-2.43-1.43-1.21-2.45-2.68-2.81-4.55-.37-1.87.04-3.6,1.07-5.19,1.05-1.62,2.52-2.74,4.26-3.54,2.01-.93,4.13-1.29,6.33-1.2,2.28.1,4.42.69,6.36,1.9,1.58.98,2.86,2.26,3.59,4,1.04,2.47.69,4.81-.85,6.96-1.25,1.75-2.99,2.87-4.99,3.61-1.11.41-2.26.65-3.43.76-.14.01-.23.07-.31.18-1.52,2.07-3.04,4.15-4.56,6.22-.07.09-.13.18-.2.27-.01,0-.03-.01-.04-.02ZM21.16,9.99c-.16.07-.31.12-.45.19-1.13.54-1.91,1.38-2.01,2.66-.09,1.11-.07,2.22-.09,3.33,0,.02.01.04.02.07h2.86v-2.86h-1.39c-.01-1.17.57-1.86,1.63-2.2-.2-.41-.38-.8-.57-1.19ZM24.94,13.38c0-1.17.57-1.86,1.64-2.19-.2-.41-.38-.79-.56-1.17-.04,0-.05,0-.07,0-1.4.53-2.39,1.5-2.46,3.19-.04.98-.03,1.95-.05,2.93,0,.03,0,.07.01.11h2.86v-2.87h-1.38Z"/>
</svg>