<?xml version="1.0" encoding="UTF-8"?>
<svg id="Layer_1" data-name="Layer 1" xmlns="http://www.w3.org/2000/svg" viewBox="0 0 45.18 34.35">
  <defs>
    <style>
      .cls-1 {
        fill: #fff;
      }

      .cls-2 {
        fill: none;
      }
    </style>
  </defs>
  <path class="cls-1" d="M22.7,0C11.51.13,2.43,10.44,0,17.21v.33c1.35,5.45,12.02,16.68,22.9,16.81,10.88.13,22.28-13.86,22.28-17.14C45.18,13.46,33.89-.13,22.7,0ZM38.03,17.21c0,8.45-6.88,15.33-15.33,15.33s-15.33-6.88-15.33-15.33S14.24,1.88,22.7,1.88s15.33,6.88,15.33,15.33Z"/>
  <path class="cls-2" d="M12.68,13.26v10.22c0,1.38,1.12,2.5,2.5,2.5h10.22c1.38,0,2.5-1.12,2.5-2.5v-3.89h-4.28v-8.84h-8.44c-1.38,0-2.5,1.12-2.5,2.5Z"/>
  <path class="cls-1" d="M27.9,23.48c0,1.38-1.12,2.5-2.5,2.5h-10.22c-1.38,0-2.5-1.12-2.5-2.5v-10.22c0-1.38,1.12-2.5,2.5-2.5h8.44v-2.75h-8.44c-2.89,0-5.25,2.35-5.25,5.25v10.22c0,2.89,2.35,5.25,5.25,5.25h10.22c2.89,0,5.25-2.35,5.25-5.25v-3.89h-2.75v3.89Z"/>
  <g>
    <rect class="cls-1" x="18.21" y="15.01" width="13.7" height="2.2" transform="translate(-3.96 22.82) rotate(-45.75)"/>
    <polygon class="cls-1" points="24.43 7.18 34.01 16.5 33.88 7.06 24.43 7.18"/>
  </g>
</svg>