<?xml version="1.0" encoding="UTF-8"?>
<svg id="Layer_1" data-name="Layer 1" xmlns="http://www.w3.org/2000/svg" viewBox="0 0 45.18 34.35">
  <defs>
    <style>
      .cls-1 {
        fill: #fff;
      }
    </style>
  </defs>
  <path class="cls-1" d="M31.74,8.54c-.3-.9-.92-1.61-1.74-2.13-2.19-1.4-4.42-1.27-6.67-.09-.18.09-.51.12-.66.03-1.46-.9-3.06-1.16-4.73-.78-1.85.43-3.14,1.5-3.78,3.21-.1.26-.32.56-.57.66-1.45.6-2.41,1.71-3.02,2.94-1.1,2.2-1.17,4.49.27,6.66.54.81,1.11,1.54,1.02,2.64-.22,2.65,2.12,4.69,4.73,5.22.33.07.7.16.94.36.48.39.83.92,1.32,1.3,1.02.8,3.26.92,4.11-.05.13.1.25.24.4.31,1.98.84,3.62.25,4.94-1.26.29-.33.57-.56,1.01-.66.48-.11.97-.24,1.43-.42,1.72-.68,2.86-1.83,3.24-3.57.06-.27.16-.54.19-.82.03-.39,0-.79.02-1.18.02-.24.05-.5.18-.7.32-.5.78-.93,1.03-1.45.63-1.34.92-2.72.71-4.23-.3-2.18-1.45-3.8-3.41-4.92-.49-.28-.8-.57-.96-1.06ZM18.51,13.11c.41.34,1.31.32,1.65-.09.45-.53,1.04-.74,1.84-.75,0,.23,0,.39,0,.55,0,4.32,0,8.64,0,12.96,0,.82-.24,1.2-.85,1.28-.53.07-1.01-.05-1.27-.48.53-.37,1.04-.7,1.52-1.05.47-.35.59-.95.3-1.32-.39-.49-1.13-.62-1.66-.32-.58.33-1.15.72-1.77.93-.43.14-.98.11-1.45.01-2.01-.42-3.33-2.61-2.62-4.39.39-.98,1.25-1.58,2.18-2.06.34.51.62.96.95,1.38.39.49,1.01.57,1.6.26.41-.22.54-.83.28-1.35-.22-.43-.5-.85-.64-1.3-.23-.76.02-1.48.32-2.21.15-.36.18-.92-.02-1.23-.51-.77-1.63-.47-2.1.44-.27.53-.36,1.15-.51,1.66-1.12.67-2.24,1.34-3.42,2.04-.9-1.26-1.01-2.73-.45-4.25.47-1.26,1.46-2.12,2.73-2.7.58-.26.94-.6,1.07-1.21.36-1.67,1.71-2.42,3.39-2.41.89,0,1.77.33,2.24,1.03.29.42.19,1.07.26,1.61-.58.08-1.07.05-1.46.22-.78.35-1.53.76-2.23,1.24-.38.25-.22,1.2.15,1.51ZM24.89,27.08c-1.1-.32-.55-1.24-.68-1.8.65.41,1.3.83,1.98,1.27-.24.49-.83.66-1.3.53ZM33.25,18.14c-.83-.54-1.6-1.03-2.37-1.53-.04-.02-.06-.08-.1-.08-1.03-.08-1.19-.78-1.32-1.55-.05-.29-.23-.56-.37-.83-.32-.61-.89-.81-1.56-.56-.58.22-.77.69-.52,1.36.08.21.17.41.27.61.44.89.35,1.75-.16,2.6-.14.23-.31.46-.34.71-.06.46-.15.97.44,1.23.55.24,1.37,0,1.7-.49.18-.27.32-.57.44-.88.14-.39.42-.42.71-.23,1.1.72,1.96,1.64,2.07,2.93.07.79-.39,1.5-.92,2.12-.64.75-1.44,1.29-2.48,1.38-.86.07-1.63-.18-2.28-.77-.79-.72-1.63-.62-2.22.22v-12.05c.05-.06.1-.12.15-.18.51.29,1.05.53,1.51.87.52.39,1.17.46,1.59.06.4-.38.43-1.26,0-1.6-.92-.75-1.93-1.33-3.3-1.29.15-.72-.32-1.47.45-2.08,1.42-1.12,3.93-.7,4.8.83.26.46.37.98.66,1.42.21.32.54.63.9.78,1.72.74,2.51,2.02,2.92,3.71.32,1.28-.4,2.2-.67,3.27Z"/>
  <path class="cls-1" d="M22.7,0C11.51.13,2.43,10.44,0,17.21v.33c1.35,5.45,12.02,16.68,22.9,16.81,10.88.13,22.28-13.86,22.28-17.14C45.18,13.46,33.89-.13,22.7,0ZM38.03,17.21c0,8.45-6.88,15.33-15.33,15.33s-15.33-6.88-15.33-15.33S14.24,1.88,22.7,1.88s15.33,6.88,15.33,15.33Z"/>
</svg>