<?xml version="1.0" encoding="UTF-8"?>
<svg id="Layer_1" data-name="Layer 1" xmlns="http://www.w3.org/2000/svg" viewBox="0 0 37.96 43.98">
  <defs>
    <style>
      .cls-1 {
        fill: #fff;
      }
    </style>
  </defs>
  <path class="cls-1" d="M2.74,43.98c-1.5-.23-2.58-1.24-2.74-2.49V10.08c.02-1.11,1.46-2.52,2.84-2.52h4.21l.06-.05v-3.37h5.77c.82-3.07,4.82-5.02,8.43-3.75,1.86.66,3.28,2.13,3.75,3.75h5.77v3.37l.06.05h4.21c1.39,0,2.82,1.4,2.84,2.52-.04,10.57.07,21.15-.05,31.71-.23,1.03-1.4,2.07-2.69,2.19H2.74ZM27.69,6.89h-5.5l-.06-.05v-1.73c0-.24-.32-.87-.48-1.09-1.24-1.68-4.09-1.68-5.33,0-.16.22-.48.85-.48,1.09v1.73l-.06.05h-5.5v4.08l.06.05h17.3l.06-.05v-4.08ZM7.12,13.76v-3.4l-.06-.05h-3.84l-.06.05v30.83l.06.05h31.53l.06-.05V10.35l-.06-.05h-3.84l-.06.05v3.4H7.12Z"/>
  <path class="cls-1" d="M20.06,6.49c-1.33,1.12-3.38-.37-2.45-1.7,1.2-1.71,4.2.22,2.45,1.7Z"/>
  <path class="cls-1" d="M30.07,33.73l-10.63-18.28c-.21-.36-.73-.36-.94,0l-10.63,18.28c-.21.36.05.82.47.82h21.27c.42,0,.68-.46.47-.82ZM17.34,19.89h3.24v8.38h-3.24v-8.38ZM18.96,33.98c-1.4,0-2.53-1.04-2.53-2.33s1.13-2.33,2.53-2.33,2.53,1.04,2.53,2.33-1.13,2.33-2.53,2.33Z"/>
</svg>