<?xml version="1.0" encoding="UTF-8"?>
<svg id="Layer_1" data-name="Layer 1" xmlns="http://www.w3.org/2000/svg" viewBox="0 0 45.18 34.35">
  <defs>
    <style>
      .cls-1 {
        fill: #fff;
      }
    </style>
  </defs>
  <path class="cls-1" d="M22.7,0C11.51.13,2.43,10.44,0,17.21v.33c1.35,5.45,12.02,16.68,22.9,16.81,10.88.13,22.28-13.86,22.28-17.14C45.18,13.46,33.89-.13,22.7,0ZM22.7,33.36c-8.92,0-16.16-7.23-16.16-16.16S13.77,1.05,22.7,1.05s16.16,7.23,16.16,16.16-7.23,16.16-16.16,16.16Z"/>
  <g>
    <rect class="cls-1" x="21.93" y="2.14" width="2" height="3.32"/>
    <rect class="cls-1" x="21.87" y="29" width="2" height="3.32"/>
  </g>
  <g>
    <rect class="cls-1" x="7.81" y="16.2" width="3.32" height="2"/>
    <rect class="cls-1" x="34.67" y="16.25" width="3.32" height="2"/>
  </g>
  <g>
    <path class="cls-1" d="M20.44,15.3c.47-.79,1.15-1.42,2.3-1.42s2.44.66,2.69,1.31,0-1.51,2.17-1.42,2.45.59,2.45.59c0,0,0,1.13-1.62,2.35-.93.7-1.94.36-1.94.36,0,0,.53,1.26.36,2.17-.25,1.36-1.61,2.33-1.61,2.33,0,0-.61,3.8-2.48,3.8s-2.24-3.8-2.24-3.8c0,0-1.5-.8-1.81-2.28-.25-1.2.5-2.15.5-2.15,0,0-1.49.23-2.62-.81s-1.15-1.92-1.15-1.92c0,0,1.72-1.04,3.21-.54s1.78,1.45,1.78,1.45Z"/>
    <g>
      <path class="cls-1" d="M20.75,15.11l-1.61-2.85c-.99.09-2.78.13-4.01-.6-1.64-.96-3.25-3.86-3.01-5.44l1.98.29c-.09.61.93,2.76,2.05,3.42.8.47,2.49.41,3.37.26l.69-.12,2.29,4.04-1.74.99Z"/>
      <path class="cls-1" d="M16.04,10.71l-1.9-.62c.08-.25.14-.5.2-.74.26-1.06.62-2.52,2.36-2.83l.35,1.97c-.39.07-.51.27-.77,1.34-.07.29-.15.59-.24.88Z"/>
    </g>
    <g>
      <path class="cls-1" d="M24.85,15.01l-1.74-.98,2.29-4.04.69.12c.88.15,2.57.21,3.37-.26,1.12-.66,2.14-2.81,2.05-3.42l1.98-.29c.23,1.58-1.37,4.47-3.01,5.44-1.23.72-3.01.69-4.01.6l-1.61,2.85Z"/>
      <path class="cls-1" d="M29.55,10.6c-.09-.29-.17-.59-.24-.88-.26-1.07-.38-1.27-.77-1.33l.35-1.97c1.74.31,2.1,1.76,2.36,2.83.06.24.12.5.2.74l-1.9.62Z"/>
    </g>
  </g>
</svg>