<?xml version="1.0" encoding="UTF-8"?>
<svg id="Layer_1" data-name="Layer 1" xmlns="http://www.w3.org/2000/svg" viewBox="0 0 45.18 34.35">
  <defs>
    <style>
      .cls-1 {
        fill: #fff;
      }
    </style>
  </defs>
  <path class="cls-1" d="M22.7,0C11.51.13,2.43,10.44,0,17.21v.33c1.35,5.45,12.02,16.68,22.9,16.81,10.88.13,22.28-13.86,22.28-17.14C45.18,13.46,33.89-.13,22.7,0ZM22.7,33.36c-8.92,0-16.16-7.23-16.16-16.16S13.77,1.05,22.7,1.05s16.16,7.23,16.16,16.16-7.23,16.16-16.16,16.16Z"/>
  <path class="cls-1" d="M22.7,34.19c-9.36,0-16.98-7.62-16.98-16.98S13.33.23,22.7.23s16.98,7.62,16.98,16.98-7.62,16.98-16.98,16.98ZM22.7,1.88c-8.45,0-15.33,6.88-15.33,15.33s6.88,15.33,15.33,15.33,15.33-6.88,15.33-15.33S31.15,1.88,22.7,1.88Z"/>
  <g>
    <line class="cls-1" x1="11.54" y1="6.77" x2="33.35" y2="28.58"/>
    <rect class="cls-1" x="21.34" y="2.25" width="2.2" height="30.84" transform="translate(-5.92 21.05) rotate(-45)"/>
  </g>
</svg>