<?xml version="1.0" encoding="UTF-8"?>
<svg id="Layer_1" data-name="Layer 1" xmlns="http://www.w3.org/2000/svg" viewBox="0 0 45.18 34.35">
  <defs>
    <style>
      .cls-1 {
        fill: #fff;
      }
    </style>
  </defs>
  <path class="cls-1" d="M22.7,0C11.51.13,2.43,10.44,0,17.21v.33c1.35,5.45,12.02,16.68,22.9,16.81,10.88.13,22.28-13.86,22.28-17.14C45.18,13.46,33.89-.13,22.7,0ZM38.03,17.21c0,8.45-6.88,15.33-15.33,15.33s-15.33-6.88-15.33-15.33S14.24,1.88,22.7,1.88s15.33,6.88,15.33,15.33Z"/>
  <g>
    <path class="cls-1" d="M28.26,21.18c-.56.56-1.11,1.11-1.67,1.67-.25-.19-.51-.38-.77-.57-.15-.11-.29-.28-.44-.3-.15-.02-.31.14-.48.2-.26.1-.53.2-.79.29-.09.03-.13.07-.15.17-.05.42-.12.85-.18,1.27-.01.1-.05.13-.15.13-.7,0-1.4,0-2.1,0-.09,0-.13-.02-.14-.12-.06-.43-.13-.86-.18-1.29-.01-.09-.05-.13-.13-.16-.39-.15-.77-.31-1.16-.47-.09-.04-.14-.04-.22.02-.37.28-.74.56-1.1.83-.56-.56-1.1-1.11-1.67-1.68.19-.26.39-.56.63-.83.22-.25.28-.45.09-.76-.16-.26-.24-.57-.34-.86-.04-.11-.08-.16-.2-.17-.4-.05-.8-.11-1.2-.16-.13-.02-.19-.05-.19-.2,0-.67,0-1.35,0-2.02,0-.14.05-.17.18-.19.41-.05.82-.12,1.23-.17.1-.01.13-.05.17-.14.15-.38.3-.77.47-1.14.04-.1.04-.16-.02-.24-.25-.32-.49-.65-.73-.98-.03-.05-.07-.09-.09-.12.56-.56,1.11-1.11,1.66-1.67.28.21.59.41.86.65.23.19.41.27.71.09.27-.17.6-.25.91-.36.09-.03.13-.07.14-.17.05-.42.12-.85.18-1.27.01-.09.05-.12.14-.12.71,0,1.41,0,2.12,0,.1,0,.12.04.13.13.06.42.12.84.18,1.26.01.1.05.15.15.18.38.15.76.31,1.14.47.1.04.15.04.24-.02.36-.28.73-.55,1.09-.82.56.56,1.11,1.12,1.67,1.68-.24.32-.5.67-.77,1.02-.09.12-.11.21-.04.36.17.34.3.7.43,1.06.04.12.1.16.21.18.4.05.81.12,1.21.17.11.01.16.05.16.17,0,.68,0,1.37,0,2.05,0,.12-.04.16-.16.18-.4.05-.81.11-1.21.17-.11.02-.17.06-.21.18-.14.38-.3.75-.46,1.11-.04.09-.04.15.02.24.28.37.56.74.83,1.11ZM28.78,17.77c0-.37,0-.71,0-1.06,0-.11-.04-.14-.14-.15-.38-.05-.75-.11-1.13-.16-.1-.01-.15-.05-.17-.16-.12-.64-.36-1.23-.73-1.77-.06-.09-.05-.15.01-.23.23-.3.46-.61.69-.91.03-.04.06-.13.03-.16-.25-.27-.52-.53-.78-.8-.35.26-.7.51-1.03.77-.09.07-.15.07-.25,0-.53-.36-1.12-.6-1.76-.72-.11-.02-.15-.06-.16-.17,0-.12-.04-.25-.05-.37-.04-.3-.09-.6-.13-.9h-1.18c-.01.08-.03.15-.04.22-.05.36-.1.71-.16,1.07,0,.05-.07.12-.11.13-.66.14-1.27.38-1.82.76-.07.05-.13.04-.19-.01-.16-.13-.33-.25-.5-.38-.18-.13-.36-.26-.55-.41-.25.25-.48.5-.73.74-.08.08-.09.13-.02.22.23.3.46.61.69.91.07.09.07.14,0,.23-.36.53-.61,1.12-.73,1.75-.02.11-.07.15-.18.17-.38.05-.76.1-1.13.16-.05,0-.13.06-.13.09,0,.37,0,.73,0,1.1.06.01.1.03.15.03.37.05.74.11,1.12.16.12.01.16.06.18.17.12.64.36,1.22.73,1.75.07.1.05.16-.01.25-.23.29-.44.6-.67.89-.09.11-.07.17.02.26.21.2.42.41.62.62.03.03.07.06.11.09.35-.26.69-.51,1.02-.77.08-.06.14-.07.22-.01.55.37,1.15.62,1.8.74.09.02.12.05.13.14.05.38.1.77.16,1.15,0,.06.06.15.09.15.37.01.74,0,1.12,0,.06-.44.13-.86.19-1.29.01-.1.05-.14.15-.16.64-.13,1.23-.37,1.77-.73.09-.06.15-.06.23,0,.34.26.68.51,1.04.78.26-.27.51-.52.77-.78.07-.07.02-.12-.02-.17-.23-.31-.45-.61-.69-.91-.07-.09-.07-.15,0-.25.36-.53.6-1.11.72-1.74.02-.12.07-.16.19-.18.41-.05.83-.12,1.26-.18Z"/>
    <path class="cls-1" d="M20.15,24.69h.68c0,.06,0,.12,0,.18,0,1.59,0,3.19,0,4.78,0,.13.04.19.16.24.52.22.82.81.71,1.35-.12.59-.61.99-1.22.99-.57,0-1.06-.4-1.18-.96-.12-.58.17-1.15.71-1.37.13-.05.15-.12.15-.24,0-1.59,0-3.18,0-4.77v-.2ZM20.49,30.46c-.3,0-.55.25-.55.55,0,.29.26.55.55.56.3,0,.56-.26.56-.56,0-.29-.26-.54-.56-.54Z"/>
    <path class="cls-1" d="M15.08,18.93v.68h-.2c-1.59,0-3.19,0-4.78,0-.11,0-.18.02-.22.14-.24.6-.9.89-1.51.69-.6-.2-.95-.83-.8-1.46.15-.6.75-1,1.37-.9.44.07.75.32.93.72.05.11.1.15.22.14,1.59,0,3.19,0,4.78,0h.2ZM8.78,18.73c-.31,0-.56.22-.57.52-.01.31.22.56.54.58.28.01.55-.25.57-.54.01-.29-.24-.55-.53-.56Z"/>
    <path class="cls-1" d="M24.35,24.68h.68v.19c0,1.58,0,3.17,0,4.75,0,.13.03.21.17.27.53.22.81.79.69,1.36-.12.56-.61.96-1.18.96-.61,0-1.08-.38-1.22-.97-.12-.54.17-1.13.69-1.36.14-.06.17-.14.17-.28,0-1.58,0-3.16,0-4.74v-.2ZM25.24,31.01c0-.3-.25-.55-.55-.55-.3,0-.55.25-.56.54,0,.3.26.56.56.56.29,0,.55-.26.55-.56Z"/>
    <path class="cls-1" d="M30.1,19.61v-.67c.07,0,.13,0,.2,0,1.59,0,3.19,0,4.78,0,.11,0,.17-.02.22-.14.22-.55.79-.84,1.38-.72.56.11.96.61.96,1.19,0,.58-.4,1.08-.97,1.2-.57.12-1.15-.18-1.37-.72-.05-.12-.12-.14-.23-.14-1.59,0-3.18,0-4.77,0h-.2ZM36.97,19.27c0-.3-.24-.54-.55-.54-.3,0-.55.25-.55.55,0,.29.26.56.55.56.31,0,.56-.25.55-.56Z"/>
    <path class="cls-1" d="M20.83,9.66h-.68c0-.07,0-.13,0-.19,0-1.59,0-3.18,0-4.77,0-.12-.03-.18-.15-.23-.54-.23-.84-.8-.72-1.37.12-.57.61-.97,1.21-.97.58,0,1.07.4,1.2.98.12.55-.19,1.14-.72,1.36-.12.05-.15.11-.15.23,0,1.59,0,3.18,0,4.77v.2ZM19.94,3.33c-.01.28.23.54.52.56.3.02.57-.23.58-.53.01-.29-.24-.56-.53-.57-.31-.01-.56.23-.57.54Z"/>
    <path class="cls-1" d="M25.03,9.66h-.68v-.2c0-1.58,0-3.17,0-4.75,0-.13-.04-.2-.16-.25-.55-.23-.84-.86-.68-1.44.17-.59.75-.97,1.36-.88.59.08,1.04.6,1.04,1.19,0,.53-.25.91-.73,1.13-.13.06-.16.12-.16.26,0,1.59,0,3.18,0,4.77,0,.06,0,.11,0,.18ZM25.24,3.36c0-.31-.25-.56-.55-.56-.29,0-.55.25-.56.54,0,.29.25.55.55.56.29,0,.56-.25.56-.54Z"/>
    <path class="cls-1" d="M15.08,14.74v.67h-.21c-1.59,0-3.18,0-4.77,0-.12,0-.18.03-.23.15-.22.53-.8.83-1.37.72-.57-.12-.97-.62-.97-1.2,0-.58.4-1.07.97-1.19.57-.12,1.16.18,1.37.71.05.13.12.16.24.16,1.58,0,3.17,0,4.75,0,.07,0,.13,0,.21,0ZM8.21,15.08c0,.3.25.55.54.55.3,0,.56-.26.56-.56,0-.29-.26-.54-.56-.54-.3,0-.55.25-.55.55Z"/>
    <path class="cls-1" d="M30.1,15.41v-.67c.07,0,.13,0,.2,0,1.58,0,3.17,0,4.75,0,.14,0,.21-.04.26-.17.21-.52.82-.82,1.38-.69.59.14.98.66.95,1.29-.03.55-.48,1.04-1.04,1.12-.58.08-1.1-.21-1.32-.76-.05-.11-.11-.11-.21-.11-1.59,0-3.18,0-4.77,0h-.22ZM36.97,15.07c0-.3-.25-.55-.55-.55-.3,0-.55.26-.55.55,0,.3.27.56.56.55.3,0,.54-.26.54-.56Z"/>
    <path class="cls-1" d="M17.42,11.03c0-.09,0-.14,0-.2,0-1.45,0-2.91,0-4.36,0-.12-.03-.18-.15-.23-.55-.23-.84-.8-.72-1.37.13-.58.63-.99,1.22-.98.58,0,1.07.42,1.18,1,.11.56-.19,1.13-.74,1.36-.11.04-.12.1-.12.2,0,1.46,0,2.92,0,4.38q0,.21-.2.21c-.15,0-.3,0-.47,0ZM18.31,5.12c0-.3-.24-.55-.54-.56-.3,0-.56.26-.56.56,0,.29.26.55.55.55.3,0,.55-.25.55-.55Z"/>
    <path class="cls-1" d="M27.76,11.03c-.21,0-.39,0-.58,0-.03,0-.07-.06-.09-.09-.02-.04,0-.09,0-.14,0-1.43,0-2.87,0-4.3,0-.14-.03-.21-.17-.26-.53-.23-.82-.81-.69-1.37.13-.57.62-.97,1.19-.97.58,0,1.07.4,1.2.98.12.56-.17,1.13-.7,1.36-.13.06-.16.12-.16.25,0,1.45,0,2.9,0,4.34,0,.06,0,.11,0,.2ZM26.88,5.12c0,.3.25.55.55.55.3,0,.55-.25.55-.55,0-.3-.27-.56-.56-.56-.3,0-.54.26-.54.56Z"/>
    <path class="cls-1" d="M17.42,23.33h.67c0,.08,0,.16,0,.23,0,1.44,0,2.88,0,4.31,0,.13.03.19.16.24.54.22.83.8.71,1.36-.12.57-.62.98-1.2.98-.59,0-1.08-.41-1.2-1-.11-.55.19-1.12.71-1.34.12-.05.16-.11.16-.24,0-1.46,0-2.92,0-4.38,0-.05,0-.1,0-.17ZM17.77,28.68c-.3,0-.56.25-.57.55,0,.29.26.55.55.55.29,0,.54-.24.55-.53,0-.31-.23-.57-.54-.57Z"/>
    <path class="cls-1" d="M27.09,23.33h.67c0,.06,0,.12,0,.18,0,1.46,0,2.92,0,4.38,0,.11.02.17.14.22.54.22.84.79.73,1.35-.12.58-.61,1-1.2,1-.58,0-1.08-.41-1.2-.98-.12-.57.17-1.14.72-1.37.12-.05.15-.11.15-.23,0-1.43,0-2.87,0-4.3,0-.08,0-.16,0-.25ZM27.43,29.78c.3,0,.55-.26.55-.55,0-.3-.26-.56-.57-.55-.3,0-.54.25-.54.56,0,.3.26.55.55.55Z"/>
    <path class="cls-1" d="M16.44,12.01v.66h-.17c-1.46,0-2.92,0-4.37,0-.12,0-.18.03-.23.15-.23.56-.85.86-1.43.7-.61-.17-.98-.72-.91-1.34.07-.59.58-1.05,1.19-1.07.49-.02.95.28,1.15.75.05.12.11.15.23.15,1.45,0,2.89,0,4.34,0,.06,0,.12,0,.21,0ZM11.08,12.35c0-.31-.24-.56-.55-.56-.29,0-.55.25-.55.55,0,.29.26.55.55.56.3,0,.55-.24.55-.54Z"/>
    <path class="cls-1" d="M28.75,12.68v-.66c.07,0,.13,0,.19,0,1.45,0,2.89,0,4.34,0,.12,0,.19-.02.24-.15.23-.55.8-.84,1.38-.72.55.11.95.6.96,1.17.01.59-.37,1.08-.95,1.22-.57.14-1.17-.16-1.4-.72-.05-.11-.1-.14-.22-.14-1.46,0-2.92,0-4.37,0-.06,0-.11,0-.18,0ZM34.1,12.34c0,.3.24.55.54.55.3,0,.56-.27.56-.56,0-.29-.26-.54-.56-.54-.3,0-.54.25-.54.55Z"/>
    <path class="cls-1" d="M28.75,22.34v-.66c.07,0,.13,0,.2,0,1.44,0,2.88,0,4.33,0,.13,0,.2-.03.26-.16.29-.66,1.06-.92,1.68-.6.63.33.85,1.13.47,1.74-.36.59-1.17.76-1.74.34-.17-.12-.31-.31-.41-.5-.07-.13-.14-.16-.27-.16-1.44,0-2.88,0-4.33,0h-.19ZM34.1,22c0,.31.25.56.55.56.29,0,.55-.26.55-.55,0-.29-.25-.55-.55-.55-.31,0-.55.23-.55.54Z"/>
    <path class="cls-1" d="M16.44,21.68v.66h-.18c-1.46,0-2.92,0-4.37,0-.12,0-.18.03-.23.15-.24.57-.85.86-1.45.7-.6-.16-.97-.73-.89-1.35.08-.59.6-1.06,1.2-1.05.53,0,.92.26,1.13.75.05.12.11.15.23.15,1.45,0,2.9,0,4.34,0h.2ZM10.54,21.46c-.3,0-.55.25-.55.54,0,.29.25.55.55.56.3,0,.55-.24.55-.54,0-.32-.23-.56-.55-.56Z"/>
    <path class="cls-1" d="M22.59,20.65c-1.91,0-3.47-1.56-3.47-3.46,0-1.92,1.55-3.49,3.47-3.49,1.92,0,3.48,1.56,3.48,3.48,0,1.9-1.57,3.47-3.48,3.46ZM22.59,19.98c1.53,0,2.8-1.26,2.8-2.79,0-1.54-1.25-2.81-2.79-2.81-1.54,0-2.82,1.27-2.81,2.82,0,1.53,1.27,2.79,2.8,2.79Z"/>
    <path class="cls-1" d="M22.26,16.85v-1.52h.67v1.51h1.52v.67c-.06,0-.11,0-.17,0-.4,0-.8,0-1.21,0-.11,0-.14.04-.14.14,0,.45,0,.91,0,1.38h-.66c0-.05,0-.11,0-.16,0-.4,0-.8,0-1.21,0-.12-.03-.15-.15-.15-.45,0-.9,0-1.36,0v-.66h1.51Z"/>
  </g>
</svg>