<?xml version="1.0" encoding="UTF-8"?>
<svg id="Layer_1" data-name="Layer 1" xmlns="http://www.w3.org/2000/svg" viewBox="0 0 41.22 36.99">
  <defs>
    <style>
      .cls-1 {
        fill: #fff;
      }
    </style>
  </defs>
  <path class="cls-1" d="M26.65,6.21h9.87c2.46,0,4.41,2.78,4.56,5.05.44,6.74-.34,13.96,0,20.75-.16,2.33-1.63,4.23-3.89,4.82-10.82.3-21.69.04-32.53.13C2.14,36.73.24,34.7,0,32.21V11.07c-.04-2.15,2.41-4.86,4.56-4.86h9.87V.75c0-.34.63-.63.95-.66,3.31-.3,7.07.24,10.43,0,.27-.07.85.47.85.65v5.46ZM24.64,2.1h-8.22v4.11h8.22V2.1ZM4.48,8.34c-1.25.31-2.14,1.27-2.38,2.53v21.44c.23,1.51,1.45,2.54,2.95,2.66h30.87c1.6-.11,2.87-1.12,3.06-2.75V10.97c-.18-1.35-1.26-2.53-2.65-2.66l-31.84.03Z"/>
  <path class="cls-1" d="M18.93,21.34c3.16,1.21,5.46,4.4,5.7,7.78.05.78-.06,1.85-1.13,1.74-1.13-.11-.86-1.38-.99-2.12-1.21-7.17-10.96-8.29-13.72-1.75-.46,1.09-.52,2.16-.7,3.31-.39.61-1.17.79-1.68.2s-.08-2.65.16-3.42c.77-2.52,2.85-4.85,5.34-5.74-2.55-2.55-2.05-6.9,1.3-8.47,4.39-2.05,8.82,2.49,6.83,6.83l-1.12,1.63ZM15,14.45c-3.84.46-3.49,6.62.96,6.07,3.62-.45,3.19-6.56-.96-6.07Z"/>
  <path class="cls-1" d="M25.42,14.45l10.5-.02c1.52.17,1.3,2.11-.2,2.1-3.14-.23-6.73.31-9.82,0-1.43-.14-1.75-1.44-.48-2.08Z"/>
  <path class="cls-1" d="M26.98,20.87c.23-.23.7-.31,1.01-.34,1.92-.16,5.82-.18,7.72,0,1.53.15,1.72,1.71.29,2.09-2.63-.2-5.74.3-8.31,0-.92-.1-1.34-1.14-.72-1.77Z"/>
</svg>