<?xml version="1.0" encoding="UTF-8"?>
<svg id="Layer_1" data-name="Layer 1" xmlns="http://www.w3.org/2000/svg" viewBox="0 0 44.01 33.46">
  <defs>
    <style>
      .cls-1 {
        fill: #fff;
      }
    </style>
  </defs>
  <path class="cls-1" d="M22.11,0C11.21.13,2.37,10.17,0,16.76v.32c1.31,5.31,11.71,16.25,22.31,16.38,10.6.13,21.7-13.5,21.7-16.7C44.01,13.12,33.01-.13,22.11,0ZM37.05,16.76c0,8.23-6.7,14.93-14.93,14.93s-14.93-6.7-14.93-14.93S13.88,1.83,22.11,1.83s14.93,6.7,14.93,14.93Z"/>
  <path class="cls-1" d="M33.87,18.95l-7.53-13.03c-1.67-2.9-5.85-2.9-7.52,0l-7.53,13.03c-1.67,2.9.42,6.52,3.76,6.52h15.05c3.34,0,5.43-3.62,3.76-6.52ZM22.19,5.63h.78c.34,0,.62.28.61.63l-.39,13.41c-.02.79-1.19.79-1.22,0l-.39-13.41c0-.34.27-.63.61-.63ZM22.66,23.38c-.6,0-1.08-.48-1.08-1.08s.48-1.08,1.08-1.08,1.08.48,1.08,1.08-.48,1.08-1.08,1.08Z"/>
</svg>