<?xml version="1.0" encoding="UTF-8"?>
<svg id="Layer_1" data-name="Layer 1" xmlns="http://www.w3.org/2000/svg" viewBox="0 0 38.5 43.51">
  <defs>
    <style>
      .cls-1 {
        fill: #fff;
      }
    </style>
  </defs>
  <path class="cls-1" d="M33.07,43.51H12.61c-.26-1.11-.06-4.81-1.01-5.29-1.77-.91-6.53,1.51-8.09-1.02-1.38-2.24,1.68-4.29-1-5.94l.75-1.16-.96-.68C3.96,26.2-.32,27.16.02,25.12c.25-1.49,3.16-4.83,3.88-6.39-1.26-1.93-.16-5.07.55-7.17C11.28-8.48,44.04-.56,37.69,20.74c-1.46,4.92-5.91,7.57-6.35,12.35-.21,2.24-.14,5.05.47,7.2.32,1.14.95,2.09,1.27,3.22ZM29.19,5.68c-.79-.36-1.36-.25-1.92-.5-.37-.17-.66-.86-1.26-1.05-.9-.29-1.48.28-2.1.11-.52-.14-.77-1.01-1.83-1.01s-1.65.98-2.28,1.05c-.58.06-1.06-.41-1.54-.44-1.47-.1-2.13,1.47-2.27,1.5-.28.04-.98-.28-1.47-.3-1.04-.02-2.07.21-2.8,1.04-.61.7-1.44,2.51-2.14,3.23-.4.41-1.05.41-1.62,1.19-.86,1.17-.88,2.43-.03,3.61.32.44,1.3,1,1.34,1.08.53.96-.33,2.1,1.59,3.41,1.64,1.12,2.63.69,4.28-.11-.21,1.79.79,3.83,2.67,4.11.87.13,1.56-.2,2.23-.16,1.3.07,1.98,4.22,2.46,5.3h1.2s.53-2.54.53-2.54c.78.02,1.03.94,1.75,1.17,2.11.68,3.34-1.14,3.82-2.98,3.17.75,4.4-1.17,3.02-4.13,2.09-.41,2.6-3.15,2.22-4.98-.13-.64-.69-1.1-.85-1.66-.24-.8-.19-2.22-.48-2.91-.23-.55-1.17-.87-1.32-1.11-.44-.72-.06-2.06-1.52-2.44-.89-.23-.86-.11-1.67-.48Z"/>
  <path class="cls-1" d="M21.45,16.41c-.85-2.14,1.91-3.24,2.22-4.31.77-2.61-2.78-2.47-2.88.2l-1.87-.02c-.58-5.27,8.03-5.04,7.02.07-.29,1.48-1.6,1.65-2.22,2.63-.71,1.13.03,1.73-2.26,1.43Z"/>
  <rect class="cls-1" x="21.2" y="17.18" width="2.28" height="2.33"/>
</svg>