<?xml version="1.0" encoding="UTF-8"?>
<svg id="Layer_1" data-name="Layer 1" xmlns="http://www.w3.org/2000/svg" viewBox="0 0 41 32">
  <defs>
    <style>
      .cls-1 {
        fill: #fff;
      }
    </style>
  </defs>
  <path class="cls-1" d="M13.35,21.75c-4.99-5.71-1.94-16.13,5.15-16.84,7.75-.78,12.1,8.13,8.28,15.57l7.81,8.89c.74,1.81-.34,3.06-1.98,2.49l-7.83-8.87c-1.26.34-2.22,1.28-3.56,1.49-2.95.46-5.74-.29-7.87-2.73ZM18.16,7.9c-8.23,1.59-4.57,17.62,3.99,13.14,6.24-3.27,3.54-14.6-3.99-13.14Z"/>
  <path class="cls-1" d="M.81,0l39.64.12c.68.23.55,2.7.26,3.13l-.7.33H.95l-.7-.33C-.08,2.77-.23-.04.81,0Z"/>
  <path class="cls-1" d="M29.06,29.27H.76c-.94,0-1.1-3.47,0-3.6l24.65-.02c.32-.05.52.05.79.23.77.51,2.09,2.63,2.85,3.4Z"/>
  <path class="cls-1" d="M40.4,8.75c.68.22.89,3.56-.24,3.56l-11.38.06-1.3-3.62h12.92Z"/>
  <path class="cls-1" d="M28.69,17.34l11.47.03c1.1.27,1.2,3.36-.14,3.57-3.44.52-7.89-.41-11.44-.02-1.76-.65.19-2.15.11-3.58Z"/>
  <path class="cls-1" d="M11.71,20.93H.57c-.64,0-.59-2.65-.4-3.16l.49-.35c2.84.12,6.43-.5,9.19-.11.22.03.44-.01.58.23l1.28,3.39Z"/>
  <path class="cls-1" d="M11.71,8.75l-1.36,3.47-9.69.03-.49-.35c-.19-.51-.24-3.16.4-3.16h11.14Z"/>
  <path class="cls-1" d="M32.61,25.66h7.79c.6,0,.69,2.82.3,3.28-.56.65-4.37.28-5.33.22l-2.76-3.49Z"/>
</svg>