<?xml version="1.0" encoding="UTF-8"?>
<svg id="Layer_1" data-name="Layer 1" xmlns="http://www.w3.org/2000/svg" viewBox="0 0 41.83 42.08">
  <defs>
    <style>
      .cls-1 {
        fill: #fff;
      }
    </style>
  </defs>
  <path class="cls-1" d="M41.83,10.04v13.31c-.77,1.58-2.13,2.85-3.33,4.14-4.49,4.79-9.33,9.3-13.91,14-1.22.74-2.57.79-3.79.07-.47-.28-3.09-2.86-3.22-3.27-.2-.64-.16-1.52.36-1.99,1.16-1.05,2.25-.21,3.16.63.51.47,1.13,1.75,1.8,1.45l15.34-15.65.18-11.86c-2.86-.71-2.25-4.12.9-3.45,1.28.27,2.02,1.53,2.51,2.62Z"/>
  <path class="cls-1" d="M19.25.18c3.92.24,8.57-.47,12.4-.04,1.53.17,2.99,1.41,3.15,2.97.44,4.09-.32,8.95-.01,13.12-.16,1.02-1.84,2.7-2.6,3.52-4.8,5.23-10.32,10.05-15.07,15.37-1.27.91-3.03.91-4.3,0L1,22.99c-1.29-1.39-1.32-3.38-.18-4.86L17.68.95l1.58-.76ZM31.38,3.56h-11.45L3.63,20.41c-.1.56,6.16,6.02,6.65,7.18l4.61,4.58,11.17-11.34c1.24-1.41,2.77-2.67,4.07-4.04.43-.45.72-1.06,1.25-1.45V3.56Z"/>
  <path class="cls-1" d="M23.75,12.77c1.78-.54,3.16,1.36,1.93,2.83l-8.92,9.09c-1.19.75-2.72.13-2.84-1.29-.11-1.26,1.71-2.35,2.4-3.1,1.99-2.16,3.93-4.45,6.12-6.49.18-.17,1.18-1,1.3-1.04Z"/>
  <path class="cls-1" d="M20.7,8.99c1.63-.27,2.59,1.93,1.49,3.12l-9.02,9.17c-1.47.93-3.05-.54-2.66-2.11l9.15-9.58c.27-.21.71-.54,1.04-.59Z"/>
  <path class="cls-1" d="M25.56,7.38c3.02-.69,2.95,3.5.51,3.39-1.91-.08-2.22-3-.51-3.39Z"/>
</svg>