<?xml version="1.0" encoding="UTF-8"?>
<svg id="Layer_1" data-name="Layer 1" xmlns="http://www.w3.org/2000/svg" viewBox="0 0 39.87 39.97">
  <defs>
    <style>
      .cls-1 {
        fill: #fff;
      }
    </style>
  </defs>
  <path class="cls-1" d="M16.91,0c2.6,1.51,2.51,4.34,2.59,7.04h17.96c.77,0,2.08,1.88,2.41,2.59v27.41c-.77,1.53-1.39,2.31-3.18,2.56-3.38.47-16.26.52-19.57,0-3.52-.54-3.24-4.23-3.54-7.01H2.65c-.94,0-2.63-2.42-2.41-3.52.56-8.11-.75-17.21-.01-25.2C.43,1.75.88.9,2.84,0h14.07ZM20.25,30.37l-3.41-27.14c-.1-.34-.34-.66-.66-.82-.58-.29-11.29-.38-12.4-.17-.61.11-1.03.38-1.23.99l-.08,25.12.93,2.03h16.85ZM18.39,37.41h18.33c.66,0,.89-1.47.95-2.01.53-5.34.6-18.85-.01-24.1-.1-.83-.28-1.46-.93-2.03h-16.3l-.48.83,2.54,21.22-4.09,6.09ZM18.76,32.6h-2.96s.37,2.96.37,2.96c.58-.07,2.75-2.84,2.59-2.96Z"/>
  <path class="cls-1" d="M30.63,17.39c.18.19,4.25-.32,4.45.61.33,1.5-.95,1.46-1.45,2.24-.93,1.45-1.43,3.39-2.62,4.77.04.44,5.28,2.95,1.71,4.2l-3.39-2.41c-1.04.32-2.68,2.59-3.65,2.41-3.1-.58,1.73-3.78,1.94-4.51-1.24-1.06-1.63-3.23-2.38-4.31-.55-.79-1.9-.85-1.61-1.99.44-1.72,4.06-.67,4.39-1.01.14-.15-.13-2.27,1.31-2.21,1.48,0,1.18,2.08,1.31,2.21ZM30.98,19.63h-3.33c-.02,1.27.75,2.49,1.67,3.32.91-.84,1.69-2.06,1.67-3.32Z"/>
  <path class="cls-1" d="M13.3,21.76c-.49-.6-.62-4.3-1.05-4.37l-3.08.06c.3,1.42-1.96,7.17-2.94,3.77-.18-.61,1.77-10.69,2.17-11.76.73-1.94,4.09-1.85,4.71-.29,1.23,3.06,1.16,8.43,2.31,11.75-.12,1.15-1.47,1.65-2.13.84ZM11.73,15.18l-.93-4.44-1.3,4.44h2.22Z"/>
</svg>