<?xml version="1.0" encoding="UTF-8"?>
<svg id="Layer_1" data-name="Layer 1" xmlns="http://www.w3.org/2000/svg" viewBox="0 0 36 38.5">
  <defs>
    <style>
      .cls-1 {
        fill: #fff;
      }
    </style>
  </defs>
  <path class="cls-1" d="M4,16.5l.13-1.1,1.34.99L8.62.16.6,0C.45,5.08-.05,10.16,0,15.27l2.41-1.14,1.58,2.37Z"/>
  <path class="cls-1" d="M4.13,21.4l-.13,1.1-1.58-2.37L0,21.27c0,.61-.01,1.21.01,1.81.21,5.17,1,10.36,2.31,15.41l3.13-16.1-1.34-.99Z"/>
  <path class="cls-1" d="M32,16.5l-.13-1.1-1.34.99L27.38.16,35.4,0c.15,5.08.65,10.16.6,15.27l-2.41-1.14-1.58,2.37Z"/>
  <path class="cls-1" d="M31.87,21.4l.13,1.1,1.58-2.37,2.41,1.14c0,.61.01,1.21-.01,1.81-.21,5.17-1,10.36-2.31,15.41l-3.13-16.1,1.34-.99Z"/>
</svg>