<?xml version="1.0" encoding="UTF-8"?>
<svg id="Layer_1" data-name="Layer 1" xmlns="http://www.w3.org/2000/svg" viewBox="0 0 40.04 40">
  <defs>
    <style>
      .cls-1 {
        fill: #fff;
      }
    </style>
  </defs>
  <path class="cls-1" d="M18.41.06c15.99-1.23,26.93,15.9,18.96,29.92-7.22,12.72-25.6,13.48-33.86,1.39C-5.16,18.67,3.14,1.24,18.41.06ZM19.95,4.95c-11.96.06-19,13.34-12.51,23.37,5.91,9.12,19.62,8.9,25.34-.31,6.22-10.02-1.05-23.12-12.83-23.06Z"/>
  <path class="cls-1" d="M13.89,11.5c2.23-.22,4.38,3.44,6.06,4.65,1.69-.97,3.85-4.67,5.89-4.69,1.42,0,2.71,1.27,2.7,2.7-.01,1.94-3.59,4.24-4.69,5.76-.07.38,3.9,3.75,4.37,4.82,1.04,2.36-1.28,4.59-3.61,3.43-1.02-.51-4.1-4.27-4.54-4.34-2.02,1.29-5.5,7.19-8.07,3.55-2.01-2.85,2.76-5.35,4.16-7.33.1-.54-4.39-3.8-4.65-5.59-.21-1.44.93-2.82,2.36-2.96Z"/>
</svg>