<?xml version="1.0" encoding="UTF-8"?>
<svg id="Layer_1" data-name="Layer 1" xmlns="http://www.w3.org/2000/svg" viewBox="0 0 44.3 41.31">
  <defs>
    <style>
      .cls-1 {
        fill: #fff;
      }
    </style>
  </defs>
  <path class="cls-1" d="M33.28.02c.9-.09,1.77.19,2.48.75,2.67,2.08,5.12,5.55,7.77,7.77,1,1.28,1.01,2.82.1,4.15l-23.6,23.6c-1,.91-2.26,1.22-3.55.75-.55-.2-.87-.64-1.55-.44l-3.3,3.26-.87-.87c-1.1.9-1.41,2.1-2.99,2.22s-4.56.14-6.18,0c-1.34-.11-1.95-1.25-1.38-2.45l5.1-5.23-.86-.95,3.16-3.22c.34-.69-.13-.91-.34-1.45-.53-1.32-.33-2.45.56-3.55L31.42.86c.52-.44,1.18-.77,1.86-.84ZM33.28,1.75c-.23.04-.48.15-.65.31L13.32,21.28l9.62,9.6,19.25-19.15c.53-.54.54-1.51.05-2.08l-7.63-7.62c-.39-.28-.86-.34-1.33-.27ZM12.12,22.48c-.87,1.01-2.12,1.92-2.95,2.94-1.16,1.43-.03,1.75.17,2.92.36,2.13-1.31,2.85-2.48,4.24l4.77,4.86c1.31-1.12,2.12-2.87,4.13-2.58.65.09,1.08.59,1.67.65.66.07.96-.08,1.45-.48.98-.79,1.88-2.01,2.84-2.86l-9.6-9.69ZM1.84,39.47h6.13l1.59-1.69-3.04-3.04-4.68,4.73Z"/>
</svg>