<?xml version="1.0" encoding="UTF-8"?>
<svg id="Layer_1" data-name="Layer 1" xmlns="http://www.w3.org/2000/svg" viewBox="0 0 40.64 40.55">
  <defs>
    <style>
      .cls-1 {
        fill: #fff;
      }
    </style>
  </defs>
  <path class="cls-1" d="M40.64,1.82v2.66c-1.32,3.61-4.65,9.29-8.26,10.91-2.18.98-4.96.99-6.72,3.15-3.14,3.88,4.14,4.98,2.16,9l-13,13h-1.9L.61,28.38c-.74-.95-.81-2.15-.16-3.16l12.57-12.48c3.88-1.6,4.7,3.55,7.5,2.96,3.49-.73,3.79-6.46,5.53-8.91,2.3-3.24,11.44-10.05,14.58-4.97ZM35.52,3.12c-2.57-.12-2.73,3.79-.37,4.03,2.9.3,2.84-3.92.37-4.03ZM13.2,15.16c-.61.17-1.25,1.24-1.78,1.65l12.33,12.33c.85-.89,2.25-1.62,1.52-3.02l-10.61-10.66c-.43-.4-.91-.46-1.46-.31ZM9.78,18.98c-.79.17-6.9,6.02-7.51,6.93-.26.38-.46.55-.32,1.08.4,1.52,9.79,9.15,11.14,11.3.31.31.64.43,1.08.32.61-.16,7.23-7.02,7.41-7.83.1-.46.15-.91.03-1.38-2.19-2.58-4.46,3.05-6.63,1.31-1.98-2.44,2.56-3.68,1.7-6.24-.95-2.85-5.06,3.02-6.63,1.31-2.37-1.9,3.78-4.77,1.12-6.83-.46-.12-.92-.07-1.38.03Z"/>
</svg>