<?xml version="1.0" encoding="UTF-8"?>
<svg id="Layer_2" data-name="Layer 2" xmlns="http://www.w3.org/2000/svg" viewBox="0 0 85 85">
  <defs>
    <style>
      .cls-1 {
        fill: #1793d0;
      }

      .cls-2 {
        fill: #231f20;
      }

      .cls-3 {
        fill: #fff;
      }

      .cls-4 {
        fill: none;
      }

      .cls-5 {
        fill: #fde35a;
        stroke: #231f20;
        stroke-miterlimit: 10;
      }
    </style>
  </defs>
  <g id="Layer_5" data-name="Layer 5">
    <g>
      <g>
        <circle class="cls-4" cx="42.5" cy="42.5" r="42.5"/>
        <polygon class="cls-1" points="38.42 25.83 37.75 32.07 33.71 32.54 37.36 33.36 44.82 33.36 48.37 32.66 44.61 32.3 44.1 25.36 38.42 25.83"/>
        <rect class="cls-1" x="26.64" y="5.58" width="29.62" height="21.89"/>
        <rect class="cls-3" x="29.76" y="8.14" width="23.61" height="16.42"/>
        <polygon class="cls-1" points="59.28 55.08 58.6 61.32 54.56 61.79 58.21 62.61 65.67 62.61 69.22 61.91 65.46 61.55 64.95 54.61 59.28 55.08"/>
        <rect class="cls-1" x="47.49" y="34.83" width="29.62" height="21.89"/>
        <rect class="cls-3" x="50.61" y="37.39" width="23.61" height="16.42"/>
        <polygon class="cls-1" points="17.57 55.08 16.89 61.32 12.86 61.79 16.51 62.61 23.97 62.61 27.52 61.91 23.76 61.55 23.25 54.61 17.57 55.08"/>
        <rect class="cls-1" x="5.79" y="34.83" width="29.62" height="21.89"/>
        <rect class="cls-3" x="8.91" y="37.39" width="23.61" height="16.42"/>
        <path class="cls-1" d="M61.08,70h-13.94v-2h13.57c.31-.21.34-.87.28-2.17-.01-.34-.03-.68-.03-1.01h2c0,.31.01.62.03.93.07,1.51.15,3.57-1.76,4.21l-.15.05Z"/>
        <g>
          <path class="cls-1" d="M41.82,75.31c-3.48,0-6.31-2.83-6.31-6.31s2.83-6.31,6.31-6.31,6.31,2.83,6.31,6.31-2.83,6.31-6.31,6.31ZM41.82,64.69c-2.38,0-4.31,1.93-4.31,4.31s1.93,4.31,4.31,4.31,4.31-1.93,4.31-4.31-1.93-4.31-4.31-4.31Z"/>
          <path class="cls-1" d="M35.92,70h-13.94l-.15-.05c-1.91-.63-1.82-2.7-1.76-4.21.01-.31.03-.62.03-.92h2c0,.32-.01.66-.03,1-.06,1.3-.03,1.96.28,2.17h13.57v2Z"/>
          <rect class="cls-1" x="40.5" y="35.63" width="2" height="12.78"/>
          <rect class="cls-1" x="40.5" y="50.71" width="2" height="2.02"/>
          <rect class="cls-1" x="40.5" y="55" width="2" height="2.02"/>
          <rect class="cls-1" x="40.5" y="59.24" width="2" height="2.02"/>
          <rect class="cls-1" x="40.5" y="67.81" width="2" height="2.02"/>
        </g>
      </g>
      <g>
        <rect class="cls-5" x="29.14" y="62.24" width="22.72" height="16.3"/>
        <g>
          <path class="cls-2" d="M31.63,64.36h2.32c.45,0,.8.03,1.03.1.24.07.48.25.73.54.24.29.44.69.58,1.2.14.51.21,1.07.21,1.71,0,1.48-.35,2.52-1.04,3.13l1.36,5.18h-1.77l-.99-4.69h-.81v4.69h-1.62v-11.85ZM33.26,66.28v3.33h.71c.63,0,.95-.57.95-1.71,0-.39-.05-.72-.14-.97-.09-.25-.2-.42-.33-.51-.13-.09-.31-.13-.55-.13h-.65Z"/>
          <path class="cls-2" d="M37.67,64.36h1.62v11.85h-1.62v-11.85Z"/>
          <path class="cls-2" d="M39.85,64.36h4.6v2.22h-1.51v9.63h-1.62v-9.63h-1.47v-2.22Z"/>
          <path class="cls-2" d="M46.17,64.36h1.63l2.11,11.85h-1.66l-.37-2.45h-2.08l-.36,2.45h-1.49l2.22-11.85ZM47.58,71.73l-.75-4.86-.71,4.86h1.46Z"/>
        </g>
      </g>
    </g>
  </g>
</svg>