<?xml version="1.0" encoding="UTF-8"?>
<svg id="Layer_2" data-name="Layer 2" xmlns="http://www.w3.org/2000/svg" viewBox="0 0 82.15 62.45">
  <defs>
    <style>
      .cls-1, .cls-2 {
        stroke-width: 0px;
      }

      .cls-1, .cls-3 {
        fill: #f2bb1e;
      }

      .cls-2 {
        fill: #174477;
      }

      .cls-3 {
        stroke: #174477;
        stroke-miterlimit: 10;
        stroke-width: 3px;
      }
    </style>
  </defs>
  <g id="Layer_5" data-name="Layer 5">
    <g>
      <path class="cls-2" d="m0,31.28C4.42,18.99,20.92.24,41.27,0c20.34-.24,40.88,24.48,40.88,31.28,0,5.97-20.72,31.41-40.51,31.17C21.85,62.21,2.45,41.79,0,31.88"/>
      <circle class="cls-3" cx="41.07" cy="31.28" r="29.37"/>
      <path class="cls-1" d="m42.21,36.71l.73-25.04c.02-.64-.49-1.17-1.13-1.17h-1.45c-.64,0-1.15.53-1.13,1.17l.73,25.04c.04,1.47,2.23,1.47,2.27,0Z"/>
      <path class="cls-2" d="m34.14,52.54c.13-1.06.26-2.13.39-3.19.27-2.17.55-4.35.83-6.52.09-.75.18-1.49.28-2.24.08-.59.09-.59-.48-.72-3.34-.79-6.4-2.19-9.04-4.42-2.6-2.2-4.45-4.88-5.11-8.27-.66-3.41.07-6.55,1.94-9.43,1.91-2.94,4.59-4.98,7.74-6.44,3.65-1.69,7.5-2.35,11.51-2.18,4.15.17,8.03,1.25,11.57,3.45,2.87,1.79,5.2,4.12,6.52,7.28,1.88,4.5,1.25,8.74-1.55,12.66-2.28,3.19-5.44,5.21-9.07,6.56-2.02.75-4.11,1.18-6.25,1.38-.26.02-.42.12-.57.33-2.76,3.77-5.52,7.54-8.28,11.31-.12.16-.24.32-.36.48-.02-.01-.05-.03-.07-.04Zm4.33-34.37c-.3.12-.56.22-.82.34-2.05.98-3.48,2.5-3.66,4.84-.16,2.01-.12,4.04-.17,6.06,0,.04.02.07.04.12h5.19v-5.21h-2.52c-.02-2.12,1.03-3.39,2.97-3.99-.36-.75-.69-1.45-1.04-2.17Zm6.88,6.16c0-2.12,1.04-3.39,2.98-3.99-.36-.75-.69-1.44-1.01-2.12-.07,0-.1-.01-.12,0-2.54.97-4.35,2.73-4.47,5.8-.07,1.77-.06,3.55-.08,5.33,0,.06.02.12.03.21h5.19v-5.22h-2.51Z"/>
    </g>
  </g>
</svg>