<?xml version="1.0" encoding="UTF-8"?>
<svg id="Layer_2" data-name="Layer 2" xmlns="http://www.w3.org/2000/svg" viewBox="0 0 82.15 62.45">
  <defs>
    <style>
      .cls-1, .cls-2 {
        stroke-width: 0px;
      }

      .cls-1, .cls-3 {
        fill: #f2bb1e;
      }

      .cls-2 {
        fill: #174477;
      }

      .cls-3 {
        stroke: #174477;
        stroke-miterlimit: 10;
        stroke-width: 3px;
      }
    </style>
  </defs>
  <g id="Layer_5" data-name="Layer 5">
    <g>
      <path class="cls-2" d="m0,31.28C4.42,18.99,20.92.24,41.27,0c20.34-.24,40.88,24.48,40.88,31.28,0,5.97-20.72,31.41-40.51,31.17C21.85,62.21,2.45,41.79,0,31.88"/>
      <circle class="cls-3" cx="41.27" cy="31.28" r="29.37"/>
      <path class="cls-2" d="m35.13,11.04l-14.05,24.33c-3.12,5.41.78,12.16,7.02,12.16h28.09c6.24,0,10.14-6.76,7.02-12.16l-14.05-24.33c-3.12-5.41-10.92-5.41-14.04,0Z"/>
      <path class="cls-1" d="m43.28,36.71l.73-25.04c.02-.64-.49-1.17-1.13-1.17h-1.45c-.64,0-1.15.53-1.13,1.17l.73,25.04c.04,1.47,2.23,1.47,2.27,0Z"/>
      <circle class="cls-1" cx="42.3" cy="41.63" r="2.01"/>
    </g>
  </g>
</svg>