<?xml version="1.0" encoding="UTF-8"?>
<svg id="Layer_2" data-name="Layer 2" xmlns="http://www.w3.org/2000/svg" viewBox="0 0 85 85">
  <defs>
    <style>
      .cls-1 {
        fill: #1793d0;
      }

      .cls-2 {
        fill: #fff;
      }

      .cls-3 {
        fill: none;
      }
    </style>
  </defs>
  <g id="Layer_1-2" data-name="Layer 1">
    <g>
      <circle class="cls-3" cx="42.5" cy="42.5" r="42.5"/>
      <polygon class="cls-1" points="38.42 25.83 37.75 32.07 33.71 32.54 37.36 33.36 44.82 33.36 48.37 32.66 44.61 32.3 44.1 25.36 38.42 25.83"/>
      <rect class="cls-1" x="26.64" y="5.58" width="29.62" height="21.89"/>
      <rect class="cls-2" x="29.76" y="8.14" width="23.61" height="16.42"/>
      <polygon class="cls-1" points="59.28 55.08 58.6 61.32 54.56 61.79 58.21 62.61 65.67 62.61 69.22 61.91 65.46 61.55 64.95 54.61 59.28 55.08"/>
      <rect class="cls-1" x="47.49" y="34.83" width="29.62" height="21.89"/>
      <rect class="cls-2" x="50.61" y="37.39" width="23.61" height="16.42"/>
      <polygon class="cls-1" points="17.57 55.08 16.89 61.32 12.86 61.79 16.51 62.61 23.97 62.61 27.52 61.91 23.76 61.55 23.25 54.61 17.57 55.08"/>
      <rect class="cls-1" x="5.79" y="34.83" width="29.62" height="21.89"/>
      <rect class="cls-2" x="8.91" y="37.39" width="23.61" height="16.42"/>
      <path class="cls-1" d="M61.08,70h-13.94v-2h13.57c.31-.21.34-.87.28-2.17-.01-.34-.03-.68-.03-1.01h2c0,.31.01.62.03.93.07,1.51.15,3.57-1.76,4.21l-.15.05Z"/>
      <g>
        <path class="cls-1" d="M41.82,75.31c-3.48,0-6.31-2.83-6.31-6.31s2.83-6.31,6.31-6.31,6.31,2.83,6.31,6.31-2.83,6.31-6.31,6.31ZM41.82,64.69c-2.38,0-4.31,1.93-4.31,4.31s1.93,4.31,4.31,4.31,4.31-1.93,4.31-4.31-1.93-4.31-4.31-4.31Z"/>
        <path class="cls-1" d="M35.92,70h-13.94l-.15-.05c-1.91-.63-1.82-2.7-1.76-4.21.01-.31.03-.62.03-.92h2c0,.32-.01.66-.03,1-.06,1.3-.03,1.96.28,2.17h13.57v2Z"/>
        <rect class="cls-1" x="40.5" y="35.63" width="2" height="12.78"/>
        <rect class="cls-1" x="40.5" y="50.71" width="2" height="2.02"/>
        <rect class="cls-1" x="40.5" y="55" width="2" height="2.02"/>
        <rect class="cls-1" x="40.5" y="59.24" width="2" height="2.02"/>
        <rect class="cls-1" x="40.5" y="67.81" width="2" height="2.02"/>
      </g>
    </g>
  </g>
</svg>