<?xml version="1.0" encoding="UTF-8"?>
<svg id="Layer_2" data-name="Layer 2" xmlns="http://www.w3.org/2000/svg" viewBox="0 0 85 85">
  <defs>
    <style>
      .cls-1 {
        fill: #f39320;
        fill-rule: evenodd;
      }

      .cls-1, .cls-2 {
        stroke-width: 0px;
      }

      .cls-2 {
        fill: none;
      }
    </style>
  </defs>
  <g id="Layer_1-2" data-name="Layer 1">
    <g id="e60553dd-aca4-4438-94e2-75060d313ccb">
      <g id="ada478d8-a5b2-4817-9f49-8cff225c3904">
        <circle class="cls-2" cx="42.5" cy="42.5" r="42.5"/>
        <path class="cls-1" d="m60.54,39.9c0-2.76-2.24-5-5-5s-5,2.24-5,5,2.24,5,5,5,5-2.24,5-5Zm-13.07,0c0-2.76-2.24-5-5-5s-5,2.24-5,5,2.24,5,5,5,5-2.24,5-5Zm-13.08,0c0-2.76-2.24-5-5-5s-5,2.24-5,5,2.24,5,5,5,5-2.24,5-5Zm-11,32.73v-15.1c-6.93-4.15-11.39-10.53-11.39-17.73,0-12.57,13.68-22.8,30.5-22.8s30.5,10.23,30.5,22.8-13.68,22.8-30.5,22.8c-2.97.04-5.93-.3-8.82-1l-10.29,11.03Z"/>
      </g>
    </g>
  </g>
</svg>