<?xml version="1.0" encoding="UTF-8"?>
<svg id="Layer_2" data-name="Layer 2" xmlns="http://www.w3.org/2000/svg" viewBox="0 0 78.02 59.79">
  <defs>
    <style>
      .cls-1 {
        fill: #76927a;
        stroke-width: 0px;
      }
    </style>
  </defs>
  <g id="Layer_5" data-name="Layer 5">
    <g>
      <path class="cls-1" d="m44.47,32.7c-.51-2-1.04-3.78-1.36-5.59-.07-.38.55-1.08,1.02-1.33,1.74-.94,2.06-2.24.41-3.35-1.28-.86-3.01-1.68-4.45-1.55-2.3.22-5.2-.32-6.44,2.73-.11.28-.78.37-1.2.49-9.98,2.71-19.97,5.41-30.35,8.23C1.42,29.56.64,26.57,0,23.56c-.06-.29.75-1.04,1.25-1.14,9.78-2.02,19.56-3.99,29.36-5.9.69-.14,1.54.1,2.21.39,1.39.6,5.87-1.07,7.35-2.84,2.65-3.18,2.08-8.06-1.31-10.45-1.42-1-3.02-1.76-4.54-2.63.01-.22.02-.44.03-.66,1.17-.11,2.39-.47,3.52-.29,3.59.57,6.61,2.26,8.9,5.13,2.85,3.57,4.77,7.59,5.4,12.11.16,1.13-.2,2.49-.74,3.52-.73,1.38-.32,2.53.85,2.62,1.75.14,1.8,1.19,2.06,2.34,1.16,5.24,1.53,4-3.2,5.33-2.07.58-4.19,1.01-6.66,1.59Z"/>
      <path class="cls-1" d="m34.11,44.92c-.55-2.26-.9-4.25-1.57-6.13-.25-.7-1.17-1.49-1.91-1.64-2.6-.54-5.25-.82-8.46-1.29,3.25-2.56,6.04-4.75,9.06-7.13.74.93,1.42,1.77,2.16,2.7-.68.65-1.3,1.23-2.29,2.18,5.89-.63,4.27,4.32,5.84,6.96,2.77-.63,5.52-1.25,8.58-1.95.86,3.4,1.72,6.74,2.72,10.71.65-1.15,1.08-1.85,1.45-2.58,1.39-2.72,2.82-5.44,4.13-8.2.83-1.74,2.11-2.27,3.84-1.64,2.03.73,4.02,1.56,6.39,2.49-1.45-3.83-2.81-7.46-4.26-11.28,2.36-1.15,4.59-2.24,7.39-3.61-2.3-.5-4.01-.88-5.88-1.29.16-1.2.31-2.28.49-3.58,5.48,1,10.79,1.96,16.1,2.93.04.15.07.31.11.46-3.49,1.71-6.99,3.43-10.48,5.14q-3.39,1.66-2.06,5.15c1.76,4.64,3.53,9.27,5.44,14.29-4.84-2.61-9.26-4.99-13.86-7.47-3.39,6.6-6.58,12.82-10.07,19.62-1.44-5.93-2.75-11.3-4.1-16.83-2.92.65-5.72,1.28-8.77,1.96Z"/>
    </g>
  </g>
</svg>