<?xml version="1.0" encoding="UTF-8"?>
<svg id="Layer_2" data-name="Layer 2" xmlns="http://www.w3.org/2000/svg" viewBox="0 0 85 85">
  <defs>
    <style>
      .cls-1 {
        letter-spacing: -.03em;
      }

      .cls-2 {
        fill: none;
      }

      .cls-2, .cls-3, .cls-4, .cls-5 {
        stroke-width: 0px;
      }

      .cls-3 {
        fill: #fff;
      }

      .cls-6 {
        font-family: Tahoma, Tahoma;
        font-size: 8px;
      }

      .cls-6, .cls-4, .cls-5 {
        fill: #a45ea5;
      }

      .cls-7 {
        letter-spacing: 0em;
      }

      .cls-4 {
        fill-rule: evenodd;
      }
    </style>
  </defs>
  <g id="Layer_1-2" data-name="Layer 1">
    <g>
      <g id="f126a246-f7bd-45b1-8881-56b6439ec950">
        <g id="bfaa9405-6241-455c-a2b1-b1539a4c8422">
          <circle class="cls-2" cx="42.5" cy="42.5" r="42.5"/>
          <path class="cls-4" d="m36.59,31.23c-.02-3.24,2.59-5.87,5.83-5.89.02,0,.05,0,.07,0,3.25.02,5.87,2.64,5.89,5.89.02,3.24-2.58,5.88-5.82,5.9-.02,0-.05,0-.07,0-3.25-.01-5.89-2.65-5.9-5.9Zm21.84-3.09c-1.55-7.34-7.15-13.14-15.94-13.14s-14.3,5.8-16,13.14c-3.09,14.59,7.64,30.24,16,41.74,8.31-11.5,19.13-27.25,15.94-41.74Z"/>
        </g>
      </g>
      <g>
        <rect class="cls-3" x="42.83" y="58.07" width="38.43" height="11.81"/>
        <g>
          <polygon class="cls-5" points="46.09 59.27 43.9 59.27 47.04 63.73 49.23 63.73 46.09 59.27"/>
          <polygon class="cls-5" points="52.37 59.27 50.18 59.27 53.32 63.73 55.51 63.73 52.37 59.27"/>
          <polygon class="cls-5" points="53.32 63.73 55.51 63.73 52.37 68.18 50.18 68.18 53.32 63.73"/>
          <polygon class="cls-5" points="50.06 63.73 52.24 63.73 49.1 68.18 46.91 68.18 50.06 63.73"/>
          <text class="cls-6" transform="translate(57.52 66.43)"><tspan class="cls-1" x="0" y="0">K</tspan><tspan x="4.48" y="0">est</tspan><tspan class="cls-7" x="14.94" y="0">r</tspan><tspan x="17.78" y="0">el</tspan></text>
        </g>
      </g>
    </g>
  </g>
</svg>