<?xml version="1.0" encoding="UTF-8"?>
<svg id="Layer_2" data-name="Layer 2" xmlns="http://www.w3.org/2000/svg" viewBox="0 0 84.54 84.54">
  <defs>
    <style>
      .cls-1 {
        letter-spacing: -.03em;
      }

      .cls-2 {
        fill: none;
      }

      .cls-2, .cls-3, .cls-4 {
        stroke-width: 0px;
      }

      .cls-3 {
        fill: #fff;
      }

      .cls-5 {
        font-family: Tahoma, Tahoma;
        font-size: 8px;
      }

      .cls-5, .cls-4 {
        fill: #a45ea5;
      }

      .cls-6 {
        letter-spacing: 0em;
      }
    </style>
  </defs>
  <g id="Layer_1-2" data-name="Layer 1">
    <g>
      <circle class="cls-2" cx="42.27" cy="42.27" r="42.27"/>
      <g>
        <path class="cls-4" d="m57.49,8.42c9.88,3.4,16.43,12.9,15.87,23.3-.32,5.95-2.54,11.15-6.87,15.31-6.74,6.47-14.66,8.47-23.64,5.79-1.76-.53-3.39-1.51-5.08-2.28-.36-.17-.69-.45-1.06.07-2.14,2.98-4.31,5.95-6.47,8.92-2.02,2.77-4,5.56-6.08,8.29-2.88,3.79-8.6,3.97-12.03.82-3.76-3.45-2.91-9.84.61-12.38,5.24-3.79,10.45-7.63,15.67-11.45.59-.44,1.58-.78,1.69-1.31.12-.58-.54-1.34-.89-2.01-4.98-9.66-2.98-21.03,5.08-28.32,4.37-3.95,9.57-6,15.52-6,2.62,0,5.16.4,7.66,1.26Zm-27.88,22.2c.02,11.17,9.14,20.42,20.47,20.29,11.76-.14,20.18-9.41,20.23-20.27.05-11.99-9.79-20.53-20.22-20.44-11.49.02-20.5,9.03-20.48,20.43Z"/>
        <path class="cls-4" d="m49.99,40.34c-3.81,0-7.62.06-11.43-.02-2.38-.05-3.61-2.13-2.59-4.29.5-1.06,1.15-2.06,1.74-3.08,3.21-5.54,6.42-11.09,9.67-16.62.31-.53.82-1.06,1.37-1.33,1.54-.75,2.95-.18,3.87,1.41,1.23,2.14,2.44,4.28,3.68,6.41,2.49,4.29,4.99,8.57,7.5,12.84,1.26,2.15-.27,4.73-2.54,4.68-3.75-.08-7.51-.02-11.27-.02,0,0,0,0,0,0Zm.73-19.77c-.59-.07-1.21-.05-1.79.05-.95.17-1.37.8-1.23,1.79.41,2.84.85,5.68,1.27,8.52.03.19.07.38.08.57.02.52.02.95.77.96.7.01.95-.22,1.04-.89.39-2.73.84-5.46,1.26-8.19.05-.32.07-.65.09-.83.04-1.35-.32-1.83-1.5-1.98Zm1.47,15.11c0-1.21-1.1-2.37-2.25-2.4-1.22-.03-2.27,1.12-2.29,2.51-.02,1.15,1.01,2.1,2.26,2.09,1.25,0,2.29-1.01,2.28-2.2Z"/>
      </g>
      <g>
        <rect class="cls-3" x="32.92" y="59.04" width="38.43" height="11.81"/>
        <g>
          <polygon class="cls-4" points="36.18 60.23 33.99 60.23 37.13 64.69 39.32 64.69 36.18 60.23"/>
          <polygon class="cls-4" points="42.46 60.23 40.27 60.23 43.41 64.69 45.6 64.69 42.46 60.23"/>
          <polygon class="cls-4" points="43.41 64.69 45.6 64.69 42.46 69.14 40.27 69.14 43.41 64.69"/>
          <polygon class="cls-4" points="40.14 64.69 42.33 64.69 39.19 69.14 37 69.14 40.14 64.69"/>
          <text class="cls-5" transform="translate(47.61 67.4)"><tspan class="cls-1" x="0" y="0">K</tspan><tspan x="4.48" y="0">est</tspan><tspan class="cls-6" x="14.94" y="0">r</tspan><tspan x="17.78" y="0">el</tspan></text>
        </g>
      </g>
    </g>
  </g>
</svg>