<?xml version="1.0" encoding="UTF-8"?>
<svg id="Layer_2" data-name="Layer 2" xmlns="http://www.w3.org/2000/svg" viewBox="0 0 85.3 85.3">
  <defs>
    <style>
      .cls-1 {
        stroke: #58529e;
        stroke-miterlimit: 10;
        stroke-width: 2px;
      }

      .cls-1, .cls-2 {
        fill: none;
      }

      .cls-3, .cls-4 {
        fill: #58529e;
      }

      .cls-5 {
        fill: #fff;
      }

      .cls-6 {
        letter-spacing: .01em;
      }

      .cls-4 {
        font-family: MyriadConceptRoman-BoldCondensed, 'Myriad Variable Concept';
        font-size: 12px;
        font-variation-settings: 'wght' 700, 'wdth' 70;
        font-weight: 700;
      }
    </style>
  </defs>
  <g id="Layer_1-2" data-name="Layer 1">
    <g>
      <circle class="cls-2" cx="42.65" cy="42.65" r="42.65"/>
      <g>
        <polygon class="cls-3" points="38.02 25.16 37.34 31.39 33.3 31.86 36.96 32.69 44.42 32.69 47.97 31.98 44.21 31.63 43.69 24.68 38.02 25.16"/>
        <rect class="cls-3" x="26.24" y="4.91" width="29.62" height="21.89"/>
        <rect class="cls-5" x="29.36" y="7.46" width="23.61" height="16.42"/>
      </g>
      <g>
        <polygon class="cls-3" points="58.87 54.4 58.19 60.64 54.16 61.11 57.81 61.94 65.27 61.94 68.82 61.23 65.06 60.88 64.54 53.93 58.87 54.4"/>
        <rect class="cls-3" x="47.09" y="34.16" width="29.62" height="21.89"/>
        <rect class="cls-5" x="50.21" y="36.71" width="23.61" height="16.42"/>
      </g>
      <g>
        <polygon class="cls-3" points="17.17 54.4 16.49 60.64 12.45 61.11 16.11 61.94 23.57 61.94 27.12 61.23 23.36 60.88 22.84 53.93 17.17 54.4"/>
        <rect class="cls-3" x="5.39" y="34.16" width="29.62" height="21.89"/>
        <rect class="cls-5" x="8.51" y="36.71" width="23.61" height="16.42"/>
      </g>
      <g>
        <circle class="cls-1" cx="41.42" cy="68.33" r="5.31"/>
        <path class="cls-1" d="m46.73,68.33h13.78c1.47-.48,1.04-2.51,1.04-4.18"/>
        <path class="cls-1" d="m35.52,68.33h-13.78c-1.47-.48-1.04-2.51-1.04-4.18"/>
        <line class="cls-1" x1="41.1" y1="47.73" x2="41.1" y2="34.96"/>
        <line class="cls-1" x1="41.1" y1="52.05" x2="41.1" y2="50.03"/>
        <line class="cls-1" x1="41.1" y1="56.35" x2="41.1" y2="54.33"/>
        <line class="cls-1" x1="41.1" y1="60.59" x2="41.1" y2="58.57"/>
        <line class="cls-1" x1="41.1" y1="69.16" x2="41.1" y2="67.14"/>
      </g>
      <text class="cls-4" transform="translate(30.52 19.78)"><tspan x="0" y="0">H</tspan><tspan class="cls-6" x="6.18" y="0">T</tspan><tspan x="11.06" y="0">TP</tspan></text>
      <text class="cls-4" transform="translate(51.8 48.42)"><tspan x="0" y="0">H</tspan><tspan class="cls-6" x="6.18" y="0">T</tspan><tspan x="11.06" y="0">TP</tspan></text>
      <text class="cls-4" transform="translate(9.57 48.42)"><tspan x="0" y="0">H</tspan><tspan class="cls-6" x="6.18" y="0">T</tspan><tspan x="11.06" y="0">TP</tspan></text>
    </g>
  </g>
</svg>