<?xml version="1.0" encoding="UTF-8"?>
<svg id="Layer_2" data-name="Layer 2" xmlns="http://www.w3.org/2000/svg" viewBox="0 0 85 85">
  <defs>
    <style>
      .cls-1 {
        fill: none;
      }

      .cls-2 {
        fill: #76927a;
      }
    </style>
  </defs>
  <g id="Layer_1-2" data-name="Layer 1">
    <g>
      <circle class="cls-1" cx="42.5" cy="42.5" r="42.5"/>
      <g>
        <path class="cls-2" d="m69.8,65.99c.2.87.4,1.54.51,2.22.09.55.13,1.11.11,1.67-.06,1.22-.99,1.96-2.16,1.62-.93-.27-1.8-.74-2.69-1.14-.25-.11-.48-.27-.81-.47-.1.34-.17.62-.28.88-.3.73-.54,1.5-.95,2.17-.89,1.44-2.35,1.92-3.9,1.22-.9-.41-1.74-1-2.51-1.62-2.11-1.72-3.53-3.99-4.8-6.34-1.29-2.4-2.41-4.89-3.63-7.33-.1-.21-.37-.46-.57-.47-3.39-.17-6.73-.63-10.01-1.56-.09-.02-.18-.03-.39-.05,0,.49,0,.94,0,1.4,0,1.36.01,2.71,0,4.07,0,.41.1.64.54.74.57.13,1.12.33,1.68.49.48.14.83.41.71.95-.12.55-.59.64-1.05.55-.59-.11-1.16-.29-1.76-.44-.24.61.11,1.6-.9,1.59-1.07,0-.61-1.06-.91-1.68-1.27.29-2.54.58-3.81.88-.5.12-.95.18-1.13-.44-.16-.55.1-.9.8-1.07,1.2-.3,2.4-.59,3.6-.86.49-.11.69-.3.67-.84-.04-1.78-.02-3.55-.01-5.33,0-.35-.02-.62-.43-.76-2.38-.87-4.6-2.06-6.65-3.55-.09-.06-.2-.09-.42-.18,0,.34,0,.58,0,.83,0,1.57.01,3.13-.01,4.7,0,.45.15.68.59.78.59.14,1.16.34,1.75.5.53.15.72.51.58,1.02-.14.52-.56.59-1.01.49-.59-.14-1.16-.32-1.76-.49-.34.58.15,1.67-.96,1.61-1.01-.05-.53-1.08-.9-1.65-1.26.29-2.53.55-3.79.88-.57.15-1.01.1-1.15-.51-.14-.61.27-.88.81-1.01,1.18-.28,2.35-.6,3.54-.84.61-.13.83-.39.81-1.03-.05-2.03,0-4.07-.04-6.1,0-.33-.18-.74-.41-.96-4.26-4.07-6.6-9.11-7.53-14.84-.29-1.82-.43-3.66-.53-5.5-.1-1.84-1.12-3.12-2.31-4.34-.13-.13-.52-.1-.75-.02-1.58.56-2.85,1.59-3.94,2.83-.66.75-1.22,1.58-1.85,2.36-.38.47-.77.95-1.21,1.36-.96.89-2.05.66-2.36-.61-.25-1.04-.33-2.19-.18-3.24.44-3.05,1.95-5.56,4.18-7.66.27-.26.47-.68.52-1.06.12-.73.05-1.5.17-2.23.42-2.58,2.05-4.04,4.49-4.73,4.37-1.23,9.72.63,12.15,4.37,1.4,2.15,3.27,3.58,5.65,4.36,2.59.86,5.23,1.57,7.82,2.41,3.66,1.18,6.98,2.97,9.52,5.93,2.48,2.88,4.27,6.18,5.44,9.79.54,1.66,1,3.35,1.41,5.04.31,1.26.85,2.39,1.69,3.34,4.54,5.19,9.95,9.23,16.22,12.11.15.07.3.16.46.18,1.18.12,1.62.88,1.65,1.95.03.91.12,1.84,0,2.73-.31,2.2-1.79,3.13-4,2.51-.93-.26-1.81-.73-2.71-1.12-.25-.11-.49-.25-.89-.45ZM12.4,19.15c-.09,1.5-.06,1.46,1.13,2.38,1.46,1.12,2.94,2.24,4.28,3.5,1.35,1.27,2.28,2.84,2.41,4.77.09,1.42.13,2.85.29,4.26.43,3.72,1.46,7.27,3.4,10.51,3.29,5.49,8.22,8.83,14.24,10.67,3.39,1.04,6.86,1.57,10.41,1.56.59,0,1.11.06,1.34.75,1.39,4.13,3.57,7.86,5.99,11.45.96,1.42,2.18,2.63,3.68,3.51,1.48.87,2.51.54,3.09-1.06.34-.95.49-1.98.71-2.98.15-.7.61-.93,1.23-.56.32.19.6.45.92.64.8.47,1.6.98,2.44,1.36.88.4,1.15.15,1.03-.82-.04-.34-.11-.69-.23-1.02-.38-1.08-.83-2.13-1.17-3.22-.1-.32-.05-.82.15-1.05.15-.17.69-.14.98-.01.79.35,1.52.83,2.3,1.19.91.42,1.82.85,2.77,1.15,1.29.41,1.94.02,2.15-1.31.11-.72-.02-1.48-.01-2.23,0-.52-.28-.7-.73-.86-.7-.25-1.43-.5-2.06-.88-2.45-1.49-4.87-3.03-7.31-4.54-.35-.22-.72-.49-1.11-.54-2.36-.32-4.73-.53-7.08-.87-5.36-.78-10.56-2.15-15.45-4.52-5.76-2.8-10.45-6.77-13.53-12.48-1.26-2.33-2.29-4.76-2.62-7.41-.4-3.19-.13-6.36.75-9.43.35-1.2.12-2.01-.57-2.98-2.19-3.07-6.8-4.76-10.41-3.68-1.62.49-2.83,1.44-3.24,3.17-.12.52-.12,1.07-.17,1.6Zm44.62,29.06c-.48-1.43-1.01-2.8-1.38-4.21-.67-2.61-1.48-5.16-2.69-7.56-2.2-4.37-5.19-8.02-9.83-9.94-2.21-.92-4.53-1.6-6.83-2.27-2.69-.79-5.4-1.53-7.68-3.28-.04-.03-.13,0-.26.01-.22,1.09-.48,2.18-.65,3.28-.44,2.87-.47,5.73.45,8.52,2.5,7.58,7.61,12.83,14.7,16.28,5.74,2.79,11.9,4.02,18.18,4.79.51.06,1.02.09,1.69.15-.2-.24-.27-.34-.35-.41-1.1-1.05-2.2-2.1-3.31-3.13-.18-.16-.43-.26-.67-.33-2.57-.75-5.17-1.41-7.71-2.26-1.61-.54-3.13-1.33-4.68-2.03-.48-.22-.75-.59-.46-1.13.27-.5.69-.49,1.14-.27.08.04.16.09.25.12,2.42.97,4.84,1.96,7.28,2.89.92.35,1.91.53,2.8.78ZM7.65,30.89c1.02-1.24,2-2.5,3.06-3.7,1.07-1.22,2.4-2.11,4.02-2.8-1.16-.86-2.21-1.64-3.25-2.4-2.49,1.8-4.69,6.96-3.82,8.9Z"/>
        <path class="cls-2" d="m17.89,21.68c-1.69-.02-2.84-1.22-2.83-2.97.01-1.75,1.22-2.93,2.98-2.9,1.65.03,2.79,1.23,2.79,2.94,0,1.77-1.18,2.94-2.94,2.93Zm0-1.61c.78.03,1.35-.49,1.38-1.26.03-.77-.5-1.35-1.26-1.38-.79-.02-1.35.49-1.39,1.25-.04.76.51,1.35,1.27,1.38Z"/>
      </g>
    </g>
  </g>
</svg>