<?xml version="1.0" encoding="UTF-8"?>
<svg id="Layer_2" data-name="Layer 2" xmlns="http://www.w3.org/2000/svg" viewBox="0 0 85.3 85.3">
  <defs>
    <style>
      .cls-1 {
        fill: none;
      }

      .cls-1, .cls-2 {
        stroke-width: 0px;
      }

      .cls-2 {
        fill: #c64127;
      }
    </style>
  </defs>
  <g id="Layer_1-2" data-name="Layer 1">
    <g>
      <circle class="cls-1" cx="42.65" cy="42.65" r="42.65"/>
      <g>
        <path class="cls-2" d="m72.07,67.73c-.22.02-.44.05-.66.05-2.97,0-5.94,0-8.91,0-.22,0-.43,0-.69,0v-5.15h5.04V21.52h-5.03v-5.12c.11-.02.24-.06.37-.06,3.19,0,6.38,0,9.57,0,.1,0,.2.03.29.05v51.35Z"/>
        <path class="cls-2" d="m15.58,62.61h5.03v5.12h-10.19V16.36h10.2v5.11h-5.04v41.14Z"/>
        <path class="cls-2" d="m28.35,26.66v5.09h-5.09v-5.09h5.09Z"/>
        <path class="cls-2" d="m38.68,26.65h5.08v5.1h-5.08v-5.1Z"/>
        <path class="cls-2" d="m54.09,31.74v-5.07h5.09v5.07h-5.09Z"/>
        <path class="cls-2" d="m23.24,57.44v-5.08h5.09v5.08h-5.09Z"/>
        <path class="cls-2" d="m43.76,52.35v5.09h-5.09v-5.09h5.09Z"/>
        <path class="cls-2" d="m59.19,52.35v5.09h-5.09v-5.09h5.09Z"/>
        <path class="cls-2" d="m28.34,44.6h-5.09v-5.09h5.09v5.09Z"/>
        <path class="cls-2" d="m43.76,39.56v5.03h-5.13c0-1.21,0-2.39,0-3.57q0-1.56,1.56-1.56c1.14,0,2.28.01,3.43.02.03,0,.07.03.14.07Z"/>
        <path class="cls-2" d="m54.1,39.51h5.09v5.09h-5.09v-5.09Z"/>
      </g>
    </g>
  </g>
</svg>