<?xml version="1.0" encoding="UTF-8"?>
<svg id="Layer_2" data-name="Layer 2" xmlns="http://www.w3.org/2000/svg" viewBox="0 0 85 85">
  <defs>
    <style>
      .cls-1 {
        fill: #f39320;
        fill-rule: evenodd;
      }

      .cls-1, .cls-2 {
        stroke-width: 0px;
      }

      .cls-2 {
        fill: none;
      }
    </style>
  </defs>
  <g id="Layer_1-2" data-name="Layer 1">
    <g id="e50d8a97-29b6-497e-af19-74b880c69e25">
      <g id="e5778fc3-0fa0-4c17-ac18-0565a08768ef">
        <circle class="cls-2" cx="42.5" cy="42.5" r="42.5"/>
        <path class="cls-1" d="m16,59.63V25.37c.03-5.16,4.21-9.34,9.37-9.37h34.26c5.16.03,9.34,4.21,9.37,9.37v34.26c-.03,5.16-4.21,9.34-9.37,9.37H25.37c-5.16-.03-9.34-4.21-9.37-9.37Zm41.51-.3v-.33c0-5.72-4.63-10.35-10.35-10.35,0,0-.01,0-.02,0h-9.38c-5.72-.01-10.36,4.61-10.37,10.33,0,0,0,.01,0,.02v.31l30.12.02Zm-7.76-23.18c0-4-3.26-7.25-7.26-7.24-4,0-7.25,3.26-7.24,7.26,0,4,3.25,7.24,7.25,7.24,3.99.02,7.23-3.2,7.25-7.19,0-.02,0-.05,0-.07Z"/>
      </g>
    </g>
  </g>
</svg>