<?xml version="1.0" encoding="UTF-8"?>
<svg id="Layer_2" data-name="Layer 2" xmlns="http://www.w3.org/2000/svg" viewBox="0 0 85.3 85.3">
  <defs>
    <style>
      .cls-1 {
        letter-spacing: -.03em;
      }

      .cls-2 {
        fill: #fff;
      }

      .cls-3, .cls-4 {
        fill: #a45ea5;
      }

      .cls-4 {
        font-family: Tahoma, Tahoma;
        font-size: 8px;
      }

      .cls-5 {
        fill: none;
      }

      .cls-6 {
        letter-spacing: 0em;
      }
    </style>
  </defs>
  <g id="Layer_1-2" data-name="Layer 1">
    <g>
      <g>
        <path class="cls-3" d="m65.22,29.43c-.02.15-.03.3-.05.45-.02.22-.05.44-.07.67-1.18.11-2.33.22-3.47.32-.16.49-.31.97-.49,1.44-.19.47-.42.92-.65,1.4.73.88,1.48,1.77,2.25,2.68-.12.16-.23.31-.35.45-.51.56-1.01,1.12-1.53,1.68-.28.3-.6.54-.97.76-.94-.71-1.84-1.47-2.74-2.24-.9.65-1.91,1-2.94,1.27-.11,1.18-.22,2.33-.32,3.5-1.37.23-2.72.2-4.11.05-.12-1.16-.25-2.31-.37-3.48-.13-.04-.27-.1-.42-.13-.8-.19-1.55-.5-2.25-.92-.07-.04-.14-.08-.21-.11-.01,0-.03,0-.05-.01-.88.74-1.77,1.48-2.67,2.23-1.12-.8-2.07-1.75-2.88-2.89.73-.89,1.46-1.77,2.2-2.67-.67-.9-1.01-1.96-1.31-3.06-1.11-.11-2.25-.21-3.41-.32-.24-1.34-.29-2.67-.05-4.01,1.16-.17,2.31-.27,3.45-.38.07-.23.16-.45.22-.68.2-.77.54-1.47.97-2.13.02-.04.05-.07.08-.13-.73-.89-1.47-1.79-2.22-2.7.8-1.09,1.71-2.06,2.82-2.87.91.75,1.81,1.49,2.72,2.23.99-.5,1.94-1.06,3.07-1.23.07-1.16.15-2.31.33-3.47.34-.07.67-.1,1-.12.1,0,.2-.03.3-.04.42,0,.84,0,1.26,0,.13.01.26.03.39.04.36.02.72.04,1.11.13.12,1.18.25,2.35.37,3.52,1.05.17,1.92.72,2.82,1.17.91-.75,1.81-1.48,2.71-2.22,1.09.84,2.08,1.75,2.9,2.86-.75.91-1.48,1.81-2.22,2.7.18.33.35.64.5.96.15.32.27.64.38.97.11.33.2.67.31,1.01,1.16.11,2.31.21,3.49.32.02.24.05.47.07.7.01.14.03.29.04.43v1.88Zm-13.42-5.96c-.51-.01-1.01.03-1.5.18-.82.24-1.48.71-2.07,1.32-1.26,1.32-1.64,2.88-1.26,4.63.45,2.07,2.6,4.35,5.9,3.69,2.27-.46,4.39-2.74,3.82-5.82-.31-1.66-1.32-2.81-2.79-3.58-.66-.34-1.38-.44-2.1-.42Z"/>
        <path class="cls-3" d="m19.92,60.91c-1.07-1.39-1.98-2.87-2.64-4.52,1.21-.87,2.42-1.74,3.64-2.63-.39-1.38-.66-2.77-.57-4.23-1.41-.54-2.79-1.08-4.2-1.62.07-.44.12-.86.19-1.28.1-.55.19-1.1.32-1.64.1-.41.25-.8.39-1.2.11-.32.25-.63.38-.96,1.52.2,3,.49,4.5.74.63-1.28,1.56-2.31,2.52-3.32-.03-.07-.06-.13-.09-.2-.57-1.22-1.14-2.45-1.71-3.67q-.09-.19.07-.33c.44-.39.9-.73,1.41-1.03.4-.23.8-.48,1.21-.7.52-.28,1.06-.55,1.62-.74.04-.01.08-.02.15-.04.88,1.22,1.77,2.44,2.66,3.69,1.36-.46,2.78-.59,4.21-.58.52-1.41,1.03-2.81,1.55-4.23,1.76.26,3.45.67,5.07,1.4-.23,1.49-.47,2.98-.7,4.48.21.15.4.31.61.43.76.43,1.44.96,2.06,1.57.16.16.32.32.48.48,1.36-.63,2.71-1.25,4.07-1.88,1.16,1.36,2.03,2.85,2.69,4.5-1.22.9-2.44,1.8-3.69,2.72.35,1.31.61,2.66.52,4.05,1.42.54,2.83,1.06,4.24,1.59-.16,1.79-.68,3.46-1.33,5.11-1.51-.25-3.01-.49-4.52-.74-.6,1.19-1.39,2.23-2.34,3.15.63,1.38,1.25,2.75,1.88,4.12-1.35,1.18-2.87,2.05-4.53,2.72-.02-.03-.06-.08-.1-.13-.8-1.12-1.6-2.25-2.4-3.38-.02-.02-.03-.05-.05-.07-.11-.14-.12-.14-.29-.1-.41.11-.82.24-1.24.34-.68.16-1.38.2-2.08.21-.21,0-.42,0-.64,0-.49,1.45-1.03,2.87-1.61,4.29-1.73-.26-3.42-.65-5.05-1.34.23-1.49.46-2.96.69-4.46-.06-.04-.14-.1-.22-.16-.32-.19-.63-.38-.95-.58-.5-.31-.97-.66-1.39-1.08-.22-.22-.46-.42-.7-.65-1.37.63-2.73,1.25-4.11,1.89Zm13.69-17.52c-.17,0-.35,0-.52,0-.09,0-.17.02-.26.03-1.75.24-3.18,1.06-4.29,2.42-.62.75-.96,1.63-1.18,2.57-.2.87-.26,1.74-.06,2.61.96,4.24,4.75,5.6,7.49,5.08,1.62-.31,2.97-1.12,3.99-2.43.57-.74.91-1.58,1.12-2.48.18-.78.24-1.57.11-2.36-.2-1.23-.72-2.32-1.52-3.26-1.27-1.49-2.93-2.15-4.86-2.2Z"/>
        <g>
          <g>
            <g>
              <g>
                <path class="cls-3" d="m76.88,36.13c-.63-7.2-4.22-14.15-10.97-21.23l1.45-1.38c7.08,7.42,10.85,14.76,11.52,22.43l-1.99.17Z"/>
                <polygon class="cls-3" points="74.27 32.24 77.83 35.46 81.04 31.9 81.19 34.77 77.97 38.33 74.42 35.12 74.27 32.24"/>
              </g>
              <rect class="cls-3" x="62.15" y="10.32" width="2" height="1.99" transform="translate(20.77 59.48) rotate(-58.81)"/>
              <rect class="cls-3" x="58.33" y="8.19" width="2" height="1.99" transform="translate(22.98 56.97) rotate(-61.54)"/>
              <rect class="cls-3" x="54.54" y="6.65" width="2" height="1.98" transform="translate(29.4 57.23) rotate(-70.04)"/>
              <rect class="cls-3" x="50.1" y="5.31" width="2" height="2.2" transform="translate(33.91 54.95) rotate(-77.65)"/>
              <rect class="cls-3" x="46.05" y="4.73" width="2" height="2.12" transform="translate(35.57 51.78) rotate(-83)"/>
            </g>
            <g>
              <g>
                <path class="cls-3" d="m15.34,17.96l-1.38-1.45c7.43-7.08,14.76-10.85,22.43-11.52l.17,1.99c-7.2.63-14.14,4.22-21.23,10.97Z"/>
                <polygon class="cls-3" points="32.68 9.6 35.89 6.04 32.33 2.83 35.21 2.68 38.77 5.89 35.55 9.45 32.68 9.6"/>
              </g>
              <rect class="cls-3" x="10.75" y="19.71" width="1.99" height="2" transform="translate(-12.06 20.04) rotate(-58.83)"/>
              <rect class="cls-3" x="8.62" y="23.54" width="1.99" height="2" transform="translate(-16.53 21.3) rotate(-61.53)"/>
              <rect class="cls-3" x="7.08" y="27.33" width="1.98" height="2" transform="translate(-21.31 26.24) rotate(-70.03)"/>
              <rect class="cls-3" x="5.74" y="31.77" width="2.2" height="2" transform="translate(-26.64 32.44) rotate(-77.65)"/>
              <rect class="cls-3" x="5.16" y="35.82" width="2.12" height="2" transform="translate(-31.09 38.52) rotate(-83.01)"/>
            </g>
          </g>
          <g>
            <g>
              <g>
                <path class="cls-3" d="m7.66,47.87c.63,7.2,4.22,14.15,10.97,21.23l-1.45,1.38c-7.08-7.42-10.85-14.76-11.52-22.43l1.99-.17Z"/>
                <polygon class="cls-3" points="10.27 51.76 6.72 48.54 3.5 52.1 3.36 49.23 6.57 45.67 10.13 48.88 10.27 51.76"/>
              </g>
              <rect class="cls-3" x="20.39" y="71.7" width="2" height="1.99" transform="translate(-51.87 53.35) rotate(-58.81)"/>
              <rect class="cls-3" x="24.21" y="73.81" width="2" height="1.99" transform="translate(-52.57 61.33) rotate(-61.54)"/>
              <rect class="cls-3" x="28" y="75.37" width="2" height="1.98" transform="translate(-52.67 77.56) rotate(-70.04)"/>
              <rect class="cls-3" x="32.45" y="76.49" width="2" height="2.2" transform="translate(-49.5 93.67) rotate(-77.65)"/>
              <rect class="cls-3" x="36.5" y="77.16" width="2" height="2.12" transform="translate(-44.7 105.9) rotate(-83)"/>
            </g>
            <g>
              <g>
                <path class="cls-3" d="m69.21,66.04l1.38,1.45c-7.43,7.08-14.76,10.85-22.43,11.52l-.17-1.99c7.2-.63,14.14-4.22,21.23-10.97Z"/>
                <polygon class="cls-3" points="51.87 74.4 48.65 77.96 52.21 81.18 49.34 81.32 45.78 78.11 48.99 74.55 51.87 74.4"/>
              </g>
              <rect class="cls-3" x="71.81" y="62.29" width="1.99" height="2" transform="translate(-19.03 92.81) rotate(-58.83)"/>
              <rect class="cls-3" x="73.92" y="58.47" width="1.99" height="2" transform="translate(-13.07 96.98) rotate(-61.53)"/>
              <rect class="cls-3" x="75.48" y="54.67" width="1.98" height="2" transform="translate(-1.97 108.54) rotate(-70.03)"/>
              <rect class="cls-3" x="76.6" y="50.23" width="2.2" height="2" transform="translate(11.04 116.18) rotate(-77.65)"/>
              <rect class="cls-3" x="77.27" y="46.18" width="2.12" height="2" transform="translate(21.97 119.19) rotate(-83.01)"/>
            </g>
          </g>
        </g>
      </g>
      <circle class="cls-5" cx="42.65" cy="42.65" r="42.65"/>
      <g>
        <rect class="cls-2" x="30.07" y="60.14" width="38.43" height="11.81"/>
        <g>
          <polygon class="cls-3" points="33.33 61.34 31.14 61.34 34.28 65.79 36.47 65.79 33.33 61.34"/>
          <polygon class="cls-3" points="39.61 61.34 37.42 61.34 40.56 65.79 42.75 65.79 39.61 61.34"/>
          <polygon class="cls-3" points="40.56 65.79 42.75 65.79 39.61 70.24 37.42 70.24 40.56 65.79"/>
          <polygon class="cls-3" points="37.29 65.79 39.48 65.79 36.34 70.24 34.15 70.24 37.29 65.79"/>
          <text class="cls-4" transform="translate(43.76 68.5)"><tspan class="cls-1" x="0" y="0">K</tspan><tspan x="4.48" y="0">est</tspan><tspan class="cls-6" x="14.94" y="0">r</tspan><tspan x="17.78" y="0">el</tspan></text>
        </g>
      </g>
    </g>
  </g>
</svg>