<?xml version="1.0" encoding="UTF-8"?>
<svg id="Layer_2" data-name="Layer 2" xmlns="http://www.w3.org/2000/svg" viewBox="0 0 85 85">
  <defs>
    <style>
      .cls-1 {
        letter-spacing: -.03em;
      }

      .cls-2, .cls-3 {
        fill: none;
      }

      .cls-2, .cls-4, .cls-5 {
        stroke-width: 0px;
      }

      .cls-3 {
        stroke: #a45ea5;
        stroke-miterlimit: 10;
        stroke-width: 2px;
      }

      .cls-4 {
        fill: #fff;
      }

      .cls-6 {
        font-family: Tahoma, Tahoma;
        font-size: 8px;
      }

      .cls-6, .cls-5 {
        fill: #a45ea5;
      }

      .cls-7 {
        letter-spacing: 0em;
      }
    </style>
  </defs>
  <g id="Layer_1-2" data-name="Layer 1">
    <g>
      <circle class="cls-2" cx="42.5" cy="42.5" r="42.5"/>
      <polygon class="cls-5" points="38.42 25.83 37.75 32.07 33.71 32.54 37.36 33.36 44.82 33.36 48.37 32.66 44.61 32.3 44.1 25.36 38.42 25.83"/>
      <rect class="cls-5" x="26.64" y="5.58" width="29.62" height="21.89"/>
      <rect class="cls-4" x="29.76" y="8.14" width="23.61" height="16.42"/>
      <polygon class="cls-5" points="59.28 55.08 58.6 61.32 54.56 61.79 58.21 62.61 65.67 62.61 69.22 61.91 65.46 61.55 64.95 54.61 59.28 55.08"/>
      <rect class="cls-5" x="47.49" y="34.83" width="29.62" height="21.89"/>
      <rect class="cls-4" x="50.61" y="37.39" width="23.61" height="16.42"/>
      <polygon class="cls-5" points="17.57 55.08 16.89 61.32 12.86 61.79 16.51 62.61 23.97 62.61 27.52 61.91 23.76 61.55 23.25 54.61 17.57 55.08"/>
      <rect class="cls-5" x="5.79" y="34.83" width="29.62" height="21.89"/>
      <rect class="cls-4" x="8.91" y="37.39" width="23.61" height="16.42"/>
      <circle class="cls-3" cx="41.82" cy="69" r="5.31"/>
      <path class="cls-3" d="m47.14,69h13.78c1.47-.48,1.04-2.51,1.04-4.18"/>
      <path class="cls-3" d="m35.92,69h-13.78c-1.47-.48-1.04-2.51-1.04-4.18"/>
      <line class="cls-3" x1="41.5" y1="48.41" x2="41.5" y2="35.63"/>
      <line class="cls-3" x1="41.5" y1="52.73" x2="41.5" y2="50.71"/>
      <line class="cls-3" x1="41.5" y1="57.02" x2="41.5" y2="55"/>
      <line class="cls-3" x1="41.5" y1="61.26" x2="41.5" y2="59.24"/>
      <line class="cls-3" x1="41.5" y1="69.83" x2="41.5" y2="67.81"/>
      <g>
        <rect class="cls-4" x="40.49" y="10.45" width="38.43" height="11.81"/>
        <g>
          <polygon class="cls-5" points="43.75 11.64 41.56 11.64 44.7 16.1 46.89 16.1 43.75 11.64"/>
          <polygon class="cls-5" points="50.03 11.64 47.84 11.64 50.98 16.1 53.17 16.1 50.03 11.64"/>
          <polygon class="cls-5" points="50.98 16.1 53.17 16.1 50.03 20.55 47.84 20.55 50.98 16.1"/>
          <polygon class="cls-5" points="47.71 16.1 49.9 16.1 46.76 20.55 44.57 20.55 47.71 16.1"/>
          <text class="cls-6" transform="translate(55.18 18.81)"><tspan class="cls-1" x="0" y="0">K</tspan><tspan x="4.48" y="0">est</tspan><tspan class="cls-7" x="14.94" y="0">r</tspan><tspan x="17.78" y="0">el</tspan></text>
        </g>
      </g>
    </g>
  </g>
</svg>