<?xml version="1.0" encoding="UTF-8"?>
<svg id="Layer_2" data-name="Layer 2" xmlns="http://www.w3.org/2000/svg" viewBox="0 0 55.73 59.68">
  <defs>
    <style>
      .cls-1 {
        fill: #58529e;
        stroke-width: 0px;
      }
    </style>
  </defs>
  <g id="Layer_5" data-name="Layer 5">
    <path class="cls-1" d="m18.34,59.63c.18-1.46.35-2.92.54-4.38.38-2.98.76-5.97,1.14-8.95.13-1.02.25-2.05.39-3.07.11-.81.13-.81-.65-.99-4.59-1.09-8.78-3-12.41-6.06-3.57-3.02-6.11-6.7-7.02-11.36-.91-4.68.09-8.99,2.67-12.94,2.62-4.03,6.3-6.84,10.62-8.84C18.63.71,23.91-.2,29.41.03c5.69.24,11.03,1.71,15.88,4.74,3.95,2.46,7.13,5.65,8.95,9.99,2.59,6.17,1.72,12-2.13,17.38-3.13,4.38-7.47,7.16-12.45,9.01-2.77,1.03-5.64,1.63-8.57,1.9-.36.03-.57.17-.78.45-3.78,5.18-7.58,10.35-11.37,15.52-.16.22-.33.44-.5.66-.03-.02-.07-.03-.1-.05Zm5.94-47.19c-.41.17-.77.3-1.12.47-2.82,1.35-4.77,3.43-5.02,6.65-.22,2.76-.17,5.55-.23,8.32,0,.05.03.1.06.17h7.13v-7.15h-3.46c-.03-2.91,1.41-4.65,4.07-5.48-.49-1.03-.95-1.99-1.42-2.98Zm9.45,8.46c0-2.91,1.42-4.65,4.09-5.48-.49-1.03-.94-1.98-1.39-2.91-.1,0-.14-.02-.17,0-3.49,1.33-5.97,3.74-6.14,7.96-.1,2.44-.08,4.88-.12,7.32,0,.08.02.17.04.28h7.13v-7.16h-3.44Z"/>
  </g>
</svg>