<?xml version="1.0" encoding="UTF-8"?>
<svg id="Layer_2" data-name="Layer 2" xmlns="http://www.w3.org/2000/svg" viewBox="0 0 85 85">
  <defs>
    <style>
      .cls-1 {
        fill: none;
      }

      .cls-1, .cls-2 {
        stroke-width: 0px;
      }

      .cls-2 {
        fill: #c64127;
      }
    </style>
  </defs>
  <g id="Layer_1-2" data-name="Layer 1">
    <g>
      <circle class="cls-1" cx="42.5" cy="42.5" r="42.5"/>
      <g>
        <path class="cls-2" d="m12.94,55.83c-.66,0-1.23,0-1.8,0-.81,0-1.15-.34-1.15-1.17,0-2.77.06-5.54-.02-8.3-.06-1.99,1.22-4.1,3.91-4.35-.89-1.35-1.2-2.78-.74-4.33.32-1.08.95-1.94,1.86-2.6,1.78-1.28,4.24-1.21,5.94.16,2,1.61,2.3,3.76.96,6.75,2.16.38,3.35,1.4,3.76,3.24.06.28.07.57.07.85,0,2.83,0,5.66,0,8.49,0,.94-.31,1.25-1.25,1.25-.55,0-1.1,0-1.7,0,0,.28,0,.5,0,.72,0,3.28,0,6.56,0,9.84,0,.94-.31,1.25-1.25,1.25-2.46,0-4.92,0-7.38,0-.89,0-1.21-.32-1.21-1.23,0-3.26,0-6.52,0-9.78,0-.24,0-.48,0-.8Zm10.83-1.99v-.52c0-2.34,0-4.67,0-7.01,0-1.48-.81-2.28-2.28-2.29-2.42,0-4.84,0-7.26,0-1.47,0-2.27.81-2.28,2.29,0,2.32,0,4.63,0,6.95,0,.2,0,.39,0,.57h1v-7.79h1.98v19.6h1.98v-11.74h1.95v11.73h1.98v-19.59h1.95v7.8h.98Zm-5.91-11.78c1.59,0,2.94-1.35,2.95-2.94.01-1.59-1.33-2.95-2.92-2.97-1.61-.02-2.99,1.35-2.98,2.96,0,1.59,1.36,2.94,2.95,2.94Z"/>
        <path class="cls-2" d="m52.3,46.97c-2.23,0-4.47,0-6.7,0-.81,0-1.15-.34-1.15-1.16-.02-3.24-1.2-5.99-3.53-8.23-2.56-2.47-4.25-5.41-5.01-8.9-1.91-8.78,3.97-17.87,12.79-19.71,9.33-1.94,18.18,3.79,20.02,13.15,1.13,5.74-.45,10.8-4.56,14.99-1.7,1.73-3.12,3.59-3.65,5.99-.19.87-.25,1.78-.31,2.68-.06.86-.34,1.19-1.19,1.2-2.23,0-4.47,0-6.7,0Zm5.88-1.99c.09-.61.15-1.16.25-1.7.55-2.97,2.09-5.35,4.21-7.46,3.57-3.57,5-7.89,4.22-12.89-1.42-9.08-10.91-14.63-19.57-11.48-6.51,2.37-10.55,9.01-9.59,15.84.48,3.47,2.03,6.4,4.57,8.82,1.53,1.45,2.71,3.14,3.37,5.14.4,1.21.62,2.48.93,3.75h11.62Z"/>
        <path class="cls-2" d="m28.71,40.08v-1.94c1.16,0,2.31-.1,3.44.02,1.43.15,2.44,1.45,2.44,2.94,0,7.22,0,14.43,0,21.65,0,.27,0,.53,0,.8.03.75.4,1.13,1.16,1.13,4.8,0,9.59,0,14.39,0,.79,0,1.16-.39,1.18-1.17,0-.24,0-.48,0-.76h1.87c.55,2.03-.84,3.89-2.93,3.9-4.86,0-9.72,0-14.58,0-1.84,0-3.07-1.24-3.07-3.1,0-7.3,0-14.6,0-21.89,0-1.33-.25-1.58-1.57-1.58-.76,0-1.51,0-2.34,0Z"/>
        <path class="cls-2" d="m52.37,50.91c1.56,0,3.11,0,4.67,0,.84,0,1.18.36,1.17,1.21-.03,2.33-2.05,4.52-4.4,4.66-1.2.07-2.43.08-3.61-.13-2.17-.38-3.8-2.47-3.8-4.61,0-.77.35-1.14,1.11-1.14,1.62,0,3.24,0,4.86,0Zm-3.79,2c.4.99,1.06,1.68,2.04,1.8,1.1.13,2.25.13,3.35,0,1.03-.11,1.85-.99,1.96-1.81h-7.36Z"/>
        <path class="cls-2" d="m52.27,49.93c-1.53,0-3.07,0-4.6,0-.84,0-1.26-.34-1.25-1,0-.63.43-.97,1.22-.97,3.13,0,6.26,0,9.39,0,.78,0,1.2.36,1.19.99,0,.63-.43.97-1.22.97-1.58,0-3.15,0-4.73,0Z"/>
        <path class="cls-2" d="m26.7,38.17v1.87h-1.91v-1.87h1.91Z"/>
        <path class="cls-2" d="m51.34,60.7v-1.87h1.91v1.87h-1.91Z"/>
        <path class="cls-2" d="m54.36,22.88c.64.32,1.2.61,1.78.9-2.62,5.36-6.96,8.78-12.25,11.21-.29-.52-.6-1.07-.96-1.72,4.85-2.28,8.99-5.34,11.42-10.38Z"/>
        <path class="cls-2" d="m60.19,18.41c0,1.66-1.3,2.97-2.95,2.97-1.65,0-2.96-1.31-2.95-2.96,0-1.63,1.29-2.93,2.91-2.94,1.66,0,2.98,1.29,2.99,2.93Zm-1.97.05c.02-.51-.45-1-.96-1.01-.51,0-.99.46-.99.98,0,.49.44.95.93.98.5.03,1.01-.44,1.02-.95Z"/>
        <path class="cls-2" d="m45.78,25.23c-.33-.4-.72-.87-1.2-1.45-.5.59-.9,1.07-1.32,1.57-.56-.56-1-1-1.5-1.51.47-.41.94-.8,1.52-1.3-.61-.48-1.11-.86-1.62-1.26.63-.57,1.09-.98,1.63-1.48.29.37.68.86,1.17,1.48.54-.66.93-1.15,1.36-1.67.56.6.98,1.05,1.53,1.64-.45.35-.94.74-1.51,1.18.59.52,1.04.93,1.53,1.36-.56.5-1.02.91-1.6,1.44Z"/>
        <path class="cls-2" d="m58.2,26.11c.56-.54,1.01-.98,1.53-1.48.39.45.78.92,1.32,1.55.48-.63.87-1.15,1.28-1.69.57.62.99,1.06,1.48,1.6-.45.35-.94.74-1.58,1.24.68.54,1.18.92,1.71,1.34-.62.56-1.08.98-1.67,1.5-.33-.41-.73-.9-1.25-1.53-.49.62-.88,1.12-1.29,1.64-.55-.57-.97-1.01-1.5-1.56.48-.37.98-.74,1.58-1.2-.66-.57-1.13-.98-1.63-1.41Z"/>
        <path class="cls-2" d="m48.41,13.54h1.89v1.9h-1.89v-1.9Z"/>
        <path class="cls-2" d="m55.23,37.11h-1.89v-1.9h1.89v1.9Z"/>
      </g>
    </g>
  </g>
</svg>