<?xml version="1.0" encoding="UTF-8"?>
<svg id="Layer_2" data-name="Layer 2" xmlns="http://www.w3.org/2000/svg" viewBox="0 0 85 85">
  <defs>
    <style>
      .cls-1 {
        stroke: #1793d0;
        stroke-miterlimit: 10;
      }

      .cls-1, .cls-2 {
        fill: #fff;
      }

      .cls-3 {
        fill: #1793d0;
      }

      .cls-4 {
        fill: none;
      }
    </style>
  </defs>
  <g id="Layer_5" data-name="Layer 5">
    <g>
      <g>
        <circle class="cls-4" cx="42.5" cy="42.5" r="42.5"/>
        <polygon class="cls-3" points="38.42 25.83 37.75 32.07 33.71 32.54 37.36 33.36 44.82 33.36 48.37 32.66 44.61 32.3 44.1 25.36 38.42 25.83"/>
        <rect class="cls-3" x="26.64" y="5.58" width="29.62" height="21.89"/>
        <rect class="cls-2" x="29.76" y="8.14" width="23.61" height="16.42"/>
        <polygon class="cls-3" points="59.28 55.08 58.6 61.32 54.56 61.79 58.21 62.61 65.67 62.61 69.22 61.91 65.46 61.55 64.95 54.61 59.28 55.08"/>
        <rect class="cls-3" x="47.49" y="34.83" width="29.62" height="21.89"/>
        <rect class="cls-2" x="50.61" y="37.39" width="23.61" height="16.42"/>
        <polygon class="cls-3" points="17.57 55.08 16.89 61.32 12.86 61.79 16.51 62.61 23.97 62.61 27.52 61.91 23.76 61.55 23.25 54.61 17.57 55.08"/>
        <rect class="cls-3" x="5.79" y="34.83" width="29.62" height="21.89"/>
        <rect class="cls-2" x="8.91" y="37.39" width="23.61" height="16.42"/>
        <path class="cls-3" d="M61.08,70h-13.94v-2h13.57c.31-.21.34-.87.28-2.17-.01-.34-.03-.68-.03-1.01h2c0,.31.01.62.03.93.07,1.51.15,3.57-1.76,4.21l-.15.05Z"/>
        <g>
          <path class="cls-3" d="M41.82,75.31c-3.48,0-6.31-2.83-6.31-6.31s2.83-6.31,6.31-6.31,6.31,2.83,6.31,6.31-2.83,6.31-6.31,6.31ZM41.82,64.69c-2.38,0-4.31,1.93-4.31,4.31s1.93,4.31,4.31,4.31,4.31-1.93,4.31-4.31-1.93-4.31-4.31-4.31Z"/>
          <path class="cls-3" d="M35.92,70h-13.94l-.15-.05c-1.91-.63-1.82-2.7-1.76-4.21.01-.31.03-.62.03-.92h2c0,.32-.01.66-.03,1-.06,1.3-.03,1.96.28,2.17h13.57v2Z"/>
          <rect class="cls-3" x="40.5" y="35.63" width="2" height="12.78"/>
          <rect class="cls-3" x="40.5" y="50.71" width="2" height="2.02"/>
          <rect class="cls-3" x="40.5" y="55" width="2" height="2.02"/>
          <rect class="cls-3" x="40.5" y="59.24" width="2" height="2.02"/>
          <rect class="cls-3" x="40.5" y="67.81" width="2" height="2.02"/>
        </g>
      </g>
      <g>
        <rect class="cls-1" x="30.14" y="62.02" width="22.72" height="16.3"/>
        <g>
          <path class="cls-3" d="M32.23,63.99h1.89c.82,0,1.49.17,2,.51s.92.97,1.23,1.89.46,2.16.46,3.73c0,1.11-.09,2.1-.28,2.96s-.43,1.54-.74,2.03-.65.83-1.03,1-.86.25-1.44.25h-2.1v-12.37ZM33.99,66.11v8.13h.3c.41,0,.72-.12.95-.36.22-.24.4-.66.53-1.27.13-.6.2-1.47.2-2.61,0-1.05-.07-1.86-.22-2.43-.15-.57-.33-.95-.55-1.16-.22-.2-.52-.3-.91-.3h-.3Z"/>
          <path class="cls-3" d="M38.91,63.99h1.95l2.06,7.69v-7.69h1.36v12.37h-1.57l-2.44-8.95v8.95h-1.36v-12.37Z"/>
          <path class="cls-3" d="M50.61,66.68l-1.45.86c-.21-1.02-.59-1.53-1.14-1.53-.26,0-.46.11-.61.34s-.23.49-.23.79c0,.35.09.63.27.84s.55.48,1.12.82c.52.3.92.59,1.22.88s.53.68.71,1.18.27,1.08.27,1.74c0,1.15-.26,2.1-.77,2.84s-1.2,1.11-2.07,1.11c-1.45,0-2.38-1.13-2.78-3.4l1.54-.68c.19,1.24.62,1.87,1.28,1.87.3,0,.55-.12.74-.37s.28-.57.28-.97c0-.3-.07-.57-.2-.81s-.44-.49-.91-.76c-.61-.34-1.07-.65-1.37-.92s-.55-.67-.74-1.18-.29-1.09-.29-1.74c0-1.11.23-2.02.69-2.73s1.08-1.06,1.84-1.06c1.39,0,2.26.96,2.6,2.88Z"/>
        </g>
      </g>
    </g>
  </g>
</svg>