<?xml version="1.0" encoding="UTF-8"?>
<svg id="Layer_2" data-name="Layer 2" xmlns="http://www.w3.org/2000/svg" viewBox="0 0 53 53">
  <defs>
    <style>
      .cls-1 {
        fill: #fff;
      }

      .cls-1, .cls-2 {
        stroke-width: 0px;
      }

      .cls-2 {
        fill: #76927a;
        fill-rule: evenodd;
      }
    </style>
  </defs>
  <g id="Layer_1-2" data-name="Layer 1">
    <path class="cls-2" d="m0,43.63V9.37C.03,4.21,4.21.03,9.37,0h34.26c5.16.03,9.34,4.21,9.37,9.37v34.26c-.03,5.16-4.21,9.34-9.37,9.37H9.37c-5.16-.03-9.34-4.21-9.37-9.37Zm41.51-.3v-.33c0-5.72-4.63-10.35-10.35-10.35,0,0-.01,0-.02,0h-9.38c-5.72-.01-10.36,4.61-10.37,10.33,0,0,0,.01,0,.02v.31l30.12.02Zm-7.76-23.18c0-4-3.26-7.25-7.26-7.24-4,0-7.25,3.26-7.24,7.26,0,4,3.25,7.24,7.25,7.24,3.99.02,7.23-3.2,7.25-7.19,0-.02,0-.05,0-.07Z"/>
  </g>
  <g id="Layer_5" data-name="Layer 5">
    <g>
      <path class="cls-1" d="m49.56,6.49s-.06.07-.1.1c-1.81,1.77-3.62,3.54-5.43,5.3-.41.4-1,.4-1.41,0-.18-.18-.37-.36-.55-.53-1.62-1.57-3.23-3.14-4.85-4.71-.05-.05-.11-.08-.19-.14.23-.13.43-.18.64-.18,1.58,0,3.15,0,4.73,0,2.17,0,4.34,0,6.51,0,.23,0,.44.05.65.16Z"/>
      <path class="cls-1" d="m41.38,11.61c.22.22.48.47.74.72.72.69,1.71.69,2.43,0,.25-.24.5-.48.74-.71,1.41,1.38,2.83,2.76,4.25,4.13-.15.09-.35.14-.56.14-2.04,0-4.09,0-6.13,0-1.7,0-3.41,0-5.11,0-.23,0-.45-.04-.66-.16,1.44-1.38,2.87-2.75,4.31-4.13Z"/>
      <path class="cls-1" d="m45.8,11.09c1.4-1.34,2.83-2.7,4.27-4.08.03.17.09.35.09.54,0,2.04,0,4.08,0,6.12,0,.35.01.7,0,1.05,0,.18-.06.35-.09.53-1.43-1.39-2.84-2.77-4.27-4.15Z"/>
      <path class="cls-1" d="m36.56,6.96c1.45,1.41,2.86,2.77,4.27,4.15-1.42,1.36-2.85,2.72-4.27,4.08-.07-.11-.1-.28-.1-.46,0-1.49,0-2.98,0-4.47,0-.92,0-1.84,0-2.75,0-.17.06-.34.1-.54Z"/>
    </g>
    <g>
      <path class="cls-1" d="m17.73,15.9H6.17s-.09-.01-.14-.02c-.18-.05-.3-.18-.3-.35,0-.66,0-1.33,0-1.99,0-.09.02-.18.08-.25.16-.21.31-.42.48-.62.53-.63,1.09-1.25,1.67-1.86.3-.32.61-.63.94-.93.01,0,.01-.03.01-.04,0-.21,0-.42,0-.63,0-.07.03-.11.11-.14.05-.01.11-.03.16-.03.27,0,.54,0,.8,0,.07,0,.14,0,.21.02.11.02.15.07.15.16,0,.16,0,.32,0,.48,0,.01,0,.02,0,.04h3.18s0-.02,0-.04c0-.17,0-.33,0-.5,0-.07.04-.11.11-.13.05-.01.11-.03.16-.03.28,0,.55,0,.83,0,.06,0,.13,0,.19.02.12.02.16.07.16.17,0,.2,0,.41,0,.61,0,.02,0,.04.02.05.11.11.23.21.34.32.81.81,1.58,1.65,2.3,2.52.08.1.17.2.25.31.08.11.16.22.23.33.02.02.03.05.03.08,0,.71,0,1.41,0,2.12,0,.16-.14.31-.34.34-.03,0-.06,0-.08.01Zm-4.49-2.54c0,.19.18.35.42.35.23,0,.42-.15.43-.34,0-.19-.18-.35-.42-.35-.23,0-.42.15-.43.34Zm0-2.37c0,.19.18.35.42.35.23,0,.42-.15.43-.34,0-.19-.18-.35-.42-.35-.23,0-.42.15-.43.34Zm-3.47,0c0,.19.2.34.43.34.24,0,.42-.16.42-.35,0-.19-.2-.34-.43-.34-.23,0-.42.16-.42.35Zm1.73,0c0,.19.2.34.43.34.24,0,.42-.16.42-.35,0-.19-.2-.34-.43-.34-.23,0-.42.16-.42.35Zm-1.73,2.37c0,.19.19.35.42.34.23,0,.42-.16.42-.35,0-.19-.19-.34-.42-.34-.23,0-.42.16-.42.35Zm1.73,0c0,.19.19.35.42.34.23,0,.42-.16.42-.35,0-.19-.19-.34-.42-.34-.23,0-.42.16-.42.35Zm1.73-1.19c0,.19.19.34.42.34.23,0,.42-.15.42-.35,0-.19-.19-.34-.42-.34-.23,0-.42.15-.42.34Zm-3.47,0c0,.18.18.35.4.35.24,0,.44-.14.44-.33,0-.19-.18-.35-.4-.35-.24,0-.43.14-.44.34Zm1.73,0c0,.19.19.34.42.34.23,0,.42-.16.42-.35,0-.19-.19-.34-.42-.34-.23,0-.42.15-.42.35Z"/>
      <path class="cls-1" d="m12.46,5.88s.03,0,.05,0c.35,0,.69.01,1.04.03.36.02.72.05,1.08.08.45.04.89.11,1.32.2.58.13,1.15.3,1.66.56.92.47,1.49,1.13,1.74,1.99.11.36.15.73.15,1.1,0,0,0,.02,0,.03h-3.05c0-.08-.02-.15-.03-.22-.04-.29-.11-.57-.24-.84-.23-.47-.64-.78-1.23-.93-.25-.06-.5-.1-.76-.12-.57-.05-1.14-.04-1.71-.05-.5,0-.99,0-1.49,0-.34,0-.69.01-1.03.04-.31.03-.61.08-.9.18-.51.17-.86.48-1.07.89-.11.22-.19.45-.23.69-.02.12-.04.24-.06.36h-3.02s0,0,0,0c0-.54.09-1.06.32-1.56.32-.69.89-1.21,1.66-1.59.46-.22.95-.38,1.46-.49.43-.1.87-.17,1.32-.22.6-.07,1.21-.1,1.82-.11.14,0,.28,0,.42,0,.02,0,.03,0,.05,0,.25,0,.5,0,.75,0Z"/>
      <path class="cls-1" d="m4.66,10.17h3.06c0,.07,0,.13-.02.2-.02.08-.03.16-.07.23-.09.21-.28.33-.54.37-.13.02-.25.04-.38.04-.35,0-.7,0-1.05,0-.13,0-.27-.02-.4-.04-.31-.06-.49-.22-.56-.47-.03-.1-.04-.21-.04-.32Z"/>
      <path class="cls-1" d="m16.43,10.17h3.08s0,.09,0,.13c-.01.07-.02.15-.05.22-.08.22-.26.34-.52.4-.14.03-.29.04-.44.04-.34,0-.69,0-1.03,0-.15,0-.29-.01-.43-.04-.32-.06-.5-.23-.56-.49-.02-.09-.02-.17-.04-.26Z"/>
    </g>
  </g>
</svg>