<?xml version="1.0" encoding="UTF-8"?>
<svg id="Layer_2" data-name="Layer 2" xmlns="http://www.w3.org/2000/svg" viewBox="0 0 57.31 47.62">
  <defs>
    <style>
      .cls-1 {
        fill: #fff;
      }

      .cls-1, .cls-2 {
        stroke-width: 0px;
      }

      .cls-2 {
        fill: #f39320;
      }
    </style>
  </defs>
  <g id="Layer_5" data-name="Layer 5">
    <g>
      <path class="cls-2" d="m39.91,46.43v-18.97c.99,0,1.93,0,2.86,0,2.65,0,5.29,0,7.94,0,.73,0,1.12.09,1.4.91.26.75,1.12,1.38,1.85,1.92,1.09.81,1.37,1.77,1.35,3.03-.08,4.3-.03,8.6-.03,12.89,0,1.37-.03,1.39-1.55,1.4-3.63,0-7.27,0-10.9,0-.59,0-1.12.04-1.48-.62-.16-.29-.84-.34-1.44-.56Zm2.18.51h12.48v-14.38c-.12-.07-.15-.11-.19-.11-.89-.07-2.1.15-2.6-.3-.48-.43-.19-1.56-.36-2.36-.06-.26-.5-.63-.78-.64-1.42-.07-2.84-.03-4.27-.03-1.41,0-2.82,0-4.29,0v17.82Zm-1.6-18.81c-.02.18-.07.39-.07.6,0,5.5,0,11,0,16.5,0,.15-.05.33.02.43.14.17.33.35.54.41.09.02.36-.23.4-.4.07-.28.03-.58.03-.87,0-4.99.02-9.98-.02-14.97,0-.94.33-1.29,1.37-1.26,2.49.06,4.98.02,7.47.01.39,0,.77-.07,1.16-.11,0-.11-.01-.23-.02-.34h-10.87Zm13.52,3.68c.13-.11.25-.22.38-.32-.7-.53-1.41-1.05-2.29-1.71v2.04h1.91Z"/>
      <path class="cls-2" d="m25.74,43.12c.3-.16.58-.44.89-.46,1.06-.06,2.12-.02,3.17-.02-.16-.88-.31-1.66-.47-2.58-.9,0-1.84.03-2.78-.02-.24-.01-.47-.24-.71-.37.24-.16.47-.4.74-.46.38-.08.79-.05,1.18-.02,1.18.09,2.12-.05,2.92-1.1.51-.67,1.6-.95,2.56-1.47v-7.08c-.8-.07-1.56-.13-2.33-.19v-.42c.85,0,1.74-.12,2.53.07.27.07.44.92.45,1.42.05,2.11.02,4.22.02,6.38.41.13.77.23,1.13.36,1.62.58,2.68,1.98,2.68,3.54,0,1.59-1.08,3.11-2.78,3.57-.87.23-1.15.6-1.05,1.37.04.29-.01.58,0,.87.05.77-.27,1.11-1.17,1.11-3.95-.03-7.9-.03-11.86,0-.88,0-1.18-.28-1.17-1.08.03-5.54.03-11.08,0-16.61,0-.83.35-1.12,1.2-1.05.58.05,1.17.07,1.75.1,0,.13,0,.26-.01.39-.74.05-1.47.1-2.27.16v17.43h12.81v-2.16c-2.1-1.74-4.71-1.2-7.18-1.31-.09-.12-.17-.25-.26-.37Zm4.67-2.45c-.02,1.58,1.38,2.93,3.1,2.98,1.73.05,3.27-1.34,3.26-2.95,0-1.56-1.47-2.9-3.17-2.91-1.72,0-3.16,1.3-3.19,2.88Z"/>
      <path class="cls-2" d="m24.34,1.84c-.23-1.41.46-1.74,1.64-1.61.47.05.95,0,1.42,0q1.69,0,1.95,1.6c1.11,0,2.24.03,3.37,0,.86-.03,1.2.28,1.19,1.08-.02,5.21-.02,10.41,0,15.62,0,.79-.32,1.09-1.19,1.09-3.95-.03-7.9-.03-11.85,0-.88,0-1.17-.29-1.16-1.09.03-5.21.03-10.41,0-15.62,0-.81.31-1.11,1.18-1.08,1.1.04,2.2.01,3.46.01Zm-3.96,17.09h12.82V2.43c-.34-.02-.61-.06-.87-.05-1.26.02-2.47.24-3.71.5-1.4.3-3.08.57-4.68-.4-.82-.5-2.29-.09-3.55-.09v16.54Z"/>
      <path class="cls-2" d="m.02,38.49c0-2.59.02-5.17-.02-7.76-.01-.8.27-1.13,1.16-1.08.87.05,1.74,0,2.61.01.83.01,1.52.04,2.05-.85.53-.9,2.14-.79,2.68.16.39.67.89.7,1.53.69,1.03-.01,2.06.02,3.08-.01.73-.02,1.1.22,1.09.94-.01,5.28-.01,10.56,0,15.84,0,.77-.38.99-1.17.99-3.95-.02-7.9-.04-11.85,0-.99.01-1.19-.37-1.18-1.18.04-2.59.01-5.17.01-7.76Zm13.48-8.3c-1.01,0-1.95,0-2.88,0-.18,0-.48.07-.51.17-.28.86-1.03.62-1.66.63-1.07.02-2.13.01-3.2,0-.27,0-.73.03-.79-.09-.6-1.24-1.77-.58-2.69-.73-.95-.16-1.2.25-1.19,1.09.04,4.88.01,9.76.02,14.63,0,.28.06.55.09.81h12.81v-16.54Z"/>
      <path class="cls-2" d="m41.11,18.98h13.55v-4.13c.09-.02.19-.04.28-.05.11.11.31.22.32.33.03,1.24.08,2.48-.02,3.71-.02.27-.57.73-.88.74-4.35.05-8.69.05-13.04,0-.31,0-.87-.55-.87-.85-.06-4.92-.05-9.84-.02-14.75,0-.28.22-.61.44-.83q2.48-2.55,6.23-2.55c2.29,0,4.58.03,6.88-.01.94-.02,1.36.22,1.33,1.17-.06,2.04-.01,4.08-.02,6.12,0,.29-.07.58-.11.87-.13,0-.26,0-.4-.01V1.17h-10.28c-.03.32-.08.6-.08.89,0,1.99.19,1.85-2.08,1.86-.39,0-.77.03-1.22.05v15.01Zm2.59-15.64v-1.67c-.63.52-1.28,1.05-2.04,1.67h2.04Z"/>
      <path class="cls-2" d="m2.59,2.3c-.61.04-1.22.09-1.91.14v16.53h12.81V2.45c-.64-.06-1.27-.11-1.91-.17,0-.13,0-.25,0-.38.72,0,1.48-.13,2.13.06.29.08.47.83.48,1.28.03,5.03,0,10.05.04,15.08,0,1.01-.36,1.33-1.44,1.31-3.79-.05-7.59-.06-11.38,0C.26,19.65,0,19.28,0,18.3.04,13.35.02,8.39.02,3.44c0-1.67.82-2.09,2.57-1.14Z"/>
      <path class="cls-2" d="m53.13,11.4c.85-.69,1.69-1.37,2.62-2.13.5.53,1.03,1.09,1.56,1.65-1.5,1.43-3.11,2.96-4.73,4.49-.09.09-.32.17-.4.13-.79-.39-1.22-.05-1.59.58-.08.14-.41.17-.84.09.21-.27.44-.53.61-.82.17-.29.41-.61.39-.9-.01-.15-.55-.36-.85-.36-2.13-.03-4.26,0-6.39-.04-.34,0-.68-.26-1.02-.4.33-.15.65-.43.98-.43,2.13-.04,4.26-.12,6.39.01,1.7.1,2.56-.75,3.31-1.9l-.04.04Z"/>
      <path class="cls-2" d="m42.6,7.65h10.51c.07.09.13.18.2.28-.24.18-.48.5-.72.51-3.16.03-6.33.03-9.49,0-.24,0-.47-.34-.7-.52.07-.09.14-.17.21-.26Z"/>
      <path class="cls-2" d="m53.17,11.36c-3.23-.02-6.45-.05-9.68-.08-.52,0-1.22.15-.92-.8h10.56c0,.31,0,.61,0,.91,0,0,.03-.04.03-.04Z"/>
      <path class="cls-2" d="m3.93,1.86c.54-.41,1.13-.79,1.62-1.25.95-.9,2.44-.8,3.28.23.22.28.59.46.9.67.27.18.54.35.82.52-.28.34-.54.96-.84.98-1.73.09-3.46.11-5.19.02-.87-.04-.92-.72-.58-1.18Zm.76.54h5.02c0-.07,0-.14.01-.21-.37-.06-.73-.12-1.1-.17.07-.1.14-.2.2-.3-.54-.38-1.04-.91-1.65-1.08-.36-.1-.94.34-1.34.64-.43.32-.77.75-1.14,1.12Z"/>
      <path class="cls-2" d="m29.65,30.05h-5.81c-.02-.38-.04-.73-.07-1.08-.09-.92.36-1.35,1.37-1.33.83.02,1.65,0,2.48,0,2.19,0,2.43.28,2.03,2.4Zm-.56-.58c.33-.99-.03-1.36-1.05-1.3-.82.05-1.64,0-2.47.01-1.24,0-1.3.08-.99,1.28h4.5Z"/>
      <path class="cls-2" d="m49.26,16.36c-.24.18-.48.51-.72.52-1.81.05-3.63.04-5.44,0-.21,0-.41-.29-.61-.45.23-.14.45-.39.68-.39,1.93-.03,3.86-.02,5.79-.02.1.11.2.22.3.33Z"/>
      <path class="cls-2" d="m6.92,4.48c-.71.68-1.41,1.37-2.12,2.05.16.19.32.38.48.57-.22.09-.44.22-.67.28-.18.05-.39.01-.59.01-2.24,0-2.31-.09-1.86-2.33h2.1l.06.27c-.51.1-1.03.2-1.61.31v1.12c.43.02.83.04,1.43.06-.29-.32-.46-.5-.45-.49,1.03-.75,1.98-1.44,2.93-2.13.1.09.2.19.29.28Z"/>
      <path class="cls-2" d="m45.96,4.82h7.05c.08.07.17.13.25.2-.23.2-.45.58-.68.58-2.05.05-4.09.05-6.14,0-.24,0-.47-.35-.7-.54.07-.08.14-.17.22-.25Z"/>
      <path class="cls-2" d="m5.21,14.28c-.59,0-1.13,0-1.68,0-1.55,0-1.51,0-1.53-1.45,0-.73.2-1.13,1.06-1.01.04,0,.08,0,.12,0q2.4-.03,2.03,2.46Zm-2.57-1.84c.03.49.05.86.07,1.21h1.96v-1.21h-2.03Z"/>
      <path class="cls-2" d="m3.67,10.84c-1.63,0-2.06-.5-1.62-1.96.05-.18.33-.43.52-.44.75-.05,1.56-.17,2.22.05.32.11.49.91.51,1.4.01.31-.29.74-.59.93-.24.15-.69.03-1.04.03Zm-.97-.65h2.07c-.02-.45-.04-.82-.06-1.17h-2v1.17Z"/>
      <path class="cls-2" d="m5.24,17.63h-3.13v-2.31h3.13v2.31Zm-.51-1.7h-2.02v1.15h2.02v-1.15Z"/>
      <path class="cls-2" d="m12.23,12.77c-.23.18-.46.51-.7.52-1.53.05-3.06.02-4.59.02-.08-.09-.16-.19-.24-.28.25-.2.49-.55.75-.56,1.49-.05,2.99-.03,4.48-.03.1.11.2.21.3.32Z"/>
      <path class="cls-2" d="m9.5,9.01c.67,0,1.34-.04,2,.02.22.02.41.29.62.44-.18.14-.36.39-.55.39-1.41.03-2.83.03-4.24,0-.19,0-.37-.25-.56-.38.2-.16.39-.43.61-.45.7-.06,1.41-.02,2.12-.02Z"/>
      <path class="cls-2" d="m11.94,16.78c-1.49,0-2.98.02-4.47-.02-.23,0-.46-.24-.69-.37.24-.16.47-.45.72-.46,1.34-.04,2.68-.05,4.01,0,.25,0,.49.33.73.5l-.29.33Z"/>
      <path class="cls-2" d="m6.95,5.64h5.05c.07.09.14.17.22.26-.26.19-.5.53-.77.54-1.34.06-2.68.05-4.01,0-.26,0-.51-.32-.76-.49.09-.1.19-.21.28-.31Z"/>
      <path class="cls-2" d="m26,32.37h4.94c.08.07.17.14.25.21-.23.21-.44.58-.68.59-1.34.06-2.68.05-4.02,0-.27,0-.52-.31-.78-.47.09-.11.19-.22.28-.33Z"/>
      <path class="cls-2" d="m31.23,36.09c-.23.19-.45.54-.68.55-1.37.05-2.75.05-4.13,0-.2,0-.38-.31-.57-.48.2-.12.39-.34.59-.34,1.52-.03,3.05-.02,4.58-.02l.22.29Z"/>
      <path class="cls-2" d="m22.49,32.37h1.38c.07.08.15.17.22.25-.25.19-.47.5-.75.55-.55.1-1.15.08-.86-.8Z"/>
      <path class="cls-2" d="m22.31,43.16c.27-.17.54-.49.81-.49.33,0,.66.25.99.4-.05.12-.1.24-.15.37h-1.36c-.1-.09-.19-.18-.29-.27Z"/>
      <path class="cls-2" d="m23.84,35.6c.37,1.19-.3,1.1-.82,1.04-.22-.02-.41-.28-.62-.43.45-.19.9-.38,1.44-.62Z"/>
      <path class="cls-2" d="m23.23,40.29c-.38-.28-.6-.46-.83-.63.28-.15.55-.41.84-.43.24-.02.51.24.77.37-.23.2-.46.4-.78.69Z"/>
      <path class="cls-1" d="m42.09,46.94v-17.82c1.46,0,2.87,0,4.29,0,1.42,0,2.85-.03,4.27.03.28.01.72.38.78.64.17.8-.12,1.93.36,2.36.5.45,1.7.23,2.6.3.03,0,.07.04.19.11v14.38h-12.48Zm1.57-15.89c0,1.45-.03,2.72.03,3.99.01.23.43.6.67.62,1.18.07,2.37.07,3.55,0,.27-.02.7-.44.71-.69.08-1.09.07-2.18,0-3.27-.01-.23-.43-.6-.67-.61-1.37-.06-2.74-.03-4.29-.03Zm-.47,7.93c-.01.15-.02.31-.03.46,3.26,0,6.52,0,9.78-.02.09,0,.18-.25.31-.44h-10.07Zm-.03,3.79c0,.09,0,.19,0,.28h10.01c0-.09,0-.19,0-.28h-10.01Zm.06-5.31h10.08c-.77-.6-9.2-.65-10.08,0Zm9.92,3.73c0-.09,0-.18,0-.27h-9.96c0,.09,0,.18,0,.27h9.96Zm.21-7.49c-1-.7-3.31-.61-3.67,0h3.67Zm-.21,1.86c0-.09,0-.18,0-.27h-3.48c0,.09,0,.18,0,.27h3.48Zm-3.51,8.81c0,.1.01.2.02.3h2.16c0-.1,0-.2,0-.3h-2.19Z"/>
      <path class="cls-1" d="m40.49,28.13h10.87c0,.11.01.23.02.34-.39.04-.77.11-1.16.11-2.49,0-4.98.04-7.47-.01-1.04-.02-1.38.32-1.37,1.26.03,4.99.02,9.98.02,14.97,0,.29.04.59-.03.87-.04.16-.31.42-.4.4-.21-.06-.41-.24-.54-.41-.08-.1-.02-.28-.02-.43,0-5.5,0-11,0-16.5,0-.21.05-.42.07-.6Z"/>
      <path class="cls-1" d="m54.01,31.81h-1.91v-2.04c.88.66,1.58,1.19,2.29,1.71-.13.11-.25.22-.38.32Z"/>
      <path class="cls-1" d="m30.4,40.67c.02-1.59,1.46-2.89,3.19-2.88,1.71,0,3.17,1.34,3.17,2.91,0,1.61-1.53,3-3.26,2.95-1.72-.05-3.12-1.4-3.1-2.98Zm1.36.79c.6.9,1.21.84,1.89.15.42-.42.89-.81,1.37-1.18.64-.49.32-.75-.06-.94-1.12.69-2.14,1.32-3.2,1.97Z"/>
      <path class="cls-1" d="m20.38,18.93V2.39c1.26,0,2.73-.41,3.55.09,1.6.96,3.28.69,4.68.4,1.25-.26,2.45-.48,3.71-.5.27,0,.54.03.87.05v16.5h-12.82Zm11.32-2.15c.08-.13.17-.26.25-.39-.27-.16-.53-.45-.8-.45-2.92-.03-5.84-.03-8.76,0-.22,0-.44.26-.66.4.21.15.42.42.63.42,3.11.03,6.22.02,9.34.02Zm.26-11.43c-.09-.13-.18-.25-.27-.38-3.11,0-6.22,0-9.33.02-.21,0-.41.28-.62.43.22.14.44.39.66.39,2.92.03,5.84.03,8.76,0,.27,0,.53-.3.8-.46Zm-.02,2.13c-.07-.11-.13-.22-.2-.32-3.15,0-6.3,0-9.44.02-.19,0-.38.25-.56.38.2.16.41.44.61.45,2.96.03,5.92.03,8.88,0,.24,0,.48-.33.72-.51Zm.02,2.26c-.09-.11-.17-.22-.26-.33h-9.89c-.06.1-.12.2-.18.29.26.17.51.48.77.48,2.92.03,5.84.03,8.76,0,.27,0,.54-.29.81-.45Zm-.23,2.66c.07-.1.15-.19.22-.29-.23-.19-.43-.45-.7-.55-.28-.1-.62-.02-.94-.02-2.83,0-5.66,0-8.49,0-.06.1-.12.19-.18.29.21.19.42.54.64.55,3.15.04,6.3.02,9.45.02Zm-9.9,1.38c-.07.09-.14.18-.2.27.25.18.5.51.75.51,2.96.04,5.92.04,8.88,0,.23,0,.46-.35.68-.54-.07-.08-.14-.16-.21-.24h-9.9Z"/>
      <path class="cls-1" d="m13.5,30.19v16.54H.69c-.03-.26-.09-.54-.09-.81,0-4.88.02-9.76-.02-14.63,0-.84.24-1.26,1.19-1.09.91.16,2.09-.51,2.69.73.06.12.51.09.79.09,1.07,0,2.13.02,3.2,0,.63-.01,1.38.23,1.66-.63.03-.1.33-.17.51-.17.94-.02,1.87,0,2.88,0Zm-6.24,3.22c-.07.1-.14.2-.22.3.24.18.46.52.71.53,1.14.06,2.29.05,3.43,0,.21,0,.42-.28.62-.43-.18-.14-.36-.38-.55-.39-1.33-.03-2.67-.02-4.01-.02Zm.04,10.3c-.09.12-.19.24-.28.36.26.17.5.47.77.48,1.13.05,2.27.05,3.4,0,.21,0,.41-.28.62-.43-.22-.14-.43-.39-.65-.4-1.29-.04-2.57-.02-3.86-.02Zm2.2-6s0,0,0,0c.59,0,1.19.04,1.77-.02.19-.02.36-.27.54-.42-.17-.14-.34-.41-.52-.41-1.22-.04-2.44-.03-3.67,0-.16,0-.46.27-.44.34.07.19.26.47.42.48.62.06,1.26.02,1.89.02Zm2.16,3.36c.09-.12.17-.23.26-.35-.27-.16-.53-.44-.81-.45-1.1-.05-2.2-.06-3.3,0-.25.01-.48.37-.72.57.08.08.16.15.24.23h4.34Zm-6.96,3.03c-.69-.39-1.11-.82-1.44-.76-.35.05-.61.57-.91.89.34.27.66.74,1.01.76.34.01.71-.44,1.34-.88Zm-2.55-10.36c0,.13,0,.26,0,.39.42.06.96.29,1.25.14,1.14-.58,2-1.84,1.72-2.22-1.08.45-1.36,1.96-2.98,1.69Zm3.42,1.72c-.09-.1-.19-.2-.28-.29-.99.68-1.98,1.36-3.13,2.15.4.05.97.29,1.19.13.8-.59,1.49-1.31,2.22-1.98Zm-3.28,5.56c.22.06.64.29.99.22.65-.13,2.03-1.86,1.96-2.32-.95.68-1.9,1.35-2.95,2.1Z"/>
      <path class="cls-1" d="m43.69,3.33h-2.04c.76-.62,1.41-1.15,2.04-1.67v1.67Z"/>
      <path class="cls-1" d="m4.69,2.4c.37-.37.7-.8,1.14-1.12.4-.29.99-.74,1.34-.64.61.17,1.1.7,1.65,1.08-.07.1-.14.2-.2.3.37.06.73.12,1.1.17,0,.07,0,.14-.01.21h-5.02Z"/>
      <path class="cls-1" d="m29.09,29.47h-4.5c-.31-1.2-.25-1.28.99-1.28.82,0,1.65.04,2.47-.01,1.02-.06,1.38.3,1.05,1.3Z"/>
      <path class="cls-1" d="m2.63,12.44h2.03v1.21h-1.96c-.02-.35-.04-.72-.07-1.21Z"/>
      <path class="cls-1" d="m2.69,10.19v-1.17h2c.02.36.04.73.06,1.17h-2.07Z"/>
      <path class="cls-1" d="m4.72,15.94v1.15h-2.02v-1.15h2.02Z"/>
      <path class="cls-2" d="m43.66,31.06c1.55,0,2.93-.03,4.29.03.25.01.66.39.67.61.07,1.09.08,2.18,0,3.27-.02.25-.45.67-.71.69-1.18.08-2.37.07-3.55,0-.25-.01-.66-.39-.67-.62-.07-1.27-.03-2.54-.03-3.99Zm4,4.07h.23v-3.4h-3.66c.09,1.19-.26,2.33.41,3.42-.23-.95,1.37-1.38.76-2.42-.04-.08.29-.47.5-.5.26-.05.76.06.81.2.12.35.04.75.04.89.35.71.63,1.26.91,1.82Zm-2.42-.05h1.77c.05-.6.24-1.18-.78-1.22-.94-.04-1.21.36-.99,1.22Z"/>
      <path class="cls-2" d="m43.19,38.99h10.07c-.14.2-.22.44-.31.44-3.26.02-6.52.02-9.78.02.01-.15.02-.31.03-.46Z"/>
      <path class="cls-2" d="m43.17,42.77h10.01c0,.09,0,.19,0,.28h-10.01c0-.09,0-.19,0-.28Z"/>
      <path class="cls-2" d="m43.23,37.47c.88-.65,9.31-.6,10.08,0h-10.08Z"/>
      <path class="cls-2" d="m53.14,41.2h-9.96c0-.09,0-.18,0-.27h9.96c0,.09,0,.18,0,.27Z"/>
      <path class="cls-2" d="m53.36,33.71h-3.67c.36-.61,2.67-.7,3.67,0Z"/>
      <path class="cls-2" d="m53.15,35.57h-3.48c0-.09,0-.18,0-.27h3.48c0,.09,0,.18,0,.27Z"/>
      <path class="cls-2" d="m49.64,44.38h2.19c0,.1,0,.2,0,.3h-2.16c0-.1-.01-.2-.02-.3Z"/>
      <path class="cls-2" d="m31.76,41.46c1.06-.65,2.08-1.28,3.2-1.97.38.19.7.45.06.94-.48.37-.95.75-1.37,1.18-.68.69-1.29.74-1.89-.15Z"/>
      <path class="cls-2" d="m31.69,16.78c-3.11,0-6.22,0-9.34-.02-.21,0-.42-.28-.63-.42.22-.14.44-.4.66-.4,2.92-.03,5.84-.03,8.76,0,.27,0,.54.29.8.45-.08.13-.17.26-.25.39Z"/>
      <path class="cls-2" d="m31.95,5.35c-.27.16-.53.46-.8.46-2.92.03-5.84.03-8.76,0-.22,0-.44-.26-.66-.39.21-.15.41-.43.62-.43,3.11-.03,6.22-.02,9.33-.02.09.13.18.25.27.38Z"/>
      <path class="cls-2" d="m31.93,7.48c-.24.18-.48.51-.72.51-2.96.04-5.92.03-8.88,0-.21,0-.41-.29-.61-.45.19-.13.38-.37.56-.38,3.15-.02,6.3-.02,9.44-.02.07.11.13.22.2.32Z"/>
      <path class="cls-2" d="m31.94,9.74c-.27.16-.54.44-.81.45-2.92.03-5.84.03-8.76,0-.26,0-.51-.31-.77-.48.06-.1.12-.2.18-.29h9.89c.09.11.17.22.26.33Z"/>
      <path class="cls-2" d="m31.71,12.4c-3.15,0-6.3.01-9.45-.02-.22,0-.43-.36-.64-.55.06-.1.12-.19.18-.29,2.83,0,5.66,0,8.49,0,.32,0,.66-.07.94.02.27.09.47.36.7.55-.07.1-.15.19-.22.29Z"/>
      <path class="cls-2" d="m21.81,13.78h9.9c.07.08.14.16.21.24-.23.19-.45.54-.68.54-2.96.04-5.92.04-8.88,0-.25,0-.5-.33-.75-.51.07-.09.14-.18.2-.27Z"/>
      <path class="cls-2" d="m7.26,33.41c1.34,0,2.67-.02,4.01.02.19,0,.36.25.55.39-.21.15-.41.42-.62.43-1.14.04-2.29.05-3.43,0-.25-.01-.47-.34-.71-.53.07-.1.14-.2.22-.3Z"/>
      <path class="cls-2" d="m7.3,43.71c1.29,0,2.58-.02,3.86.02.22,0,.43.26.65.4-.21.15-.4.42-.62.43-1.13.04-2.27.05-3.4,0-.26-.01-.51-.32-.77-.48.09-.12.19-.24.28-.36Z"/>
      <path class="cls-2" d="m9.5,37.72c-.63,0-1.27.03-1.89-.02-.17-.02-.36-.29-.42-.48-.02-.07.28-.34.44-.34,1.22-.03,2.45-.03,3.67,0,.18,0,.35.27.52.41-.18.15-.34.4-.54.42-.59.06-1.18.02-1.77.02,0,0,0,0,0,0Z"/>
      <path class="cls-2" d="m11.66,41.08h-4.34c-.08-.08-.16-.15-.24-.23.24-.2.47-.55.72-.57,1.1-.06,2.2-.06,3.3,0,.28.01.54.29.81.45-.09.12-.17.23-.26.35Z"/>
      <path class="cls-2" d="m4.7,44.11c-.64.44-1,.89-1.34.88-.35-.01-.68-.49-1.01-.76.3-.31.56-.83.91-.89.33-.05.75.37,1.44.76Z"/>
      <path class="cls-2" d="m2.15,33.75c1.61.27,1.9-1.25,2.98-1.69.28.38-.58,1.64-1.72,2.22-.3.15-.83-.08-1.25-.14,0-.13,0-.26,0-.39Z"/>
      <path class="cls-2" d="m5.57,35.47c-.73.67-1.42,1.39-2.22,1.98-.22.16-.79-.07-1.19-.13,1.14-.79,2.14-1.47,3.13-2.15.09.1.19.2.28.29Z"/>
      <path class="cls-2" d="m2.29,41.03c1.05-.75,2-1.42,2.95-2.1.07.45-1.32,2.19-1.96,2.32-.35.07-.77-.17-.99-.22Z"/>
      <path class="cls-1" d="m47.66,35.13c-.28-.56-.56-1.11-.91-1.82,0-.14.08-.55-.04-.89-.05-.14-.55-.25-.81-.2-.2.04-.54.43-.5.5.6,1.04-1,1.47-.76,2.42-.67-1.08-.31-2.22-.41-3.42h3.66v3.4h-.23Z"/>
      <path class="cls-1" d="m45.24,35.08c-.21-.86.05-1.25.99-1.22,1.02.04.83.62.78,1.22h-1.77Z"/>
    </g>
  </g>
</svg>