<?xml version="1.0" encoding="UTF-8"?>
<svg id="Layer_2" data-name="Layer 2" xmlns="http://www.w3.org/2000/svg" viewBox="0 0 85.3 85.3">
  <defs>
    <style>
      .cls-1 {
        stroke: #58529e;
        stroke-miterlimit: 10;
        stroke-width: 2px;
      }

      .cls-1, .cls-2 {
        fill: none;
      }

      .cls-3 {
        font-family: MyriadConceptRoman-BoldCond, 'Myriad Variable Concept';
        font-size: 12px;
        font-variation-settings: 'wght' 700, 'wdth' 70;
        font-weight: 700;
      }

      .cls-3, .cls-4 {
        fill: #58529e;
      }

      .cls-2, .cls-4, .cls-5 {
        stroke-width: 0px;
      }

      .cls-5 {
        fill: #fff;
      }

      .cls-6 {
        letter-spacing: -.01em;
      }
    </style>
  </defs>
  <g id="Layer_1-2" data-name="Layer 1">
    <g>
      <circle class="cls-2" cx="42.65" cy="42.65" r="42.65"/>
      <g>
        <polygon class="cls-4" points="37.87 25.43 37.19 31.67 33.16 32.14 36.81 32.96 44.27 32.96 47.82 32.26 44.06 31.91 43.54 24.96 37.87 25.43"/>
        <rect class="cls-4" x="26.09" y="5.19" width="29.62" height="21.89"/>
        <rect class="cls-5" x="29.21" y="7.74" width="23.61" height="16.42"/>
      </g>
      <g>
        <polygon class="cls-4" points="58.72 54.68 58.04 60.92 54.01 61.39 57.66 62.21 65.12 62.21 68.67 61.51 64.91 61.15 64.4 54.21 58.72 54.68"/>
        <rect class="cls-4" x="46.94" y="34.44" width="29.62" height="21.89"/>
        <rect class="cls-5" x="50.06" y="36.99" width="23.61" height="16.42"/>
      </g>
      <g>
        <polygon class="cls-4" points="17.02 54.68 16.34 60.92 12.3 61.39 15.96 62.21 23.42 62.21 26.97 61.51 23.21 61.15 22.69 54.21 17.02 54.68"/>
        <rect class="cls-4" x="5.24" y="34.44" width="29.62" height="21.89"/>
        <rect class="cls-5" x="8.36" y="36.99" width="23.61" height="16.42"/>
      </g>
      <g>
        <circle class="cls-1" cx="41.27" cy="68.6" r="5.31"/>
        <path class="cls-1" d="m46.58,68.6h13.78c1.47-.48,1.04-2.51,1.04-4.18"/>
        <path class="cls-1" d="m35.37,68.6h-13.78c-1.47-.48-1.04-2.51-1.04-4.18"/>
        <line class="cls-1" x1="40.95" y1="48.01" x2="40.95" y2="35.23"/>
        <line class="cls-1" x1="40.95" y1="52.33" x2="40.95" y2="50.31"/>
        <line class="cls-1" x1="40.95" y1="56.63" x2="40.95" y2="54.61"/>
        <line class="cls-1" x1="40.95" y1="60.86" x2="40.95" y2="58.85"/>
        <line class="cls-1" x1="40.95" y1="69.43" x2="40.95" y2="67.41"/>
      </g>
      <text class="cls-3" transform="translate(33.61 20.06)"><tspan class="cls-6" x="0" y="0">T</tspan><tspan x="4.56" y="0">CP</tspan></text>
      <text class="cls-3" transform="translate(54.89 48.69)"><tspan class="cls-6" x="0" y="0">T</tspan><tspan x="4.56" y="0">CP</tspan></text>
      <text class="cls-3" transform="translate(12.66 48.69)"><tspan class="cls-6" x="0" y="0">T</tspan><tspan x="4.56" y="0">CP</tspan></text>
    </g>
  </g>
</svg>