<?xml version="1.0" encoding="UTF-8"?>
<svg id="Layer_2" data-name="Layer 2" xmlns="http://www.w3.org/2000/svg" viewBox="0 0 85 85">
  <defs>
    <style>
      .cls-1 {
        fill: #231f20;
      }

      .cls-2 {
        fill: #fff;
      }

      .cls-3 {
        fill: none;
      }

      .cls-4 {
        fill: #166474;
      }
    </style>
  </defs>
  <g id="Layer_5" data-name="Layer 5">
    <g>
      <circle class="cls-3" cx="42.5" cy="42.5" r="42.5"/>
      <g>
        <ellipse class="cls-2" cx="15.81" cy="27.45" rx=".7" ry=".85"/>
        <ellipse class="cls-2" cx="33.33" cy="9.86" rx=".69" ry=".84"/>
        <ellipse class="cls-2" cx="6.21" cy="56.02" rx=".69" ry=".84"/>
        <ellipse class="cls-2" cx="56.77" cy="21.57" rx=".69" ry=".84"/>
        <ellipse class="cls-2" cx="51.27" cy="9.87" rx=".69" ry=".84"/>
        <ellipse class="cls-2" cx="27.83" cy="21.55" rx=".69" ry=".84"/>
        <ellipse class="cls-2" cx="68.82" cy="27.47" rx=".69" ry=".84"/>
        <ellipse class="cls-2" cx="6.21" cy="34.14" rx=".69" ry=".84"/>
        <ellipse class="cls-2" cx="78.4" cy="34.15" rx=".69" ry=".84"/>
        <ellipse class="cls-2" cx="15.8" cy="62.69" rx=".68" ry=".83"/>
        <ellipse class="cls-2" cx="68.81" cy="62.71" rx=".69" ry=".83"/>
        <ellipse class="cls-2" cx="78.41" cy="56.01" rx=".68" ry=".83"/>
        <path class="cls-4" d="M40.05,29.76h4.42l.17-.2v-7.63l5.9-7.19.04-2.47c-1.71-.66-1.87-3.75-.26-4.68,2.63-1.53,4.39,3.25,1.7,4.69l-.05,3.04-5.99,7.29v7.15h3.92v-6.34l2.24-2.72,2.61-.09c.71-1.7,2.55-2.28,3.64-.71,2.03,2.94-2.31,6.37-3.58,2.52-.08-.06-1.63-.06-1.84-.03-.54.09-1.16,1.3-1.62,1.71v5.66h6.66c.12,0,1.03.46,1.21.57,1.16.73,2.09,2.2,2.33,3.78h5.06c.09-.05,1.36-1.54,1.43-1.68.13-.28.18-2.14.09-2.44-.06-.22-.53-.33-.73-.54-2.27-2.44,1.12-6.51,3.04-3.5.91,1.42.29,3.28-.94,4.04l-.08,3.18-2.24,2.73h-5.54v4.63h6.33l5.88-7.15,2.5-.06c.82-2.5,3.95-2.16,4.11.6.17,3.05-3.05,3.83-4.11,1.19l-1.94.05-5.88,7.15h-6.89v5.59h6.89l5.88,7.15c.19.11,1.74.13,1.94.05.1-.04.54-1.05,1.12-1.36,2.36-1.3,4.12,2.5,2.19,4.3-1.18,1.11-2.72.41-3.32-1.15l-2.49-.07-5.88-7.15h-6.33v4.63h5.54l2.24,2.73.08,3.18c.65.54,1.23,1.02,1.33,2.06.39,4.09-4.66,3.83-4.12-.1.17-1.24,1.31-1.72,1.41-2.1.06-.25.06-1.58.03-1.89-.07-.67-1.17-1.52-1.52-2.11h-4.98v2.32c2.9-.04,3.31,3.6,1.95,6.12-.85,1.58-2.37,2.41-3.91,2.47H24.87c-2.27-.05-4.37-2.05-4.63-4.86-.2-2.11.87-3.83,2.68-3.73v-2.32h-4.98c-.34.56-1.33,1.31-1.41,1.97s.04,1.5.02,2.17c.54.45,1.16.97,1.3,1.82.48,2.86-2.41,4.43-3.72,2.21-.9-1.52-.31-3.18.93-4.03l.08-3.18,2.24-2.73h5.54v-4.63h-6.33l-5.79,7.13-2.59.08c-1.12,3.29-5.15,1.23-3.88-1.97.83-2.1,3.14-1.83,3.89.21l2.05-.07,5.88-7.15h6.78v-5.59h-6.78l-5.88-7.15-2.05-.07c-1.15,3-4.77,1.54-4-1.71.55-2.33,3.31-2.26,4-.06l2.59.08,5.91,7.13h6.22v-4.63h-5.43l-2.35-2.73-.08-3.18c-1.17-.84-1.85-2.59-.94-4.05,1.48-2.38,4.54-.32,3.59,2.59-.26.8-1.1,1.24-1.16,1.45-.09.32-.05,2.28.09,2.57.06.13,1.23,1.5,1.32,1.53h5.06c.33-1.58,1.17-3.08,2.4-3.81.22-.13,1.06-.52,1.25-.52h6.5l.17-.2v-5.31l-1.51-1.85h-2c-.61,2-2.88,2.41-3.79.52-1.5-3.11,2.5-5.68,3.8-2.27l2.53.03,2.32,2.77v6.34h3.92v-7.15l-5.88-7.16-.08-3.04c-1.25-.85-1.94-2.45-1.04-4.03,1.46-2.57,4.86-.15,3.52,2.79-.29.64-.66.82-1.11,1.24l.04,2.22,5.99,7.29v7.84ZM34.02,9.86c0-.46-.31-.84-.69-.84s-.69.38-.69.84.31.84.69.84.69-.38.69-.84ZM51.96,9.87c0-.46-.31-.84-.69-.84s-.69.38-.69.84.31.84.69.84.69-.38.69-.84ZM28.52,21.55c0-.46-.31-.84-.69-.84s-.69.38-.69.84.31.84.69.84.69-.38.69-.84ZM57.46,21.57c0-.47-.31-.84-.69-.84s-.69.38-.69.84.31.84.69.84.69-.38.69-.84ZM16.51,27.45c0-.47-.31-.85-.7-.85s-.7.38-.7.85.31.85.7.85.7-.38.7-.85ZM69.5,27.47c0-.46-.31-.84-.69-.84s-.69.37-.69.84.31.84.69.84.69-.37.69-.84ZM28.18,61.37h-5.32c-.32.32.07,1.21.28,1.57.32.53.85.84,1.39.89h35.62c1.02-.12,1.71-1.26,1.74-2.46h-5.49v-.82c1.74.22,2.65-.52,2.8-2.66.39-5.59-.05-12.44-.09-18.12,0-1.42.2-2.92.09-4.37-.12-1.65-.69-2.51-2.07-2.66-10.14.12-20.32-.23-30.44.18-.61.24-1.02.95-1.2,1.68v24.11c.29,1.6,1.45,2.02,2.68,1.84v.82ZM6.9,34.14c0-.46-.31-.84-.69-.84s-.69.38-.69.84.31.84.69.84.69-.38.69-.84ZM79.09,34.15c0-.46-.31-.84-.69-.84s-.69.37-.69.84.31.84.69.84.69-.37.69-.84ZM6.9,56.02c0-.47-.31-.84-.69-.84s-.69.38-.69.84.31.84.69.84.69-.38.69-.84ZM79.09,56.01c0-.46-.31-.83-.68-.83s-.68.37-.68.83.31.83.68.83.68-.37.68-.83ZM16.49,62.69c0-.46-.31-.83-.68-.83s-.68.37-.68.83.31.83.68.83.68-.37.68-.83ZM69.5,62.71c0-.46-.31-.83-.69-.83s-.69.37-.69.83.31.83.69.83.69-.37.69-.83Z"/>
        <path class="cls-2" d="M28.18,61.37v-.82c-1.23.18-2.39-.23-2.69-1.84v-24.11c.19-.72.6-1.44,1.21-1.68,10.12-.4,20.3-.05,30.44-.18,1.38.14,1.96,1.01,2.07,2.66.1,1.44-.1,2.95-.09,4.37.04,5.68.48,12.54.09,18.12-.15,2.14-1.06,2.88-2.8,2.66v.82h5.49c-.02,1.2-.72,2.34-1.74,2.45H24.54c-.54-.05-1.07-.36-1.39-.89-.21-.35-.6-1.24-.28-1.57h5.32ZM42.63,33.94c0-.22-.15-.4-.33-.4s-.33.18-.33.4.15.4.33.4.33-.18.33-.4ZM27.33,35.07v23.17h29.98v-23.17h-29.98ZM54.16,60.55h-23.63v.82h23.63v-.82ZM45.99,62.19h-7.39c-.06.47.28.74.62.81,1.11.22,4.73.15,5.93.01.43-.05.87-.19.83-.82Z"/>
        <ellipse cx="42.3" cy="33.94" rx=".33" ry=".4"/>
        <path class="cls-1" d="M27.33,35.07h29.98v23.17h-29.98v-23.17ZM48.03,49.22c-.11-.23.49-2.62.54-3.18.28-3.58-.26-5.96-2.88-7.81-2.82-1.99-6.02-1.31-8.32,1.4-1.69,1.99-1.51,5.5-1.04,8.09.05.26.36,1.25.35,1.32-.03.2-.6.22-.49,1.02.04.28.46,1.47.61,1.73.66,1.19,1.71.83,2.7,1.15.06.25.02,1.51.08,1.62.22.42.63.53.72,1.02.46-.23,0,.83.66.5-.05.48,1.31.59,1.36.52l-.11-1.36h.33s-.11,1.36-.11,1.36c.3.13.53-.16.73-.21.23-.05.54.31.63-.33l.32.12.13-.66c.12.09.45-.26.55-.37.02-.02.31-.55.32-.58.13-.47.1-1.15.14-1.65.99-.29,1.92.1,2.61-1.11.12-.22.63-1.75.63-1.97,0-.57-.37-.5-.43-.64Z"/>
        <path class="cls-2" d="M48.03,49.22c.07.13.43.06.43.64,0,.23-.5,1.76-.63,1.97-.69,1.21-1.62.82-2.61,1.11-.04.5,0,1.17-.14,1.65,0,.03-.3.56-.32.58-.1.1-.43.46-.55.37l-.13.66-.32-.12c-.09.64-.4.27-.63.33-.2.05-.43.34-.73.21l.11-1.36h-.33s.11,1.36.11,1.36c-.06.07-1.41-.04-1.36-.52-.66.32-.2-.74-.66-.5-.08-.49-.5-.59-.72-1.02-.06-.11-.02-1.37-.08-1.62-.99-.32-2.04.04-2.7-1.15-.14-.26-.57-1.44-.61-1.73-.11-.8.47-.82.49-1.02,0-.07-.3-1.06-.35-1.32-.47-2.59-.64-6.1,1.04-8.09,2.3-2.71,5.5-3.39,8.32-1.4,2.61,1.84,3.16,4.23,2.88,7.81-.04.56-.65,2.95-.54,3.18ZM41.39,48.02c-1.26-.02-2.26-1.4-3.51-1.35-.48.2-.48,2.89-.21,3.48.73,1.61,4.07-.18,3.72-2.14ZM43.19,48.02c.04,1.16.48,1.81,1.3,2.3,1.04.61,2.4.93,2.61-.88.06-.49.03-2.5-.33-2.71-.76-.46-2.64,1.49-3.58,1.3ZM42.18,49.79c-.59.14-1.11,1.62-1.1,2.25,0,.38.36,1.3.76,1.15.05-.04.34-1.3.34-1.42v-1.98ZM42.52,49.79v2.11c0,.14.27,1.26.39,1.29,1.17-.55.57-2.97-.39-3.41Z"/>
        <path d="M41.39,48.02c.36,1.96-2.99,3.74-3.72,2.14-.27-.6-.27-3.28.21-3.48,1.24-.05,2.24,1.33,3.51,1.35Z"/>
        <path d="M43.19,48.02c.94.2,2.83-1.76,3.58-1.3.35.21.38,2.22.33,2.71-.21,1.81-1.56,1.49-2.61.88-.83-.48-1.26-1.13-1.3-2.3Z"/>
        <path d="M42.18,49.79v1.98c0,.12-.29,1.38-.34,1.42-.4.15-.75-.77-.76-1.15,0-.63.51-2.11,1.1-2.25Z"/>
        <path d="M42.52,49.79c.96.44,1.56,2.85.39,3.41-.13-.03-.39-1.15-.39-1.29v-2.11Z"/>
        <rect class="cls-4" x="30.53" y="60.55" width="23.63" height=".82"/>
        <path class="cls-4" d="M45.99,62.19c.04.64-.41.78-.83.82-1.21.13-4.82.21-5.93-.01-.34-.07-.68-.34-.62-.81h7.39Z"/>
        <circle class="cls-4" cx="69.21" cy="62.99" r="3.23"/>
        <circle class="cls-2" cx="69.21" cy="62.99" r="1.61"/>
        <circle class="cls-4" cx="78.8" cy="56.29" r="3.23"/>
        <circle class="cls-2" cx="78.8" cy="56.29" r="1.61"/>
        <circle class="cls-4" cx="79.09" cy="34.15" r="3.23"/>
        <circle class="cls-2" cx="79.09" cy="34.15" r="1.61"/>
        <circle class="cls-4" cx="69.5" cy="27.47" r="3.23"/>
        <circle class="cls-2" cx="69.5" cy="27.47" r="1.61"/>
        <circle class="cls-4" cx="57.46" cy="21.57" r="3.23"/>
        <circle class="cls-2" cx="57.46" cy="21.57" r="1.61"/>
        <circle class="cls-4" cx="27.83" cy="21.55" r="3.23"/>
        <circle class="cls-2" cx="27.83" cy="21.55" r="1.61"/>
        <circle class="cls-4" cx="34.02" cy="9.02" r="3.23"/>
        <circle class="cls-2" cx="34.02" cy="9.02" r="1.61"/>
        <circle class="cls-4" cx="51.96" cy="9.87" r="3.23"/>
        <circle class="cls-2" cx="51.96" cy="9.87" r="1.61"/>
        <circle class="cls-4" cx="15.81" cy="26.61" r="3.23"/>
        <circle class="cls-2" cx="15.81" cy="26.61" r="1.61"/>
        <circle class="cls-4" cx="6.21" cy="34.14" r="3.23"/>
        <circle class="cls-2" cx="6.21" cy="34.14" r="1.61"/>
        <circle class="cls-4" cx="6.21" cy="56.86" r="3.23"/>
        <circle class="cls-2" cx="6.21" cy="56.86" r="1.61"/>
        <circle class="cls-4" cx="15.12" cy="63.14" r="3.23"/>
        <circle class="cls-2" cx="15.12" cy="63.14" r="1.61"/>
      </g>
    </g>
  </g>
</svg>