<?xml version="1.0" encoding="UTF-8"?>
<svg id="Layer_2" data-name="Layer 2" xmlns="http://www.w3.org/2000/svg" viewBox="0 0 85.3 85.3">
  <defs>
    <style>
      .cls-1 {
        stroke: #58529e;
        stroke-miterlimit: 10;
        stroke-width: 2px;
      }

      .cls-1, .cls-2 {
        fill: none;
      }

      .cls-3, .cls-4 {
        fill: #58529e;
      }

      .cls-5 {
        fill: #fff;
      }

      .cls-4 {
        font-family: MyriadConceptRoman-BoldCondensed, 'Myriad Variable Concept';
        font-size: 12px;
        font-variation-settings: 'wght' 700, 'wdth' 70;
        font-weight: 700;
      }
    </style>
  </defs>
  <g id="Layer_1-2" data-name="Layer 1">
    <g>
      <circle class="cls-2" cx="42.65" cy="42.65" r="42.65"/>
      <g>
        <polygon class="cls-3" points="38.76 25.34 38.08 31.58 34.04 32.05 37.7 32.87 45.15 32.87 48.71 32.16 44.95 31.81 44.43 24.87 38.76 25.34"/>
        <rect class="cls-3" x="26.98" y="5.09" width="29.62" height="21.89"/>
        <rect class="cls-5" x="30.1" y="7.65" width="23.61" height="16.42"/>
      </g>
      <g>
        <polygon class="cls-3" points="59.61 54.59 58.93 60.83 54.89 61.3 58.55 62.12 66.01 62.12 69.56 61.41 65.8 61.06 65.28 54.12 59.61 54.59"/>
        <rect class="cls-3" x="47.83" y="34.34" width="29.62" height="21.89"/>
        <rect class="cls-5" x="50.95" y="36.89" width="23.61" height="16.42"/>
      </g>
      <g>
        <polygon class="cls-3" points="17.91 54.59 17.23 60.83 13.19 61.3 16.85 62.12 24.3 62.12 27.86 61.41 24.1 61.06 23.58 54.12 17.91 54.59"/>
        <rect class="cls-3" x="6.13" y="34.34" width="29.62" height="21.89"/>
        <rect class="cls-5" x="9.25" y="36.89" width="23.61" height="16.42"/>
      </g>
      <g>
        <circle class="cls-1" cx="42.16" cy="68.51" r="5.31"/>
        <path class="cls-1" d="m47.47,68.51h13.78c1.47-.48,1.04-2.51,1.04-4.18"/>
        <path class="cls-1" d="m36.26,68.51h-13.78c-1.47-.48-1.04-2.51-1.04-4.18"/>
        <line class="cls-1" x1="41.84" y1="47.92" x2="41.84" y2="35.14"/>
        <line class="cls-1" x1="41.84" y1="52.23" x2="41.84" y2="50.21"/>
        <line class="cls-1" x1="41.84" y1="56.53" x2="41.84" y2="54.51"/>
        <line class="cls-1" x1="41.84" y1="60.77" x2="41.84" y2="58.75"/>
        <line class="cls-1" x1="41.84" y1="69.34" x2="41.84" y2="67.32"/>
      </g>
      <text class="cls-4" transform="translate(31.52 19.97)"><tspan x="0" y="0">SOCK</tspan></text>
      <text class="cls-4" transform="translate(52.8 48.6)"><tspan x="0" y="0">SOCK</tspan></text>
      <text class="cls-4" transform="translate(10.57 48.6)"><tspan x="0" y="0">SOCK</tspan></text>
    </g>
  </g>
</svg>