<?xml version="1.0" encoding="UTF-8"?>
<svg id="Layer_2" data-name="Layer 2" xmlns="http://www.w3.org/2000/svg" viewBox="0 0 86.84 85.92">
  <defs>
    <style>
      .cls-1 {
        stroke-width: 3px;
      }

      .cls-1, .cls-2, .cls-3 {
        fill: none;
        stroke-miterlimit: 10;
      }

      .cls-1, .cls-3 {
        stroke: #166474;
      }

      .cls-4 {
        fill: #231f20;
      }

      .cls-5 {
        fill: #fde35a;
      }

      .cls-6 {
        fill: #fff;
      }

      .cls-2 {
        stroke: #231f20;
        stroke-width: .25px;
      }
    </style>
  </defs>
  <g id="Layer_5" data-name="Layer 5">
    <g>
      <circle class="cls-2" cx="42.77" cy="43.15" r="42.65"/>
      <g id="baf07581-2289-429b-b3d4-654aa4ef414d">
        <g id="acf24184-1f11-4e44-a22b-856500dcd0a4">
          <circle class="cls-3" cx="44.34" cy="42.5" r="42.5"/>
          <g>
            <path class="cls-1" d="M44.36,18.39c-6.49,0-12.98,0-19.48,0-3.76,0-6.11,2.36-6.12,6.12-.01,3.8,0,7.61,0,11.22-.88.59-1.57.41-2.23.47-2.26.21-2.82,1.17-1.66,3.05,1.7,2.73,3.52,5.38,5.31,8.05,1.1,1.65,2.74,1.66,3.82,0,1.68-2.59,3.51-5.08,5.06-7.76,1.41-2.45,1.08-3.15-1.68-3.34-.57-.04-1.16.09-1.95-.5,0-2.84.04-5.9-.02-8.96-.03-1.72,1.05-1.68,2.24-1.68,5.56.01,11.13,0,16.69,0"/>
            <path class="cls-1" d="M44.36,69.58c6.49,0,12.98,0,19.48,0,3.76,0,6.11-2.36,6.12-6.12.01-3.8,0-7.61,0-11.22.88-.59,1.57-.41,2.23-.47,2.26-.21,2.82-1.17,1.66-3.05-1.7-2.73-3.52-5.38-5.31-8.05-1.1-1.65-2.74-1.66-3.82,0-1.68,2.59-3.51,5.08-5.06,7.76-1.41,2.45-1.08,3.15,1.68,3.34.57.04,1.16-.09,1.95.5,0,2.84-.04,5.9.02,8.96.03,1.72-1.05,1.68-2.24,1.68-5.56-.01-11.13,0-16.69,0"/>
            <path class="cls-1" d="M70.24,13.38c-.98-.61-.85-1.8-1.55-2.72-1.32-.11-2.81-.11-4.13,0-.71.92-.58,2.11-1.55,2.72-1.04.09-1.75-.9-3.07-.82-.78.77-1.71,1.7-2.5,2.5.06,1.17.64,1.91.89,2.65-.42,1.47-1.84,1.17-2.77,1.96-.11,1.3-.11,2.79,0,4.11.92.71,2.11.58,2.72,1.55.09,1.04-.9,1.75-.82,3.07.77.78,1.7,1.71,2.5,2.5,1.17-.06,1.91-.64,2.71-.91,3.17,3.99,4.73,3.99,7.89,0,.81.27,1.54.85,2.71.91.81-.8,1.74-1.73,2.53-2.53-.06-1.17-.64-1.91-.89-2.65.43-1.46,1.83-1.18,2.8-1.92.08-1.24-.01-2.64.04-4.01-.75-.89-2.17-.64-2.8-1.69-.09-1.04.9-1.75.82-3.07-.77-.78-1.7-1.71-2.5-2.5-1.19.02-1.89.69-2.77.84"/>
            <path class="cls-1" d="M25.72,57.9c-.98-.61-.85-1.8-1.55-2.72-1.32-.11-2.81-.11-4.13,0-.71.92-.58,2.11-1.55,2.72-1.04.09-1.75-.9-3.07-.82-.78.77-1.71,1.7-2.5,2.5.06,1.17.64,1.91.89,2.65-.42,1.47-1.84,1.17-2.77,1.96-.11,1.3-.11,2.79,0,4.11.92.71,2.11.58,2.72,1.55.09,1.04-.9,1.75-.82,3.07.77.78,1.7,1.71,2.5,2.5,1.17-.06,1.91-.64,2.71-.91,3.17,3.99,4.73,3.99,7.89,0,.81.27,1.54.85,2.71.91.81-.8,1.74-1.73,2.53-2.53-.06-1.17-.64-1.91-.89-2.65.43-1.46,1.83-1.18,2.8-1.92.08-1.24-.01-2.64.04-4.01-.75-.89-2.17-.64-2.8-1.69-.09-1.04.9-1.75.82-3.07-.77-.78-1.7-1.71-2.5-2.5-1.19.02-1.89.69-2.77.84"/>
            <path class="cls-1" d="M21.27,61.79c-3.46,1.91-4.37,3.86-3.07,6.4,1.01,1.97,2.68,2.75,4.73,2.46,1.95-.28,3.62-2.51,3.62-4.41,0-2.08-1.54-3.85-3.9-4.44-.35-.09-.74-.01-1.11-.01"/>
            <path class="cls-1" d="M65.78,17.28c-3.46,1.91-4.37,3.86-3.07,6.4,1.01,1.97,2.68,2.75,4.73,2.46,1.95-.28,3.62-2.51,3.62-4.41,0-2.08-1.54-3.85-3.9-4.44-.35-.09-.74-.01-1.11-.01"/>
            <g>
              <path class="cls-4" d="M55.71,30.77v27.65h-10.87v4.27l-.27.15-3.18-1.66-3.34,1.74v-4.49c-2.91.47-4.79-1.59-5.02-4.56-.47-5.97.33-12.61.01-18.65-.02-1.62,1.69-4.43,3.31-4.43h19.36ZM54.08,48.58v-15.85l-.2-.22h-17.25c-.22,0-.83.44-1.02.65-.18.19-.81,1.29-.81,1.45v14.33s-.12.09-.12.14c.27.47.48-.02.8-.15.21-.08,1.02-.36,1.16-.36h17.45ZM50.69,50.46h-14.33c-.53,0-1.35,1.36-1.5,1.88-.67,2.34.67,4.9,3.19,4.34v-3.62c1.99.19,4.38-.25,6.32,0,.2.02.35.02.47.22v3.4h5.84c-.47-2.12-.6-4.11,0-6.22ZM54.08,50.46h-1.62c-.46,1.61-.71,3-.39,4.67.3,1.57.43,1.7,2,1.56v-6.22ZM43.08,54.8h-3.26v5.21l1.68-.84,1.58.84v-5.21Z"/>
              <path class="cls-5" d="M54.08,48.58h-17.45c-.13,0-.95.28-1.16.36-.32.12-.52.62-.8.15,0-.06.12-.11.12-.14v-14.33c0-.17.63-1.26.81-1.45.19-.2.8-.65,1.02-.65h17.25l.2.22v15.85ZM42.88,34.25l-1.15,1.23,1.49,1.59-1.49,1.59,1.15,1.23c.38-.27,1.19-1.55,1.6-1.43l1.39,1.43,1.15-1.23c-.26-.4-1.45-1.26-1.34-1.71l1.34-1.61-1.15-1.1-1.49,1.59-1.49-1.59ZM49.14,35.03c-.15-.15-.73-.8-.82-.78l-1.16,1.23,1.49,1.59-1.49,1.59,1.15,1.22,1.29-1.37c.53-.38,1.56,1.62,1.9,1.37.04-.49,1.11-.81.95-1.35-.04-.13-1.34-1.1-1.34-1.59.19-.5,1.45-1.1,1.33-1.58l-1.01-1.12-1.52,1.43h-.29c-.1-.24-.32-.47-.49-.64ZM38.05,38.59v6.3l7.68.18c.36-.07.14-1.48.2-1.84h-6.11v-4.63c.47.08.9,0,1.39.04.15.01.27.29.24-.11l-2.51-2.68c-.19,0-2.12,2.55-2.65,2.6-.3.45,1.69.06,1.77.14ZM52.49,44.15c0-1.56-1.18-2.82-2.64-2.82s-2.64,1.26-2.64,2.82,1.18,2.82,2.64,2.82,2.64-1.26,2.64-2.82Z"/>
              <path class="cls-5" d="M50.69,50.46c-.6,2.11-.47,4.1,0,6.22h-5.84v-3.4c-.12-.21-.27-.2-.47-.22-1.94-.24-4.33.2-6.32,0v3.62c-2.52.56-3.87-2.01-3.19-4.34.15-.52.97-1.88,1.5-1.88h14.33Z"/>
              <polygon class="cls-6" points="43.08 54.8 43.08 60.01 41.5 59.18 39.82 60.01 39.82 54.8 43.08 54.8"/>
              <path class="cls-5" d="M54.08,50.46v6.22c-1.57.14-1.7.01-2-1.56-.32-1.67-.07-3.06.39-4.65h1.62Z"/>
              <path class="cls-4" d="M38.05,38.59c-.08-.08-2.07.31-1.77-.14.53-.06,2.46-2.6,2.65-2.6l2.51,2.68c.03.4-.08.12-.24.11-.49-.03-.92.04-1.39-.04v4.63h6.11c-.06.36.16,1.78-.2,1.84l-7.68-.18v-6.3Z"/>
              <path class="cls-4" d="M52.49,44.15c0,1.56-1.18,2.82-2.64,2.82s-2.64-1.26-2.64-2.82,1.18-2.82,2.64-2.82,2.64,1.26,2.64,2.82ZM50.83,44.13c0-.57-.43-1.03-.97-1.03s-.97.46-.97,1.03.43,1.03.97,1.03.97-.46.97-1.03Z"/>
              <path class="cls-4" d="M49.14,35.03c.17.17.38.41.49.63h.29s1.52-1.42,1.52-1.42l1.01,1.12c.12.48-1.14,1.08-1.33,1.58,0,.49,1.3,1.46,1.34,1.59.15.54-.91.85-.95,1.35-.34.25-1.36-1.75-1.9-1.37l-1.29,1.37-1.15-1.22,1.49-1.59-1.49-1.59,1.16-1.23c.09-.02.67.62.82.78Z"/>
              <path class="cls-4" d="M42.88,34.25l1.49,1.59,1.49-1.59,1.15,1.1-1.34,1.61c-.11.44,1.08,1.31,1.34,1.71l-1.15,1.23-1.39-1.43c-.42-.12-1.23,1.16-1.6,1.43l-1.15-1.23,1.49-1.59-1.49-1.59,1.15-1.23Z"/>
              <ellipse class="cls-6" cx="49.85" cy="44.13" rx=".97" ry="1.03"/>
            </g>
          </g>
        </g>
      </g>
    </g>
  </g>
</svg>