<?xml version="1.0" encoding="UTF-8"?>
<svg id="Layer_2" data-name="Layer 2" xmlns="http://www.w3.org/2000/svg" viewBox="0 0 85 85">
  <defs>
    <style>
      .cls-1 {
        fill: #f39320;
        fill-rule: evenodd;
      }

      .cls-2 {
        fill: none;
      }
    </style>
  </defs>
  <g id="Layer_1-2" data-name="Layer 1">
    <g id="b6c602da-9cd8-4efd-897f-64b7ae523e14">
      <g id="b2fd2697-12ee-4f78-a2a9-e67f18f997bd">
        <circle class="cls-2" cx="42.5" cy="42.5" r="42.5"/>
        <path class="cls-1" d="m16,59.63v-13.3h10.42v-7.56h5.66v7.56h9.92v5.67h-6.68v10.85h6.68v6.15h-16.69c-5.16-.02-9.32-4.21-9.31-9.37Zm36.92-11.89v-5.64h-6.68v-6.65h6.68v-14.21h-6.68v-5.14h13.35c5.17.02,9.37,4.2,9.41,9.37v16.63h-7.08v5.64h-9Zm-36.92-5.64v-16.73c.04-5.17,4.24-9.35,9.41-9.37h16.69v9.47h6.67v5.64h-6.67v10.89h-5.67v-7.56h-14.26v7.56h-6.17v.1Z"/>
      </g>
    </g>
  </g>
</svg>