<?xml version="1.0" encoding="UTF-8"?>
<svg id="Layer_2" data-name="Layer 2" xmlns="http://www.w3.org/2000/svg" viewBox="0 0 85.3 85.3">
  <defs>
    <style>
      .cls-1 {
        fill: #fff;
        font-family: CopperplateGothic-Bold, 'Copperplate Gothic Bold';
        font-size: 11px;
        font-weight: 700;
      }

      .cls-2 {
        fill: none;
      }

      .cls-2, .cls-3 {
        stroke-width: 0px;
      }

      .cls-3 {
        fill: #58529e;
      }
    </style>
  </defs>
  <g id="Layer_1-2" data-name="Layer 1">
    <circle class="cls-2" cx="42.65" cy="42.65" r="42.65"/>
    <g>
      <g>
        <circle class="cls-3" cx="29.85" cy="20.48" r="4.68"/>
        <circle class="cls-3" cx="26.39" cy="35.52" r="4.68"/>
        <circle class="cls-3" cx="37.15" cy="44.23" r="4.68"/>
        <circle class="cls-3" cx="52.67" cy="40.2" r="4.68"/>
        <circle class="cls-3" cx="57.35" cy="26.17" r="4.68"/>
        <circle class="cls-3" cx="48" cy="15.67" r="4.68"/>
        <circle class="cls-3" cx="41.83" cy="29.95" r="4.68"/>
        <rect class="cls-3" x="40.84" y="17.36" width="2" height="25.34" transform="translate(-8.54 40.72) rotate(-47.65)"/>
        <path class="cls-3" d="m36.9,45.28l-11.63-8.44,3.73-17.17,19.33-5.12,10.11,11.34h0s.69.79.69.79l-.95.29-3.73,15.36-17.55,2.97Zm-9.11-9.09l9.61,6.97,15.42-2.61,3.14-12.93-28.17,8.56Zm2.91-14.91l-2.78,12.78,27.6-8.39-6.33-6.81.17-.16-1.71-1.92-16.96,4.49Z"/>
        <rect class="cls-3" x="29.66" y="29.42" width="25.72" height="2" transform="translate(.44 61.44) rotate(-71.97)"/>
      </g>
      <polygon class="cls-3" points="72.46 65.93 12.29 65.93 5.59 52.9 80.76 53.17 72.46 65.93"/>
      <text class="cls-1" transform="translate(28.21 63.06)"><tspan x="0" y="0">IPv4</tspan></text>
    </g>
  </g>
</svg>