<?xml version="1.0" encoding="UTF-8"?>
<svg id="Layer_2" data-name="Layer 2" xmlns="http://www.w3.org/2000/svg" viewBox="0 0 85.3 85.3">
  <defs>
    <style>
      .cls-1 {
        fill: none;
      }

      .cls-1, .cls-2, .cls-3 {
        stroke-width: 0px;
      }

      .cls-2 {
        fill: #fff;
      }

      .cls-3 {
        fill: #c64127;
      }
    </style>
  </defs>
  <g id="Layer_1-2" data-name="Layer 1">
    <g>
      <circle class="cls-1" cx="42.65" cy="42.65" r="42.65"/>
      <g>
        <path class="cls-3" d="m71.91,60.69c-.04.07-.09.13-.11.2-.51,1.65-1.57,2.49-3.19,2.49-7.02,0-14.04,0-21.06,0-10.06,0-20.11,0-30.17,0-2.2,0-3.43-1.35-3.43-3.74,0-14.44,0-28.88,0-43.31,0-2.41,1.22-3.74,3.43-3.74,16.89,0,33.77.02,50.66-.02,1.94,0,3.29.67,3.88,2.77v45.36Zm-2.24-6.95c0-.31,0-.58,0-.84,0-12.17,0-24.35,0-36.52,0-1.15-.23-1.39-1.31-1.39-16.94,0-33.89,0-50.83,0-1.15,0-1.35.22-1.35,1.48,0,12.22,0,24.43,0,36.65,0,.2,0,.4,0,.64h53.49Zm-53.5,2.51c0,1.17,0,2.28,0,3.39,0,1.03.25,1.3,1.22,1.3,16.62,0,33.24,0,49.86,0,.51,0,1.02.01,1.53,0,.47-.01.84-.27.86-.79.04-1.29.01-2.58.01-3.9H16.18Z"/>
        <path class="cls-3" d="m52.23,65.77v4.27h3.55v2.4h-25.7v-2.36h3.53v-4.3h2.21v4.19h14.18v-4.2h2.23Z"/>
        <path class="cls-2" d="m43.85,28.57v11.6c1.73,0,3.41.09,5.07-.03,1.52-.11,2.68-1.59,2.72-3.26.03-1.69.04-3.37,0-5.06-.04-1.67-1.34-3.17-2.88-3.24-1.62-.07-3.24-.02-4.9-.02Zm17.38.03h-7.81c-.01.12-.03.2-.03.28,0,3.62,0,7.24-.01,10.87,0,.45.19.49.52.49,2.3,0,4.6,0,6.9,0,.15,0,.29-.03.44-.05v-2.39h-5.59v-2.23h2.75v-2.41h-2.75v-2.18h5.58v-2.38Zm-27.02,5.76h0c0,.8-.01,1.61,0,2.41.04,1.8,1.2,3.23,2.85,3.41.74.08,1.51.07,2.26-.02,1.48-.18,2.65-1.52,2.71-3.15.06-1.73.06-3.46,0-5.19-.05-1.59-1.06-2.86-2.5-3.16-.69-.14-1.43-.1-2.14-.1-1.75.01-3.13,1.49-3.17,3.39-.02.8,0,1.61,0,2.41Zm-1.79-1.12c0-.57.05-1.1,0-1.62-.19-1.58-1.23-2.81-2.66-3.01-.8-.11-1.63-.11-2.42,0-1.56.21-2.71,1.7-2.73,3.41-.01,1.6-.02,3.21,0,4.81.02,1.68,1.2,3.14,2.73,3.33.78.09,1.59.1,2.36,0,1.96-.25,3.26-2.55,2.67-4.63h-2.12c0,.38.01.73,0,1.07-.03.76-.41,1.18-1.1,1.21-.43.02-.87.02-1.3,0-.62-.04-1.01-.43-1.02-1.08-.02-1.56-.02-3.13,0-4.69,0-.6.38-.99.93-1.03.45-.03.9-.02,1.36,0,.73.02,1.1.42,1.13,1.22,0,.34,0,.68,0,1.03h2.17Z"/>
        <path class="cls-3" d="m43.85,28.57c1.67,0,3.29-.06,4.9.02,1.54.07,2.84,1.57,2.88,3.24.04,1.69.04,3.37,0,5.06-.03,1.67-1.2,3.15-2.72,3.26-1.67.12-3.34.03-5.07.03v-11.6Zm2.19,9.23c.86,0,1.65.03,2.44,0,.55-.03.93-.43.94-1.03.02-1.58.02-3.17,0-4.75,0-.54-.3-.95-.78-.98-.86-.06-1.72-.02-2.6-.02v6.79Z"/>
        <path class="cls-3" d="m61.23,28.61v2.38h-5.58v2.18h2.75v2.41h-2.75v2.23h5.59v2.39c-.15.02-.29.05-.44.05-2.3,0-4.6,0-6.9,0-.33,0-.52-.05-.52-.49.01-3.62,0-7.24.01-10.87,0-.08.02-.16.03-.28h7.81Z"/>
        <path class="cls-3" d="m34.2,34.37c0-.8-.02-1.61,0-2.41.05-1.9,1.43-3.38,3.17-3.39.71,0,1.45-.05,2.14.1,1.44.3,2.45,1.57,2.5,3.16.06,1.73.06,3.46,0,5.19-.06,1.63-1.23,2.97-2.71,3.15-.74.09-1.51.1-2.26.02-1.65-.18-2.81-1.61-2.85-3.41-.02-.8,0-1.61,0-2.41h0Zm5.64,0h0c0-.72.02-1.44,0-2.16-.02-.82-.38-1.2-1.12-1.22-.41,0-.83-.01-1.24,0-.66.02-1.03.39-1.04,1.1-.02,1.52-.02,3.04,0,4.56,0,.72.4,1.12,1.08,1.15.36.02.72,0,1.07,0,.89-.01,1.25-.41,1.27-1.4,0-.68,0-1.36,0-2.04Z"/>
        <path class="cls-3" d="m32.42,33.25h-2.17c0-.35,0-.69,0-1.03-.02-.8-.39-1.2-1.13-1.22-.45-.01-.91-.02-1.36,0-.55.03-.92.43-.93,1.03-.02,1.56-.02,3.13,0,4.69,0,.65.39,1.04,1.02,1.08.43.03.87.02,1.3,0,.69-.03,1.07-.45,1.1-1.21.01-.34,0-.69,0-1.07h2.12c.59,2.08-.71,4.39-2.67,4.63-.78.1-1.58.09-2.36,0-1.53-.18-2.71-1.64-2.73-3.33-.02-1.6-.02-3.21,0-4.81.01-1.71,1.17-3.21,2.73-3.41.8-.11,1.63-.11,2.42,0,1.43.2,2.47,1.43,2.66,3.01.06.52,0,1.05,0,1.62Z"/>
        <g>
          <rect class="cls-3" x="22.24" y="44.25" width="40.59" height="7.13"/>
          <g>
            <rect class="cls-2" x="37.29" y="46.46" width="1.97" height="2.15"/>
            <rect class="cls-2" x="41.01" y="46.46" width="1.97" height="2.15"/>
            <rect class="cls-2" x="44.72" y="46.46" width="1.97" height="2.15"/>
          </g>
        </g>
        <rect class="cls-3" x="22.69" y="16.83" width="40.59" height="7.13"/>
        <g>
          <rect class="cls-2" x="37.73" y="19.03" width="1.97" height="2.15"/>
          <rect class="cls-2" x="41.45" y="19.03" width="1.97" height="2.15"/>
          <rect class="cls-2" x="45.16" y="19.03" width="1.97" height="2.15"/>
        </g>
      </g>
    </g>
  </g>
</svg>