<?xml version="1.0" encoding="UTF-8"?>
<svg id="Layer_2" data-name="Layer 2" xmlns="http://www.w3.org/2000/svg" viewBox="0 0 82.15 62.45">
  <defs>
    <style>
      .cls-1 {
        fill: none;
        stroke: #174477;
        stroke-miterlimit: 10;
        stroke-width: 2px;
      }

      .cls-2 {
        fill: #ffd109;
      }

      .cls-2, .cls-3 {
        stroke-width: 0px;
      }

      .cls-3 {
        fill: #174477;
      }
    </style>
  </defs>
  <g id="Layer_5" data-name="Layer 5">
    <g>
      <path class="cls-3" d="m0,31.28C4.42,18.99,20.92.24,41.27,0c20.34-.24,40.88,24.48,40.88,31.28,0,5.97-20.72,31.41-40.51,31.17C21.85,62.21,2.45,41.79,0,31.88"/>
      <circle class="cls-2" cx="41.27" cy="31.28" r="29.37"/>
      <g>
        <line class="cls-1" x1="41.69" y1="3.89" x2="41.69" y2="9.92"/>
        <line class="cls-1" x1="41.59" y1="52.72" x2="41.59" y2="58.75"/>
      </g>
      <g>
        <line class="cls-1" x1="14.21" y1="31.27" x2="20.24" y2="31.27"/>
        <line class="cls-1" x1="63.05" y1="31.37" x2="69.08" y2="31.37"/>
      </g>
      <g>
        <path class="cls-3" d="m37.17,27.82c.86-1.44,2.09-2.59,4.19-2.59s4.44,1.19,4.89,2.38,0-2.75,3.94-2.59,4.46,1.07,4.46,1.07c0,0,0,2.05-2.94,4.27-1.68,1.27-3.53.66-3.53.66,0,0,.96,2.28.66,3.94-.45,2.46-2.92,4.23-2.92,4.23,0,0-1.1,6.9-4.51,6.9s-4.07-6.9-4.07-6.9c0,0-2.73-1.45-3.29-4.15-.45-2.18.9-3.9.9-3.9,0,0-2.71.41-4.76-1.48s-2.09-3.49-2.09-3.49c0,0,3.12-1.9,5.83-.99s3.24,2.63,3.24,2.63Z"/>
        <g>
          <path class="cls-1" d="m39.31,26.58l-3.53-6.24s-4.76.82-7.35-.7-4.89-6.12-4.6-8.05"/>
          <path class="cls-1" d="m27.43,18.9c.74-2.3.7-4.81,3.25-5.26"/>
        </g>
        <g>
          <path class="cls-1" d="m43.59,26.4l3.53-6.24s4.76.82,7.35-.7,4.89-6.12,4.6-8.05"/>
          <path class="cls-1" d="m55.47,18.72c-.74-2.3-.7-4.81-3.25-5.26"/>
        </g>
      </g>
    </g>
  </g>
</svg>