<?xml version="1.0" encoding="UTF-8"?>
<svg id="Layer_2" data-name="Layer 2" xmlns="http://www.w3.org/2000/svg" viewBox="0 0 84.54 84.54">
  <defs>
    <style>
      .cls-1 {
        fill: #fde35a;
      }

      .cls-2 {
        fill: #fff;
      }

      .cls-3 {
        fill: none;
      }

      .cls-4 {
        fill: #166474;
      }
    </style>
  </defs>
  <g id="Layer_5" data-name="Layer 5">
    <g>
      <circle class="cls-3" cx="42.27" cy="42.27" r="42.27"/>
      <g>
        <g>
          <path class="cls-4" d="M34.18,49.67h26.14c1.25.2,1.26,1.97,0,2.18h-26.01c-1.29-.14-1.36-1.85-.13-2.18Z"/>
          <path class="cls-4" d="M23.47,49.67h6.82c1.25.29,1.18,2.01-.1,2.18h-6.69c-1.22-.2-1.25-1.95-.03-2.18Z"/>
        </g>
        <g>
          <path class="cls-4" d="M50.33,44.95c-.17.24-.5.42-.79.44h-26.01c-1.3-.17-1.27-2.05.04-2.19h25.94c.85.08,1.32,1.02.83,1.74Z"/>
          <path class="cls-4" d="M52.97,43.51c.13-.12.44-.28.61-.3h6.77c1.21.24,1.21,1.95,0,2.18h-6.77c-.89-.13-1.29-1.24-.61-1.88Z"/>
        </g>
        <g>
          <path class="cls-4" d="M16.17,56.1h19.54c.09,0,.48.26.55.34l1.92,2.85.11.04h7.3c.05-.03.29-.38.34-.46.5-.72,1-1.66,1.55-2.32.11-.14.49-.45.66-.45h19.54V23.78c0-1.06-1.01-1.95-2.02-2.03-1.09-.09-2.31.09-3.41,0-1.27-.1-1.38-1.86-.17-2.14,1.26.05,2.61-.09,3.86-.01,2.13.14,3.83,1.99,3.92,4.1v32.4s3.42,0,3.42,0c.03,0,.3.12.35.15.39.22.5.58.53,1.01.06.97.03,2.24,0,3.23-.17,4.65-3.47,8.16-8.11,8.54H17.76c-3.52-.25-6.56-2.56-7.66-5.91-.65-1.97-.35-4.09-.4-6.13,0-.37.52-.89.87-.89h3.38V23.88c.02-2.18,1.75-4.16,3.96-4.28,1.26-.07,2.59.05,3.86.01,1.18.29,1.07,2.04-.17,2.14s-3.25-.26-4.27.24c-.53.26-1.16.98-1.16,1.6v32.51ZM34.89,58.29H11.84c.02,1.17-.08,2.32.16,3.47.6,2.85,3.08,4.92,5.98,5.09h47.86c3.04-.17,5.56-2.4,6.06-5.4.17-1.03.04-2.12.08-3.16h-23.07l-1.83,2.81c-.2.24-.49.4-.8.41l-8.9-.02c-.24-.07-.47-.18-.62-.38l-1.87-2.83Z"/>
          <path class="cls-3" d="M34.89,58.29l1.87,2.83c.16.2.38.31.62.38l8.9.02c.32-.01.61-.17.8-.41l1.83-2.81h23.07c-.04,1.04.09,2.13-.08,3.16-.5,3-3.02,5.23-6.06,5.4H17.98c-2.9-.16-5.38-2.24-5.98-5.09-.24-1.16-.14-2.3-.16-3.47h23.05Z"/>
        </g>
        <g>
          <path class="cls-4" d="M28.42,6.72h26.93c2,.26,3.58,1.9,3.78,3.91v23.32c-.21,2.09-1.9,3.76-3.99,3.92h-26.44c-2.04-.17-3.67-1.73-3.96-3.74V10.42c.28-1.89,1.79-3.42,3.68-3.7ZM27.25,9.8c-.19.27-.35.82-.37,1.15v22.71c.09.95.73,1.72,1.64,1.98,8.92.07,17.86.07,26.78,0,.9-.24,1.53-.98,1.64-1.91V10.88c-.09-1.11-.96-1.94-2.06-2.02h-25.9c-.67.05-1.33.4-1.72.94Z"/>
          <path class="cls-1" d="M27.25,9.8c.4-.55,1.05-.9,1.72-.94h25.9c1.1.09,1.97.92,2.06,2.02v22.86c-.11.92-.75,1.67-1.64,1.91-8.92.08-17.86.07-26.78,0-.91-.26-1.55-1.03-1.64-1.98V10.95c.02-.33.18-.88.37-1.15ZM31.77,14.85c-2.52,4-2.18,9.22.86,12.84.27.32,1.04,1.18,1.36,1.4.6.42,1.51.11,1.68-.61.23-.91-.58-1.31-1.11-1.9-3.09-3.48-3.07-8.55.11-11.96.5-.54,1.23-.88,1.01-1.77-.09-.37-.45-.73-.83-.78-.6-.08-.85.16-1.25.53-.68.64-1.33,1.45-1.83,2.24ZM50.64,28.28c3.25-3.39,4.07-8.36,1.9-12.59-.59-1.16-1.69-2.64-2.71-3.45-.46-.37-1.35-.15-1.61.39-.47.95.42,1.43.95,2.02,3.21,3.55,3.16,8.56-.05,12.09-.33.36-.92.74-.99,1.23-.14.95.7,1.57,1.58,1.18.27-.12.71-.64.93-.87ZM37.51,15.28c-.74.12-1.92,1.62-2.29,2.26-1.15,1.98-1.12,4.41.06,6.36.38.63,1.39,1.92,2.1,2.13.55.16,1.26-.19,1.34-.79.14-.99-.54-1.17-1.08-1.8-1.5-1.73-1.41-4.03.14-5.7.5-.54,1.03-.63.95-1.52-.05-.59-.65-1.03-1.23-.94ZM45.38,17.16c.22.23.53.43.76.69,1.53,1.73,1.5,4.03-.07,5.73-.49.53-1.1.71-.98,1.58.09.63.74,1.03,1.35.87.67-.18,1.76-1.54,2.12-2.14,1.63-2.72.93-6.33-1.57-8.26-1.36-1.05-2.51.59-1.62,1.53ZM40.82,23.74v6.57h-2.27c-.09,0-.3.1-.39.15-.89.51-.65,1.9.38,2.04l6.89-.03c1-.29,1.09-1.71.09-2.08-.05-.02-.22-.08-.25-.08h-2.27v-6.57c1.59-.63,2.55-2.33,2.02-4.02-.66-2.06-3.08-2.96-4.91-1.74-1.75,1.16-1.92,3.74-.33,5.12.31.27.68.46,1.04.64Z"/>
          <g>
            <path d="M40.82,23.74c-.36-.18-.73-.38-1.04-.64-1.59-1.38-1.42-3.95.33-5.12,1.83-1.22,4.26-.32,4.91,1.74.54,1.69-.42,3.39-2.02,4.02v6.57h2.27s.2.06.25.08c1,.37.91,1.79-.09,2.08l-6.89.03c-1.03-.13-1.27-1.53-.38-2.04.09-.05.3-.15.39-.15h2.27v-6.57ZM42.96,20.67c0-.58-.47-1.05-1.05-1.05s-1.05.47-1.05,1.05.47,1.05,1.05,1.05,1.05-.47,1.05-1.05Z"/>
            <path d="M50.64,28.28c-.22.23-.66.76-.93.87-.87.38-1.71-.23-1.58-1.18.07-.49.67-.87.99-1.23,3.21-3.53,3.26-8.54.05-12.09-.53-.59-1.42-1.07-.95-2.02.27-.54,1.15-.76,1.61-.39,1.01.81,2.12,2.3,2.71,3.45,2.16,4.23,1.34,9.2-1.9,12.59Z"/>
            <path d="M31.77,14.85c.5-.79,1.15-1.59,1.83-2.24.4-.38.65-.61,1.25-.53.39.05.74.41.83.78.22.89-.5,1.23-1.01,1.77-3.18,3.41-3.2,8.48-.11,11.96.53.59,1.34.98,1.11,1.9-.18.71-1.09,1.03-1.68.61-.32-.22-1.09-1.07-1.36-1.4-3.04-3.62-3.38-8.85-.86-12.84Z"/>
            <path d="M45.38,17.16c-.9-.94.26-2.58,1.62-1.53,2.49,1.93,3.19,5.54,1.57,8.26-.36.6-1.45,1.96-2.12,2.14-.61.17-1.26-.23-1.35-.87-.13-.87.49-1.06.98-1.58,1.57-1.7,1.6-4,.07-5.73-.23-.26-.54-.46-.76-.69Z"/>
            <path d="M37.51,15.28c.58-.09,1.18.35,1.23.94.08.89-.45.98-.95,1.52-1.55,1.67-1.65,3.96-.14,5.7.55.63,1.23.81,1.08,1.8-.09.6-.8.95-1.34.79-.71-.2-1.72-1.5-2.1-2.13-1.18-1.95-1.21-4.39-.06-6.36.37-.64,1.55-2.14,2.29-2.26Z"/>
          </g>
          <circle class="cls-2" cx="41.91" cy="20.67" r="1.05"/>
        </g>
      </g>
    </g>
  </g>
</svg>