<?xml version="1.0" encoding="UTF-8"?>
<svg id="Layer_2" data-name="Layer 2" xmlns="http://www.w3.org/2000/svg" viewBox="0 0 84.54 84.54">
  <defs>
    <style>
      .cls-1 {
        fill: #fff;
        fill-rule: evenodd;
      }

      .cls-1, .cls-2 {
        stroke-width: 0px;
      }

      .cls-2 {
        fill: #f39320;
      }
    </style>
  </defs>
  <g id="Layer_1-2" data-name="Layer 1">
    <g>
      <rect class="cls-2" x="0" width="84.54" height="84.54" rx="9.96" ry="9.96"/>
      <path class="cls-1" d="m13.77,41.91c0-15.74,12.76-28.5,28.5-28.5s28.5,12.76,28.5,28.5-12.76,28.5-28.5,28.5c-15.72.02-28.48-12.72-28.5-28.44,0-.02,0-.04,0-.06Zm51.08,0c0-12.47-10.11-22.58-22.58-22.58-12.47,0-22.58,10.11-22.58,22.58,0,12.47,10.11,22.58,22.58,22.58,12.46-.02,22.56-10.12,22.58-22.58Zm-37.73,0c-.02-.67.02-1.34.1-2h14.55v-13.15h.5c8.37,0,15.15,6.78,15.15,15.15s-6.78,15.15-15.15,15.15-15.15-6.78-15.15-15.15h0Z"/>
    </g>
  </g>
</svg>