<?xml version="1.0" encoding="UTF-8"?>
<svg id="Layer_2" data-name="Layer 2" xmlns="http://www.w3.org/2000/svg" xmlns:xlink="http://www.w3.org/1999/xlink" viewBox="0 0 84.54 93.56">
  <defs>
    <style>
      .cls-1 {
        font-family: BerlinSansFBDemi-Bold, 'Berlin Sans FB Demi';
        font-size: 10px;
        font-weight: 700;
      }

      .cls-1, .cls-2 {
        fill: #fff;
      }

      .cls-3 {
        clip-rule: evenodd;
      }

      .cls-3, .cls-4 {
        fill: none;
      }

      .cls-3, .cls-2, .cls-5 {
        stroke-width: 0px;
      }

      .cls-4 {
        stroke: #fff;
        stroke-miterlimit: 10;
        stroke-width: 2px;
      }

      .cls-5 {
        fill: #76927a;
      }

      .cls-6 {
        clip-path: url(#clippath);
      }
    </style>
    <clipPath id="clippath">
      <polygon class="cls-3" points="8.42 21.39 80.6 21.39 80.6 93.56 8.42 93.56 8.42 21.39 8.42 21.39"/>
    </clipPath>
  </defs>
  <g id="Layer_5" data-name="Layer 5">
    <g>
      <rect class="cls-5" width="84.54" height="84.54" rx="9.96" ry="9.96"/>
      <g class="cls-6">
        <path class="cls-2" d="m48.43,59.51c-.41-1.6-.83-3.02-1.08-4.47-.05-.31.44-.86.81-1.07,1.39-.75,1.65-1.79.33-2.68-1.02-.69-2.41-1.34-3.56-1.24-1.84.17-4.16-.26-5.15,2.18-.09.22-.62.3-.96.39-7.99,2.17-15.97,4.33-24.28,6.58-.55-2.21-1.18-4.6-1.68-7.01-.05-.24.6-.83,1-.92,7.82-1.61,15.65-3.19,23.49-4.72.55-.11,1.23.08,1.77.32,1.11.48,4.69-.85,5.88-2.28,2.12-2.54,1.67-6.45-1.05-8.36-1.14-.8-2.42-1.41-3.63-2.1,0-.17.02-.35.02-.52.94-.09,1.91-.37,2.81-.23,2.87.45,5.29,1.81,7.12,4.11,2.28,2.86,3.81,6.07,4.32,9.69.13.9-.16,1.99-.6,2.82-.59,1.1-.26,2.02.68,2.1,1.4.11,1.44.95,1.65,1.87.93,4.19,1.22,3.2-2.56,4.27-1.66.47-3.35.81-5.33,1.27Z"/>
        <path class="cls-2" d="m40.14,69.29c-.44-1.81-.72-3.4-1.26-4.9-.2-.56-.94-1.19-1.53-1.31-2.08-.43-4.2-.66-6.77-1.03,2.6-2.05,4.83-3.8,7.25-5.7.59.74,1.13,1.42,1.73,2.16-.54.52-1.04.99-1.83,1.74,4.71-.5,3.42,3.46,4.67,5.57,2.22-.5,4.42-1,6.86-1.56.69,2.72,1.37,5.4,2.18,8.57.52-.92.86-1.48,1.16-2.06,1.12-2.18,2.25-4.35,3.31-6.56.67-1.39,1.68-1.81,3.07-1.31,1.62.58,3.21,1.25,5.11,1.99-1.16-3.07-2.25-5.97-3.4-9.02,1.88-.92,3.67-1.79,5.91-2.88-1.84-.4-3.21-.7-4.7-1.03.13-.96.25-1.83.39-2.87,4.39.8,8.63,1.57,12.88,2.34.03.12.06.25.09.37-2.8,1.37-5.59,2.74-8.39,4.11q-2.71,1.33-1.65,4.12c1.41,3.71,2.82,7.42,4.35,11.43-3.88-2.09-7.41-3.99-11.09-5.97-2.71,5.28-5.26,10.26-8.06,15.7-1.16-4.75-2.2-9.04-3.28-13.46-2.33.52-4.58,1.02-7.02,1.57Z"/>
      </g>
      <g>
        <rect class="cls-4" x="5.66" y="14.98" width="71.16" height="13.61" rx="3.18" ry="3.18" transform="translate(-4.09 10.8) rotate(-14.23)"/>
        <text class="cls-1" transform="translate(23.32 29.13) rotate(-14)"><tspan x="0" y="0">Integrity</tspan></text>
      </g>
    </g>
  </g>
</svg>