<?xml version="1.0" encoding="UTF-8"?>
<svg id="Layer_2" data-name="Layer 2" xmlns="http://www.w3.org/2000/svg" viewBox="0 0 84.54 84.54">
  <defs>
    <style>
      .cls-1 {
        fill: none;
        stroke-width: 2px;
      }

      .cls-1, .cls-2 {
        stroke: #174477;
        stroke-miterlimit: 10;
      }

      .cls-3, .cls-4 {
        stroke-width: 0px;
      }

      .cls-3, .cls-2 {
        fill: #f2bb1e;
      }

      .cls-4 {
        fill: #174477;
      }

      .cls-2 {
        stroke-width: 3px;
      }
    </style>
  </defs>
  <g id="Layer_5" data-name="Layer 5">
    <g>
      <rect class="cls-3" width="84.54" height="84.54" rx="9.96" ry="9.96"/>
      <g>
        <path class="cls-4" d="m1.65,41.35C6.07,29.05,22.57,10.31,42.92,10.07c20.34-.24,40.88,24.48,40.88,31.28,0,5.97-20.72,31.41-40.51,31.17-19.79-.24-39.19-20.66-41.64-30.57"/>
        <circle class="cls-2" cx="42.92" cy="41.35" r="29.37"/>
        <g>
          <line class="cls-1" x1="42.97" y1="14.38" x2="42.97" y2="20.41"/>
          <line class="cls-1" x1="42.87" y1="63.22" x2="42.87" y2="69.25"/>
        </g>
        <g>
          <line class="cls-1" x1="15.48" y1="41.77" x2="21.51" y2="41.77"/>
          <line class="cls-1" x1="64.32" y1="41.87" x2="70.35" y2="41.87"/>
        </g>
        <g>
          <path class="cls-4" d="m38.45,38.32c.86-1.44,2.09-2.59,4.19-2.59s4.44,1.19,4.89,2.38,0-2.75,3.94-2.59c3.94.16,4.46,1.07,4.46,1.07,0,0,0,2.05-2.94,4.27-1.68,1.27-3.53.66-3.53.66,0,0,.96,2.28.66,3.94-.45,2.46-2.92,4.23-2.92,4.23,0,0-1.1,6.9-4.51,6.9s-4.07-6.9-4.07-6.9c0,0-2.73-1.45-3.29-4.15-.45-2.18.9-3.9.9-3.9,0,0-2.71.41-4.76-1.48-2.05-1.89-2.09-3.49-2.09-3.49,0,0,3.12-1.9,5.83-.99s3.24,2.63,3.24,2.63Z"/>
          <g>
            <path class="cls-1" d="m40.58,37.08l-3.53-6.24s-4.76.82-7.35-.7-4.89-6.12-4.6-8.05"/>
            <path class="cls-1" d="m28.71,29.4c.74-2.3.7-4.81,3.25-5.26"/>
          </g>
          <g>
            <path class="cls-1" d="m44.87,36.9l3.53-6.24s4.76.82,7.35-.7c2.59-1.52,4.89-6.12,4.6-8.05"/>
            <path class="cls-1" d="m56.74,29.22c-.74-2.3-.7-4.81-3.25-5.26"/>
          </g>
        </g>
      </g>
    </g>
  </g>
</svg>