<?xml version="1.0" encoding="UTF-8"?>
<svg id="Layer_2" data-name="Layer 2" xmlns="http://www.w3.org/2000/svg" viewBox="0 0 84.54 84.54">
  <defs>
    <style>
      .cls-1 {
        fill: #fff;
        fill-rule: evenodd;
      }

      .cls-1, .cls-2 {
        stroke-width: 0px;
      }

      .cls-2 {
        fill: #f39320;
      }
    </style>
  </defs>
  <g id="Layer_1-2" data-name="Layer 1">
    <g>
      <rect class="cls-2" width="84.54" height="84.54" rx="9.96" ry="9.96"/>
      <g>
        <path class="cls-1" d="m30.71,49.88c-1.75,0-3.17,1.42-3.17,3.17s1.42,3.17,3.17,3.17,3.17-1.42,3.17-3.17-1.42-3.17-3.17-3.17Z"/>
        <path class="cls-1" d="m30.71,28.6c-1.75,0-3.17,1.42-3.17,3.17s1.42,3.17,3.17,3.17,3.17-1.42,3.17-3.17-1.42-3.17-3.17-3.17Z"/>
        <path class="cls-1" d="m59.4,15.91H25.14c-5.14,0-9.37,4.23-9.37,9.37v34.26c0,5.14,4.23,9.37,9.37,9.37h34.26c5.14,0,9.37-4.23,9.37-9.37V25.28c0-5.14-4.23-9.37-9.37-9.37Zm2.3,43.68c0,1.24-1.01,2.25-2.25,2.25H25.09c-1.24,0-2.25-1.01-2.25-2.25v-13.07c0-1.24,1.01-2.25,2.25-2.25h34.36c1.24,0,2.25,1.01,2.25,2.25v13.07Zm0-21.29c0,1.24-1.01,2.25-2.25,2.25H25.09c-1.24,0-2.25-1.01-2.25-2.25v-13.07c0-1.24,1.01-2.25,2.25-2.25h34.36c1.24,0,2.25,1.01,2.25,2.25v13.07Z"/>
      </g>
    </g>
  </g>
</svg>