<?xml version="1.0" encoding="UTF-8"?>
<svg id="Layer_2" data-name="Layer 2" xmlns="http://www.w3.org/2000/svg" viewBox="0 0 84.54 84.54">
  <defs>
    <style>
      .cls-1 {
        fill: #fff;
      }

      .cls-1, .cls-2 {
        stroke-width: 0px;
      }

      .cls-2 {
        fill: #f39320;
      }
    </style>
  </defs>
  <g id="Layer_5" data-name="Layer 5">
    <g>
      <rect class="cls-2" width="84.54" height="84.54" rx="9.96" ry="9.96"/>
      <g>
        <path class="cls-1" d="m63.66,28.12c-.06.05-.15.08-.16.14-.45,1.58-1.56,2.64-2.84,3.54-1.92,1.35-4.08,2.17-6.32,2.82-2.91.84-5.88,1.29-8.89,1.51-3.33.24-6.65.18-9.96-.22-3.94-.48-7.8-1.32-11.36-3.19-1.45-.76-2.79-1.68-3.71-3.08-.23-.36-.38-.77-.58-1.15-.07-.13-.15-.25-.23-.37,0-.53,0-1.05,0-1.58.07-.13.15-.25.22-.38.25-.47.45-.99.77-1.42,1.1-1.5,2.65-2.45,4.3-3.22,3.91-1.83,8.09-2.6,12.36-2.98.2-.02.38-.12.57-.18,2.54,0,5.08,0,7.62,0,.11.06.22.16.34.17,2.46.18,4.88.54,7.27,1.14,2.59.65,5.1,1.5,7.34,2.99,1.39.92,2.6,2,3.09,3.69.01.05.11.07.17.11v1.67Z"/>
        <path class="cls-1" d="m19.61,59.26c.18-.28.36-.55.56-.87.18.2.36.4.55.59,1.2,1.19,2.69,1.9,4.24,2.5,2.6,1,5.3,1.56,8.04,1.95,3.49.5,6.99.66,10.51.55,4.76-.15,9.47-.69,14.01-2.22,1.47-.5,2.89-1.1,4.14-2.04.51-.38.97-.85,1.46-1.29.17.26.35.54.54.82v1.3c-.06.04-.15.07-.17.13-.33.95-1.02,1.61-1.8,2.18-1.27.93-2.7,1.55-4.19,2.05-3.58,1.21-7.28,1.77-11.03,2.06-.19.01-.38.12-.57.18h-8.46c-.15-.06-.29-.15-.44-.17-2.36-.32-4.73-.55-7.07-.97-2.56-.45-5.05-1.21-7.34-2.5-1.21-.69-2.33-1.49-2.84-2.88-.01-.04-.1-.06-.15-.08,0-.43,0-.87,0-1.3Z"/>
        <path class="cls-1" d="m63.66,37.42s-.11.03-.12.06c-.7,1.8-2.25,2.66-3.84,3.43-2.27,1.1-4.7,1.69-7.17,2.17-.37.07-.75.13-1.16.2v-3.07c1.52-.35,3.01-.65,4.49-1.05,2.02-.54,3.99-1.24,5.71-2.48.56-.4,1.04-.9,1.56-1.36.16.23.35.51.53.79v1.3Z"/>
        <path class="cls-1" d="m19.61,43.92c.19-.29.37-.57.56-.86,1.85,2.16,4.39,3.05,6.98,3.8,1.4.41,2.86.66,4.29.98.15.03.3.08.47.12v3.16c-1.44-.33-2.84-.61-4.23-.97-2-.52-3.93-1.2-5.68-2.33-.96-.62-1.82-1.34-2.22-2.47-.02-.05-.11-.08-.17-.12,0-.43,0-.87,0-1.3Z"/>
        <path class="cls-1" d="m63.66,45.22c-.05.03-.14.04-.15.09-.54,1.45-1.73,2.27-3,2.96-2.24,1.23-4.68,1.9-7.17,2.43-.63.13-1.27.24-1.96.37v-3.1c1.23-.27,2.45-.51,3.66-.81,2.07-.52,4.11-1.16,5.93-2.32.77-.49,1.45-1.12,2.18-1.69.14.21.32.49.5.77v1.3Z"/>
        <path class="cls-1" d="m63.66,52.94c-.05.03-.14.05-.15.09-.56,1.53-1.82,2.34-3.16,3.05-2.34,1.25-4.88,1.91-7.46,2.43-.48.1-.97.18-1.55.29,0-.37,0-.7,0-1.02,0-.59.02-1.18,0-1.76,0-.28.08-.37.35-.41,2.18-.38,4.33-.87,6.41-1.65,1.44-.54,2.83-1.17,4.02-2.17.35-.3.68-.62,1.03-.93.15.23.33.5.52.78v1.3Z"/>
        <path class="cls-1" d="m19.61,36.12c.1-.14.2-.27.29-.41.09-.14.16-.28.25-.44,1.86,2.17,4.38,3.06,6.96,3.81,1.46.42,2.98.69,4.46,1.04.13.03.34.17.34.26.03.95.02,1.91.02,2.94-1.03-.21-2-.38-2.95-.6-2.17-.5-4.29-1.16-6.26-2.23-.86-.47-1.67-1.01-2.28-1.79-.24-.3-.4-.66-.6-.98-.05-.08-.15-.13-.22-.2,0-.46,0-.93,0-1.39Z"/>
        <path class="cls-1" d="m19.61,51.64c.18-.27.36-.54.54-.81.45.41.88.87,1.38,1.24,1.69,1.26,3.63,1.98,5.63,2.52,1.41.39,2.85.67,4.29.97.37.08.51.21.49.6-.03.86-.01,1.72-.01,2.67-1.24-.27-2.42-.5-3.59-.78-2.23-.54-4.4-1.26-6.34-2.51-.96-.62-1.82-1.34-2.22-2.47-.02-.06-.11-.09-.17-.13,0-.43,0-.87,0-1.3Z"/>
        <path class="cls-1" d="m43.31,43.52c-.04.21-.06.28-.06.35-.05,1.47-.08,2.94-.14,4.41-.01.3.16.36.37.43,1.18.41,2.36.83,3.42,1.53,2.62,1.75,2.44,5.06,1,6.77-.95,1.13-2.23,1.67-3.64,1.96-.36.07-.73.15-1.1.16-.32.01-.39.16-.38.44.01.22,0,.43,0,.65-.03.79-.51,1.2-1.39,1.18-.84-.02-1.28-.47-1.27-1.26,0-.36.11-.83-.06-1.07-.16-.22-.65-.2-.99-.28-1.26-.3-2.47-.71-3.5-1.52-.46-.36-.82-.79-.9-1.41-.1-.72.22-1.25.91-1.46,1.05-.32,1.88.14,2.71.72.56.39,1.2.66,1.89,1.03.04-.28.08-.41.08-.55.05-1.42.08-2.85.14-4.27.01-.3-.09-.43-.36-.54-1-.4-2.03-.76-2.98-1.26-1.79-.94-2.82-2.39-2.61-4.51.21-2.07,1.37-3.45,3.25-4.2.72-.29,1.52-.39,2.28-.57.24-.05.49-.06.79-.1,0-.4,0-.79,0-1.17.02-.74.56-1.23,1.34-1.22.82,0,1.35.5,1.33,1.27,0,.42-.04.83-.06,1.24.63.19,1.27.3,1.83.57.76.36,1.5.8,2.17,1.3.51.38.89.92.72,1.64-.13.57-.45.92-1.03,1.05-.8.19-1.49-.03-2.16-.45-.48-.3-.98-.57-1.56-.89Zm-2.81-.17c-1.03,0-1.98.74-2.11,1.66-.18,1.2.55,2.13,2.11,2.59v-4.25Zm2.44,8.6v4.22c1.46.05,2.5-1.5,1.82-2.79-.36-.69-1.03-1.02-1.82-1.43Z"/>
      </g>
    </g>
  </g>
</svg>