<?xml version="1.0" encoding="UTF-8"?>
<svg id="Layer_2" data-name="Layer 2" xmlns="http://www.w3.org/2000/svg" viewBox="0 0 84.54 84.54">
  <defs>
    <style>
      .cls-1 {
        fill: #231f20;
      }

      .cls-2 {
        fill: #fde35a;
      }

      .cls-3 {
        fill: #fff;
      }

      .cls-4 {
        fill: #166474;
      }

      .cls-5 {
        fill: none;
        stroke: #fff;
        stroke-miterlimit: 10;
        stroke-width: 3px;
      }
    </style>
  </defs>
  <g id="Layer_5" data-name="Layer 5">
    <g>
      <g>
        <rect class="cls-4" width="84.54" height="84.54" rx="9.96" ry="9.96"/>
        <g>
          <path class="cls-5" d="M42.28,17.89c-6.49,0-12.98,0-19.48,0-3.76,0-6.11,2.36-6.12,6.12-.01,3.8,0,7.61,0,11.22-.88.59-1.57.41-2.23.47-2.26.21-2.82,1.17-1.66,3.05,1.7,2.73,3.52,5.38,5.31,8.05,1.1,1.65,2.74,1.66,3.82,0,1.68-2.59,3.51-5.08,5.06-7.76,1.41-2.45,1.08-3.15-1.68-3.34-.57-.04-1.16.09-1.95-.5,0-2.84.04-5.9-.02-8.96-.03-1.72,1.05-1.68,2.24-1.68,5.56.01,11.13,0,16.69,0"/>
          <path class="cls-5" d="M42.28,69.09c6.49,0,12.98,0,19.48,0,3.76,0,6.11-2.36,6.12-6.12.01-3.8,0-7.61,0-11.22.88-.59,1.57-.41,2.23-.47,2.26-.21,2.82-1.17,1.66-3.05-1.7-2.73-3.52-5.38-5.31-8.05-1.1-1.65-2.74-1.66-3.82,0-1.68,2.59-3.51,5.08-5.06,7.76-1.41,2.45-1.08,3.15,1.68,3.34.57.04,1.16-.09,1.95.5,0,2.84-.04,5.9.02,8.96.03,1.72-1.05,1.68-2.24,1.68-5.56-.01-11.13,0-16.69,0"/>
          <path class="cls-5" d="M45.2,51.28c.37-2.05,1.61-3.42,3.16-4.78,2.6-2.26,3.62-5.9,2.28-9.42-1.4-3.69-5.57-6.1-8.64-5.87-3.84.3-6.52,2.28-8.01,5.62-1.45,3.26-.64,6.4,1.61,9.16.8.98,2.04,1.49,2.76,2.52.68.97,1.15,2.2.8,3.31-.53,1.68-.29,3.24,1.21,3.8,1.18.44,2.84.53,4.11-.19,1.59-.91,1.3-2.41.85-3.86"/>
          <path class="cls-5" d="M42.28,40.43v10.43"/>
          <path class="cls-5" d="M68.15,12.89c-.98-.61-.85-1.8-1.55-2.72-1.32-.11-2.81-.11-4.13,0-.71.92-.58,2.11-1.55,2.72-1.04.09-1.75-.9-3.07-.82-.78.77-1.71,1.7-2.5,2.5.06,1.17.64,1.91.89,2.65-.42,1.47-1.84,1.17-2.77,1.96-.11,1.3-.11,2.79,0,4.11.92.71,2.11.58,2.72,1.55.09,1.04-.9,1.75-.82,3.07.77.78,1.7,1.71,2.5,2.5,1.17-.06,1.91-.64,2.71-.91,3.17,3.99,4.73,3.99,7.89,0,.81.27,1.54.85,2.71.91.81-.8,1.74-1.73,2.53-2.53-.06-1.17-.64-1.91-.89-2.65.43-1.46,1.83-1.18,2.8-1.92.08-1.24-.01-2.64.04-4.01-.75-.89-2.17-.64-2.8-1.69-.09-1.04.9-1.75.82-3.07-.77-.78-1.7-1.71-2.5-2.5-1.19.02-1.89.69-2.77.84"/>
          <path class="cls-5" d="M23.63,57.4c-.98-.61-.85-1.8-1.55-2.72-1.32-.11-2.81-.11-4.13,0-.71.92-.58,2.11-1.55,2.72-1.04.09-1.75-.9-3.07-.82-.78.77-1.71,1.7-2.5,2.5.06,1.17.64,1.91.89,2.65-.42,1.47-1.84,1.17-2.77,1.96-.11,1.3-.11,2.79,0,4.11.92.71,2.11.58,2.72,1.55.09,1.04-.9,1.75-.82,3.07.77.78,1.7,1.71,2.5,2.5,1.17-.06,1.91-.64,2.71-.91,3.17,3.99,4.73,3.99,7.89,0,.81.27,1.54.85,2.71.91.81-.8,1.74-1.73,2.53-2.53-.06-1.17-.64-1.91-.89-2.65.43-1.46,1.83-1.18,2.8-1.92.08-1.24-.01-2.64.04-4.01-.75-.89-2.17-.64-2.8-1.69-.09-1.04.9-1.75.82-3.07-.77-.78-1.7-1.71-2.5-2.5-1.19.02-1.89.69-2.77.84"/>
          <path class="cls-5" d="M19.18,61.3c-3.46,1.91-4.37,3.86-3.07,6.4,1.01,1.97,2.68,2.75,4.73,2.46,1.95-.28,3.62-2.51,3.62-4.41,0-2.08-1.54-3.85-3.9-4.44-.35-.09-.74-.01-1.11-.01"/>
          <path class="cls-5" d="M63.7,16.78c-3.46,1.91-4.37,3.86-3.07,6.4,1.01,1.97,2.68,2.75,4.73,2.46,1.95-.28,3.62-2.51,3.62-4.41,0-2.08-1.54-3.85-3.9-4.44-.35-.09-.74-.01-1.11-.01"/>
        </g>
      </g>
      <g>
        <path class="cls-1" d="M54.87,29.61v27.59h-11.57v4.26l-.29.15-3.39-1.66-3.55,1.73v-4.48c-3.09.47-5.1-1.59-5.35-4.55-.5-5.96.35-12.59.02-18.62-.03-1.62,1.8-4.42,3.53-4.42h20.61ZM53.14,47.38v-15.82l-.22-.22h-18.36c-.24,0-.88.44-1.09.64-.19.19-.86,1.28-.86,1.45v14.3s-.13.09-.13.14c.29.47.51-.02.85-.15.22-.08,1.09-.36,1.23-.36h18.58ZM49.52,49.26h-15.25c-.56,0-1.43,1.36-1.59,1.88-.71,2.33.71,4.89,3.4,4.34v-3.61c2.12.19,4.66-.25,6.73,0,.21.02.37.02.5.22v3.4h6.22c-.5-2.12-.64-4.1,0-6.21ZM53.14,49.26h-1.72c-.49,1.61-.75,2.99-.41,4.66.32,1.57.46,1.69,2.13,1.55v-6.21ZM41.42,53.59h-3.47v5.2l1.78-.83,1.69.83v-5.2Z"/>
        <path class="cls-2" d="M53.14,47.38h-18.58c-.14,0-1.01.28-1.23.36-.34.12-.56.62-.85.15,0-.06.13-.11.13-.14v-14.3c0-.17.67-1.26.86-1.45.21-.2.85-.64,1.09-.64h18.36l.22.22v15.82ZM41.21,33.08l-1.23,1.23,1.59,1.59-1.59,1.59,1.23,1.23c.4-.27,1.26-1.54,1.71-1.43l1.48,1.43,1.23-1.23c-.27-.4-1.54-1.26-1.43-1.7l1.42-1.6-1.22-1.1-1.59,1.58-1.59-1.58ZM47.87,33.86c-.16-.15-.77-.8-.87-.78l-1.24,1.22,1.59,1.59-1.59,1.59,1.23,1.22,1.37-1.37c.57-.38,1.66,1.62,2.02,1.37.05-.49,1.18-.81,1.01-1.35-.04-.13-1.43-1.1-1.43-1.59.21-.5,1.55-1.1,1.42-1.58l-1.07-1.11-1.62,1.42h-.31c-.11-.23-.34-.47-.52-.64ZM36.07,37.41v6.28l8.18.18c.39-.07.15-1.48.21-1.84h-6.51v-4.62c.5.08.96,0,1.48.04.16.01.28.29.25-.11l-2.67-2.67c-.2,0-2.25,2.54-2.82,2.6-.32.45,1.8.06,1.88.14ZM51.44,42.96c0-1.55-1.26-2.81-2.81-2.81s-2.81,1.26-2.81,2.81,1.26,2.81,2.81,2.81,2.81-1.26,2.81-2.81Z"/>
        <path class="cls-2" d="M49.52,49.26c-.64,2.11-.5,4.09,0,6.21h-6.22v-3.4c-.13-.21-.29-.2-.5-.22-2.07-.24-4.61.2-6.73,0v3.61c-2.69.56-4.12-2-3.4-4.34.16-.52,1.03-1.88,1.59-1.88h15.25Z"/>
        <polygon class="cls-3" points="41.42 53.59 41.42 58.79 39.74 57.96 37.95 58.79 37.95 53.59 41.42 53.59"/>
        <path class="cls-2" d="M53.14,49.26v6.21c-1.67.14-1.81.01-2.13-1.55-.34-1.66-.08-3.05.41-4.64h1.72Z"/>
        <path class="cls-1" d="M36.07,37.41c-.08-.08-2.2.31-1.88-.14.57-.06,2.62-2.6,2.82-2.6l2.67,2.67c.03.4-.09.12-.25.11-.53-.03-.98.04-1.48-.04v4.62h6.51c-.06.36.18,1.77-.21,1.84l-8.18-.18v-6.28Z"/>
        <path class="cls-1" d="M51.44,42.96c0,1.55-1.26,2.81-2.81,2.81s-2.81-1.26-2.81-2.81,1.26-2.81,2.81-2.81,2.81,1.26,2.81,2.81ZM49.67,42.94c0-.57-.46-1.03-1.03-1.03s-1.03.46-1.03,1.03.46,1.03,1.03,1.03,1.03-.46,1.03-1.03Z"/>
        <path class="cls-1" d="M47.87,33.86c.18.17.41.41.52.63h.31s1.62-1.41,1.62-1.41l1.07,1.11c.13.48-1.21,1.08-1.42,1.58,0,.49,1.39,1.46,1.43,1.59.16.54-.97.85-1.01,1.35-.36.25-1.45-1.75-2.02-1.37l-1.37,1.37-1.23-1.22,1.59-1.59-1.59-1.59,1.24-1.22c.1-.02.71.62.87.78Z"/>
        <path class="cls-1" d="M41.21,33.08l1.59,1.58,1.59-1.58,1.22,1.1-1.42,1.6c-.12.44,1.15,1.3,1.43,1.7l-1.23,1.23-1.48-1.43c-.44-.12-1.3,1.15-1.71,1.43l-1.23-1.23,1.59-1.59-1.59-1.59,1.23-1.23Z"/>
        <circle class="cls-3" cx="48.64" cy="42.94" r="1.03"/>
      </g>
    </g>
  </g>
</svg>