<?xml version="1.0" encoding="UTF-8"?>
<svg id="Layer_2" data-name="Layer 2" xmlns="http://www.w3.org/2000/svg" viewBox="0 0 84.54 84.54">
  <defs>
    <style>
      .cls-1 {
        fill: #58529e;
      }

      .cls-2 {
        fill: #fff;
      }

      .cls-3 {
        fill: none;
        stroke: #fff;
        stroke-miterlimit: 10;
        stroke-width: 2px;
      }
    </style>
  </defs>
  <g id="Layer_1-2" data-name="Layer 1">
    <g>
      <rect class="cls-1" x="0" width="84.54" height="84.54" rx="9.96" ry="9.96"/>
      <g>
        <polygon class="cls-2" points="39.29 28.1 38.61 34.34 34.57 34.81 38.22 35.63 45.68 35.63 49.23 34.93 45.48 34.57 44.96 27.63 39.29 28.1"/>
        <rect class="cls-2" x="27.51" y="7.86" width="29.62" height="21.89"/>
        <rect class="cls-1" x="30.63" y="10.41" width="23.61" height="16.42"/>
      </g>
      <g>
        <polygon class="cls-2" points="60.14 57.35 59.46 63.59 55.42 64.06 59.07 64.88 66.53 64.88 70.08 64.18 66.33 63.82 65.81 56.88 60.14 57.35"/>
        <rect class="cls-2" x="48.36" y="37.11" width="29.62" height="21.89"/>
        <rect class="cls-1" x="51.48" y="39.66" width="23.61" height="16.42"/>
      </g>
      <g>
        <polygon class="cls-2" points="18.44 57.35 17.76 63.59 13.72 64.06 17.37 64.88 24.83 64.88 28.38 64.18 24.62 63.82 24.11 56.88 18.44 57.35"/>
        <rect class="cls-2" x="6.66" y="37.11" width="29.62" height="21.89"/>
        <rect class="cls-1" x="9.78" y="39.66" width="23.61" height="16.42"/>
      </g>
      <g>
        <circle class="cls-3" cx="42.69" cy="71.27" r="5.31"/>
        <path class="cls-3" d="m48,71.27h13.78c1.47-.48,1.04-2.51,1.04-4.18"/>
        <path class="cls-3" d="m36.79,71.27h-13.78c-1.47-.48-1.04-2.51-1.04-4.18"/>
        <line class="cls-3" x1="42.36" y1="50.68" x2="42.36" y2="37.9"/>
        <line class="cls-3" x1="42.36" y1="55" x2="42.36" y2="52.98"/>
        <line class="cls-3" x1="42.36" y1="59.29" x2="42.36" y2="57.28"/>
        <line class="cls-3" x1="42.36" y1="63.53" x2="42.36" y2="61.51"/>
        <line class="cls-3" x1="42.36" y1="72.1" x2="42.36" y2="70.08"/>
      </g>
    </g>
  </g>
</svg>