<?xml version="1.0" encoding="UTF-8"?>
<svg id="Layer_2" data-name="Layer 2" xmlns="http://www.w3.org/2000/svg" viewBox="0 0 84.54 84.54">
  <defs>
    <style>
      .cls-1 {
        fill: #fff;
      }

      .cls-1, .cls-2 {
        stroke-width: 0px;
      }

      .cls-2 {
        fill: #f39320;
      }
    </style>
  </defs>
  <g id="Layer_1-2" data-name="Layer 1">
    <g>
      <rect class="cls-2" width="84.54" height="84.54" rx="9.96" ry="9.96"/>
      <path class="cls-1" d="m22.14,55.52c-2.08-2.07-2.08-5.43-.01-7.51,2.07-2.08,5.43-2.08,7.51-.01,2.08,2.07,2.08,5.43.01,7.51-1,1-2.35,1.56-3.76,1.56-1.41,0-2.75-.56-3.75-1.55Zm30.45-3.75c0-2.93,2.37-5.3,5.3-5.3,2.93,0,5.3,2.37,5.3,5.3,0,2.93-2.37,5.3-5.3,5.3h0c-2.93,0-5.3-2.37-5.3-5.3Zm-22.86,14.42c-1.04-1.49-.68-3.53.81-4.58,1.49-1.04,3.53-.68,4.58.81h0c.32.52.88.86,1.5.89,1.17-.11,2.05-1.11,2-2.28v-18.86H14.39c0-15.19,12.31-27.5,27.5-27.5s27.5,12.31,27.5,27.5h-24.21v18.76c.09,4.78-3.69,8.73-8.47,8.84h-.32c-2.68,0-5.18-1.35-6.66-3.58Z"/>
    </g>
  </g>
</svg>