<?xml version="1.0" encoding="UTF-8"?>
<svg id="Layer_2" data-name="Layer 2" xmlns="http://www.w3.org/2000/svg" viewBox="0 0 84.54 84.54">
  <defs>
    <style>
      .cls-1 {
        fill: #1793d0;
      }

      .cls-2 {
        fill: #231f20;
      }

      .cls-3 {
        fill: #fff;
      }

      .cls-4 {
        fill: #fde35a;
        stroke: #231f20;
      }

      .cls-4, .cls-5 {
        stroke-miterlimit: 10;
      }

      .cls-5 {
        fill: none;
        stroke: #fff;
        stroke-width: 2px;
      }
    </style>
  </defs>
  <g id="Layer_5" data-name="Layer 5">
    <g>
      <g>
        <rect class="cls-1" width="84.54" height="84.54" rx="9.96" ry="9.96"/>
        <polygon class="cls-3" points="38.55 28.89 37.87 35.12 33.83 35.6 37.48 36.42 44.94 36.42 48.49 35.71 44.73 35.36 44.22 28.42 38.55 28.89"/>
        <rect class="cls-3" x="26.76" y="8.64" width="29.62" height="21.89"/>
        <rect class="cls-1" x="29.88" y="11.19" width="23.61" height="16.42"/>
        <polygon class="cls-3" points="59.4 58.14 58.72 64.37 54.68 64.84 58.33 65.67 65.79 65.67 69.34 64.96 65.58 64.61 65.07 57.66 59.4 58.14"/>
        <rect class="cls-3" x="47.61" y="37.89" width="29.62" height="21.89"/>
        <rect class="cls-1" x="50.74" y="40.44" width="23.61" height="16.42"/>
        <polygon class="cls-3" points="17.7 58.14 17.02 64.37 12.98 64.84 16.63 65.67 24.09 65.67 27.64 64.96 23.88 64.61 23.37 57.66 17.7 58.14"/>
        <rect class="cls-3" x="5.91" y="37.89" width="29.62" height="21.89"/>
        <rect class="cls-1" x="9.03" y="40.44" width="23.61" height="16.42"/>
        <circle class="cls-5" cx="41.95" cy="72.06" r="5.31"/>
        <path class="cls-5" d="M47.26,72.06h13.78c1.47-.48,1.04-2.51,1.04-4.18"/>
        <path class="cls-5" d="M36.05,72.06h-13.78c-1.47-.48-1.04-2.51-1.04-4.18"/>
        <line class="cls-5" x1="41.62" y1="51.46" x2="41.62" y2="38.69"/>
        <line class="cls-5" x1="41.62" y1="55.78" x2="41.62" y2="53.76"/>
        <line class="cls-5" x1="41.62" y1="60.08" x2="41.62" y2="58.06"/>
        <line class="cls-5" x1="41.62" y1="64.32" x2="41.62" y2="62.3"/>
        <line class="cls-5" x1="41.62" y1="72.89" x2="41.62" y2="70.87"/>
      </g>
      <g>
        <rect class="cls-4" x="30.91" y="64.74" width="22.72" height="16.3"/>
        <g>
          <path class="cls-2" d="M33.41,66.86h2.32c.45,0,.8.03,1.03.1.24.07.48.25.73.54.24.29.44.69.58,1.2.14.51.21,1.07.21,1.71,0,1.48-.35,2.52-1.04,3.13l1.36,5.18h-1.77l-.99-4.69h-.81v4.69h-1.62v-11.85ZM35.03,68.77v3.33h.71c.63,0,.95-.57.95-1.71,0-.39-.05-.72-.14-.97-.09-.25-.2-.42-.33-.51-.13-.09-.31-.13-.55-.13h-.65Z"/>
          <path class="cls-2" d="M39.44,66.86h1.62v11.85h-1.62v-11.85Z"/>
          <path class="cls-2" d="M41.63,66.86h4.6v2.22h-1.51v9.63h-1.62v-9.63h-1.47v-2.22Z"/>
          <path class="cls-2" d="M47.95,66.86h1.63l2.11,11.85h-1.66l-.37-2.45h-2.08l-.36,2.45h-1.49l2.22-11.85ZM49.35,74.23l-.75-4.86-.71,4.86h1.46Z"/>
        </g>
      </g>
    </g>
  </g>
</svg>