<?xml version="1.0" encoding="UTF-8"?>
<svg id="Layer_2" data-name="Layer 2" xmlns="http://www.w3.org/2000/svg" viewBox="0 0 84.54 84.54">
  <defs>
    <style>
      .cls-1 {
        fill: #f39320;
      }

      .cls-2 {
        fill: #fff;
      }
    </style>
  </defs>
  <g id="Layer_1-2" data-name="Layer 1">
    <g>
      <rect class="cls-1" width="84.54" height="84.54" rx="9.96" ry="9.96"/>
      <g>
        <path class="cls-2" d="m15.71,59.41c0,5.14,4.24,9.37,9.38,9.37h15.05v-24.43H15.71s0,15.06,0,15.06Zm13.22-10.25c3.54,0,6.41,2.87,6.41,6.41s-2.87,6.41-6.41,6.41-6.41-2.87-6.41-6.41,2.87-6.41,6.41-6.41Z"/>
        <path class="cls-2" d="m44.29,68.78h15.05c5.14,0,9.37-4.23,9.37-9.37v-15.06h-24.42s0,24.43,0,24.43Zm11.21-19.62c3.54,0,6.41,2.87,6.41,6.41s-2.87,6.41-6.41,6.41-6.41-2.87-6.41-6.41,2.87-6.41,6.41-6.41Z"/>
        <path class="cls-2" d="m15.71,25.15v15.06h24.43V15.78h-15.05c-5.14,0-9.38,4.23-9.38,9.37Zm19.63,3.84c0,3.54-2.87,6.41-6.41,6.41s-6.41-2.87-6.41-6.41,2.87-6.41,6.41-6.41,6.41,2.87,6.41,6.41Z"/>
        <path class="cls-2" d="m59.34,15.78h-15.05v24.43h24.42v-15.06c0-5.14-4.23-9.37-9.37-9.37Zm-3.84,19.62c-3.54,0-6.41-2.87-6.41-6.41s2.87-6.41,6.41-6.41,6.41,2.87,6.41,6.41-2.87,6.41-6.41,6.41Z"/>
      </g>
    </g>
  </g>
</svg>