<?xml version="1.0" encoding="UTF-8"?>
<svg id="Layer_2" data-name="Layer 2" xmlns="http://www.w3.org/2000/svg" viewBox="0 0 84.54 84.54">
  <defs>
    <style>
      .cls-1 {
        fill: #fff;
      }

      .cls-2 {
        fill: #c64127;
      }
    </style>
  </defs>
  <g id="Layer_1-2" data-name="Layer 1">
    <rect class="cls-2" width="84.54" height="84.54" rx="9.96" ry="9.96"/>
    <g>
      <path class="cls-1" d="m73.08,52.09c-.09.29-.13.52-.23.73-.18.38-.32.81-.59,1.12-.91,1.05-.14,1.97.19,2.92.04.13.28.21.45.27.65.21,1.3.39,1.95.6.86.29,1.25.84,1.25,1.72,0,.94,0,1.88,0,2.82,0,.72-.3,1.21-1.03,1.4-.23.06-.45.13-.68.19-1.73.53-1.74.52-2.25,2.25-.05.17,0,.41.09.57.29.59.6,1.17.91,1.75.31.59.25,1.13-.23,1.61-.78.78-1.56,1.57-2.35,2.34-.45.45-.97.53-1.55.22-.43-.23-.89-.43-1.31-.69-.53-.34-.99-.31-1.62-.13-.97.29-1.45.81-1.58,1.77-.05.32-.18.63-.28.94-.23.67-.67,1.05-1.41,1.04-1.04-.01-2.07-.01-3.11,0-.74,0-1.2-.31-1.37-1.05-.05-.21-.14-.4-.17-.61-.2-1.15-.7-1.96-1.96-2.2-.39-.07-.69-.13-1.04.07-.53.3-1.08.57-1.62.85-.57.3-1.08.23-1.54-.22-.78-.78-1.56-1.56-2.35-2.34-.48-.48-.56-1-.23-1.6.2-.35.34-.73.56-1.06.45-.68.49-1.29.16-2.08-.29-.71-.66-1.07-1.39-1.27-2.46-.66-2.29-.7-2.27-3.08,0-.59,0-1.18,0-1.76,0-.99.22-1.27,1.18-1.54.11-.03.23-.08.34-.09,1.44-.03,1.87-1.07,2.2-2.2.05-.17,0-.41-.09-.58-.29-.59-.6-1.17-.91-1.75-.31-.59-.25-1.12.23-1.6.77-.76,1.54-1.52,2.29-2.3.5-.51,1.05-.56,1.67-.24.44.23.89.43,1.31.7.49.32.91.29,1.49.13,1.01-.29,1.43-.89,1.69-1.86.52-1.96.57-1.94,2.62-1.94.73,0,1.46,0,2.19,0,.66,0,1.12.3,1.3.97.06.25.18.49.22.74.17,1.14.72,1.89,1.92,2.14.38.08.68.17,1.04-.04.54-.32,1.12-.6,1.68-.88.54-.27,1.05-.21,1.49.23.8.79,1.61,1.59,2.39,2.4.17.17.25.43.36.63Zm-11.93,14.43c3.25,0,5.95-2.7,5.93-5.93-.01-3.24-2.64-5.84-5.9-5.85-3.29,0-5.94,2.64-5.92,5.9.02,3.25,2.65,5.87,5.89,5.87Z"/>
      <path class="cls-1" d="m73.53,39.95c-6.87-4.43-13.66-4.34-20.48.12-.08-1.57-.12-3.09-.23-4.61-.55-7.58-1.52-15.1-4.38-22.22-.78-1.94-1.89-3.75-2.8-5.51,13.87,1.53,27.87,14.62,27.88,32.21Z"/>
      <path class="cls-1" d="m36,7.66c-3.45,4.65-4.8,10.02-5.9,15.47-1.08,5.35-1.6,10.78-1.73,16.24,0,.23-.04.45-.07.72-6.73-4.84-14.91-4.11-20.48-.06.06-6.67,1.89-12.69,5.55-18.13,5.78-8.62,14.75-13.22,22.64-14.22Z"/>
      <path class="cls-1" d="m50.85,39.93c-6.81-4.37-13.54-4.37-20.37.03.08-1.69.11-3.3.23-4.91.3-4.1.79-8.18,1.66-12.21.87-4.02,1.89-8.01,3.95-11.61.67-1.18,1.57-2.29,2.56-3.23,1.13-1.07,2.42-.98,3.65-.03,1.43,1.11,2.31,2.65,3.08,4.24,1.7,3.51,2.71,7.24,3.48,11.05,1.09,5.38,1.66,10.82,1.76,16.3,0,.09,0,.19,0,.36Z"/>
      <path class="cls-1" d="m41.69,50.35c-.9,0-1.72,0-2.54,0-.23,0-.47,0-.7-.04-.59-.1-.99-.58-.96-1.13.03-.57.45-1.02,1.05-1.03,2-.02,4-.02,6,0,.65,0,1.06.43,1.07,1.07.02,1.95.02,3.91,0,5.86,0,.66-.5,1.14-1.1,1.14-.58,0-1.09-.48-1.11-1.15-.03-.99,0-1.97,0-3.08-.22.17-.36.27-.48.39-3.38,3.38-6.75,6.76-10.14,10.12-.29.29-.34.52-.22.91.43,1.37-.08,2.78-1.24,3.61-1.13.81-2.68.81-3.83-.01-1.14-.81-1.65-2.27-1.22-3.62.11-.36.09-.58-.19-.85-1.45-1.41-2.88-2.84-4.29-4.29-.27-.28-.5-.27-.86-.21-.57.1-1.2.22-1.73.05-.57-.18-.84,0-1.19.36-1.87,1.89-3.75,3.77-5.64,5.64-.31.3-.43.54-.28,1.02.54,1.74-.52,3.59-2.23,4.05-1.79.48-3.59-.47-4.1-2.18-.51-1.7.49-3.57,2.26-4.02.58-.15,1.25-.08,1.86.02.37.06.58.04.85-.23,1.95-1.97,3.91-3.94,5.89-5.89.3-.29.33-.53.21-.92-.41-1.33.07-2.71,1.16-3.51,1.1-.8,2.66-.86,3.78-.13,1.19.77,1.74,2.01,1.38,3.41-.16.62,0,.98.43,1.39,1.35,1.31,2.68,2.65,3.99,3.99.26.27.48.29.85.23.66-.1,1.34,0,2.01-.02.22,0,.53,0,.66-.14,3.5-3.52,6.99-7.05,10.48-10.58.03-.03.04-.08.11-.25Z"/>
    </g>
  </g>
</svg>