<?xml version="1.0" encoding="UTF-8"?>
<svg id="Layer_2" data-name="Layer 2" xmlns="http://www.w3.org/2000/svg" viewBox="0 0 84.54 84.54">
  <defs>
    <style>
      .cls-1, .cls-2 {
        fill: #fff;
      }

      .cls-3 {
        fill: #c64127;
      }

      .cls-2 {
        stroke: #c64127;
        stroke-miterlimit: 10;
      }
    </style>
  </defs>
  <g id="Layer_1-2" data-name="Layer 1">
    <rect class="cls-3" width="84.54" height="84.54" rx="9.96" ry="9.96"/>
    <path class="cls-2" d="m17.77,41.37c0-10.03,0-20.06,0-30.09,0-.99.17-1.15,1.18-1.15,16.34,0,32.68,0,49.02,0,.96,0,1.13.18,1.13,1.15,0,16.47,0,32.94.02,49.4,0,.52-.16.88-.54,1.24-3.63,3.39-7.24,6.81-10.85,10.22-.31.3-.64.44-1.08.44-12.56-.01-25.11,0-37.67,0-1.08,0-1.22-.14-1.22-1.22,0-9.99,0-19.99,0-29.98h0Zm1.52-29.72v59.37h36.92c0-.28,0-.53,0-.77,0-2.94,0-5.87,0-8.81,0-.89.21-1.1,1.08-1.1,3.22,0,6.44,0,9.66,0h.64V11.65H19.3Z"/>
    <path class="cls-1" d="m19.3,11.65h48.3v48.69h-.64c-3.22,0-6.44,0-9.66,0-.87,0-1.08.21-1.08,1.1,0,2.94,0,5.87,0,8.81,0,.25,0,.49,0,.77H19.3V11.65Zm25.6,23.52c-1.17-.27-5.74.27-6.62.77.84,1.16,1.67,2.33,2.53,3.53,0-.92,0-1.74,0-2.57,0-.32.06-.59.44-.59.33,0,.42.24.43.55.05,1.34.12,2.69.18,4.03.02.55-.25.74-.76.54-1.07-.41-2.14-.83-3.21-1.25-.23-.09-.5-.14-.68-.29-.14-.12-.24-.38-.21-.56.02-.1.32-.2.51-.21.14-.01.3.09.45.15.68.26,1.37.52,2.05.79-.81-1.33-1.69-2.57-2.59-3.79-.06-.08-.29-.1-.41-.06-1.85.59-3.58,1.42-5.04,2.73-.93.83-1.66,1.8-1.96,3.02-.67,2.7,1.32,5.04,3.3,6.14.22-.38.45-.75.68-1.13.16-.27.35-.54.71-.32.36.22.21.5.05.78-.22.39-.44.78-.66,1.17.1.08.14.12.18.14.11.06.22.12.33.17,3.56,1.73,7.34,2.22,11.24,2.09.38-.01.41-.22.44-.51.16-1.64.33-3.27.49-4.91.03-.32.1-.64.5-.6.41.04.4.39.37.7-.1.98-.21,1.97-.3,2.95-.07.73-.14,1.46-.2,2.19.11.02.17.04.22.04,1.81-.19,3.6-.55,5.31-1.19,2.05-.76,3.94-1.76,5.34-3.5,1.55-1.94,1.56-4.24.04-6.19-1.39-1.78-3.3-2.79-5.36-3.56-.87-.33-.88-.32-1.48.38-.02.03-.04.07-.07.08-.19.03-.44.14-.56.06-.12-.09-.15-.37-.13-.55.03-.17.18-.33.37-.63-1.7-.25-3.31-.48-5.01-.72,0,.4.06.68-.02.91-.07.19-.3.32-.46.47-.14-.16-.34-.3-.4-.49-.07-.24-.02-.52-.02-.77Zm-7.51-.57c-1.04-1.46-2.08-2.92-3.12-4.38,2.96-2.43,2.89-6.14,1.14-8.41-1.89-2.45-5.25-3.09-7.89-1.48-2.59,1.58-3.59,4.89-2.28,7.65.63,1.35,1.65,2.33,3.01,2.93,1.72.75,3.43.65,5.15-.15.86,1.19,1.7,2.37,2.54,3.55q.54.75,1.45.29Zm8.44-8.42c1.68-.21,3.04-.89,4.09-2.14,1.05-1.25,1.54-2.7,1.39-4.32-.3-3.09-2.57-5.26-5.68-5.5-2.78-.21-5.45,1.7-6.17,4.42-.38,1.44-.25,2.84.41,4.18,1.02,2.05,2.75,3.1,4.99,3.39v7.5h.97v-7.53Zm10.46,3.61c3.8,1.36,6.84-.78,7.88-3.32,1.11-2.69.01-5.9-2.56-7.4-2.58-1.51-5.87-.87-7.72,1.5-.92,1.18-1.36,2.52-1.26,4.01.13,2.01,1.09,3.58,2.76,4.73-.66.91-1.29,1.79-1.91,2.66-.62.87-1.24,1.75-1.87,2.63.92.45.93.44,1.45-.3,1.07-1.5,2.14-2.99,3.22-4.51Zm-10.57,25.27c-2.69.34-3.4.58-4.52,1.62-1.26,1.16-1.91,2.61-1.95,4.32-.07,2.96,2.12,5.55,5.08,6.02,2.91.47,5.84-1.31,6.71-4.07.45-1.42.41-2.83-.18-4.19-.79-1.81-2.19-2.95-4.1-3.51.09-.99.18-1.95.27-2.9-.99-.13-1.05-.08-1.11.79-.05.65-.13,1.29-.2,1.93Zm-12.32-5.21c-.29-.18-.56-.35-.87-.54-.58.98-1.13,1.92-1.68,2.85-3.16-1.41-6.41-.08-7.85,2.57-1.45,2.69-.64,6.04,1.86,7.76,2.59,1.78,5.93,1.32,8.01-1.11.97-1.13,1.43-2.47,1.38-3.96-.06-1.98-.96-3.54-2.51-4.74.55-.95,1.09-1.86,1.65-2.83Z"/>
    <path class="cls-1" d="m33.42,30.66c-.86-1.21-1.67-2.34-2.49-3.47-.18-.25-.24-.5.02-.7.3-.23.53-.05.71.2.82,1.15,1.64,2.3,2.49,3.49-.24.16-.47.31-.74.48Z"/>
    <path class="cls-1" d="m45.8,20.19c0,1.73,0,3.46,0,5.19,0,.78-.01.79-.91.65v-5.91c-.05-.01-.1-.03-.15-.04-.1.13-.2.25-.29.39-.4.6-.78,1.22-1.21,1.8-.1.13-.37.14-.57.2-.06-.21-.23-.5-.15-.63.79-1.21,1.6-2.4,2.44-3.58.28-.39.55-.35.83.07.75,1.13,1.49,2.28,2.24,3.41.17.26.21.5-.07.69-.29.2-.5.04-.66-.2-.46-.69-.91-1.38-1.36-2.07l-.13.04Z"/>
    <path class="cls-1" d="m56.28,29.68c-.27-.14-.5-.27-.78-.42,1.39-1.95,2.76-3.88,4.13-5.8-.02-.03-.04-.06-.06-.09-.6.22-1.2.45-1.8.67-.18.07-.36.14-.54.21-.3.13-.61.13-.68-.22-.03-.17.17-.49.35-.57.75-.34,1.54-.62,2.31-.92.49-.19.98-.39,1.48-.57.48-.17.74-.01.73.48-.04,1.34-.1,2.68-.16,4.02,0,.07,0,.17-.03.21-.14.15-.3.28-.46.41-.13-.16-.37-.31-.38-.47-.02-.62.03-1.23.06-1.85,0-.26,0-.51,0-.94-1.44,2.02-2.79,3.9-4.17,5.84Z"/>
    <path class="cls-1" d="m45.23,60.62c.18-1.78.37-3.57.56-5.42.28.04.53.07.85.11-.18,1.81-.36,3.59-.55,5.51.19-.17.29-.24.37-.33.46-.54.88-1.11,1.37-1.61.13-.13.45-.09.68-.13,0,.22.09.51-.02.64-.85,1.08-1.74,2.13-2.63,3.19-.26.3-.56.27-.75-.05-.72-1.23-1.41-2.47-2.08-3.73-.07-.13.08-.39.13-.59.21.07.51.08.6.22.45.72.85,1.48,1.26,2.23.06-.01.12-.03.19-.04Z"/>
    <path class="cls-1" d="m27.53,57.98c1.11-1.88,2.21-3.77,3.35-5.71.24.14.48.27.77.43-1.14,1.95-2.26,3.86-3.37,5.76.02.03.04.06.07.08.71-.33,1.42-.66,2.12-1,.3-.15.62-.31.81.1.18.4-.14.55-.45.7-1.13.54-2.26,1.08-3.39,1.62-.53.25-.76.12-.8-.45-.09-1.29-.17-2.57-.27-3.86-.02-.33.03-.65.41-.68.39-.03.46.29.48.62.04.79.1,1.57.15,2.36.05,0,.09.02.14.03Z"/>
  </g>
</svg>