<?xml version="1.0" encoding="UTF-8"?>
<svg id="Layer_2" data-name="Layer 2" xmlns="http://www.w3.org/2000/svg" viewBox="0 0 84.79 84.79">
  <defs>
    <style>
      .cls-1 {
        fill: #fff;
      }

      .cls-2, .cls-3 {
        fill: #166474;
      }

      .cls-3 {
        stroke: #231f20;
        stroke-miterlimit: 10;
        stroke-width: .25px;
      }
    </style>
  </defs>
  <g id="Layer_5" data-name="Layer 5">
    <g>
      <rect class="cls-3" x=".12" y=".12" width="84.54" height="84.54" rx="9.96" ry="9.96"/>
      <g>
        <path class="cls-1" d="M65.53,11.44v55.19h-23.14v8.52l-.57.29-6.78-3.32-7.11,3.46v-8.96c-6.19.94-10.2-3.18-10.7-9.11-1-11.91.71-25.18.03-37.23-.05-3.24,3.6-8.85,7.05-8.85h41.21ZM62.06,46.97V15.34l-.43-.43H24.9c-.48,0-1.77.88-2.18,1.29-.38.38-1.72,2.57-1.72,2.9v28.61c0,.08-.26.18-.26.29.58.94,1.01-.05,1.7-.29.44-.16,2.18-.72,2.46-.72h37.16ZM54.83,50.73h-30.51c-1.12,0-2.87,2.71-3.19,3.75-1.43,4.66,1.43,9.79,6.8,8.67v-7.22c4.24.38,9.32-.5,13.46-.01.42.05.74.04,1,.45v6.79h12.44c-1-4.24-1.28-8.21,0-12.42ZM62.06,50.73l-3.44.03c-.98,3.18-1.5,5.96-.82,9.29.64,3.13.92,3.39,4.26,3.11v-12.42ZM38.64,59.4h-6.94v10.4l3.57-1.67,3.37,1.67v-10.4Z"/>
        <path class="cls-2" d="M62.06,46.97H24.9c-.29,0-2.02.56-2.46.72-.68.25-1.11,1.24-1.7.29,0-.11.26-.21.26-.29v-28.61c0-.33,1.34-2.52,1.72-2.9.41-.41,1.7-1.29,2.18-1.29h36.73l.43.43v31.64ZM38.2,18.37l-2.45,2.45,3.17,3.18-3.17,3.18,2.45,2.45c.8-.55,2.53-3.09,3.41-2.85l2.95,2.85,2.45-2.45c-.55-.8-3.09-2.52-2.86-3.41l2.85-3.21-2.45-2.19-3.18,3.17-3.18-3.17ZM51.54,19.93c-.32-.31-1.55-1.6-1.75-1.55l-2.47,2.45,3.17,3.18-3.17,3.18,2.45,2.44,2.74-2.73c1.14-.76,3.31,3.24,4.04,2.73.09-.99,2.35-1.62,2.03-2.69-.08-.25-2.85-2.19-2.85-3.18.41-1,3.09-2.2,2.84-3.16l-2.14-2.23-3.23,2.85-.61-.02c-.22-.45-.67-.92-1.04-1.26ZM27.94,27.04v12.57l16.35.36c.77-.14.3-2.96.42-3.68h-13.01v-9.25c1,.16,1.92,0,2.97.07.32.02.57.59.5-.21l-5.35-5.34c-.4,0-4.51,5.09-5.64,5.2-.64.9,3.59.12,3.76.28ZM58.67,38.13c0-3.1-2.52-5.62-5.63-5.62s-5.63,2.52-5.63,5.62,2.52,5.62,5.63,5.62,5.63-2.52,5.63-5.62Z"/>
        <path class="cls-2" d="M54.83,50.73c-1.28,4.22-1,8.19,0,12.42h-12.44v-6.79c-.25-.41-.58-.4-1-.45-4.14-.49-9.22.39-13.46.01v7.22c-5.37,1.12-8.23-4.01-6.8-8.67.32-1.04,2.07-3.75,3.19-3.75h30.51Z"/>
        <polygon class="cls-2" points="38.64 59.4 38.64 69.8 35.26 68.13 31.7 69.8 31.7 59.4 38.64 59.4"/>
        <path class="cls-2" d="M62.06,50.73v12.42c-3.34.28-3.63.02-4.26-3.11-.68-3.33-.16-6.1.82-9.29l3.44-.03Z"/>
        <path class="cls-1" d="M27.94,27.04c-.17-.17-4.4.61-3.76-.28,1.13-.11,5.24-5.2,5.64-5.2l5.35,5.34c.07.8-.18.23-.5.21-1.05-.07-1.97.09-2.97-.07v9.25h13.01c-.12.72.35,3.55-.42,3.68l-16.35-.36v-12.57Z"/>
        <path class="cls-1" d="M58.67,38.13c0,3.1-2.52,5.62-5.63,5.62s-5.63-2.52-5.63-5.62,2.52-5.62,5.63-5.62,5.63,2.52,5.63,5.62ZM55.13,38.09c0-1.14-.93-2.07-2.07-2.07s-2.07.92-2.07,2.07.93,2.07,2.07,2.07,2.07-.92,2.07-2.07Z"/>
        <path class="cls-1" d="M51.54,19.93c.36.34.81.82,1.04,1.26l.61.02,3.23-2.85,2.14,2.23c.25.96-2.43,2.16-2.84,3.16,0,.98,2.78,2.92,2.85,3.18.33,1.08-1.93,1.71-2.03,2.69-.73.5-2.9-3.5-4.04-2.73l-2.74,2.73-2.45-2.44,3.17-3.18-3.17-3.18,2.47-2.45c.2-.05,1.43,1.25,1.75,1.55Z"/>
        <path class="cls-1" d="M38.2,18.37l3.18,3.17,3.18-3.17,2.45,2.19-2.85,3.21c-.23.89,2.31,2.61,2.86,3.41l-2.45,2.45-2.95-2.85c-.89-.23-2.61,2.31-3.41,2.85l-2.45-2.45,3.17-3.18-3.17-3.18,2.45-2.45Z"/>
        <circle class="cls-2" cx="53.06" cy="38.09" r="2.07"/>
      </g>
    </g>
  </g>
</svg>