<?xml version="1.0" encoding="UTF-8"?>
<svg id="Layer_2" data-name="Layer 2" xmlns="http://www.w3.org/2000/svg" viewBox="0 0 84.54 84.54">
  <defs>
    <style>
      .cls-1 {
        fill: #58529e;
      }

      .cls-2 {
        fill: #fff;
      }
    </style>
  </defs>
  <g id="Layer_1-2" data-name="Layer 1">
    <g>
      <rect class="cls-1" width="84.54" height="84.54" rx="9.96" ry="9.96"/>
      <path class="cls-2" d="m75.19,33.36c.9.28,1.17.86.88,1.85-.84,2.87-1.67,5.75-2.51,8.62-1.57,5.39-3.15,10.77-4.73,16.16-.7,2.39-1.4,4.77-2.1,7.16-.18.62-.49,1.01-1.19,1.01-.29,0-.58.1-.88.06-.16-.14-.35-.07-.53-.07-18.05,0-36.1,0-54.16,0-.18,0-.37.01-.55.02-.63-.08-1.07-.59-1.07-1.23,0-15.69,0-31.38.01-47.07,0-.32-.01-.64-.01-.96,0-.74.31-1.18,1.01-1.41.03,0,.06,0,.1,0,7.35,0,14.69,0,22.04,0,.06,0,.12,0,.18.01.67.25.93.61.93,1.32,0,1.07,0,2.14,0,3.22.02.03.05.06.07.1.16,0,.31,0,.47,0,10.14,0,20.29,0,30.43,0,.58,0,1.15.07,1.73.08.54.01.83.43.97.95,0,3.28,0,6.55-.01,9.83,0,.28.08.37.36.37,2.85-.01,5.7-.01,8.55-.02Zm-41.55,7.16s0-.05.01-.08c.11-.11.23-.21.34-.33,1.95-2.09,3.9-4.18,5.85-6.27.18-.19.35-.39.63-.39.06,0,.11.01.17.01,7.61,0,15.22,0,22.83,0,.12,0,.26.03.36-.08.03-.03.05-.07.08-.1,0-.03.02-.06.03-.09.1-.17.1-.34,0-.52,0-.09,0-.18,0-.27.1-.11.07-.25.07-.37,0-2.13,0-4.26,0-6.4,0-.13.03-.26-.07-.37-.05-.21.04-.43-.06-.63-.23,0-.46,0-.68,0-10.43,0-20.86,0-31.29,0-.18,0-.37-.02-.55-.04-.75-.12-1.1-.54-1.11-1.33,0-.94,0-1.89,0-2.83,0-.15.05-.32-.07-.46H10.85c-.08.35-.1.68-.1,1.02,0,12.42,0,24.84,0,37.25,0,.45,0,.9.01,1.35-.01.08-.07.16.03.22.11-.03.11-.12.11-.2.77-2.21,1.54-4.42,2.31-6.62,1.03-2.96,2.07-5.91,3.1-8.87.3-.86.58-1.72.89-2.57.16-.44.34-.88.88-.95,5.08,0,10.16,0,15.23,0,.11,0,.23.02.31-.09Z"/>
    </g>
  </g>
</svg>