<?xml version="1.0" encoding="UTF-8"?>
<svg id="Layer_2" data-name="Layer 2" xmlns="http://www.w3.org/2000/svg" viewBox="0 0 84.54 84.54">
  <defs>
    <style>
      .cls-1 {
        fill: #fff;
        fill-rule: evenodd;
      }

      .cls-1, .cls-2 {
        stroke-width: 0px;
      }

      .cls-2 {
        fill: #f39320;
      }
    </style>
  </defs>
  <g id="Layer_1-2" data-name="Layer 1">
    <g>
      <rect class="cls-2" width="84.54" height="84.54" rx="9.96" ry="9.96"/>
      <path class="cls-1" d="m59.17,16.27H24.91c-5.14,0-9.37,4.23-9.37,9.37v34.26c0,5.14,4.23,9.37,9.37,9.37h34.26c5.14,0,9.37-4.23,9.37-9.37V25.64c0-5.14-4.23-9.37-9.37-9.37Zm-33.79,14.28l15.69-6.79c.61-.3,1.34-.3,1.95,0l15.68,6.79v2.07H25.38v-2.07Zm.55,4.56h32.22c1.04,0,1.88.84,1.88,1.88s-.84,1.88-1.88,1.88H25.93c-1.04,0-1.88-.84-1.88-1.88s.84-1.88,1.88-1.88Zm30.4,6.27v14.12h-7.05v-14.12h7.05Zm-10.77,0v14.12h-7.05v-14.12h7.05Zm-10.77,0v14.12h-7.05v-14.12h7.05Zm26.36,20.62H22.93v-1.75c0-1.24,1.01-2.25,2.25-2.25h33.73c1.24,0,2.25,1.01,2.25,2.25v1.75h0Z"/>
    </g>
  </g>
</svg>