<?xml version="1.0" encoding="UTF-8"?>
<svg id="Layer_2" data-name="Layer 2" xmlns="http://www.w3.org/2000/svg" viewBox="0 0 84.54 84.54">
  <defs>
    <style>
      .cls-1 {
        fill: #f39320;
      }

      .cls-2 {
        fill: #fff;
        fill-rule: evenodd;
      }
    </style>
  </defs>
  <g id="Layer_1-2" data-name="Layer 1">
    <g>
      <rect class="cls-1" width="84.54" height="84.54" rx="9.96" ry="9.96"/>
      <path class="cls-2" d="m19.9,65.46l-.2-.2c-6.05-6.12-6.05-15.98,0-22.1l23.62-23.62c6.12-6.05,15.98-6.05,22.1,0l.2.2c6.05,6.12,6.05,15.98,0,22.1l-23.62,23.62c-6.12,6.05-15.98,6.05-22.1,0Zm17.46-4.74l11.71-11.72-12.91-12.91-11.72,11.71c-3.5,3.51-3.5,9.2,0,12.71l.21.21c3.51,3.5,9.2,3.5,12.71,0Z"/>
    </g>
  </g>
</svg>