<?xml version="1.0" encoding="UTF-8"?>
<svg id="Layer_2" data-name="Layer 2" xmlns="http://www.w3.org/2000/svg" viewBox="0 0 84.54 84.54">
  <defs>
    <style>
      .cls-1 {
        fill: #f39320;
      }

      .cls-2 {
        fill: #fff;
      }
    </style>
  </defs>
  <g id="Layer_1-2" data-name="Layer 1">
    <g>
      <rect class="cls-1" y="0" width="84.54" height="84.54" rx="9.96" ry="9.96"/>
      <path class="cls-2" d="m15.93,34.97v-9.4c.03-5.12,4.18-9.27,9.3-9.3h9.4v6.8h-10c-1.05,0-1.9.85-1.9,1.9v10h-6.8Zm46.2,0v-10c0-1.05-.85-1.9-1.9-1.9h-10v-6.8h9.4c5.12.03,9.27,4.18,9.3,9.3v9.4h-6.8Zm-34.35,3.45c0-5.63,4.57-10.2,10.2-10.2s10.2,4.57,10.2,10.2h-6.8c-1.85.03-3.33,1.55-3.3,3.4,0,0,0,0,0,0v6.8c-5.64-.02-10.23-4.56-10.3-10.2Zm12.41,18.91c-1.1,0-2-.9-2-2v-6.6c5.62-.02,10.18-4.58,10.2-10.2h6.6c1.1,0,2,.9,2,2v14.8c0,1.1-.89,2-2,2-.03,0-.07,0-.1,0h-14.7Zm-14.96,11.94c-5.12-.03-9.27-4.18-9.3-9.3v-9.4h6.8v10c.05,1.03.87,1.85,1.9,1.9h10v6.8h-9.4Zm25,0v-6.8h10c1.05,0,1.9-.85,1.9-1.9h0v-10h6.8v9.4c-.03,5.12-4.18,9.27-9.3,9.3h-9.4Z"/>
    </g>
  </g>
</svg>