<?xml version="1.0" encoding="UTF-8"?>
<svg id="Layer_2" data-name="Layer 2" xmlns="http://www.w3.org/2000/svg" viewBox="0 0 84.54 84.54">
  <defs>
    <style>
      .cls-1, .cls-2 {
        fill: #1793d0;
      }

      .cls-3 {
        fill: #fff;
      }

      .cls-4 {
        fill: none;
        stroke-width: 2px;
      }

      .cls-4, .cls-2 {
        stroke: #fff;
        stroke-miterlimit: 10;
      }
    </style>
  </defs>
  <g id="Layer_5" data-name="Layer 5">
    <g>
      <g>
        <rect class="cls-1" width="84.54" height="84.54" rx="9.96" ry="9.96"/>
        <polygon class="cls-3" points="38.55 28.89 37.87 35.12 33.83 35.6 37.48 36.42 44.94 36.42 48.49 35.71 44.73 35.36 44.22 28.42 38.55 28.89"/>
        <rect class="cls-3" x="26.76" y="8.64" width="29.62" height="21.89"/>
        <rect class="cls-1" x="29.88" y="11.19" width="23.61" height="16.42"/>
        <polygon class="cls-3" points="59.4 58.14 58.72 64.37 54.68 64.84 58.33 65.67 65.79 65.67 69.34 64.96 65.58 64.61 65.07 57.66 59.4 58.14"/>
        <rect class="cls-3" x="47.61" y="37.89" width="29.62" height="21.89"/>
        <rect class="cls-1" x="50.74" y="40.44" width="23.61" height="16.42"/>
        <polygon class="cls-3" points="17.7 58.14 17.02 64.37 12.98 64.84 16.63 65.67 24.09 65.67 27.64 64.96 23.88 64.61 23.37 57.66 17.7 58.14"/>
        <rect class="cls-3" x="5.91" y="37.89" width="29.62" height="21.89"/>
        <rect class="cls-1" x="9.03" y="40.44" width="23.61" height="16.42"/>
        <circle class="cls-4" cx="41.95" cy="72.06" r="5.31"/>
        <path class="cls-4" d="M47.26,72.06h13.78c1.47-.48,1.04-2.51,1.04-4.18"/>
        <path class="cls-4" d="M36.05,72.06h-13.78c-1.47-.48-1.04-2.51-1.04-4.18"/>
        <line class="cls-4" x1="41.62" y1="51.46" x2="41.62" y2="38.69"/>
        <line class="cls-4" x1="41.62" y1="55.78" x2="41.62" y2="53.76"/>
        <line class="cls-4" x1="41.62" y1="60.08" x2="41.62" y2="58.06"/>
        <line class="cls-4" x1="41.62" y1="64.32" x2="41.62" y2="62.3"/>
        <line class="cls-4" x1="41.62" y1="72.89" x2="41.62" y2="70.87"/>
      </g>
      <g>
        <rect class="cls-2" x="29.8" y="64.74" width="22.72" height="16.3"/>
        <g>
          <path class="cls-3" d="M31.89,66.7h1.89c.82,0,1.49.17,2,.51s.92.97,1.23,1.89.46,2.16.46,3.73c0,1.11-.09,2.1-.28,2.96s-.43,1.54-.74,2.03-.65.83-1.03,1-.86.25-1.44.25h-2.1v-12.37ZM33.65,68.82v8.13h.3c.41,0,.72-.12.95-.36.22-.24.4-.66.53-1.27.13-.6.2-1.47.2-2.61,0-1.05-.07-1.86-.22-2.43-.15-.57-.33-.95-.55-1.16-.22-.2-.52-.3-.91-.3h-.3Z"/>
          <path class="cls-3" d="M38.57,66.7h1.95l2.06,7.69v-7.69h1.36v12.37h-1.57l-2.44-8.95v8.95h-1.36v-12.37Z"/>
          <path class="cls-3" d="M50.27,69.39l-1.45.86c-.21-1.02-.59-1.53-1.14-1.53-.26,0-.46.11-.61.34s-.23.49-.23.79c0,.35.09.63.27.84s.55.48,1.12.82c.52.3.92.59,1.22.88s.53.68.71,1.18.27,1.08.27,1.74c0,1.15-.26,2.1-.77,2.84s-1.2,1.11-2.07,1.11c-1.45,0-2.38-1.13-2.78-3.4l1.54-.68c.19,1.24.62,1.87,1.28,1.87.3,0,.55-.12.74-.37s.28-.57.28-.97c0-.3-.07-.57-.2-.81s-.44-.49-.91-.76c-.61-.34-1.07-.65-1.37-.92s-.55-.67-.74-1.18-.29-1.09-.29-1.74c0-1.11.23-2.02.69-2.73s1.08-1.06,1.84-1.06c1.39,0,2.26.96,2.6,2.88Z"/>
        </g>
      </g>
    </g>
  </g>
</svg>