<?xml version="1.0" encoding="UTF-8"?>
<svg id="Layer_2" data-name="Layer 2" xmlns="http://www.w3.org/2000/svg" viewBox="0 0 84.54 84.54">
  <defs>
    <style>
      .cls-1 {
        fill: #f39320;
      }

      .cls-2 {
        fill: #fff;
        fill-rule: evenodd;
      }
    </style>
  </defs>
  <g id="Layer_1-2" data-name="Layer 1">
    <g>
      <rect class="cls-1" width="84.54" height="84.54" rx="9.96" ry="9.96"/>
      <path class="cls-2" d="m36.7,30.73c-.02-3.24,2.59-5.87,5.83-5.89.02,0,.05,0,.07,0,3.25.02,5.87,2.64,5.89,5.89.02,3.24-2.58,5.88-5.82,5.9-.02,0-.05,0-.07,0-3.25-.01-5.89-2.65-5.9-5.9Zm21.84-3.09c-1.55-7.34-7.15-13.14-15.94-13.14s-14.3,5.8-16,13.14c-3.09,14.59,7.64,30.24,16,41.74,8.31-11.5,19.13-27.25,15.94-41.74Z"/>
    </g>
  </g>
</svg>