<?xml version="1.0" encoding="UTF-8"?>
<svg id="Layer_2" data-name="Layer 2" xmlns="http://www.w3.org/2000/svg" viewBox="0 0 84.54 84.54">
  <defs>
    <style>
      .cls-1 {
        fill: #fff;
      }

      .cls-1, .cls-2 {
        stroke-width: 0px;
      }

      .cls-2 {
        fill: #c64127;
      }
    </style>
  </defs>
  <g id="Layer_1-2" data-name="Layer 1">
    <g>
      <rect class="cls-2" width="84.54" height="84.54" rx="9.96" ry="9.96"/>
      <g>
        <path class="cls-1" d="m27.3,40.13c0,.94.03,1.88,0,2.82-.06,1.45-.72,2.56-2.06,3.14-3.42,1.49-6.87,1.41-10.28-.02-1.45-.61-2.13-1.82-2.17-3.34-.06-1.82-.02-3.65-.01-5.47,0-1.25.77-2.03,1.72-2.65,2.98-1.94,8.36-1.87,11.29.12,1.03.7,1.62,1.61,1.54,2.92-.05.83,0,1.66,0,2.49h-.01Zm-7.29-5.24c-1.26.25-2.54.43-3.78.76-.71.19-1.54.54-1.54,1.41,0,.87.83,1.18,1.53,1.43,1.72.63,3.52.77,5.31.48,1.12-.18,2.26-.52,3.27-1.01.9-.44.84-1.24.01-1.83-.33-.23-.71-.46-1.1-.55-1.2-.27-2.42-.46-3.7-.7Zm5.39,4.81c-1.72.83-3.49,1.24-5.36,1.23-1.87-.01-3.66-.38-5.38-1.28-.1.82.27,1.31.94,1.6,3.01,1.32,6.02,1.36,9.04,0,.65-.29.86-.79.77-1.56Zm-10.7,3.24c-.06.07-.12.13-.18.2.3.37.53.91.92,1.09,3.07,1.43,6.18,1.48,9.28.06.5-.23.81-.63.63-1.31-3.58,1.54-7.12,1.4-10.65-.04Z"/>
        <path class="cls-1" d="m65.87,19.43c0,.91.03,1.83,0,2.74-.07,1.42-.74,2.51-2.04,3.07-3.27,1.42-6.58,1.39-9.91.16-1.72-.63-2.52-1.92-2.59-3.67-.07-1.82-.13-3.66.02-5.47.06-.71.55-1.51,1.09-2.02,1.22-1.16,2.82-1.59,4.45-1.79,2.52-.31,4.95-.03,7.19,1.28,1.23.72,1.86,1.76,1.8,3.21-.03.83,0,1.66,0,2.49h0Zm-7.29-1.07c1.21-.22,2.44-.38,3.63-.68.76-.19,1.7-.52,1.7-1.45,0-.97-.97-1.27-1.75-1.52-1.76-.58-3.59-.69-5.4-.37-1.04.18-2.08.54-3.02,1.01-.81.41-.77,1.19-.04,1.73.37.27.8.54,1.24.64,1.18.26,2.37.44,3.62.65Zm5.42.47c-4.68,1.66-5.66,1.66-10.75.09-.1.8.36,1.26,1,1.53,2.97,1.23,5.95,1.3,8.92-.02.66-.29.94-.81.84-1.59Zm-10.75,3.25c-.02.79.4,1.17.95,1.41,3.02,1.29,6.05,1.36,9.04-.06.38-.18.61-.7.9-1.07l-.19-.23c-3.55,1.51-7.09,1.39-10.7-.05Z"/>
        <path class="cls-1" d="m20.42,19.01c0-.77.04-1.55,0-2.32-.08-1.25.5-2.13,1.48-2.77,2.23-1.45,4.72-1.77,7.3-1.48,1.55.18,3.01.62,4.32,1.52.99.69,1.46,1.63,1.47,2.8.01,1.77.04,3.54-.01,5.31-.04,1.51-.78,2.63-2.19,3.23-3.17,1.35-6.39,1.32-9.6.16-1.89-.68-2.75-1.96-2.76-3.96,0-.83,0-1.66,0-2.49Zm7.18-.62c1.64-.2,3.24-.27,4.67-1.14,1.04-.63,1.04-1.44,0-2.1-.16-.1-.33-.21-.5-.28-2.72-.95-5.46-1-8.16.02-.54.2-1.2.81-1.28,1.31-.12.75.69,1.17,1.34,1.35,1.29.35,2.62.56,3.93.83Zm-5.3.45c-.02.86.38,1.32,1,1.58,2.99,1.26,5.98,1.33,8.97,0,.67-.3.92-.81.83-1.6-3.59,1.67-7.15,1.71-10.79.03Zm.12,3.28c-.08.08-.16.16-.24.25.34.37.62.88,1.05,1.07,3.02,1.36,6.07,1.4,9.11.02.51-.23.81-.62.73-1.33-3.59,1.5-7.12,1.39-10.65-.01Z"/>
        <path class="cls-1" d="m65.87,64.62c0,.86.01,1.72,0,2.57-.03,1.54-.78,2.65-2.17,3.24-3.26,1.39-6.54,1.32-9.84.09-1.73-.65-2.47-1.98-2.54-3.71-.08-1.74-.03-3.49-.03-5.23,0-1,.5-1.74,1.28-2.29,2.26-1.62,4.83-1.94,7.51-1.65,1.77.19,3.46.69,4.83,1.94.66.6.95,1.35.96,2.21.02.94,0,1.88,0,2.82Zm-7.44-.97c1.46-.3,2.79-.52,4.09-.86.66-.18,1.4-.57,1.43-1.34.02-.78-.71-1.17-1.36-1.39-2.76-.93-5.54-.99-8.25.14-.46.19-1.05.78-1.06,1.19-.01.41.56,1.06,1.01,1.21,1.37.46,2.81.72,4.15,1.05Zm-5.12.46l-.24.26c.33.38.6.93,1.02,1.12,3.04,1.39,6.12,1.45,9.19.03.6-.28.85-.77.69-1.5-3.57,1.72-7.11,1.7-10.66.09Zm10.85,3.43c-.06-.08-.12-.17-.19-.25-3.57,1.52-7.13,1.39-10.69-.03.08.81.19,1.06.84,1.35,3.04,1.34,6.09,1.42,9.12,0,.39-.18.62-.7.92-1.06Z"/>
        <path class="cls-1" d="m73.53,40.12c0,.94,0,1.88,0,2.82-.02,1.47-.71,2.56-2.04,3.14-3.39,1.48-6.81,1.41-10.21.03-1.5-.61-2.19-1.84-2.26-3.37-.08-1.85-.08-3.7-.02-5.55.04-1.29.89-2.15,1.95-2.69,3.5-1.77,7.05-1.8,10.58-.07,1.4.68,2.21,1.78,2.02,3.46-.08.74-.01,1.49-.02,2.24Zm-7.14-5.22c-1.27.21-2.42.33-3.54.61-.83.21-1.89.5-1.88,1.56,0,1.01,1.03,1.28,1.84,1.52,2.36.71,4.74.66,7.11-.03.36-.11.72-.29,1.04-.5.97-.62.99-1.36.04-2-.29-.2-.62-.39-.96-.46-1.23-.27-2.48-.48-3.64-.71Zm5.25,4.81c-3.59,1.66-7.13,1.62-10.71,0-.08.84.32,1.29.94,1.56,2.99,1.29,5.99,1.35,8.98.01.63-.28.92-.76.79-1.57Zm-10.71,3.27c-.07.67.3,1.07.82,1.3,3.09,1.38,6.2,1.44,9.28-.05.35-.17.52-.69.77-1.05-5.23,1.27-5.86,1.27-10.86-.19Z"/>
        <path class="cls-1" d="m35.6,64.59c0,.83,0,1.66,0,2.49-.02,1.67-.83,2.81-2.38,3.44-3.32,1.35-6.62,1.23-9.91-.1-1.44-.58-2.16-1.74-2.23-3.22-.09-1.96-.12-3.93.02-5.89.05-.67.57-1.45,1.11-1.92,1.39-1.24,3.17-1.64,4.98-1.79,2.3-.2,4.52.14,6.55,1.32,1.28.74,1.96,1.81,1.86,3.34-.05.77,0,1.55,0,2.32,0,0,0,0,0,0Zm-7.24-5.4c-.02.06-.03.11-.05.17-.74.07-1.51.05-2.22.23-.9.23-1.81.51-2.61.97-.84.49-.78,1.2,0,1.79.2.15.41.29.64.37,2.8,1.04,5.62,1.06,8.39-.07.48-.19,1.04-.82,1.07-1.28.02-.38-.62-1.01-1.09-1.16-1.35-.44-2.76-.69-4.14-1.02Zm-5.41,4.88c.1.94.21,1.16.93,1.48,2.98,1.31,5.98,1.36,8.98.04.65-.29.97-.76.8-1.54-3.56,1.68-7.11,1.69-10.71.02Zm10.72,3.22c-3.59,1.52-7.15,1.39-10.7-.05.09.84.21,1.09.94,1.41,2.98,1.29,5.98,1.33,8.97,0,.54-.24.88-.63.79-1.37Z"/>
      </g>
    </g>
  </g>
</svg>