<?xml version="1.0" encoding="UTF-8"?>
<svg id="Layer_2" data-name="Layer 2" xmlns="http://www.w3.org/2000/svg" viewBox="0 0 84.54 84.54">
  <defs>
    <style>
      .cls-1 {
        fill: #f2bb1e;
      }

      .cls-1, .cls-2, .cls-3 {
        stroke-width: 0px;
      }

      .cls-4 {
        stroke: #174477;
        stroke-miterlimit: 10;
        stroke-width: 3px;
      }

      .cls-4, .cls-2 {
        fill: #ffd109;
      }

      .cls-3 {
        fill: #174477;
      }
    </style>
  </defs>
  <g id="Layer_5" data-name="Layer 5">
    <g>
      <rect class="cls-2" x="0" width="84.54" height="84.54" rx="9.96" ry="9.96"/>
      <path class="cls-3" d="m1.58,43.28C6,30.98,22.5,12.24,42.85,12c20.34-.24,40.88,24.48,40.88,31.28,0,5.97-20.72,31.41-40.51,31.17-19.79-.24-39.19-20.66-41.64-30.57"/>
      <circle class="cls-4" cx="42.85" cy="43.28" r="29.37"/>
      <path class="cls-1" d="m44.86,48.71l.73-25.04c.02-.64-.49-1.17-1.13-1.17h-1.45c-.64,0-1.15.53-1.13,1.17l.73,25.04c.04,1.47,2.23,1.47,2.27,0Z"/>
      <circle class="cls-1" cx="43.88" cy="50.62" r="2.01"/>
      <path class="cls-3" d="m43.34,63.52c-1.54,1.75-5.63,1.55-7.48.09-.88-.7-1.53-1.65-2.4-2.37-.44-.36-1.12-.54-1.72-.66-4.73-.96-8.99-4.67-8.59-9.49.16-1.99-.88-3.32-1.86-4.8-2.61-3.94-2.48-8.1-.48-12.11,1.11-2.24,2.86-4.26,5.5-5.35.45-.19.86-.74,1.03-1.2,1.16-3.11,3.51-5.07,6.86-5.84,3.03-.7,5.94-.21,8.59,1.42.28.17.88.11,1.2-.06,4.09-2.14,8.14-2.37,12.12.17,1.49.95,2.61,2.24,3.16,3.87.3.89.86,1.42,1.75,1.93,3.55,2.04,5.64,4.98,6.19,8.95.38,2.74-.15,5.25-1.29,7.69-.44.95-1.29,1.74-1.87,2.64-.23.36-.29.84-.32,1.28-.05.72.03,1.44-.03,2.15-.04.5-.23.99-.34,1.49-.69,3.17-2.78,5.25-5.9,6.49-.83.33-1.72.56-2.6.76-.8.18-1.32.6-1.84,1.19-2.4,2.75-5.38,3.83-8.99,2.3-.28-.12-.48-.37-.73-.56Zm-1.77-29.54c-1.46.01-2.52.39-3.34,1.36-.62.74-2.25.79-3,.16-.68-.57-.96-2.29-.27-2.75,1.27-.86,2.64-1.62,4.06-2.25.71-.32,1.61-.26,2.66-.4-.13-.98.05-2.16-.47-2.93-.86-1.27-2.46-1.87-4.08-1.88-3.06,0-5.51,1.34-6.16,4.39-.24,1.12-.9,1.73-1.95,2.2-2.3,1.05-4.11,2.62-4.96,4.9-1.03,2.75-.83,5.43.81,7.73,2.14-1.28,4.19-2.49,6.22-3.71.28-.94.44-2.06.93-3.02.85-1.65,2.89-2.21,3.81-.8.37.56.31,1.58.04,2.24-.55,1.32-1,2.63-.59,4.01.24.83.76,1.58,1.16,2.37.47.94.25,2.05-.5,2.45-1.07.58-2.2.43-2.9-.46-.6-.76-1.1-1.6-1.72-2.52-1.69.87-3.25,1.95-3.96,3.74-1.29,3.24,1.1,7.23,4.76,7.98.84.17,1.84.24,2.63-.02,1.15-.38,2.17-1.09,3.23-1.68.98-.55,2.32-.3,3.02.59.53.67.32,1.76-.54,2.4-.87.65-1.8,1.25-2.76,1.92.48.78,1.34,1.01,2.31.87,1.11-.15,1.55-.84,1.55-2.33,0-7.85,0-15.71,0-23.56,0-.29,0-.58,0-1Zm4.34-.21c-.09.11-.19.22-.28.33v21.9c1.07-1.54,2.61-1.71,4.04-.41,1.18,1.07,2.57,1.54,4.15,1.4,1.89-.16,3.34-1.15,4.5-2.5.97-1.13,1.8-2.43,1.67-3.86-.2-2.33-1.77-4.01-3.77-5.32-.53-.35-1.03-.29-1.29.41-.2.55-.46,1.1-.79,1.59-.59.9-2.1,1.34-3.09.9-1.07-.47-.91-1.41-.8-2.23.06-.45.38-.88.63-1.29.93-1.53,1.08-3.1.29-4.72-.18-.36-.35-.74-.49-1.12-.44-1.23-.11-2.07.95-2.47,1.23-.46,2.25-.1,2.84,1.01.26.49.59.99.68,1.51.24,1.38.54,2.66,2.41,2.81.06,0,.11.1.18.14,1.4.91,2.8,1.81,4.3,2.78.49-1.95,1.8-3.62,1.23-5.95-.76-3.07-2.18-5.39-5.31-6.75-.65-.28-1.26-.85-1.64-1.43-.52-.79-.73-1.75-1.2-2.58-1.57-2.79-6.14-3.54-8.72-1.51-1.39,1.1-.54,2.46-.81,3.78,2.49-.06,4.33,1,6,2.35.77.62.71,2.22-.01,2.91-.77.73-1.95.6-2.89-.11-.83-.63-1.82-1.07-2.74-1.59Zm-.31,23.87c.23,1.01-.76,2.69,1.24,3.27.86.25,1.93-.06,2.37-.96-1.25-.8-2.43-1.56-3.61-2.31Z"/>
    </g>
  </g>
</svg>