<?xml version="1.0" encoding="UTF-8"?>
<svg id="Layer_2" data-name="Layer 2" xmlns="http://www.w3.org/2000/svg" viewBox="0 0 85 85">
  <defs>
    <style>
      .cls-1 {
        fill: #fff;
      }

      .cls-1, .cls-2 {
        stroke-width: 0px;
      }

      .cls-2 {
        fill: #76927a;
      }
    </style>
  </defs>
  <g id="Layer_5" data-name="Layer 5">
    <g>
      <circle class="cls-2" cx="42.5" cy="42.5" r="42.5"/>
      <g>
        <path class="cls-1" d="m69.46,42.81c1.56,2.27,3.11,4.5,4.65,6.74.43.62.86,1.24,1.29,1.87,1.25,1.83.9,4.1-.84,5.41-1.75,1.32-4.11,1.05-5.51-.63-.07-.08-.09-.19-.13-.29-.05.04-.1.07-.14.11-.03.25-.03.5-.09.74-.2.77-.87,1.24-1.82,1.25-1.79.01-3.59,0-5.38,0-.23,0-.46,0-.8,0,.15.29.25.49.36.69,1.93,3.35,3.79,6.73,5.81,10.02,1.39,2.27-.28,4.6-2.63,4.58-8.88-.08-17.76-.09-26.64,0-2.77.03-4.12-2.69-2.73-4.53.05-.06.06-.15.11-.31-.28,0-.51,0-.74,0-2.98,0-5.96,0-8.94,0-1.97,0-3.09-1.12-3.09-3.09,0-.5-.04-1,.05-1.49.24-1.33,1.37-2.21,2.79-2.24.97-.02,1.94,0,2.92-.01.04,0,.08-.02.18-.04v-3.57c-.27,0-.53,0-.78,0-3.82,0-7.65,0-11.47,0-1.62,0-2.23-.61-2.23-2.22,0-11.19,0-22.38,0-33.57,0-2.52,1.55-4.49,3.94-5,.42-.09.86-.09,1.29-.09,14.88,0,29.77.02,44.65-.02,2.69,0,4.74,1.75,5.12,4.02.15.86.04,1.77.1,2.65.02.25.14.55.31.71,5.34,4.99,5.6,12.73.6,18.05-.06.06-.11.13-.22.26Zm-54.25,6.23c.25.02.44.05.63.05,9.96,0,19.92,0,29.88.01.4,0,.62-.15.81-.48.6-1.07,1.21-2.14,1.84-3.2,1.22-2.06,3.76-2.06,4.98,0,.62,1.04,1.22,2.08,1.8,3.14.21.38.45.55.9.54,2.94-.02,5.88-.01,8.81-.01.2,0,.4-.03.69-.05-.45-.96-.88-1.83-1.27-2.71-.16-.38-.38-.46-.75-.36-1.5.38-3.03.43-4.56.21-6.76-.99-11.49-7.26-10.58-14.02,1.01-7.56,8.67-12.49,15.95-10.24.96.29,1.87.73,2.8,1.1.4-2.83-1.53-4.35-3.94-4.34-14.76.07-29.51.06-44.27.01-1.98,0-3.75,1.36-3.74,3.77.04,8.62.02,17.24.02,25.86,0,.23,0,.46,0,.74Zm35.61,22.64c4.43,0,8.86,0,13.28,0,1.57,0,2.07-.87,1.29-2.21-2.52-4.37-5.05-8.74-7.57-13.11-1.93-3.34-3.87-6.68-5.78-10.03-.32-.56-.75-.97-1.39-.76-.36.11-.75.44-.94.77-1.82,3.08-3.6,6.19-5.39,9.29-2.69,4.65-5.37,9.3-8.06,13.95-.32.54-.53,1.14-.04,1.6.32.3.87.49,1.32.49,4.43.04,8.86.02,13.28.02Zm-5.65-20.87c-.15-.04-.19-.05-.23-.05-9.7,0-19.39,0-29.09-.01-.46,0-.53.21-.53.59.01,1.43.03,2.85-.01,4.27-.02.63.17.79.8.79,6.54-.02,13.09-.01,19.63-.01,1.9,0,3.8,0,5.7-.01.22,0,.55-.1.65-.26,1.04-1.74,2.04-3.49,3.09-5.3Zm4.7-16.97c.02,5.98,4.92,10.88,10.88,10.89,6.01.01,10.96-4.95,10.94-10.97-.02-5.98-4.95-10.87-10.91-10.83-6.06.04-10.93,4.91-10.91,10.91Zm6.73,16.95c.08.18.13.3.19.4.91,1.59,1.82,3.18,2.76,4.75.13.22.49.42.74.43,1.77.04,3.54.02,5.3.02,1.55,0,1.56,0,1.55-1.55,0-1.19.17-2.4-.52-3.51-.24-.39-.45-.59-.93-.58-2.8.02-5.61.01-8.41.01-.21,0-.41.02-.68.04Zm-18.68,12.58c-.17-.03-.23-.05-.29-.05-4.21,0-8.41,0-12.62,0-.67,0-1.08.36-1.17,1.05-.05.42-.05.86,0,1.29.08.75.48,1.1,1.25,1.11,3.47,0,6.95,0,10.42,0,.2,0,.49-.11.59-.27.62-1,1.2-2.04,1.83-3.13Zm28.86-15.49c1.08,2.28,2.14,4.52,3.2,6.75.67,1.4,2.1,1.86,3.4,1.1,1.02-.59,1.7-2.13.73-3.46-1.36-1.86-2.63-3.79-3.94-5.68-.11-.15-.23-.29-.36-.46-1.02.59-2.01,1.16-3.02,1.75Zm-36.89,13.55c.09.08.11.1.12.1,2.89.01,5.78.03,8.66.03.13,0,.31-.08.37-.18.63-1.04,1.23-2.1,1.91-3.27h-.83c-2.01,0-4.01,0-6.02,0-1.23,0-2.46-.01-3.69.01-.18,0-.51.18-.51.29-.04,1.03-.02,2.06-.02,3.02Zm36.21-14.99c.99-.58,1.9-1.11,2.83-1.65-.27-.39-.48-.68-.65-.93-.94.54-1.79,1.02-2.68,1.53.16.34.32.67.5,1.05Z"/>
        <path class="cls-1" d="m45.17,50.81c-1.05,1.81-2.05,3.57-3.09,5.3-.1.16-.42.26-.65.26-1.9.02-3.8.01-5.7.01-6.54,0-13.09,0-19.63.01-.63,0-.82-.16-.8-.79.04-1.42.02-2.85.01-4.27,0-.38.07-.59.53-.59,9.7.01,19.39.01,29.09.01.04,0,.08.02.23.05Z"/>
        <path class="cls-1" d="m49.86,33.84c-.02-6,4.85-10.87,10.91-10.91,5.96-.04,10.89,4.86,10.91,10.83.02,6.01-4.93,10.98-10.94,10.97-5.96-.01-10.86-4.92-10.88-10.89Zm10.9,9.49c5.23,0,9.52-4.28,9.52-9.52,0-5.22-4.3-9.52-9.52-9.53-5.22,0-9.52,4.3-9.53,9.53,0,5.22,4.29,9.51,9.53,9.52Z"/>
        <path class="cls-1" d="m56.59,50.79c.27-.02.48-.04.68-.04,2.8,0,5.61,0,8.41-.01.48,0,.69.19.93.58.69,1.11.51,2.32.52,3.51.01,1.55,0,1.55-1.55,1.55-1.77,0-3.54.02-5.3-.02-.26,0-.61-.21-.74-.43-.95-1.57-1.85-3.16-2.76-4.75-.06-.11-.11-.22-.19-.4Z"/>
        <path class="cls-1" d="m37.91,63.37c-.63,1.1-1.21,2.13-1.83,3.13-.1.15-.39.26-.59.27-3.47.02-6.95.01-10.42,0-.77,0-1.17-.36-1.25-1.11-.05-.43-.05-.87,0-1.29.09-.69.5-1.05,1.17-1.05,4.21,0,8.41,0,12.62,0,.06,0,.13.02.29.05Z"/>
        <path class="cls-1" d="m45.84,23.59c-.38,0-.76.01-1.14,0-.6-.03-1.01-.36-.96-.82.06-.55.43-.75.95-.74,1.1.02,2.2,0,3.3.03.65.01.9.26.91.9,0,.99,0,1.99,0,2.98,0,.64-.29.98-.8.95-.62-.03-.77-.44-.75-.99.01-.4,0-.81,0-1.35-1.18,1.03-2.27,1.96-3.35,2.9-1.48,1.29-2.98,2.56-4.44,3.87-.47.42-.9.46-1.46.19-2.6-1.25-5.22-2.46-7.82-3.71-.42-.2-.72-.18-1.11.09-2.84,2-5.7,3.97-8.55,5.95-.16.11-.32.22-.49.31-.39.2-.78.09-.94-.27-.11-.26-.03-.64.06-.94.04-.15.28-.25.44-.36,3.05-2.12,6.1-4.22,9.14-6.36.53-.38.98-.38,1.55-.11,2.56,1.23,5.15,2.42,7.71,3.65.45.22.71.15,1.06-.16,2.23-1.97,4.49-3.91,6.75-5.86,0-.06-.02-.11-.03-.17Z"/>
        <path class="cls-1" d="m31.21,45.27c4.42,0,8.85,0,13.27,0,.19,0,.44-.07.57.02.27.18.66.45.68.69.02.26-.32.58-.57.79-.13.11-.42.05-.63.05-8.89,0-17.79,0-26.68,0-.21,0-.5.06-.63-.05-.25-.22-.57-.55-.55-.81.02-.25.41-.5.69-.68.14-.09.38-.02.57-.02,4.42,0,8.85,0,13.27,0Z"/>
        <path class="cls-1" d="m31.01,39.75c-4.34,0-8.68,0-13.03,0-.22,0-.48.07-.64-.03-.28-.18-.66-.45-.67-.7-.01-.25.34-.56.59-.78.12-.1.37-.06.57-.06,8.79,0,17.58,0,26.38,0,.23,0,.54-.03.69.09.23.2.48.52.48.78,0,.22-.33.5-.57.64-.18.11-.46.04-.7.04-4.36,0-8.73,0-13.09,0Z"/>
        <path class="cls-1" d="m29.78,41.73c3.91,0,7.82,0,11.73,0,.24,0,.53-.07.7.04.28.17.63.45.66.72.03.22-.32.54-.56.74-.14.11-.41.07-.63.07-7.95,0-15.9,0-23.85,0-.23,0-.53.03-.69-.1-.23-.18-.51-.51-.47-.73.04-.26.36-.53.62-.69.18-.11.46-.04.7-.04,3.93,0,7.86,0,11.8,0Z"/>
        <path class="cls-1" d="m53.35,55.52c-.14,2.28-.27,4.56-.41,6.84-.07,1.1-.88,1.86-1.99,1.88-1.2.03-2.12-.7-2.19-1.82-.17-2.69-.31-5.38-.41-8.07-.05-1.4,1.15-2.51,2.58-2.48,1.41.03,2.53,1.22,2.47,2.62-.02.34-.05.69-.08,1.03.01,0,.02,0,.04,0Zm-1.6-.24s.01,0,.02,0c0-.24,0-.47,0-.71,0-.67-.34-1.09-.9-1.1-.55,0-.95.43-.93,1.07.03.86.08,1.72.13,2.58.09,1.66.16,3.31.29,4.97.02.2.34.38.52.57.16-.18.45-.35.47-.54.16-2.28.28-4.56.41-6.83Z"/>
        <path class="cls-1" d="m53.2,68.27c-.02,1.25-1.1,2.29-2.35,2.29-1.29,0-2.39-1.13-2.36-2.43.03-1.32,1.11-2.32,2.47-2.29,1.3.03,2.27,1.08,2.24,2.42Zm-2.21-.95c-.1,0-.2,0-.31,0-.2.28-.52.55-.57.85-.06.42.27.71.72.75.42.03.87-.38.75-.77-.09-.31-.39-.56-.6-.84Z"/>
        <path class="cls-1" d="m51.76,55.27c-.13,2.28-.25,4.56-.41,6.83-.01.19-.31.36-.47.54-.18-.19-.51-.37-.52-.57-.13-1.65-.2-3.31-.29-4.97-.05-.86-.1-1.72-.13-2.58-.02-.64.38-1.08.93-1.07.56,0,.91.43.9,1.1,0,.24,0,.47,0,.71,0,0-.01,0-.02,0Z"/>
        <path class="cls-1" d="m51,67.33c.21.28.51.52.6.84.12.39-.33.8-.75.77-.45-.03-.78-.32-.72-.75.04-.31.37-.57.57-.85.1,0,.2,0,.31,0Z"/>
      </g>
    </g>
  </g>
</svg>