<?xml version="1.0" encoding="UTF-8"?>
<svg id="Layer_2" data-name="Layer 2" xmlns="http://www.w3.org/2000/svg" xmlns:xlink="http://www.w3.org/1999/xlink" viewBox="0 0 85 94.64">
  <defs>
    <style>
      .cls-1 {
        font-family: BerlinSansFBDemi-Bold, 'Berlin Sans FB Demi';
        font-size: 10px;
        font-weight: 700;
      }

      .cls-1, .cls-2 {
        fill: #fff;
      }

      .cls-3 {
        clip-rule: evenodd;
      }

      .cls-3, .cls-4 {
        fill: none;
      }

      .cls-3, .cls-2, .cls-5 {
        stroke-width: 0px;
      }

      .cls-4 {
        stroke: #fff;
        stroke-miterlimit: 10;
        stroke-width: 2px;
      }

      .cls-5 {
        fill: #76927a;
      }

      .cls-6 {
        clip-path: url(#clippath);
      }
    </style>
    <clipPath id="clippath">
      <polygon class="cls-3" points="9.85 25.23 79.26 25.23 79.26 94.64 9.85 94.64 9.85 25.23 9.85 25.23"/>
    </clipPath>
  </defs>
  <g id="Layer_5" data-name="Layer 5">
    <g>
      <circle class="cls-5" cx="42.5" cy="42.5" r="42.5"/>
      <g class="cls-6">
        <path class="cls-2" d="m48.32,61.89c-.39-1.54-.8-2.91-1.04-4.3-.05-.3.42-.83.78-1.03,1.34-.73,1.58-1.72.31-2.58-.98-.66-2.31-1.29-3.42-1.19-1.77.17-4-.25-4.95,2.1-.09.22-.6.29-.93.37-7.68,2.09-15.36,4.17-23.35,6.33-.53-2.13-1.13-4.42-1.62-6.74-.05-.23.58-.8.96-.88,7.52-1.55,15.05-3.07,22.59-4.54.53-.1,1.18.08,1.7.3,1.07.46,4.51-.82,5.65-2.19,2.04-2.44,1.6-6.2-1.01-8.04-1.1-.77-2.32-1.35-3.49-2.02,0-.17.02-.34.02-.5.9-.09,1.84-.36,2.71-.22,2.76.44,5.08,1.74,6.85,3.95,2.19,2.75,3.67,5.84,4.16,9.32.12.87-.15,1.92-.57,2.71-.56,1.06-.25,1.94.65,2.02,1.35.11,1.39.92,1.58,1.8.89,4.03,1.18,3.08-2.47,4.1-1.59.45-3.22.77-5.12,1.22Z"/>
        <path class="cls-2" d="m40.35,71.29c-.43-1.74-.7-3.27-1.21-4.71-.19-.54-.9-1.14-1.47-1.26-2-.42-4.04-.63-6.51-.99,2.5-1.97,4.64-3.66,6.97-5.49.57.71,1.09,1.36,1.66,2.08-.52.5-1,.95-1.76,1.68,4.53-.48,3.29,3.33,4.49,5.36,2.13-.48,4.25-.96,6.6-1.5.66,2.61,1.32,5.19,2.1,8.24.5-.88.83-1.42,1.12-1.98,1.07-2.1,2.17-4.18,3.18-6.31.64-1.34,1.62-1.74,2.95-1.26,1.56.56,3.09,1.2,4.92,1.92-1.11-2.95-2.16-5.74-3.27-8.68,1.81-.88,3.53-1.72,5.68-2.77-1.77-.39-3.08-.67-4.52-.99.13-.92.24-1.76.38-2.76,4.22.77,8.3,1.51,12.39,2.25.03.12.06.24.09.35-2.69,1.32-5.38,2.64-8.06,3.95q-2.61,1.28-1.59,3.96c1.36,3.57,2.71,7.13,4.19,10.99-3.73-2.01-7.13-3.84-10.66-5.75-2.61,5.08-5.06,9.87-7.75,15.1-1.11-4.56-2.12-8.69-3.15-12.95-2.24.5-4.4.98-6.75,1.51Z"/>
      </g>
      <g>
        <rect class="cls-4" x="3.72" y="21.52" width="71.16" height="13.61" rx="3.18" ry="3.18" transform="translate(-5.76 10.52) rotate(-14.23)"/>
        <text class="cls-1" transform="translate(22.11 35.49) rotate(-14)"><tspan x="0" y="0">External</tspan></text>
      </g>
    </g>
  </g>
</svg>