<?xml version="1.0" encoding="UTF-8"?>
<svg id="Layer_2" data-name="Layer 2" xmlns="http://www.w3.org/2000/svg" viewBox="0 0 85 85">
  <defs>
    <style>
      .cls-1 {
        fill: #fff;
      }

      .cls-1, .cls-2 {
        stroke-width: 0px;
      }

      .cls-2 {
        fill: #c64127;
      }
    </style>
  </defs>
  <g id="Layer_1-2" data-name="Layer 1">
    <g>
      <circle class="cls-2" cx="42.5" cy="42.5" r="42.5"/>
      <g>
        <path class="cls-1" d="m18.5,72.24c-1.21-.4-2.33-.94-3.19-1.94-.93-1.08-1.46-2.29-1.46-3.75,0-16.78,0-33.56,0-50.33,0-2.99,2.6-5.58,5.6-5.6,2.06-.01,4.13,0,6.19,0,.91,0,1.42.41,1.42,1.12,0,.7-.52,1.09-1.45,1.09-1.96,0-3.91,0-5.87,0-2.14,0-3.7,1.56-3.7,3.69,0,16.54,0,33.08,0,49.62,0,2.41,1.49,3.89,3.89,3.89,15,0,29.99-.03,44.99.03,2.03,0,3.96-1.61,3.95-3.95-.06-16.37-.04-32.74-.02-49.11,0-1.32-.24-2.46-1.29-3.34-.69-.58-1.47-.85-2.37-.85-2.04.01-4.08.01-6.12,0-.73,0-1.2-.43-1.24-1.04-.03-.61.46-1.15,1.13-1.15,2.32-.01,4.64-.08,6.96.02,2.73.12,5.14,2.79,5.15,5.59.02,7.07,0,14.14,0,21.2,0,9.58,0,19.16,0,28.74,0,3.02-1.66,5.17-4.59,5.96-.06.02-.11.06-.17.09H18.5Z"/>
        <path class="cls-1" d="m48.73,10.63c1.84,0,3.69,0,5.53,0,1.02,0,1.41.37,1.41,1.39,0,2.02,0,4.04,0,6.06,0,1-.37,1.39-1.36,1.39-7.9,0-15.81,0-23.71,0-.96,0-1.36-.43-1.37-1.39,0-2.02-.01-4.04,0-6.06,0-.97.41-1.38,1.37-1.38,1.7,0,3.39,0,5.09,0,.35,0,.55-.07.73-.44,1.23-2.59,3.29-3.99,6.17-3.94,2.8.05,4.76,1.48,5.95,3.99.05.12.11.23.18.37Zm-17.2,6.54h21.88v-4.33c-1.67,0-3.3,0-4.93,0-1.38,0-1.42-.03-1.86-1.36-.68-2.08-2.74-3.34-4.89-2.95-1.82.33-2.98,1.43-3.51,3.19-.27.9-.51,1.11-1.45,1.12-.58,0-1.16,0-1.74,0-1.15,0-2.31,0-3.5,0v4.33Z"/>
        <path class="cls-1" d="m51.27,27.81c0,1.87,0,3.73,0,5.6,0,.25.01.53-.08.76-.22.5-.63.75-1.19.67-.54-.08-.92-.54-.92-1.15-.01-1.76,0-3.52,0-5.28,0-.21,0-.42,0-.62-.05-.03-.09-.06-.14-.08-.74.76-1.45,1.55-2.24,2.26-.28.26-.76.48-1.12.44-.9-.1-1.2-1.19-.53-1.88.86-.9,1.76-1.77,2.64-2.65.53-.53,1.06-1.07,1.6-1.59.62-.6,1.2-.61,1.8-.02,1.4,1.39,2.8,2.79,4.19,4.19.53.54.56,1.21.12,1.66-.48.5-1.11.46-1.7-.12-.76-.75-1.49-1.52-2.24-2.28-.05.03-.11.06-.16.1Z"/>
        <path class="cls-1" d="m41.5,56.87c-.25.34-.41.76-.7.89-.32.14-.76.03-1.14-.01-.12-.02-.23-.18-.34-.28-3.57-3.56-7.13-7.13-10.7-10.69-.42-.42-.61-.88-.32-1.44.23-.45.64-.68,1.12-.54.33.09.65.31.9.56,2.99,2.96,5.96,5.94,8.93,8.91.56.56,1.14,1.11,1.67,1.69.22.24.35.56.58.92Z"/>
        <path class="cls-1" d="m30.37,27.88c.51-.55.89-1.01,1.32-1.43.54-.53,1.2-.55,1.66-.1.47.47.45,1.1-.08,1.65-.42.43-.86.83-1.39,1.32.48.46.91.84,1.31,1.25.62.62.67,1.25.16,1.75-.5.49-1.12.43-1.74-.19-.39-.39-.76-.8-1.22-1.28-.48.5-.88.93-1.31,1.35-.58.57-1.22.6-1.7.1-.47-.48-.44-1.09.12-1.65.42-.42.88-.81,1.45-1.33-.55-.49-1.01-.87-1.44-1.29-.58-.58-.6-1.21-.09-1.69.47-.45,1.1-.4,1.66.13.22.21.43.42.64.63.19.2.36.42.66.78Z"/>
        <path class="cls-1" d="m60.62,53.7c.36.33.82.72,1.23,1.15.54.56.57,1.18.11,1.66-.48.49-1.12.47-1.7-.1-.41-.4-.79-.84-1.34-1.44-.46.53-.82,1.01-1.24,1.43-.59.6-1.21.63-1.7.14-.49-.49-.45-1.11.13-1.7.41-.41.84-.79,1.38-1.28-.52-.48-.96-.87-1.38-1.29-.58-.59-.61-1.21-.12-1.7.49-.49,1.1-.44,1.7.13.22.21.43.42.63.64.18.21.34.44.65.83.5-.58.87-1.05,1.29-1.48.58-.59,1.21-.61,1.7-.11.46.47.42,1.09-.11,1.66-.4.42-.8.83-1.21,1.25-.01.01,0,.04-.03.23Z"/>
        <path class="cls-1" d="m50.26,37.05c1.8.02,3.22,1.5,3.2,3.33-.02,1.85-1.49,3.27-3.35,3.25-1.84-.02-3.26-1.49-3.24-3.37.02-1.83,1.51-3.24,3.39-3.22Zm.99,3.32c.01-.58-.52-1.13-1.09-1.12-.56,0-1.07.51-1.09,1.07-.02.58.52,1.12,1.1,1.12.56,0,1.06-.5,1.08-1.07Z"/>
        <path class="cls-1" d="m25.98,43.64c-1.84,0-3.33-1.47-3.33-3.3,0-1.82,1.5-3.3,3.34-3.29,1.83,0,3.33,1.51,3.31,3.32-.02,1.8-1.51,3.26-3.31,3.26Zm-.04-4.39c-.6.02-1.07.54-1.04,1.15.03.58.52,1.05,1.09,1.03.61-.02,1.06-.52,1.04-1.15-.02-.58-.52-1.05-1.09-1.04Z"/>
        <path class="cls-1" d="m40.27,62.35c0-1.84,1.49-3.33,3.31-3.32,1.81.01,3.27,1.48,3.28,3.28,0,1.84-1.46,3.34-3.28,3.35-1.83.01-3.31-1.47-3.31-3.31Zm3.29-1.07c-.62,0-1.1.5-1.08,1.1.02.57.51,1.05,1.09,1.05.57,0,1.07-.49,1.09-1.05.02-.59-.5-1.1-1.1-1.1Z"/>
        <path class="cls-1" d="m38.03,39.24c1.78,0,3.56,0,5.34,0,.81,0,1.3.42,1.3,1.1,0,.68-.48,1.09-1.3,1.1-3.54,0-7.08,0-10.61,0-.8,0-1.31-.44-1.31-1.09,0-.66.51-1.09,1.31-1.1,1.76,0,3.52,0,5.28,0Z"/>
        <path class="cls-2" d="m31.54,17.17v-4.33c1.19,0,2.35,0,3.5,0,.58,0,1.16,0,1.74,0,.94,0,1.18-.22,1.45-1.12.53-1.76,1.69-2.86,3.51-3.19,2.15-.39,4.21.87,4.89,2.95.43,1.32.47,1.36,1.86,1.36,1.63,0,3.26,0,4.93,0v4.33h-21.88Zm8.74-4.31c0,1.24.97,2.19,2.21,2.18,1.24-.01,2.19-.98,2.19-2.21,0-1.21-1-2.2-2.22-2.19-1.23,0-2.18.98-2.18,2.22Z"/>
        <path class="cls-1" d="m40.27,12.85c0-1.24.95-2.22,2.18-2.22,1.22,0,2.21.98,2.22,2.19,0,1.23-.95,2.2-2.19,2.21-1.24.01-2.2-.94-2.21-2.18Z"/>
      </g>
    </g>
  </g>
</svg>