<?xml version="1.0" encoding="UTF-8"?>
<svg id="Layer_2" data-name="Layer 2" xmlns="http://www.w3.org/2000/svg" viewBox="0 0 85.3 85.3">
  <defs>
    <style>
      .cls-1 {
        font-family: MyriadConceptRoman-BoldCond, 'Myriad Variable Concept';
        font-size: 12px;
        font-variation-settings: 'wght' 700, 'wdth' 70;
        font-weight: 700;
      }

      .cls-1, .cls-2 {
        fill: #fff;
      }

      .cls-3 {
        fill: none;
        stroke: #fff;
        stroke-miterlimit: 10;
        stroke-width: 2px;
      }

      .cls-4 {
        fill: #58529e;
      }

      .cls-4, .cls-2 {
        stroke-width: 0px;
      }
    </style>
  </defs>
  <g id="Layer_1-2" data-name="Layer 1">
    <g>
      <circle class="cls-4" cx="42.65" cy="42.65" r="42.65"/>
      <g>
        <polygon class="cls-2" points="40.42 27.43 39.74 33.67 35.7 34.14 39.35 34.97 46.81 34.97 50.36 34.26 46.6 33.91 46.09 26.96 40.42 27.43"/>
        <rect class="cls-2" x="28.64" y="7.19" width="29.62" height="21.89"/>
        <rect class="cls-4" x="31.76" y="9.74" width="23.61" height="16.42"/>
      </g>
      <g>
        <polygon class="cls-2" points="61.27 56.68 60.59 62.92 56.55 63.39 60.2 64.22 67.66 64.22 71.21 63.51 67.46 63.16 66.94 56.21 61.27 56.68"/>
        <rect class="cls-2" x="49.49" y="36.44" width="29.62" height="21.89"/>
        <rect class="cls-4" x="52.61" y="38.99" width="23.61" height="16.42"/>
      </g>
      <g>
        <polygon class="cls-2" points="19.57 56.68 18.89 62.92 14.85 63.39 18.5 64.22 25.96 64.22 29.51 63.51 25.75 63.16 25.24 56.21 19.57 56.68"/>
        <rect class="cls-2" x="7.79" y="36.44" width="29.62" height="21.89"/>
        <rect class="cls-4" x="10.91" y="38.99" width="23.61" height="16.42"/>
      </g>
      <g>
        <circle class="cls-3" cx="43.82" cy="70.61" r="5.31"/>
        <path class="cls-3" d="m49.13,70.61h13.78c1.47-.48,1.04-2.51,1.04-4.18"/>
        <path class="cls-3" d="m37.92,70.61h-13.78c-1.47-.48-1.04-2.51-1.04-4.18"/>
        <line class="cls-3" x1="43.49" y1="50.01" x2="43.49" y2="37.24"/>
        <line class="cls-3" x1="43.49" y1="54.33" x2="43.49" y2="52.31"/>
        <line class="cls-3" x1="43.49" y1="58.63" x2="43.49" y2="56.61"/>
        <line class="cls-3" x1="43.49" y1="62.87" x2="43.49" y2="60.85"/>
        <line class="cls-3" x1="43.49" y1="71.43" x2="43.49" y2="69.41"/>
      </g>
      <text class="cls-1" transform="translate(33.5 21.93)"><tspan x="0" y="0">SOCK</tspan></text>
      <text class="cls-1" transform="translate(54.77 50.57)"><tspan x="0" y="0">SOCK</tspan></text>
      <text class="cls-1" transform="translate(12.54 50.57)"><tspan x="0" y="0">SOCK</tspan></text>
    </g>
  </g>
</svg>