<?xml version="1.0" encoding="UTF-8"?>
<svg id="Layer_2" data-name="Layer 2" xmlns="http://www.w3.org/2000/svg" viewBox="0 0 85 85">
  <defs>
    <style>
      .cls-1 {
        fill: #f39320;
      }

      .cls-2 {
        fill: #fff;
        fill-rule: evenodd;
      }
    </style>
  </defs>
  <g id="Layer_1-2" data-name="Layer 1">
    <g id="fb193644-510e-46cb-b1e4-16d7e1689b4c">
      <g id="ab515f12-688e-487f-ad78-3f90af0dbf2d">
        <circle class="cls-1" cx="42.5" cy="42.5" r="42.5"/>
        <path class="cls-2" d="m48.37,15.46l21.17,21.12c3.27,3.25,3.28,8.54.03,11.81-.01.01-.02.02-.03.03l-21.17,21.12c-3.25,3.27-8.53,3.28-11.79.04-.01-.01-.02-.02-.04-.04l-21.08-21.12c-3.27-3.25-3.28-8.54-.03-11.81.01-.01.02-.02.03-.03l21.08-21.12c3.25-3.27,8.53-3.28,11.79-.04.01.01.02.02.04.04Zm-10.64,11.36l-10.94,11c-.42-.08-.86-.12-1.29-.1-2.61.19-4.57,2.46-4.38,5.07.19,2.61,2.46,4.57,5.07,4.38,2.61-.19,4.57-2.46,4.38-5.07,0,0,0,0,0,0-.02-.37-.08-.74-.2-1.09l9.63-9.71v24.19c-1.57.93-2.46,2.69-2.27,4.51.19,2.61,2.46,4.56,5.07,4.37,2.61-.19,4.56-2.46,4.37-5.07,0-.3-.1-.6-.1-.8l11.14-11.27c.57.21,1.19.28,1.79.2,2.61-.19,4.57-2.46,4.38-5.07-.19-2.61-2.46-4.57-5.07-4.38s-4.57,2.46-4.38,5.07c0,0,0,0,0,0-.02.17.02.35.1.5l-10.14,10.05v-23.2c1.57-.92,2.46-2.67,2.28-4.48-.2-2.6-2.46-4.56-5.07-4.38-2.62.33-4.54,2.64-4.37,5.28Z"/>
      </g>
    </g>
  </g>
</svg>