<?xml version="1.0" encoding="UTF-8"?>
<svg id="Layer_2" data-name="Layer 2" xmlns="http://www.w3.org/2000/svg" viewBox="0 0 85 85">
  <defs>
    <style>
      .cls-1 {
        fill: #231f20;
      }

      .cls-2 {
        fill: #fde35a;
      }

      .cls-3 {
        fill: #fff;
      }

      .cls-4 {
        fill: #166474;
      }

      .cls-5 {
        fill: none;
        stroke: #fff;
        stroke-miterlimit: 10;
        stroke-width: 3px;
      }
    </style>
  </defs>
  <g id="Layer_5" data-name="Layer 5">
    <g>
      <g id="b66de1ba-b9e0-447a-99ae-b91c77b9db9f">
        <g id="be7c4c1c-ca5d-4258-ad12-b1d2bfd4695d">
          <circle class="cls-4" cx="42.5" cy="42.5" r="42.5"/>
          <g>
            <path class="cls-5" d="M42,20.88c-5.41,0-10.82,0-16.23,0-3.13,0-5.09,1.97-5.1,5.1,0,3.17,0,6.34,0,9.35-.74.49-1.31.34-1.85.39-1.89.18-2.35.97-1.38,2.54,1.41,2.28,2.94,4.48,4.42,6.71.92,1.38,2.28,1.39,3.18,0,1.4-2.16,2.92-4.24,4.21-6.47,1.18-2.04.9-2.63-1.4-2.78-.47-.03-.97.08-1.62-.42,0-2.36.04-4.92-.01-7.47-.03-1.43.87-1.4,1.87-1.4,4.64.01,9.28,0,13.91,0"/>
            <path class="cls-5" d="M42,63.55c5.41,0,10.82,0,16.23,0,3.13,0,5.09-1.97,5.1-5.1,0-3.17,0-6.34,0-9.35.74-.49,1.31-.34,1.85-.39,1.89-.18,2.35-.97,1.38-2.54-1.41-2.28-2.94-4.48-4.42-6.71-.92-1.38-2.28-1.39-3.18,0-1.4,2.16-2.92,4.24-4.21,6.47-1.18,2.04-.9,2.63,1.4,2.78.47.03.97-.08,1.62.42,0,2.36-.04,4.92.01,7.47.03,1.43-.87,1.4-1.87,1.4-4.64-.01-9.28,0-13.91,0"/>
            <path class="cls-5" d="M44.44,48.71c.31-1.71,1.34-2.85,2.63-3.98,2.17-1.89,3.01-4.91,1.9-7.85-1.16-3.07-4.64-5.09-7.2-4.89-3.2.25-5.44,1.9-6.68,4.68-1.21,2.72-.53,5.34,1.34,7.63.67.82,1.7,1.24,2.3,2.1.56.8.96,1.84.67,2.76-.44,1.4-.24,2.7,1.01,3.17.98.36,2.37.44,3.43-.16,1.32-.76,1.08-2.01.71-3.22"/>
            <path class="cls-5" d="M42,39.67v8.7"/>
            <path class="cls-5" d="M63.57,16.71c-.81-.51-.71-1.5-1.29-2.27-1.1-.09-2.34-.09-3.44,0-.59.77-.48,1.76-1.29,2.27-.87.08-1.46-.75-2.56-.68-.65.64-1.42,1.41-2.09,2.09.05.98.53,1.59.74,2.21-.35,1.22-1.53.98-2.3,1.64-.09,1.09-.09,2.32,0,3.42.77.59,1.76.48,2.27,1.29.08.87-.75,1.46-.68,2.56.64.65,1.41,1.42,2.09,2.09.98-.05,1.59-.53,2.26-.76,2.64,3.33,3.94,3.33,6.58,0,.67.23,1.28.71,2.26.76.67-.67,1.45-1.44,2.11-2.11-.05-.98-.53-1.59-.74-2.21.36-1.21,1.53-.99,2.33-1.6.07-1.04-.01-2.2.03-3.35-.63-.74-1.8-.53-2.33-1.41-.08-.87.75-1.46.68-2.56-.64-.65-1.41-1.42-2.08-2.08-.99.02-1.58.58-2.31.7"/>
            <path class="cls-5" d="M26.47,53.81c-.81-.51-.71-1.5-1.29-2.27-1.1-.09-2.34-.09-3.44,0-.59.77-.48,1.76-1.29,2.27-.87.08-1.46-.75-2.56-.68-.65.64-1.42,1.41-2.09,2.09.05.98.53,1.59.74,2.21-.35,1.22-1.53.98-2.3,1.64-.09,1.09-.09,2.32,0,3.42.77.59,1.76.48,2.27,1.29.08.87-.75,1.46-.68,2.56.64.65,1.41,1.42,2.09,2.09.98-.05,1.59-.53,2.26-.76,2.64,3.33,3.94,3.33,6.58,0,.67.23,1.28.71,2.26.76.67-.67,1.45-1.44,2.11-2.11-.05-.98-.53-1.59-.74-2.21.36-1.21,1.53-.99,2.33-1.6.07-1.04-.01-2.2.03-3.35-.63-.74-1.8-.53-2.33-1.41-.08-.87.75-1.46.68-2.56-.64-.65-1.41-1.42-2.08-2.08-.99.02-1.58.58-2.31.7"/>
            <path class="cls-5" d="M22.76,57.06c-2.89,1.59-3.65,3.22-2.56,5.34.84,1.64,2.23,2.3,3.95,2.05,1.62-.23,3.02-2.09,3.02-3.68,0-1.73-1.28-3.21-3.25-3.7-.29-.07-.62-.01-.93-.01"/>
            <path class="cls-5" d="M59.86,19.96c-2.89,1.59-3.65,3.22-2.56,5.34.84,1.64,2.23,2.3,3.95,2.05,1.62-.23,3.02-2.09,3.02-3.68,0-1.73-1.28-3.21-3.25-3.7-.29-.07-.62-.01-.93-.01"/>
          </g>
        </g>
      </g>
      <g>
        <path class="cls-1" d="M51.73,29.98v23.96h-9.42v3.7l-.23.13-2.76-1.44-2.89,1.5v-3.89c-2.52.41-4.15-1.38-4.35-3.95-.41-5.17.29-10.93.01-16.16-.02-1.41,1.46-3.84,2.87-3.84h16.77ZM50.32,45.41v-13.74l-.18-.19h-14.95c-.19,0-.72.38-.89.56-.16.16-.7,1.12-.7,1.26v12.42s-.11.08-.1.13c.24.41.41-.02.69-.13.18-.07.89-.31,1-.31h15.13ZM47.38,47.04h-12.42c-.46,0-1.17,1.18-1.3,1.63-.58,2.02.58,4.25,2.77,3.77v-3.14c1.73.16,3.79-.22,5.48,0,.17.02.3.02.41.19v2.95h5.06c-.41-1.84-.52-3.56,0-5.39ZM50.32,47.04h-1.4c-.4,1.39-.61,2.6-.34,4.05.26,1.36.38,1.47,1.74,1.35v-5.39ZM40.78,50.8h-2.83v4.52l1.45-.72,1.37.72v-4.52Z"/>
        <path class="cls-2" d="M50.32,45.41h-15.13c-.12,0-.82.24-1,.31-.28.11-.45.54-.69.13,0-.05.1-.09.1-.13v-12.42c0-.14.55-1.09.7-1.26.17-.18.69-.56.89-.56h14.95l.18.19v13.74ZM40.61,32.99l-1,1.06,1.29,1.38-1.29,1.38,1,1.06c.33-.24,1.03-1.34,1.39-1.24l1.2,1.24,1-1.06c-.22-.35-1.26-1.1-1.16-1.48l1.16-1.39-1-.95-1.29,1.38-1.29-1.38ZM46.03,33.67c-.13-.13-.63-.69-.71-.67l-1.01,1.06,1.29,1.38-1.29,1.38,1,1.06,1.12-1.19c.46-.33,1.35,1.4,1.64,1.19.04-.43.96-.7.82-1.17-.03-.11-1.16-.95-1.16-1.38.17-.43,1.26-.95,1.16-1.37l-.87-.97-1.32,1.24h-.25c-.09-.2-.27-.41-.42-.56ZM36.43,36.75v5.46l6.66.16c.31-.06.12-1.29.17-1.6h-5.3v-4.01c.41.07.78,0,1.21.03.13,0,.23.25.2-.09l-2.18-2.32c-.16,0-1.83,2.21-2.3,2.26-.26.39,1.46.05,1.53.12ZM48.94,41.57c0-1.35-1.03-2.44-2.29-2.44s-2.29,1.09-2.29,2.44,1.03,2.44,2.29,2.44,2.29-1.09,2.29-2.44Z"/>
        <path class="cls-2" d="M47.38,47.04c-.52,1.83-.41,3.55,0,5.39h-5.06v-2.95c-.1-.18-.23-.17-.41-.19-1.68-.21-3.75.17-5.48,0v3.14c-2.19.48-3.35-1.74-2.77-3.77.13-.45.84-1.63,1.3-1.63h12.42Z"/>
        <polygon class="cls-3" points="40.78 50.8 40.78 55.32 39.41 54.59 37.96 55.32 37.96 50.8 40.78 50.8"/>
        <path class="cls-2" d="M50.32,47.04v5.39c-1.36.12-1.48.01-1.74-1.35-.28-1.44-.06-2.65.34-4.03h1.4Z"/>
        <path class="cls-1" d="M36.43,36.75c-.07-.07-1.79.27-1.53-.12.46-.05,2.13-2.26,2.3-2.26l2.18,2.32c.03.35-.07.1-.2.09-.43-.03-.8.04-1.21-.03v4.01h5.3c-.05.31.14,1.54-.17,1.6l-6.66-.16v-5.46Z"/>
        <path class="cls-1" d="M48.94,41.57c0,1.35-1.03,2.44-2.29,2.44s-2.29-1.09-2.29-2.44,1.03-2.44,2.29-2.44,2.29,1.09,2.29,2.44ZM47.5,41.55c0-.5-.38-.9-.84-.9s-.84.4-.84.9.38.9.84.9.84-.4.84-.9Z"/>
        <path class="cls-1" d="M46.03,33.67c.15.15.33.35.42.55h.25s1.32-1.23,1.32-1.23l.87.97c.1.42-.99.94-1.16,1.37,0,.43,1.13,1.27,1.16,1.38.13.47-.79.74-.82,1.17-.3.22-1.18-1.52-1.64-1.19l-1.12,1.19-1-1.06,1.29-1.38-1.29-1.38,1.01-1.06c.08-.02.58.54.71.67Z"/>
        <path class="cls-1" d="M40.61,32.99l1.29,1.38,1.29-1.38,1,.95-1.16,1.39c-.09.38.94,1.13,1.16,1.48l-1,1.06-1.2-1.24c-.36-.1-1.06,1-1.39,1.24l-1-1.06,1.29-1.38-1.29-1.38,1-1.06Z"/>
        <ellipse class="cls-3" cx="46.65" cy="41.55" rx=".84" ry=".9"/>
      </g>
    </g>
  </g>
</svg>