<?xml version="1.0" encoding="UTF-8"?>
<svg id="Layer_2" data-name="Layer 2" xmlns="http://www.w3.org/2000/svg" viewBox="0 0 84.91 84.91">
  <defs>
    <style>
      .cls-1 {
        fill: #231f20;
      }

      .cls-2 {
        fill: #fde35a;
      }

      .cls-3 {
        fill: #fff;
      }

      .cls-4 {
        fill: #166474;
      }

      .cls-5 {
        fill: #ef4751;
      }
    </style>
  </defs>
  <g id="Layer_5" data-name="Layer 5">
    <g>
      <circle class="cls-4" cx="42.45" cy="42.45" r="42.45"/>
      <path class="cls-3" d="M33.33,15.52c-.26-.57-.02-.97.46-1.29,1.08-.73,5.65-2.42,7.07-2.88.8-.26,1.31-.42,2.19-.3,1.04.14,6.34,2.33,7.46,2.9.97.5,1.36,1.32.72,2.31l-5.12,6.47c.02.25,3.14,2.99,3.54,3.56.17.24.32.49.34.79.07,1.01-2.73,5.43-2.51,5.65l6.57-3.79c.21-.3-2.3-3.71-1.64-4.5l6.49-6.53c.36-.21.81-.2,1.21-.12.52.1,3.08,1.18,3.56,1.48.6.37,1.58,1.48,1.58,2.2v8.89h4.97c.31-.48,1.64-1.41,1.82-1.82.06-.14-.19-.63-.21-.91-.33-5.46,7.56-4.56,6.35.46-.24,1.01-1.46,2.11-2.51,2.25-.59.08-2.05-.25-2.15-.2-.6.25-1.79,2.15-2.59,2.46h-5.67v6.44h6.65c.89-1.74,2.84-2.74,4.68-1.74,3.21,1.75,1.64,6.59-2.15,6.07-1.19-.16-1.99-1.1-2.53-2.09h-6.65c0,2.17-.31,4.34-.84,6.44h6.23c.97,0,2.16,2.13,2.88,2.46.33.15.77-.17,1.18-.22,1.44-.15,3.2.91,3.51,2.37,1.07,5.03-6.75,5.83-6.38.36.02-.28.27-.77.21-.91-.05-.12-1.73-1.75-1.85-1.79h-6.47c-2.15,6.92-7.2,12.72-13.46,16.29l3.65,6.43c.51,1.48-.36,3.03-1.9,3.3-3.43-.24-7.27.31-10.65,0-.67-.06-1.04-.24-1.04-.99,0-.4.39-1.12.77-1.12h10.64s.26-.23.21-.35l-9.27-16.15h-.52c-.1.23-.17.47-.3.68-2.87,4.56-6.15,10.06-8.54,14.85-.04.07-.82.98-.21.98h3.64c.38,0,.77.72.77,1.12,0,.34-.26.78-.56.91-.33.14-3.75.14-4.26.06-1.39-.22-2.3-1.99-1.77-3.29l3.64-6.42c-6.24-3.59-11.31-9.37-13.45-16.31l-6.57.06c-.11.05-1.7,1.63-1.75,1.74-.08.17.18.53.2.79.28,4.49-4.91,5.39-6.43,1.46v-1.68c.63-1.53,1.98-2.58,3.7-2.37.31.04.7.32.96.25.61-.16,2.01-2.5,2.97-2.5h6.23c-.53-2.1-.83-4.27-.84-6.44h-6.65c-1.37,2.95-5.29,2.81-6.37-.28v-1.68c1.17-3.08,4.9-3.21,6.37-.28h6.65v-6.44h-5.67c-.81-.31-2-2.2-2.59-2.46-.27-.12-.61.18-.92.2-1.97.16-3.07-.61-3.84-2.37v-1.68c1.43-3.8,6.7-2.93,6.44,1.33-.02.29-.27.77-.21.91.18.41,1.51,1.33,1.82,1.82h4.97v-9.03c0-.5.98-1.65,1.41-1.95.75-.53,7.29-3.18,8.24-3.38.82-.17.97-.03,1.55.5-.14.23.24.89-.51,1.38-2.39,1.19-5.5,1.88-7.81,3.12-.32.17-.6.3-.72.68-.06,7.3-.19,14.63.08,21.92.9,8.68,6.17,16.9,14,20.8l.98-1.88c-6.79-3.78-11.49-10.5-12.58-18.24-.92-6.57-.03-14.07-.19-20.73.24-.86.74-.98,1.47-1.33,5.12-2.48,11.11-4.08,16.3-6.52,1.65-.32,4.06,1.4,5.7,1.79l1.34-1.97-6.38-2.39-8.02,3.06c-.45.1-.97-.28-1.15-.68ZM45.65,58.24c.39.66.71,1.58,1.19,2.24l.15.13c2.66-1.38,5.2-3.58,7.05-5.95,2.95-3.79,4.52-8.51,4.77-13.3.06-1.22-.2-3.11,0-4.2.07-.38.61-.78.98-.77.54,0,1,.43,1.09.94.25,1.4.03,4.48-.12,5.97-.86,8.1-5.63,15.28-12.73,19.21l1.06,1.89c8.28-4.24,13.57-13.09,14.07-22.34.35-6.57-.26-13.43,0-20.03-.15-1.3-2.32-1.46-3.3-2.02l-1.75,1.61c-.05.3.06.16.19.22,1.23.55,2.39.57,2.59,2.17s.23,6.89,0,8.51c-.09.65-.41,1.07-1.11,1.06-.48,0-.82-.33-.98-.77l-.03-8.38c-.13-.39-1.41-.66-1.8-.79-.17-.06-.25-.41-.7-.21-.11.05-1.64,1.59-1.66,1.7.38,1.66,3.03,4,1,5.35-3.1,1.55-6.12,4.03-9.19,5.51-1.38.67-2.42.26-2.36-1.37l3.5-7.25c-.06-.31-3.02-2.9-3.48-3.52-1.37-1.86,1.24-3.12,1.96-4.69l-3.81-1.38-15.61,6.25-.58.4c.15,5.45-.27,11.08-.03,16.51.31,7.04,3.2,13.33,8.76,17.71.38.3,2.69,1.91,2.96,1.95.2.03.22-.09.31-.22.95-1.33,2.1-4.71,3.76-5.06,2.08-.43,2.93,1.42,3.82,2.91ZM10.94,27.15c0-.63-.51-1.14-1.14-1.14s-1.14.51-1.14,1.14.51,1.14,1.14,1.14,1.14-.51,1.14-1.14ZM76.2,27.15c0-.63-.51-1.14-1.14-1.14s-1.14.51-1.14,1.14.51,1.14,1.14,1.14,1.14-.51,1.14-1.14ZM10.94,40.17c0-.63-.51-1.14-1.14-1.14s-1.14.51-1.14,1.14.51,1.14,1.14,1.14,1.14-.51,1.14-1.14ZM76.2,40.17c0-.63-.51-1.14-1.14-1.14s-1.14.51-1.14,1.14.51,1.14,1.14,1.14,1.14-.51,1.14-1.14ZM10.94,53.23c0-.63-.51-1.13-1.13-1.13s-1.13.51-1.13,1.13.51,1.13,1.13,1.13,1.13-.51,1.13-1.13ZM76.2,53.23c0-.63-.51-1.13-1.13-1.13s-1.13.51-1.13,1.13.51,1.13,1.13,1.13,1.13-.51,1.13-1.13Z"/>
      <g>
        <path class="cls-5" d="M45.65,58.24c-.89-1.49-1.74-3.34-3.82-2.91-1.66.34-2.81,3.73-3.76,5.06-.09.13-.11.25-.31.22-.27-.04-2.58-1.65-2.96-1.95-5.56-4.38-8.45-10.66-8.76-17.71-.24-5.43.17-11.06.03-16.51l.58-.4,15.61-6.25,3.81,1.38c-.72,1.57-3.33,2.83-1.96,4.69.45.62,3.42,3.21,3.48,3.52l-3.5,7.25c-.06,1.63.98,2.03,2.36,1.37,3.07-1.48,6.1-3.97,9.19-5.51,2.03-1.34-.62-3.69-1-5.35.02-.12,1.55-1.66,1.66-1.7.44-.2.52.16.7.21v15.9c-.56,7.69-4.77,14.71-11.34,18.69Z"/>
        <path class="cls-5" d="M59.8,33.59v2.8c-.37,0-.91.4-.98.77-.2,1.08.06,2.97,0,4.2-.25,4.79-1.81,9.51-4.77,13.3-1.85,2.37-4.39,4.57-7.05,5.95l-.15-.13c-.48-.66-.8-1.58-1.19-2.24,6.57-3.98,10.79-11,11.35-18.69v-15.9c.38.13,1.66.4,1.79.79l.03,8.38c.16.44.5.77.98.77Z"/>
      </g>
      <g>
        <path class="cls-4" d="M59.8,33.59c.7,0,1.02-.41,1.11-1.06.23-1.62.21-6.87,0-8.51s-1.36-1.62-2.59-2.17c-.13-.06-.25.08-.19-.22l1.75-1.61c.98.57,3.15.73,3.3,2.02-.27,6.6.35,13.46,0,20.03-.5,9.25-5.79,18.11-14.07,22.34l-1.06-1.89c7.09-3.93,11.86-11.12,12.73-19.21.16-1.5.37-4.58.12-5.97-.09-.51-.55-.94-1.09-.94v-2.8Z"/>
        <path class="cls-4" d="M33.33,15.52c.18.39.7.78,1.15.68l8.02-3.06,6.38,2.39-1.34,1.97c-1.64-.4-4.05-2.11-5.7-1.79-5.19,2.45-11.18,4.05-16.3,6.52-.72.35-1.23.47-1.47,1.33.15,6.65-.74,14.16.19,20.73,1.09,7.74,5.79,14.46,12.58,18.24l-.98,1.88c-7.83-3.89-13.1-12.12-14-20.8-.27-7.29-.14-14.62-.08-21.92.13-.37.41-.51.72-.68,2.31-1.24,5.42-1.93,7.81-3.12.75-.49.37-1.16.51-1.38.07-.12,2.21-.76,2.52-.98Z"/>
        <g>
          <circle class="cls-4" cx="9.8" cy="27.15" r="1.14"/>
          <circle class="cls-4" cx="75.07" cy="27.15" r="1.14"/>
          <g>
            <circle class="cls-4" cx="9.8" cy="40.17" r="1.14"/>
            <circle class="cls-4" cx="75.07" cy="40.17" r="1.14"/>
          </g>
          <g>
            <circle class="cls-4" cx="9.81" cy="53.23" r="1.13"/>
            <circle class="cls-4" cx="75.06" cy="53.23" r="1.13"/>
          </g>
        </g>
      </g>
      <rect class="cls-2" x="40.49" y="56.7" width="8.38" height="6.66"/>
      <g>
        <path class="cls-2" d="M42.99,48.22c.21-.34.33-.73.48-1.1h.83s14.77,26.35,14.77,26.35c.07.19-.27.57-.34.57h-16.96c-.61,0-1.23,1.18-1.23,1.83h-4.46c0-.65-.62-1.83-1.23-1.83h-5.8c-.97,0,.28-1.48.33-1.6h23.32c1.42-.08,2.6-1.34,2.33-2.84l-12.04-21.38Z"/>
        <path class="cls-2" d="M29.38,72.43c3.81-7.8,9.04-16.78,13.62-24.22l12.04,21.38c.27,1.5-.91,2.76-2.33,2.84h-23.32ZM43.6,56.25c-1.85.34-1.66,3.64-1.5,5.1.26,2.43,2.87,2.6,3.42.76.46-1.51.57-6.33-1.92-5.87ZM45.6,68.67c0-.97-.77-1.76-1.72-1.76s-1.72.79-1.72,1.76.77,1.76,1.72,1.76,1.72-.79,1.72-1.76Z"/>
        <circle class="cls-1" cx="44.12" cy="69.07" r="2.3"/>
        <path class="cls-1" d="M54.45,58.55l-1.66-2.96s.05-.03.08-.05l-1.77-3-.18-.16c-.45-.61-.8-1.37-1.15-2.1l-2.45-4.16c-1.01-1.31-2.28-2.24-4.27-1.83-1.2.25-2.23,1.52-3.14,3.01l-.65,1.13c-.79,1.44-1.48,2.92-2.12,3.8-.09.13-.14.24-.24.3l-1.74,3.02s.02.01.03.02l-1.54,2.96c-.05-.03-.1-.06-.15-.08l-6.79,11.8-.77,1.35c-.83,2.04.6,4.83,2.78,5.17.8.12,6.17.12,6.69-.1.48-.2.88-.89.88-1.42,0-.63-.61-1.76-1.21-1.76h-5.72c-.96,0,.27-1.43.33-1.54,3.75-7.51,8.91-16.15,13.41-23.31.21-.33.32-.71.47-1.06h.81s14.55,25.36,14.55,25.36c.07.19-.26.55-.34.55h-16.71c-.6,0-1.21,1.13-1.21,1.76,0,1.18.59,1.45,1.64,1.55,5.31.48,11.33-.38,16.72,0,2.41-.43,3.78-2.87,2.98-5.19l-5.73-10.09s.04-.03.06-.04l-1.78-3.02s-.1.06-.15.08Z"/>
        <path class="cls-1" d="M43.52,53.28c1.97-.76,1.88,7.15,1.51,9.63-.44,3.02-2.49,2.73-2.7-1.25-.13-2.4-.28-7.81,1.19-8.38Z"/>
        <rect class="cls-1" x="34.34" y="73.49" width="10.72" height="3.45"/>
      </g>
    </g>
  </g>
</svg>