<?xml version="1.0" encoding="UTF-8"?>
<svg id="Layer_2" data-name="Layer 2" xmlns="http://www.w3.org/2000/svg" viewBox="0 0 85 85">
  <defs>
    <style>
      .cls-1 {
        fill: #fff;
      }

      .cls-1, .cls-2 {
        stroke-width: 0px;
      }

      .cls-2 {
        fill: #c64127;
      }
    </style>
  </defs>
  <g id="Layer_1-2" data-name="Layer 1">
    <g>
      <circle class="cls-2" cx="42.5" cy="42.5" r="42.5"/>
      <g>
        <path class="cls-1" d="m42.62,52.26v-12.56c-.24,0-.47,0-.69,0-2.07,0-4.15,0-6.22,0-.93,0-1.28-.34-1.28-1.27,0-7.38,0-14.76,0-22.14,0-.89.35-1.23,1.24-1.24,3.27,0,6.55-.02,9.82.02.38,0,.85.19,1.12.45,1.96,1.91,3.9,3.85,5.81,5.81.27.27.47.74.47,1.12.03,5.33.02,10.65.02,15.98,0,.93-.34,1.26-1.28,1.26-2.28,0-4.57,0-6.89,0v12.57c2.2.64,4.4,1.29,6.61,1.94,5.61,1.63,11.22,3.27,16.82,4.9,1.03.3,1.17.5,1.17,1.59,0,2.46,0,4.92,0,7.38,0,.99-.17,1.22-1.12,1.5-7.08,2.07-14.16,4.13-21.24,6.19-.92.27-1.84.56-2.77.79-.33.08-.73.1-1.05,0-8.03-2.33-16.06-4.67-24.08-7.01-.91-.26-1.07-.48-1.07-1.4,0-2.55,0-5.09,0-7.64,0-.85.18-1.09.99-1.32,7.7-2.25,15.39-4.5,23.09-6.75.18-.05.36-.11.55-.17Zm-19.61,7.9c0,.05.01.1.02.15.1.03.2.06.3.09,6.57,1.92,13.13,3.84,19.71,5.74.42.12.94.11,1.36-.02,6.47-1.86,12.94-3.76,19.41-5.65.18-.05.36-.13.54-.19,0-.04-.02-.09-.03-.13-6.52-1.9-13.04-3.81-19.59-5.72v5.38c.83-.86,1.55-1.61,2.28-2.36.51.51.98.97,1.46,1.44-1.38,1.39-2.74,2.79-4.13,4.15-.45.44-1,.37-1.48-.1-.58-.56-1.15-1.15-1.73-1.72-.77-.77-1.54-1.53-2.25-2.24.5-.54.95-1.02,1.47-1.58.75.77,1.47,1.52,2.25,2.33v-5.3c-6.56,1.91-13.08,3.81-19.59,5.71Zm13.51-43.03v20.46h14.3v-14.33c-1.61,0-3.19,0-4.77,0-1.06,0-1.36-.3-1.36-1.38,0-1.58,0-3.15,0-4.76h-8.17Zm30.75,44.5c-7.56,2.21-15.06,4.39-22.54,6.58v6.05c7.55-2.2,15.05-4.39,22.54-6.58v-6.05Zm-24.63,12.63c0-1.89-.02-3.69.01-5.48,0-.45-.13-.61-.56-.74-6.71-1.95-13.42-3.91-20.13-5.87-.62-.18-1.24-.35-1.9-.53v6.04c7.5,2.19,14.99,4.37,22.58,6.59Zm4.14-55.57v2.48h2.49c-.84-.84-1.64-1.63-2.49-2.48Z"/>
        <path class="cls-1" d="m66.29,39.71c-.28,3.24-2.35,5.14-5.5,5.14-.88,0-1.75,0-2.63,0-1.86.02-3.17,1.35-3.19,3.21,0,.44,0,.88,0,1.51.82-.89,1.52-1.65,2.26-2.45.54.61.98,1.1,1.48,1.67-.53.52-1.15,1.13-1.77,1.74-.73.72-1.45,1.46-2.18,2.17-.49.48-1.04.54-1.48.11-1.39-1.36-2.75-2.75-4.14-4.14.49-.47.97-.93,1.48-1.42.7.73,1.42,1.47,2.15,2.22l.17-.07c0-.46,0-.91,0-1.37,0-3,2.23-5.22,5.23-5.23.98,0,1.97.02,2.95,0,1.75-.04,3.04-1.32,3.08-3.08-.21,0-.42,0-.63,0-2.12,0-4.23,0-6.35,0-.82,0-1.19-.36-1.19-1.16,0-7.44,0-14.88,0-22.33,0-.78.37-1.15,1.13-1.15,3.36,0,6.71-.01,10.07.01.3,0,.68.16.9.38,2.02,1.98,4.01,3.97,5.99,5.99.22.23.37.64.37.96.02,5.37.02,10.74.01,16.1,0,.84-.36,1.19-1.22,1.19-2.07,0-4.15,0-6.22,0-.23,0-.46,0-.74,0Zm-8.22-2.1h14.3v-14.34c-1.68,0-3.3,0-4.93,0-.81,0-1.18-.36-1.18-1.17,0-1.45,0-2.91,0-4.36,0-.2,0-.4,0-.59h-8.19v20.46Zm12.61-16.4c-.78-.78-1.58-1.59-2.32-2.33v2.33h2.32Z"/>
        <path class="cls-1" d="m28.56,48.65c.5-.49.95-.94,1.48-1.46.71.76,1.43,1.52,2.15,2.29.08-.04.15-.08.23-.12-.06-.77-.04-1.57-.21-2.32-.3-1.3-1.55-2.17-2.97-2.2-.9-.02-1.8-.05-2.69,0-2.69.18-5.37-1.88-5.5-5.14-.22,0-.45,0-.68,0-2.03,0-4.06,0-6.09,0-1.12,0-1.42-.29-1.42-1.38,0-7.31,0-14.63,0-21.94,0-.98.33-1.32,1.29-1.32,3.25,0,6.5-.02,9.75.02.4,0,.88.21,1.17.49,1.95,1.89,3.87,3.81,5.76,5.76.28.29.48.78.48,1.17.03,5.33.02,10.65.02,15.98,0,.88-.36,1.23-1.26,1.23-2.07,0-4.15,0-6.22,0-.23,0-.46,0-.7,0,.03,1.75,1.32,3.04,3.08,3.08,1.05.02,2.1,0,3.14,0,2.74.02,5,2.28,5.03,5.03,0,.51,0,1.02,0,1.68.79-.87,1.5-1.64,2.22-2.43.62.62,1.09,1.09,1.57,1.57-1.38,1.39-2.74,2.78-4.12,4.14-.42.41-.97.4-1.39-.01-1.38-1.34-2.72-2.72-4.13-4.13Zm.7-25.37c-.26,0-.47,0-.68,0-1.43,0-2.87,0-4.3,0-.77,0-1.14-.37-1.15-1.13,0-.79,0-1.58,0-2.37,0-.87,0-1.74,0-2.61h-8.17v20.46h14.3v-14.35Zm-1.71-2.07c-.77-.8-1.56-1.61-2.33-2.4v2.4h2.33Z"/>
        <path class="cls-1" d="m38.57,25.36h10.19v1.97h-10.19v-1.97Z"/>
        <path class="cls-1" d="m48.77,29.49v1.97h-10.21v-1.97h10.21Z"/>
        <path class="cls-1" d="m42.58,23.25h-4.01v-1.99h4.01v1.99Z"/>
        <path class="cls-1" d="m40.54,35.57h-1.96v-1.98h1.96v1.98Z"/>
        <path class="cls-1" d="m42.69,33.58h1.97v1.97h-1.97v-1.97Z"/>
        <path class="cls-1" d="m48.77,33.6v1.96h-1.99v-1.96h1.99Z"/>
        <path class="cls-1" d="m70.33,25.38v1.98h-10.18v-1.98h10.18Z"/>
        <path class="cls-1" d="m60.15,29.45h10.16v2h-10.16v-2Z"/>
        <path class="cls-1" d="m70.33,33.59v1.98h-10.18v-1.98h10.18Z"/>
        <path class="cls-1" d="m64.17,21.26v1.97h-4.03v-1.97h4.03Z"/>
        <path class="cls-1" d="m17,27.34v-1.97h10.18v1.97h-10.18Z"/>
        <path class="cls-1" d="m27.2,33.59v1.97h-10.21v-1.97h10.21Z"/>
        <path class="cls-1" d="m27.2,31.46h-10.18v-1.98h10.18v1.98Z"/>
        <path class="cls-1" d="m21.04,21.26v1.97h-4.03v-1.97h4.03Z"/>
      </g>
    </g>
  </g>
</svg>