<?xml version="1.0" encoding="UTF-8"?>
<svg id="Layer_2" data-name="Layer 2" xmlns="http://www.w3.org/2000/svg" viewBox="0 0 84.91 84.91">
  <defs>
    <style>
      .cls-1 {
        stroke: #1793d0;
      }

      .cls-1, .cls-2 {
        fill: #fff;
      }

      .cls-1, .cls-3 {
        stroke-miterlimit: 10;
      }

      .cls-4 {
        fill: #1793d0;
      }

      .cls-3 {
        fill: none;
        stroke: #fff;
        stroke-width: 2px;
      }
    </style>
  </defs>
  <g id="Layer_5" data-name="Layer 5">
    <g>
      <g>
        <circle class="cls-4" cx="42.45" cy="42.45" r="42.45"/>
        <polygon class="cls-2" points="38.99 29.25 38.31 35.49 34.27 35.96 37.92 36.78 45.38 36.78 48.93 36.08 45.17 35.72 44.66 28.78 38.99 29.25"/>
        <rect class="cls-2" x="27.2" y="9.01" width="29.62" height="21.89"/>
        <rect class="cls-4" x="30.33" y="11.56" width="23.61" height="16.42"/>
        <polygon class="cls-2" points="59.84 58.5 59.16 64.74 55.12 65.21 58.77 66.03 66.23 66.03 69.78 65.33 66.02 64.97 65.51 58.03 59.84 58.5"/>
        <rect class="cls-2" x="48.06" y="38.25" width="29.62" height="21.89"/>
        <rect class="cls-4" x="51.18" y="40.81" width="23.61" height="16.42"/>
        <polygon class="cls-2" points="18.14 58.5 17.46 64.74 13.42 65.21 17.07 66.03 24.53 66.03 28.08 65.33 24.32 64.97 23.81 58.03 18.14 58.5"/>
        <rect class="cls-2" x="6.35" y="38.25" width="29.62" height="21.89"/>
        <rect class="cls-4" x="9.47" y="40.81" width="23.61" height="16.42"/>
        <circle class="cls-3" cx="42.39" cy="72.42" r="5.31"/>
        <path class="cls-3" d="M47.7,72.42h13.78c1.47-.48,1.04-2.51,1.04-4.18"/>
        <path class="cls-3" d="M36.49,72.42h-13.78c-1.47-.48-1.04-2.51-1.04-4.18"/>
        <line class="cls-3" x1="42.06" y1="51.83" x2="42.06" y2="39.05"/>
        <line class="cls-3" x1="42.06" y1="56.15" x2="42.06" y2="54.13"/>
        <line class="cls-3" x1="42.06" y1="60.44" x2="42.06" y2="58.42"/>
        <line class="cls-3" x1="42.06" y1="64.68" x2="42.06" y2="62.66"/>
        <line class="cls-3" x1="42.06" y1="73.25" x2="42.06" y2="71.23"/>
      </g>
      <g>
        <rect class="cls-1" x="31.63" y="62.83" width="22.72" height="16.3"/>
        <path class="cls-4" d="M34.27,65.15h1.89c.82,0,1.49.17,2,.51s.92.97,1.23,1.89.46,2.16.46,3.73c0,1.11-.09,2.1-.28,2.96s-.43,1.54-.74,2.03-.65.83-1.03,1-.86.25-1.44.25h-2.1v-12.37ZM36.03,67.27v8.13h.3c.41,0,.72-.12.95-.36.22-.24.4-.66.53-1.27.13-.6.2-1.47.2-2.61,0-1.05-.07-1.86-.22-2.43-.15-.57-.33-.95-.55-1.16-.22-.2-.52-.3-.91-.3h-.3Z"/>
        <path class="cls-4" d="M40.95,65.15h1.95l2.06,7.69v-7.69h1.36v12.37h-1.57l-2.44-8.95v8.95h-1.36v-12.37Z"/>
        <path class="cls-4" d="M52.65,67.84l-1.45.86c-.21-1.02-.59-1.53-1.14-1.53-.26,0-.46.11-.61.34s-.23.49-.23.79c0,.35.09.63.27.84s.55.48,1.12.82c.52.3.92.59,1.22.88s.53.68.71,1.18.27,1.08.27,1.74c0,1.15-.26,2.1-.77,2.84s-1.2,1.11-2.07,1.11c-1.45,0-2.38-1.13-2.78-3.4l1.54-.68c.19,1.24.62,1.87,1.28,1.87.3,0,.55-.12.74-.37s.28-.57.28-.97c0-.3-.07-.57-.2-.81s-.44-.49-.91-.76c-.61-.34-1.07-.65-1.37-.92s-.55-.67-.74-1.18-.29-1.09-.29-1.74c0-1.11.23-2.02.69-2.73s1.08-1.06,1.84-1.06c1.39,0,2.26.96,2.6,2.88Z"/>
      </g>
    </g>
  </g>
</svg>