<?xml version="1.0" encoding="UTF-8"?>
<svg id="Layer_2" data-name="Layer 2" xmlns="http://www.w3.org/2000/svg" viewBox="0 0 84.64 84.64">
  <defs>
    <style>
      .cls-1, .cls-2 {
        stroke-width: 0px;
      }

      .cls-1, .cls-3 {
        fill: #f2bb1e;
      }

      .cls-2 {
        fill: #174477;
      }

      .cls-3 {
        stroke: #174477;
        stroke-miterlimit: 10;
        stroke-width: 3px;
      }
    </style>
  </defs>
  <g id="Layer_5" data-name="Layer 5">
    <g>
      <circle class="cls-1" cx="42.32" cy="42.32" r="42.32"/>
      <g>
        <path class="cls-2" d="m1.42,41.6C5.84,29.31,22.35,10.56,42.69,10.32c20.34-.24,40.88,24.48,40.88,31.28,0,5.97-20.72,31.41-40.51,31.17-19.79-.24-39.19-20.66-41.64-30.57"/>
        <circle class="cls-3" cx="42.69" cy="41.6" r="29.37"/>
        <g>
          <path class="cls-2" d="m53.28,48.89c-1.01,1.01-2.01,2.01-3.04,3.03-.46-.34-.93-.69-1.4-1.04-.27-.2-.52-.52-.81-.55-.27-.03-.57.25-.87.37-.48.19-.96.37-1.44.53-.16.06-.24.13-.27.31-.1.77-.23,1.54-.33,2.31-.02.18-.09.23-.27.23-1.27,0-2.55,0-3.82,0-.16,0-.23-.04-.26-.22-.1-.78-.23-1.56-.33-2.34-.02-.17-.09-.23-.24-.29-.71-.28-1.41-.56-2.1-.86-.16-.07-.26-.08-.4.03-.67.51-1.35,1.02-2.01,1.51-1.01-1.02-2.01-2.02-3.03-3.05.35-.47.71-1.03,1.14-1.51.41-.45.5-.82.16-1.38-.29-.47-.44-1.03-.62-1.56-.07-.2-.15-.29-.36-.32-.73-.09-1.45-.21-2.17-.3-.23-.03-.34-.09-.34-.36.02-1.23.02-2.45,0-3.68,0-.25.09-.32.32-.34.74-.09,1.49-.21,2.23-.31.17-.02.24-.1.31-.26.27-.7.55-1.39.86-2.08.08-.17.08-.28-.04-.43-.45-.59-.89-1.18-1.34-1.78-.06-.08-.12-.17-.16-.22,1.01-1.01,2.01-2.01,3.03-3.03.51.38,1.07.75,1.57,1.18.41.35.75.48,1.28.16.5-.31,1.1-.46,1.66-.66.17-.06.24-.13.26-.31.1-.77.22-1.54.33-2.31.02-.17.09-.22.25-.22,1.28,0,2.57,0,3.85,0,.17,0,.22.07.24.23.1.76.22,1.52.32,2.29.02.19.09.27.27.34.7.27,1.39.56,2.08.86.17.08.28.07.43-.04.66-.51,1.34-1.01,1.98-1.49,1.01,1.02,2.01,2.03,3.03,3.06-.44.58-.91,1.22-1.4,1.85-.17.22-.2.38-.07.65.3.62.55,1.27.79,1.92.08.21.17.3.39.33.73.09,1.47.21,2.2.3.21.03.29.09.29.32-.01,1.25-.01,2.49,0,3.74,0,.22-.08.3-.28.32-.73.1-1.47.21-2.2.31-.21.03-.31.11-.39.32-.25.68-.54,1.36-.84,2.02-.08.17-.08.28.03.43.51.67,1.02,1.35,1.51,2.01Zm.93-6.2c0-.67,0-1.29,0-1.92,0-.2-.07-.25-.26-.28-.69-.09-1.37-.2-2.06-.29-.18-.02-.28-.09-.32-.28-.21-1.17-.66-2.24-1.33-3.22-.11-.17-.1-.27.02-.42.43-.55.84-1.1,1.25-1.66.05-.07.1-.24.06-.28-.46-.49-.94-.96-1.42-1.45-.64.48-1.27.93-1.87,1.41-.17.13-.28.12-.45,0-.97-.66-2.04-1.09-3.19-1.32-.19-.04-.27-.12-.28-.31-.01-.23-.07-.45-.1-.68-.08-.54-.16-1.08-.24-1.63h-2.15c-.02.14-.05.27-.07.4-.09.65-.18,1.3-.29,1.94-.02.09-.12.23-.2.24-1.2.25-2.31.69-3.32,1.38-.14.09-.23.07-.35-.03-.3-.24-.61-.46-.91-.69-.32-.24-.65-.48-1-.74-.46.46-.88.91-1.32,1.34-.15.14-.16.23-.03.4.43.55.83,1.11,1.25,1.66.12.16.12.26,0,.42-.66.97-1.11,2.03-1.32,3.19-.04.2-.13.28-.33.31-.69.09-1.37.19-2.06.29-.09.01-.23.11-.23.17-.02.66-.01,1.33-.01,2,.1.02.18.05.27.06.68.1,1.35.2,2.03.28.21.02.29.11.33.3.21,1.16.66,2.22,1.32,3.19.12.18.1.29-.02.45-.41.53-.8,1.09-1.22,1.61-.16.2-.13.31.04.47.39.37.76.75,1.13,1.13.06.06.12.11.19.16.63-.48,1.25-.93,1.86-1.41.14-.11.25-.13.4-.02.99.68,2.09,1.12,3.27,1.35.16.03.22.09.24.25.09.7.19,1.39.3,2.09.02.1.1.27.16.27.67.02,1.34.01,2.03.01.12-.8.24-1.57.34-2.34.02-.18.09-.25.27-.29,1.16-.23,2.24-.67,3.21-1.33.16-.11.27-.11.42.01.61.48,1.24.93,1.89,1.42.48-.48.93-.95,1.4-1.41.13-.13.04-.22-.03-.32-.42-.56-.83-1.12-1.25-1.66-.13-.16-.13-.27-.02-.45.65-.97,1.1-2.02,1.31-3.16.04-.21.12-.3.34-.32.75-.09,1.5-.21,2.29-.32Z"/>
          <path class="cls-2" d="m38.53,55.26h1.23c0,.11,0,.22,0,.33,0,2.9,0,5.8,0,8.7,0,.23.07.34.29.44.95.4,1.5,1.46,1.29,2.45-.23,1.08-1.12,1.8-2.22,1.8-1.04,0-1.93-.73-2.14-1.75-.22-1.05.3-2.09,1.28-2.5.23-.1.28-.22.28-.44,0-2.89,0-5.78,0-8.67v-.36Zm.61,10.49c-.54,0-1,.45-1,1,0,.53.46,1.01.99,1.01.54,0,1.02-.47,1.02-1.02,0-.53-.47-.99-1.01-.99Z"/>
          <path class="cls-2" d="m29.32,44.8v1.23h-.35c-2.9,0-5.8,0-8.7,0-.2,0-.32.04-.4.25-.44,1.09-1.63,1.62-2.75,1.25-1.1-.36-1.73-1.51-1.45-2.66.26-1.09,1.37-1.82,2.5-1.64.81.13,1.37.58,1.7,1.32.09.2.18.26.39.26,2.9,0,5.8,0,8.7,0h.37Zm-11.46-.38c-.56-.02-1.01.4-1.03.95-.02.56.41,1.02.97,1.05.51.02,1.01-.45,1.03-.98.02-.53-.43-1.01-.97-1.02Z"/>
          <path class="cls-2" d="m46.17,55.26h1.23v.35c0,2.88,0,5.76,0,8.64,0,.24.05.38.3.49.96.4,1.48,1.44,1.26,2.48-.21,1.02-1.11,1.75-2.14,1.75-1.1,0-1.97-.69-2.22-1.76-.22-.99.3-2.06,1.25-2.46.26-.11.32-.25.32-.51,0-2.87,0-5.74,0-8.61v-.36Zm1.62,11.49c0-.54-.46-1-1-1-.54,0-1.01.45-1.01.99,0,.54.47,1.02,1.02,1.02.53,0,.99-.47.99-1.01Z"/>
          <path class="cls-2" d="m56.62,46.04v-1.21c.12,0,.24-.02.36-.02,2.9,0,5.8,0,8.7,0,.21,0,.31-.04.4-.25.4-.99,1.44-1.52,2.51-1.31,1.01.2,1.75,1.12,1.75,2.17,0,1.06-.73,1.97-1.77,2.18-1.04.22-2.09-.33-2.49-1.31-.09-.22-.21-.26-.42-.26-2.89,0-5.78,0-8.67,0h-.37Zm12.49-.62c0-.55-.44-.99-1-.99-.55,0-1,.45-1.01.99,0,.52.48,1.01,1,1.01.56,0,1.01-.46,1.01-1.02Z"/>
          <path class="cls-2" d="m39.77,27.94h-1.23c0-.13,0-.24,0-.35,0-2.89,0-5.78,0-8.67,0-.22-.05-.33-.27-.43-.99-.42-1.52-1.46-1.3-2.49.22-1.04,1.11-1.76,2.19-1.76,1.06,0,1.95.73,2.18,1.78.21,1-.34,2.07-1.3,2.47-.22.09-.27.2-.27.42,0,2.89,0,5.78,0,8.67v.36Zm-1.62-11.5c-.02.52.42.99.95,1.02.54.03,1.04-.42,1.06-.97.02-.53-.43-1.01-.97-1.03-.56-.02-1.02.41-1.04.98Z"/>
          <path class="cls-2" d="m47.4,27.94h-1.23v-.36c0-2.88,0-5.76,0-8.64,0-.24-.07-.36-.3-.46-1-.43-1.53-1.57-1.24-2.62.3-1.08,1.36-1.76,2.48-1.6,1.07.15,1.9,1.08,1.89,2.17,0,.96-.45,1.65-1.32,2.05-.23.1-.29.23-.29.47,0,2.89,0,5.78,0,8.67,0,.1,0,.2,0,.32Zm.39-11.46c0-.55-.45-1.02-1-1.02-.54,0-1,.45-1.01.99,0,.53.45,1,.99,1.01.54.01,1.02-.45,1.02-.98Z"/>
          <path class="cls-2" d="m29.31,37.18v1.22h-.37c-2.89,0-5.78,0-8.67,0-.22,0-.33.05-.42.27-.39.97-1.46,1.52-2.49,1.3-1.03-.21-1.77-1.12-1.77-2.19,0-1.05.73-1.95,1.76-2.17,1.04-.22,2.11.32,2.5,1.29.09.23.21.28.44.28,2.88,0,5.76,0,8.64,0,.12,0,.24,0,.39,0Zm-12.49.61c0,.55.45,1,.99,1.01.54,0,1.03-.48,1.02-1.01,0-.53-.47-.99-1.01-.99-.54,0-.99.45-.99,1Z"/>
          <path class="cls-2" d="m56.62,38.4v-1.22c.13,0,.24,0,.36,0,2.88,0,5.76,0,8.64,0,.26,0,.38-.07.48-.32.39-.95,1.5-1.49,2.52-1.25,1.08.25,1.78,1.21,1.72,2.34-.05,1-.88,1.89-1.88,2.03-1.06.14-2-.38-2.39-1.38-.08-.2-.21-.21-.37-.21-2.89,0-5.78,0-8.67,0h-.4Zm12.49-.62c0-.54-.46-1-1-.99-.54,0-1,.47-1.01,1,0,.54.48,1.02,1.03,1.01.54,0,.98-.47.98-1.01Z"/>
          <path class="cls-2" d="m33.57,30.44c0-.16,0-.26,0-.36,0-2.64,0-5.29,0-7.93,0-.22-.05-.33-.27-.42-.99-.42-1.53-1.46-1.3-2.49.23-1.06,1.14-1.79,2.21-1.78,1.05.01,1.94.77,2.15,1.82.2,1.03-.35,2.06-1.35,2.46-.19.08-.22.18-.22.36,0,2.65,0,5.3,0,7.96q0,.38-.37.38c-.27,0-.55,0-.86,0Zm1.61-10.74c0-.54-.44-1-.98-1.01-.54,0-1.03.47-1.02,1.01,0,.53.47.99,1.01.99.54,0,.99-.45,1-.99Z"/>
          <path class="cls-2" d="m52.36,30.44c-.38,0-.72,0-1.06,0-.06,0-.13-.1-.16-.17-.03-.08,0-.17,0-.25,0-2.6,0-5.21,0-7.81,0-.25-.05-.37-.3-.48-.97-.41-1.49-1.47-1.26-2.49.23-1.03,1.12-1.76,2.17-1.76,1.06,0,1.95.72,2.18,1.78.22,1.01-.3,2.05-1.28,2.48-.23.1-.3.22-.29.46,0,2.63,0,5.27,0,7.9,0,.1,0,.21,0,.36Zm-1.61-10.74c0,.55.46,1,1,.99.54,0,1-.46,1.01-.99,0-.54-.49-1.02-1.02-1.01-.54,0-.99.47-.98,1.01Z"/>
          <path class="cls-2" d="m33.57,52.79h1.22c0,.15,0,.29,0,.43,0,2.61,0,5.23,0,7.84,0,.23.06.34.28.44.97.41,1.5,1.45,1.29,2.47-.22,1.04-1.14,1.79-2.18,1.78-1.07,0-1.97-.75-2.19-1.81-.21-.99.34-2.04,1.3-2.44.22-.09.29-.2.29-.44,0-2.65,0-5.3,0-7.96,0-.09,0-.19,0-.31Zm.63,9.73c-.55-.01-1.03.46-1.03,1,0,.53.47.99,1.01,1,.53,0,.99-.44,1-.96.02-.56-.43-1.03-.98-1.04Z"/>
          <path class="cls-2" d="m51.14,52.79h1.22c0,.11,0,.22,0,.33,0,2.65,0,5.3,0,7.96,0,.21.04.31.25.4.98.4,1.53,1.44,1.33,2.45-.21,1.06-1.11,1.81-2.18,1.82-1.05.01-1.97-.74-2.19-1.77-.22-1.03.31-2.07,1.3-2.49.22-.09.27-.21.27-.42,0-2.6,0-5.21,0-7.81,0-.14,0-.28,0-.46Zm.62,11.74c.54,0,1.01-.47,1.01-1,0-.55-.48-1.02-1.03-1-.55.01-.98.46-.98,1.01,0,.54.47,1,1,.99Z"/>
          <path class="cls-2" d="m31.78,32.22v1.21h-.32c-2.65,0-5.3,0-7.95,0-.22,0-.33.05-.42.27-.43,1.02-1.55,1.57-2.6,1.28-1.1-.3-1.78-1.3-1.65-2.44.12-1.07,1.05-1.91,2.16-1.94.89-.03,1.72.5,2.09,1.36.09.21.2.27.42.27,2.63,0,5.26,0,7.9,0,.11,0,.23,0,.37,0Zm-9.74.62c0-.57-.43-1.02-.99-1.02-.54,0-1.01.46-1.01.99,0,.53.47,1,.99,1.01.54,0,1-.44,1.01-.98Z"/>
          <path class="cls-2" d="m54.16,33.43v-1.21c.13,0,.24,0,.35,0,2.63,0,5.26,0,7.9,0,.22,0,.34-.05.44-.28.43-1,1.46-1.52,2.52-1.3.99.21,1.72,1.09,1.74,2.12.02,1.07-.67,1.96-1.72,2.22-1.03.25-2.12-.3-2.54-1.3-.08-.2-.19-.26-.4-.26-2.65,0-5.3,0-7.95,0-.1,0-.21,0-.34,0Zm9.73-.61c0,.55.44,1,.99,1,.54,0,1.02-.48,1.01-1.02,0-.53-.48-.99-1.02-.98-.55,0-.99.45-.99,1Z"/>
          <path class="cls-2" d="m54.16,51v-1.21c.13,0,.24,0,.36,0,2.62,0,5.24,0,7.87,0,.24,0,.36-.06.46-.29.53-1.2,1.93-1.68,3.06-1.08,1.15.61,1.54,2.05.86,3.16-.66,1.07-2.13,1.38-3.16.62-.31-.23-.56-.57-.74-.91-.13-.24-.25-.3-.49-.29-2.62,0-5.24,0-7.87,0h-.35Zm9.73-.62c0,.56.45,1.02,1,1.02.53,0,1-.47,1-1,0-.53-.46-1-1-1-.56,0-1,.42-1,.98Z"/>
          <path class="cls-2" d="m31.78,49.79v1.21h-.32c-2.65,0-5.3,0-7.95,0-.22,0-.32.06-.41.27-.43,1.03-1.55,1.56-2.63,1.27-1.09-.3-1.77-1.33-1.62-2.46.15-1.08,1.09-1.92,2.19-1.91.96.01,1.67.48,2.06,1.36.1.22.21.27.42.27,2.63,0,5.26,0,7.9,0h.37Zm-10.73-.39c-.54,0-1,.45-1.01.99,0,.53.46,1,.99,1.01.54,0,1-.44,1.01-.98,0-.57-.42-1.02-.99-1.02Z"/>
          <path class="cls-2" d="m42.96,47.92c-3.47,0-6.31-2.84-6.32-6.29,0-3.5,2.83-6.34,6.32-6.34,3.49,0,6.32,2.83,6.33,6.33,0,3.46-2.85,6.3-6.33,6.3Zm0-1.21c2.78,0,5.09-2.3,5.09-5.08,0-2.8-2.28-5.11-5.08-5.12-2.8-.01-5.12,2.31-5.11,5.12.01,2.79,2.31,5.08,5.1,5.08Z"/>
          <path class="cls-2" d="m42.36,41.01v-2.77h1.21v2.75h2.76v1.22c-.1,0-.2,0-.3,0-.73,0-1.46,0-2.2,0-.2,0-.26.07-.26.26,0,.83,0,1.65,0,2.5h-1.21c0-.09-.02-.19-.02-.29,0-.73,0-1.46,0-2.2,0-.21-.06-.28-.27-.28-.82.01-1.63,0-2.48,0v-1.2h2.74Z"/>
        </g>
      </g>
    </g>
  </g>
</svg>