<?xml version="1.0" encoding="UTF-8"?>
<svg id="Layer_2" data-name="Layer 2" xmlns="http://www.w3.org/2000/svg" viewBox="0 0 84.54 84.54">
  <defs>
    <style>
      .cls-1 {
        fill: #fff;
      }

      .cls-2 {
        fill: #c64127;
      }
    </style>
  </defs>
  <g id="Layer_1-2" data-name="Layer 1">
    <circle class="cls-2" cx="42.27" cy="42.27" r="42.27"/>
    <g>
      <path class="cls-1" d="m22.05,74.65c-.87-.32-1.72-.65-2.45-1.25-2.8-2.31-2.49-6.86.59-8.77,2.95-1.82,6.64-.66,8.02,2.52,1.19,2.75-.33,6.2-3.18,7.2-.27.09-.54.2-.8.3h-2.19Z"/>
      <path class="cls-1" d="m79.62,32.27c-.18.59-.3,1.21-.56,1.76-.94,2.01-2.54,3.16-4.77,3.23-2.34.08-4.12-.98-5.13-3.09-1.67-3.46.63-7.31,4.16-7.75,3.28-.41,6.14,1.98,6.23,5.27,0,.16.04.33.06.49,0,.03,0,.06,0,.09Z"/>
      <path class="cls-1" d="m5.47,31.18c.12-.4.23-.81.37-1.21.93-2.69,3.91-4.21,6.64-3.4,2.09.63,3.42,2.03,3.84,4.13.57,2.87-.99,5.47-3.71,6.31-3.41,1.06-6.55-1.26-7.04-4.36-.02-.1-.07-.2-.1-.3,0-.39,0-.79,0-1.18Z"/>
      <path class="cls-1" d="m60.85,74.65c-.79-.4-1.67-.69-2.36-1.22-1.71-1.31-2.33-3.14-1.93-5.21.42-2.19,1.76-3.66,3.95-4.25,2.98-.79,5.69.87,6.59,3.5.97,2.82-.51,5.86-3.31,6.89-.25.09-.51.19-.76.29h-2.19Z"/>
      <path class="cls-1" d="m56.67,50.87c-1.26-.66-2.42-1.27-3.58-1.89-.28-.15-.59-.27-.83-.46-.79-.63-1.65-.26-2.48-.19-3.44.28-6.59-.42-9.22-2.76-1.81-1.62-2.69-3.65-2.25-6.11.26-1.48,1.02-2.72,2.13-3.72,2.72-2.47,5.99-3.19,9.55-2.84,2.11.21,4.05.92,5.73,2.23,1.87,1.45,3.03,3.3,2.96,5.75-.03,1.35-.53,2.56-1.36,3.6-.49.61-1.08,1.14-1.67,1.66-.24.21-.33.39-.23.7.41,1.22.8,2.45,1.2,3.67.03.08.03.17.07.37Z"/>
      <path class="cls-1" d="m28.01,48.56c.22-.7.39-1.43.67-2.1.35-.84.33-1.41-.48-2.06-1.22-.99-1.87-2.37-1.79-4,.09-1.73.94-3.05,2.26-4.07,1.76-1.37,3.79-1.91,5.99-1.89,1.4.01,2.73.31,4,.89.15.07.29.16.49.27-1.35,1.42-2.15,3.08-2.15,5.02,0,1.93.82,3.58,2.14,5.02-1.02.57-2.07.87-3.17,1.02-1.19.16-2.39.14-3.58-.1-.18-.04-.41.06-.59.15-1.24.64-2.47,1.29-3.7,1.93l-.11-.07Z"/>
      <path class="cls-1" d="m47.71,8.69c.02,2.99-2.47,5.49-5.46,5.49-2.93,0-5.39-2.43-5.47-5.3-.08-3.14,2.4-5.63,5.41-5.66,3.05-.03,5.49,2.4,5.51,5.46Z"/>
      <path class="cls-1" d="m18.14,65.7c-.34-1.32-.52-2.65-.34-4.01.3-2.34,1.29-4.35,2.95-6,1.53-1.52,3.39-2.41,5.52-2.76,1.26-.2,2.87.63,3.17,2.4.22,1.28-.74,2.84-2.08,3.11-.95.19-1.81.47-2.53,1.14-.91.84-1.41,1.88-1.47,3.13-.01.27.01.51-.39.52-1.91.02-3.44.84-4.63,2.32-.03.04-.06.07-.09.1-.02.02-.05.02-.11.05Z"/>
      <path class="cls-1" d="m36.78,8.54c.03,2.25.94,3.91,2.63,5.16-.19.35-.4.65-.54.97-.77,1.75-.58,3.38.69,4.83.68.78,1.13,1.61.91,2.68-.21,1.05-.81,1.78-1.82,2.14-1.03.37-1.99.2-2.79-.56-1.54-1.46-2.52-3.24-2.88-5.34-.58-3.42.32-6.39,2.71-8.9.31-.33.67-.6,1.09-.98Z"/>
      <path class="cls-1" d="m48.37,8.63c1.77,1.41,2.99,3.15,3.56,5.32.57,2.18.45,4.33-.39,6.42-.53,1.31-1.3,2.47-2.35,3.42-1.06.96-2.67.94-3.72-.04-1.06-.97-1.22-2.56-.39-3.71.44-.61.96-1.19,1.25-1.87.6-1.42.4-2.82-.46-4.11-.13-.19-.26-.33,0-.53,1.55-1.21,2.36-2.8,2.43-4.77,0-.03.03-.05.07-.13Z"/>
      <path class="cls-1" d="m66.96,65.61c-.73-.58-1.4-1.19-2.15-1.68-.73-.47-1.58-.7-2.46-.71-.44,0-.63-.13-.65-.63-.08-2.09-1.69-3.81-3.77-4.11-1.19-.17-2.26-1.36-2.33-2.58-.07-1.27.83-2.53,2.01-2.88.97-.29,1.88-.02,2.76.26,2.21.71,3.99,2.03,5.27,3.97,1.57,2.38,2.06,4.98,1.45,7.78-.05.21-.09.41-.12.56Z"/>
      <path class="cls-1" d="m76.1,37.62c-.34.67-.59,1.31-.96,1.88-2.16,3.31-5.24,4.9-9.18,4.76-1.33-.05-2.6-.41-3.8-1.01-1.46-.73-2.08-2.36-1.41-3.75.69-1.45,2.39-2.06,3.86-1.32,1.96.99,4.25.35,5.51-1.28.14-.18.23-.34.5-.15,1.6,1.1,3.34,1.36,5.21.85.04-.01.08,0,.27.02Z"/>
      <path class="cls-1" d="m28.84,67.15c1.6-.51,2.73-1.47,3.15-3.09.14-.54.18-1.14.12-1.7-.17-1.66.64-2.97,2.17-3.36,1.58-.4,3.23.73,3.42,2.35.22,1.88.09,3.73-.71,5.48-1.24,2.73-3.24,4.64-6.14,5.54-.73.23-1.51.33-2.26.48-.15.03-.32,0-.6,0,1.24-1.81,1.49-3.69.85-5.71Z"/>
      <path class="cls-1" d="m56.21,67.15c-.61,2.02-.41,3.89.82,5.63l-.06.13c-.56-.07-1.12-.11-1.67-.23-3.67-.8-6.16-3-7.48-6.48-.66-1.75-.8-3.59-.29-5.41.32-1.13,1.4-1.86,2.58-1.87,1.19-.01,2.3.72,2.67,1.84.14.42.25.91.17,1.33-.39,2.23.93,4.4,3.26,5.07Z"/>
      <path class="cls-1" d="m72.26,25.99q-2.7,1.5-3.99,4.05c-.59-.06-1.17-.18-1.75-.18-1.74,0-2.99.85-3.83,2.33-.65,1.15-1.68,1.7-2.94,1.53-1.87-.25-2.96-2.29-2.12-3.99,1.05-2.12,2.66-3.67,4.82-4.62,3.26-1.43,6.43-1.18,9.48.62.1.06.19.14.33.25Z"/>
      <path class="cls-1" d="m9.07,37.55c.99.31,1.91.38,2.86.22.88-.15,1.7-.45,2.43-.96.26-.19.42-.17.59.08,1.06,1.52,3.46,2.32,5.54,1.29,1.98-.99,4.18.48,4.07,2.68-.06,1.19-.76,1.99-1.81,2.47-1.56.71-3.2,1.08-4.91.93-2.55-.21-4.77-1.16-6.57-3.03-.88-.91-1.54-1.94-2.05-3.09-.04-.1-.08-.2-.11-.3-.02-.07-.02-.14-.05-.3Z"/>
      <path class="cls-1" d="m16.8,30.13c-.67-2.04-2.01-3.37-4.12-4.14.64-.34,1.16-.67,1.71-.91,4.02-1.78,8.71-.76,11.61,2.56.53.61.99,1.31,1.36,2.03.81,1.56.15,3.31-1.49,3.93-1.23.47-2.7.08-3.44-1.27-.63-1.16-1.53-2.03-2.83-2.31-.69-.15-1.44-.05-2.16-.04-.21,0-.41.1-.67.16Z"/>
      <path class="cls-1" d="m20.49,55c-1.8-3.13-2.9-6.5-3.27-10.1,1.18-.06,2.31-.12,3.5-.17.35,2.96,1.28,5.77,2.71,8.35-1,.65-1.94,1.27-2.94,1.93Z"/>
      <path class="cls-1" d="m64.57,55c-.99-.65-1.93-1.27-2.86-1.88.55-1.32,1.2-2.67,1.67-4.08.46-1.4.73-2.87,1.08-4.32,1.05.05,2.18.11,3.38.17-.34,3.58-1.45,6.97-3.27,10.1Z"/>
      <path class="cls-1" d="m52.78,18.67c3.29,1.44,6.14,3.56,8.59,6.24-.92.73-1.81,1.44-2.72,2.17-.59-.55-1.2-1.15-1.85-1.72-1.51-1.33-3.19-2.41-5-3.27-.26-.12-.32-.22-.22-.47.4-.96.78-1.93,1.2-2.95Z"/>
      <path class="cls-1" d="m26.51,27.14c-.99-.78-1.87-1.49-2.8-2.23,2.42-2.69,5.29-4.78,8.56-6.24.43,1.04.83,2.01,1.24,2.98.09.22.02.31-.19.41-2.09.97-3.97,2.26-5.65,3.83-.43.4-.81.86-1.17,1.25Z"/>
      <path class="cls-1" d="m38.46,64c.6.08,1.28.16,1.95.24,2.1.25,4.18.18,6.26-.19.63-.11.59-.11.74.52.19.79.44,1.57.67,2.35.03.11.07.23.12.41-.5.09-.97.19-1.44.27-3,.46-5.99.35-8.97-.17-.25-.04-.34-.14-.25-.4.31-.98.6-1.96.92-3.02Z"/>
      <path class="cls-1" d="m67.62,37.94c-.86.24-1.63.14-2.42-.11-.88-.27-1.4-.72-1.57-1.7-.15-.88-.57-1.72-.86-2.58-.04-.11-.09-.26-.05-.34.6-.96,1.13-1.99,2.26-2.46.2-.08.31-.13.43.11.99,2.07,1.73,4.23,2.15,6.49.03.18.04.36.06.58Z"/>
      <path class="cls-1" d="m42.19,16.36c1.15.09,2.28.18,3.42.26.41.03.5.21.42.59-.16.83-.6,1.49-1.11,2.15-.43.56-.88.67-1.54.62-.95-.06-1.91,0-2.86.03-.29.01-.47-.06-.64-.3-.31-.46-.72-.86-1.01-1.34-.21-.36-.3-.79-.42-1.19-.1-.35.05-.53.43-.56,1.1-.08,2.21-.17,3.3-.26Z"/>
      <path class="cls-1" d="m19.81,30.65c.89.36,1.49.99,2.05,1.73.54.71.42,1.33.14,2.06-.33.83-.54,1.7-.83,2.54-.06.18-.24.38-.41.45-.83.37-1.65.75-2.61.65-.67-.07-.75-.11-.63-.75.41-2.25,1.15-4.38,2.14-6.43.04-.08.09-.15.15-.25Z"/>
      <path class="cls-1" d="m30.97,65.01c-2.34-1.19-4.35-2.7-6.2-4.48.58-.82,1.37-1.24,2.3-1.43.09-.02.2,0,.27-.04.63-.38,1.04,0,1.5.37.75.58,1.54,1.13,2.33,1.66.24.16.34.33.36.62.04.82.19,1.63-.15,2.42-.12.27-.25.54-.4.88Z"/>
      <path class="cls-1" d="m60.34,60.53c-.75.64-1.43,1.31-2.2,1.86-1.19.85-2.44,1.62-3.67,2.43-.26.17-.41.14-.56-.16-.37-.73-.5-1.49-.41-2.3.01-.09.05-.19.04-.27-.13-.7.33-1.01.82-1.34.73-.49,1.44-1.01,2.12-1.55.33-.27.62-.42,1.05-.22.34.15.73.18,1.1.29.69.21,1.2.67,1.71,1.26Z"/>
    </g>
  </g>
</svg>