<?xml version="1.0" encoding="UTF-8"?>
<svg id="Layer_2" data-name="Layer 2" xmlns="http://www.w3.org/2000/svg" viewBox="0 0 84.64 84.64">
  <defs>
    <style>
      .cls-1 {
        fill: #fff;
      }

      .cls-1, .cls-2 {
        stroke-width: 0px;
      }

      .cls-2 {
        fill: #c64127;
      }
    </style>
  </defs>
  <g id="Layer_1-2" data-name="Layer 1">
    <g>
      <circle class="cls-2" cx="42.32" cy="42.32" r="42.32"/>
      <g>
        <path class="cls-1" d="m13.03,42.47c.09-.11.24-.21.27-.33.21-1.2.9-2.11,1.76-2.93.11-.1.1-.32.19-.46.1-.15.22-.29.37-.39,1.01-.65,2.14-.89,3.32-.9,2.84-.03,5.68-.01,8.52-.01.05,0,.11.02.19.04v4.06c-.19,0-.39,0-.59,0-2.72,0-5.45.04-8.17-.01-1.33-.02-2.22.77-2.2,2.2.05,4.98.02,9.97.02,14.95,0,1.37.67,2.05,2.02,2.05,7.72,0,15.43,0,23.15,0,.13,0,.26,0,.44,0v-7.65c.18.11.28.17.38.24.47.35.93.71,1.4,1.07.06.04.15.13.14.16-.25.62.33.77.63,1.02,2.63,2.2,5.27,4.37,7.92,6.55.37.3.44,1.02.11,1.29-2.08,1.72-4.16,3.45-6.25,5.17-.72.59-1.45,1.17-2.19,1.74-.24.18-.54.31-.21.58-.63.6-1.21,1.15-1.79,1.71h-.11v-7.77c-.3,0-.53,0-.75,0-7.41,0-14.82.01-22.23-.02-.85,0-1.74-.08-2.52-.36-1.09-.39-2.19-.86-2.56-2.21-.21-.79-.64-1.52-.99-2.27-.02-.04-.15-.04-.23-.05,0-5.82,0-11.65,0-17.47Z"/>
        <path class="cls-1" d="m13.03,16.09c.35-.46.71-.91,1.13-1.45-.23-.46.11-.5.59-.49,3.75.01,7.5,0,11.25,0,.19,0,.37.02.62.03-.08.2-.14.35-.21.53,1.09.55,1.28,1.52,1.26,2.64-.03,2.13,0,4.26,0,6.39,0,1.51-.77,2.28-2.29,2.28-3.22,0-6.44-.03-9.65.02-1.28.02-2.23-.35-2.7-1.61,0-2.78,0-5.56,0-8.34Z"/>
        <path class="cls-1" d="m49.72,39.72c.22-.17.4-.28.53-.43.13-.14.58-.21.18-.55-.01,0,.11-.22.2-.3,2.57-2.12,5.14-4.23,7.72-6.35.44-.36.88-.73,1.3-1.12.11-.1.12-.31.21-.45.17-.24.36-.46.54-.7.06.03.12.05.18.08v7.52c1.98,0,3.88.04,5.78-.02.95-.03,1.56-.86,1.56-1.98,0-2.38,0-4.76,0-7.14,0-1.29-.02-2.59,0-3.88.02-.87-.27-1.52-1.12-1.91.08-.15.15-.29.28-.54H31.36v-3.71c.19,0,.39,0,.59,0,11.11,0,22.22,0,33.34,0,2.33,0,4.27.69,5.51,2.8.66,1.13.75,2.4.77,3.64.06,3.58.04,7.16,0,10.73,0,.63-.17,1.28-.35,1.9-.46,1.62-1.22,3.08-2.93,3.67-.9.31-1.88.48-2.83.53-1.59.08-3.19.02-4.84.02v7.69c-.71-.59-1.31-1.09-1.92-1.59-.28-.23-.57-.45-.84-.69-.1-.09-.16-.24-.23-.36-.12-.2-.2-.46-.37-.61-2.48-2.08-4.97-4.14-7.54-6.27Z"/>
        <path class="cls-1" d="m38.9,45.21c-1.66,0-3.31,0-4.97,0-1.54,0-2.33-.79-2.33-2.32,0-2.26,0-4.53,0-6.79,0-1.5.79-2.3,2.29-2.31,3.35,0,6.71,0,10.06,0,1.5,0,2.29.8,2.29,2.3,0,2.28,0,4.56,0,6.85,0,1.51-.78,2.27-2.3,2.27-1.68,0-3.35,0-5.03,0Z"/>
        <path class="cls-1" d="m64.21,68.5c-1.66,0-3.32,0-4.97,0-1.49,0-2.29-.8-2.29-2.3,0-2.26,0-4.53,0-6.79,0-1.53.79-2.32,2.33-2.32,3.35,0,6.71,0,10.06,0,1.45,0,2.25.81,2.25,2.28,0,2.3,0,4.6,0,6.9,0,1.43-.79,2.22-2.23,2.23-1.71.01-3.43,0-5.14,0Z"/>
      </g>
    </g>
  </g>
</svg>