<?xml version="1.0" encoding="UTF-8"?>
<svg id="Layer_2" data-name="Layer 2" xmlns="http://www.w3.org/2000/svg" viewBox="0 0 84.91 84.91">
  <defs>
    <style>
      .cls-1 {
        fill: #58529e;
      }

      .cls-2, .cls-3 {
        fill: #fff;
      }

      .cls-4 {
        fill: none;
        stroke: #fff;
        stroke-miterlimit: 10;
        stroke-width: 2px;
      }

      .cls-3 {
        font-family: MyriadConceptRoman-BoldCondensed, 'Myriad Variable Concept';
        font-size: 12px;
        font-variation-settings: 'wght' 700, 'wdth' 70;
        font-weight: 700;
      }

      .cls-5 {
        letter-spacing: .01em;
      }
    </style>
  </defs>
  <g id="Layer_1-2" data-name="Layer 1">
    <g>
      <circle class="cls-1" cx="42.45" cy="42.45" r="42.45"/>
      <g>
        <polygon class="cls-2" points="39.68 27.25 39 33.49 34.96 33.96 38.61 34.78 46.07 34.78 49.62 34.08 45.87 33.72 45.35 26.78 39.68 27.25"/>
        <rect class="cls-2" x="27.9" y="7.01" width="29.62" height="21.89"/>
        <rect class="cls-1" x="31.02" y="9.56" width="23.61" height="16.42"/>
      </g>
      <g>
        <polygon class="cls-2" points="60.53 56.5 59.85 62.74 55.81 63.21 59.46 64.03 66.92 64.03 70.48 63.33 66.72 62.97 66.2 56.03 60.53 56.5"/>
        <rect class="cls-2" x="48.75" y="36.26" width="29.62" height="21.89"/>
        <rect class="cls-1" x="51.87" y="38.81" width="23.61" height="16.42"/>
      </g>
      <g>
        <polygon class="cls-2" points="18.83 56.5 18.15 62.74 14.11 63.21 17.76 64.03 25.22 64.03 28.77 63.33 25.02 62.97 24.5 56.03 18.83 56.5"/>
        <rect class="cls-2" x="7.05" y="36.26" width="29.62" height="21.89"/>
        <rect class="cls-1" x="10.17" y="38.81" width="23.61" height="16.42"/>
      </g>
      <g>
        <circle class="cls-4" cx="43.08" cy="70.42" r="5.31"/>
        <path class="cls-4" d="m48.39,70.42h13.78c1.47-.48,1.04-2.51,1.04-4.18"/>
        <path class="cls-4" d="m37.18,70.42h-13.78c-1.47-.48-1.04-2.51-1.04-4.18"/>
        <line class="cls-4" x1="42.75" y1="49.83" x2="42.75" y2="37.05"/>
        <line class="cls-4" x1="42.75" y1="54.15" x2="42.75" y2="52.13"/>
        <line class="cls-4" x1="42.75" y1="58.45" x2="42.75" y2="56.43"/>
        <line class="cls-4" x1="42.75" y1="62.68" x2="42.75" y2="60.66"/>
        <line class="cls-4" x1="42.75" y1="71.25" x2="42.75" y2="69.23"/>
      </g>
      <text class="cls-3" transform="translate(32.5 21.75)"><tspan x="0" y="0">H</tspan><tspan class="cls-5" x="6.18" y="0">T</tspan><tspan x="11.06" y="0">TP</tspan></text>
      <text class="cls-3" transform="translate(53.78 50.38)"><tspan x="0" y="0">H</tspan><tspan class="cls-5" x="6.18" y="0">T</tspan><tspan x="11.06" y="0">TP</tspan></text>
      <text class="cls-3" transform="translate(11.55 50.38)"><tspan x="0" y="0">H</tspan><tspan class="cls-5" x="6.18" y="0">T</tspan><tspan x="11.06" y="0">TP</tspan></text>
    </g>
  </g>
</svg>