<?xml version="1.0" encoding="UTF-8"?>
<svg id="Layer_2" data-name="Layer 2" xmlns="http://www.w3.org/2000/svg" viewBox="0 0 85 85">
  <defs>
    <style>
      .cls-1 {
        fill: #f39320;
      }

      .cls-2 {
        fill: #fff;
      }
    </style>
  </defs>
  <g id="Layer_1-2" data-name="Layer 1">
    <g id="b66de1ba-b9e0-447a-99ae-b91c77b9db9f">
      <g id="be7c4c1c-ca5d-4258-ad12-b1d2bfd4695d">
        <circle class="cls-1" cx="42.5" cy="42.5" r="42.5"/>
        <g>
          <path class="cls-2" d="M23.46,47.52c-1.1,0-2.11-.6-2.85-1.7l-1.05-1.57c-1.13-1.68-2.3-3.42-3.4-5.19-.76-1.23-.92-2.31-.47-3.21.69-1.39,2.42-1.56,2.98-1.61.16-.02.33-.02.5-.02v-1.65c0-2.16,0-4.37,0-6.58.01-3.94,2.66-6.59,6.6-6.59,3.81,0,7.63,0,11.44,0h4.8v3h-4.8c-3.81,0-7.62,0-11.43,0-2.32,0-3.6,1.28-3.6,3.6,0,2.21,0,4.42,0,6.57v3.57s-.67.45-.67.45c-.93.62-1.78.63-2.28.63-.09,0-.18,0-.27,0-.15.01-.27.03-.36.05.03.06.07.13.12.21,1.07,1.72,2.22,3.43,3.34,5.09l1.06,1.58c.18.27.33.36.37.37,0,0,.14-.1.31-.35.5-.77,1.01-1.52,1.52-2.28.91-1.34,1.84-2.72,2.65-4.12.11-.2.2-.36.27-.49-.13-.02-.28-.03-.47-.04-.06,0-.12,0-.19,0-.49,0-1.31-.01-2.23-.71l-.6-.45v-.75c0-.72,0-1.45,0-2.2,0-1.71.02-3.47-.02-5.24-.02-.91.23-1.63.74-2.15.77-.79,1.81-.79,2.57-.78,3.49,0,6.93,0,10.36,0h3.62s0,3,0,3h-3.62c-3.43,0-6.87,0-10.3,0-.12,0-.25,0-.36,0,.03,1.75.03,3.5.02,5.18,0,.37,0,.73,0,1.1.08,0,.15,0,.22,0,1.31.09,2.61.33,3.21,1.46.69,1.3-.16,2.78-.62,3.57-.86,1.49-1.83,2.92-2.77,4.3-.5.74-1,1.48-1.49,2.23-.71,1.1-1.72,1.71-2.82,1.72h-.02Z"/>
          <path class="cls-2" d="M51.59,65.06c-1.6,0-3.2,0-4.8,0h-4.8v-3h4.8c3.81,0,7.62,0,11.43,0,2.32,0,3.6-1.28,3.6-3.6,0-2.21,0-4.42,0-6.57v-3.57s.67-.45.67-.45c.93-.62,1.78-.63,2.28-.63.09,0,.18,0,.27,0,.15-.01.27-.03.37-.05-.03-.06-.07-.13-.12-.21-1.07-1.72-2.22-3.43-3.34-5.09l-1.06-1.58c-.18-.27-.33-.36-.37-.37,0,0-.14.1-.31.35-.5.77-1.01,1.52-1.52,2.28-.91,1.34-1.84,2.72-2.65,4.12-.11.2-.2.36-.27.49.13.02.28.03.47.04.06,0,.12,0,.19,0,.49,0,1.31.01,2.23.71l.6.45v.75c0,.72,0,1.45,0,2.2,0,1.71-.02,3.47.02,5.24.02.91-.23,1.63-.74,2.15-.77.79-1.82.79-2.57.78-3.49,0-6.93,0-10.36,0h-3.62s0-3,0-3h3.62c3.43,0,6.87,0,10.3,0,.12,0,.25,0,.36,0-.03-1.75-.03-3.5-.02-5.18,0-.37,0-.73,0-1.1-.08,0-.15,0-.22,0-1.31-.09-2.61-.33-3.21-1.46-.69-1.3.16-2.78.62-3.57.86-1.49,1.83-2.92,2.77-4.3.5-.74,1-1.48,1.49-2.23.71-1.1,1.71-1.71,2.82-1.72h.02c1.1,0,2.11.6,2.85,1.7l1.05,1.57c1.13,1.68,2.3,3.42,3.4,5.19.76,1.23.92,2.31.47,3.21-.69,1.39-2.42,1.56-2.98,1.61-.16.02-.33.02-.49.02v1.65c0,2.16,0,4.37,0,6.58-.01,3.94-2.66,6.59-6.6,6.59-2.21,0-4.43,0-6.64,0Z"/>
          <path class="cls-2" d="M42.03,54.11c-.79,0-1.54-.15-2.13-.37-1.9-.7-2.66-2.67-1.92-5.02.1-.33-.08-.9-.46-1.45-.18-.26-.5-.5-.88-.79-.44-.33-.93-.7-1.36-1.23-2.39-2.93-2.93-6.11-1.55-9.19,1.5-3.36,4.24-5.29,7.93-5.57,3.03-.23,7.24,1.94,8.72,5.85,1.3,3.42.39,7.16-2.32,9.51-1.03.9-1.74,1.68-2.05,2.71.31,1.02,1.01,3.51-1.42,4.89-.81.46-1.71.64-2.56.64ZM42.13,33.48c-.08,0-.17,0-.25,0-2.6.2-4.37,1.44-5.42,3.8-.9,2.01-.51,4.05,1.13,6.07.2.24.51.48.84.73.5.38,1.07.81,1.53,1.46.96,1.36,1.26,2.81.87,4.06-.08.27-.33,1.15.1,1.31.6.22,1.54.3,2.17-.06.23-.13.4-.23.02-1.48l1.87-.57-2.02-.36c.4-2.21,1.74-3.64,3.12-4.85,1.78-1.55,2.34-3.92,1.48-6.19-.88-2.33-3.53-3.94-5.44-3.94Z"/>
          <rect class="cls-2" x="40.5" y="39.67" width="3" height="8.7"/>
          <path class="cls-2" d="M60.55,34.57c-1.44,0-2.64-.96-3.72-2.17-.46.2-1.04.4-1.76.43l-.66.03-.47-.46c-.68-.67-1.46-1.45-2.1-2.1l-.4-.4-.03-.56c-.05-.88.23-1.56.45-2.03,0,0-.01,0-.02,0-.42-.14-.93-.32-1.44-.72l-.53-.4-.06-.66c-.1-1.19-.1-2.49,0-3.67l.05-.62.47-.4c.5-.43,1.05-.62,1.45-.76.02,0,.04-.01.06-.02-.21-.47-.43-1.08-.47-1.85l-.03-.66.46-.47c.67-.68,1.45-1.46,2.1-2.1l.4-.4.56-.03c.87-.05,1.56.23,2.03.45,0,0,0-.01,0-.02.14-.42.32-.93.72-1.44l.4-.53.66-.05c1.19-.1,2.5-.1,3.69,0l.66.05.4.53c.39.51.57,1.03.72,1.44,0,0,0,0,0,0,.47-.21,1.09-.45,1.9-.47h.63s.45.43.45.43c.67.66,1.45,1.44,2.1,2.1l.4.4.03.56c.05.88-.23,1.55-.45,2.02.51.17,1.19.41,1.75,1.06l.38.45-.02.59c-.02.5-.01,1.01,0,1.5,0,.62.01,1.26-.03,1.88l-.05.68-.54.41c-.49.37-.99.54-1.39.67-.02,0-.05.02-.08.03.21.47.43,1.08.47,1.85l.03.66-.46.47c-.67.68-1.45,1.46-2.13,2.13l-.47.46-.66-.03c-.72-.04-1.3-.23-1.76-.43-1.07,1.21-2.27,2.17-3.72,2.17ZM57.79,28.81l.65.83c1.38,1.74,1.94,1.93,2.11,1.93s.73-.19,2.11-1.93l.65-.83,1,.34c.27.09.53.21.8.34.17.08.33.16.49.22.32-.32.66-.65.98-.98-.06-.15-.13-.31-.21-.48-.13-.26-.24-.51-.33-.77l-.15-.45.13-.45c.44-1.5,1.63-1.92,2.3-2.15,0-.25,0-.51,0-.78,0-.26,0-.51,0-.77-.03,0-.05-.02-.08-.03-.58-.2-1.46-.49-2.02-1.43l-.18-.3-.03-.34c-.07-.82.23-1.46.45-1.92.05-.1.09-.19.12-.26-.32-.32-.65-.65-.97-.97-.1.04-.21.09-.33.14-.35.16-.74.33-1.24.42l-.29-1.76-.98,1.55c-.92-.58-1.23-1.45-1.43-2.02,0-.02-.02-.05-.02-.07-.51-.02-1.03-.02-1.54,0,0,.02-.02.05-.02.07-.2.58-.5,1.45-1.43,2.03l-.3.19-.36.03c-.83.08-1.46-.23-1.92-.45-.1-.05-.19-.09-.26-.12-.32.32-.65.65-.98.98.06.15.13.31.21.48.13.26.24.51.32.76l.15.44-.13.45c-.44,1.51-1.64,1.93-2.28,2.16,0,0-.01,0-.02,0-.02.5-.02,1.03,0,1.53.02,0,.05.02.07.02.58.2,1.45.5,2.03,1.43l.19.3.03.36c.07.82-.23,1.46-.45,1.92-.05.1-.09.19-.12.26.32.32.65.65.98.98.15-.06.31-.13.49-.22.27-.13.53-.25.8-.34l1-.34Z"/>
          <path class="cls-2" d="M23.45,71.67h0c-1.44,0-2.64-.96-3.72-2.17-.46.2-1.04.4-1.76.43l-.66.03-.47-.46c-.68-.67-1.46-1.45-2.1-2.1l-.4-.4-.03-.56c-.05-.88.23-1.56.45-2.03,0,0-.01,0-.02,0-.42-.14-.93-.32-1.44-.72l-.53-.4-.05-.66c-.1-1.19-.1-2.49,0-3.67l.05-.62.47-.4c.5-.43,1.05-.62,1.45-.76.02,0,.04-.01.06-.02-.21-.47-.43-1.08-.47-1.85l-.03-.66.46-.47c.67-.68,1.45-1.46,2.1-2.1l.4-.4.56-.03c.88-.05,1.56.23,2.03.45v-.02c.15-.42.33-.93.72-1.44l.4-.53.66-.05c1.19-.1,2.5-.1,3.69,0l.66.05.4.53c.39.51.57,1.03.72,1.44,0,0,0,0,0,0,.47-.21,1.09-.45,1.9-.47h.63s.45.43.45.43c.67.66,1.45,1.44,2.1,2.1l.4.4.03.56c.05.88-.23,1.55-.45,2.02.51.17,1.19.41,1.75,1.06l.38.45-.02.59c-.02.5-.01,1.01,0,1.5,0,.62.01,1.26-.03,1.88l-.05.68-.54.41c-.49.37-.99.54-1.39.67-.02,0-.05.02-.08.03.21.47.43,1.08.47,1.85l.03.66-.46.47c-.67.68-1.45,1.46-2.13,2.13l-.47.46-.66-.03c-.72-.03-1.3-.23-1.76-.43-1.07,1.21-2.27,2.17-3.72,2.17ZM20.68,65.92l.66.83c1.38,1.74,1.94,1.93,2.11,1.93s.73-.19,2.11-1.93l.66-.83,1,.34c.27.09.53.21.8.34.17.08.33.16.49.22.32-.32.66-.66.98-.98-.06-.15-.13-.31-.21-.48-.13-.26-.24-.51-.33-.77l-.15-.45.13-.45c.44-1.5,1.63-1.92,2.3-2.15,0-.25,0-.51,0-.78,0-.26,0-.51,0-.77-.03,0-.05-.02-.08-.03-.58-.2-1.46-.49-2.02-1.43l-.18-.3-.03-.34c-.07-.82.23-1.46.45-1.92.05-.1.09-.19.12-.26-.32-.32-.65-.65-.97-.97-.1.04-.21.09-.33.14-.35.16-.74.33-1.24.42l-.29-1.76-.98,1.55c-.92-.58-1.23-1.45-1.43-2.02,0-.02-.02-.05-.02-.07-.51-.02-1.03-.02-1.54,0,0,.02-.02.05-.02.07-.2.58-.5,1.45-1.43,2.03l-.3.19-.36.03c-.83.08-1.46-.23-1.92-.45-.1-.05-.19-.09-.26-.12-.32.32-.65.65-.98.98.06.15.13.31.21.48.12.26.24.51.32.76l.15.44-.13.45c-.43,1.51-1.64,1.93-2.28,2.16,0,0-.01,0-.02,0-.02.5-.02,1.03,0,1.53.02,0,.04.02.07.02.58.2,1.45.5,2.03,1.43l.19.3.03.36c.07.82-.23,1.46-.45,1.92-.05.1-.09.19-.12.26.32.32.65.65.98.98.15-.06.31-.13.49-.22.27-.13.53-.25.8-.34l1-.34Z"/>
          <path class="cls-2" d="M23.48,66c-2,0-3.65-1.03-4.62-2.92-1.48-2.89-.41-5.36,3.17-7.33l.96,1.73v-1.92c.07,0,.13,0,.2,0,.28-.02.66-.04,1.08.06,2.62.65,4.39,2.73,4.39,5.16s-2.01,4.83-4.31,5.16c-.3.04-.59.06-.88.06ZM23.16,58.56c-2.49,1.46-2.03,2.36-1.63,3.16.53,1.03,1.26,1.41,2.4,1.25.81-.12,1.73-1.28,1.73-2.19,0-1.04-.83-1.93-2.11-2.24-.02,0-.1.01-.17.02-.07,0-.15,0-.22.01Z"/>
          <path class="cls-2" d="M60.58,28.89c-2,0-3.65-1.03-4.62-2.92-1.48-2.89-.42-5.36,3.17-7.33l.96,1.73v-1.92c.07,0,.13,0,.2,0,.28-.02.66-.04,1.08.06,2.63.65,4.39,2.73,4.39,5.16s-2.01,4.83-4.31,5.16c-.3.04-.59.06-.88.06ZM60.26,21.45c-2.49,1.46-2.03,2.36-1.63,3.16.53,1.03,1.27,1.41,2.4,1.25.81-.12,1.73-1.28,1.73-2.19,0-1.04-.83-1.93-2.11-2.24-.02,0-.1.01-.17.02-.07,0-.15,0-.22.01Z"/>
        </g>
      </g>
    </g>
  </g>
</svg>