<?xml version="1.0" encoding="UTF-8"?>
<svg id="Layer_2" data-name="Layer 2" xmlns="http://www.w3.org/2000/svg" viewBox="0 0 84.64 84.64">
  <defs>
    <style>
      .cls-1 {
        font-family: MyriadConceptRoman-BoldCond, 'Myriad Variable Concept';
        font-size: 12px;
        font-variation-settings: 'wght' 700, 'wdth' 70;
        font-weight: 700;
      }

      .cls-1, .cls-2 {
        fill: #58529e;
      }

      .cls-2, .cls-3 {
        stroke-width: 0px;
      }

      .cls-3 {
        fill: #fff;
      }
    </style>
  </defs>
  <g id="Layer_1-2" data-name="Layer 1">
    <g>
      <circle class="cls-2" cx="42.32" cy="42.32" r="42.32"/>
      <path class="cls-3" d="m38.9,67.46c-8.35-.15-16.69-.29-25.04-.46-3.72-.07-6.14-2.64-6.07-6.38.19-10.9.39-21.8.59-32.7.07-3.77,2.61-6.21,6.4-6.14,16.72.29,33.43.6,50.15.91,3.38.06,5.89,2.63,5.88,6.08-.02,3.97-.12,7.95-.19,11.92-.13,7.07-.25,14.14-.4,21.21-.06,3.1-2.04,5.49-4.94,5.95-.81.13-1.65.07-2.48.06-7.97-.14-15.94-.28-23.9-.43h0Zm-16.3-21.16c-1.9.83-4.01,1.66-6.02,2.68-.85.43-1.6,1.2-2.19,1.97-1.3,1.68-1.93,3.67-2.16,5.77-.13,1.17-.08,1.22,1.06,1.64,3.36,1.24,6.88,1.62,10.42,1.89,4.39.33,8.79.35,13.17-.21,2.07-.26,4.1-.84,6.15-1.3.53-.12.8-.47.73-1.04-.09-.7-.12-1.42-.27-2.1-.68-3.23-2.24-5.79-5.44-7.11-1.29-.53-2.55-1.11-3.81-1.7-.52-.24-.82-.22-1.23.27-2.09,2.51-5.22,3.13-7.79,1.5-.88-.56-1.6-1.37-2.6-2.25Zm-2.03-7.25l.17.07c-.08,1.13.22,2.19.86,3.09.67.95,1.14,1.99,1.65,3.02,1.13,2.33,3.43,3.67,5.66,3.32,2.05-.33,3.46-1.59,4.36-3.39.45-.88.91-1.73,1.5-2.54.46-.64.82-1.41.96-2.18.14-.78.16-1.7-.14-2.41-.24-.57-.36-1.08-.37-1.66,0-.5.05-1,0-1.49-.23-2.37-1.4-5.05-4.42-5.64-1.08-.21-2.2-.36-3.29-.32-3.09.14-5.11,1.84-5.8,4.86-.21.93-.16,1.92-.25,2.89-.02.23-.06.47-.14.68-.23.57-.49,1.12-.74,1.68Zm34.04,7.53c2.86.05,5.71.1,8.57.15.26,0,.52.02.77-.03.56-.11.88-.47.85-1.05-.02-.53-.34-.87-.88-.95-.35-.05-.71-.05-1.06-.06-5.62-.1-11.24-.2-16.85-.3-.21,0-.43,0-.63.03-.54.09-.92.47-.83.97.06.36.43.72.74.98.16.14.5.09.75.1,2.86.06,5.71.11,8.57.16Zm.23-9.81h0c-2.97-.05-5.95-.11-8.92-.16-.79-.01-1.28.38-1.27,1,0,.63.47,1.03,1.25,1.04,5.93.11,11.85.22,17.78.32.86.01,1.31-.36,1.3-1.04-.01-.65-.43-.98-1.28-.99-2.95-.05-5.9-.11-8.85-.16Zm.09-5.73h0c1.35.03,2.69.05,4.04.08,1.68.03,3.35.07,5.03.08.68,0,1.08-.35,1.12-.92.04-.6-.37-1.05-1.03-1.12-.19-.02-.38-.01-.57-.02-3.64-.07-7.27-.13-10.91-.2-2.15-.04-4.3-.1-6.45-.09-.4,0-.88.2-1.17.47-.18.17-.23.74-.08.95.21.29.66.57,1.01.58,3,.1,6,.13,8.99.19Z"/>
      <path class="cls-3" d="m14.5,20.18c.67-2.18,2.9-3.87,5.19-3.87,3.38,0,6.76.09,10.14.15,13,.23,26,.47,39.01.71,1.01.02,2.05-.03,3.04.17,2.8.58,4.7,3.02,4.65,5.89-.16,9.84-.34,19.67-.53,29.51-.03,1.68.03,3.38-.26,5.02-.37,2.13-1.83,3.49-3.91,4.35-.01-.3-.03-.52-.03-.74.2-11.16.39-22.32.61-33.48.03-1.38-.36-2.57-1.22-3.6-1.68-2.03-3.8-3.19-6.49-3.24-16.41-.27-32.81-.56-49.22-.85-.31,0-.61-.01-.98-.02Z"/>
      <rect class="cls-3" x="42.88" y="26.4" width="24.23" height="6.02" transform="translate(.54 -.99) rotate(1.03)"/>
      <text class="cls-1" transform="translate(44.86 34.27) rotate(1.03)"><tspan x="0" y="0">UNIX</tspan></text>
    </g>
  </g>
</svg>