<?xml version="1.0" encoding="UTF-8"?>
<svg id="Layer_2" data-name="Layer 2" xmlns="http://www.w3.org/2000/svg" viewBox="0 0 85 85">
  <defs>
    <style>
      .cls-1 {
        fill: #fff;
      }

      .cls-1, .cls-2 {
        stroke-width: 0px;
      }

      .cls-2 {
        fill: #c64127;
      }
    </style>
  </defs>
  <g id="Layer_1-2" data-name="Layer 1">
    <g>
      <circle class="cls-2" cx="42.5" cy="42.5" r="42.5"/>
      <path class="cls-1" d="m71.48,62.44c-.04.07-.09.13-.11.2-.51,1.65-1.57,2.49-3.19,2.49-7.02,0-14.04,0-21.06,0-10.06,0-20.11,0-30.17,0-2.2,0-3.43-1.35-3.43-3.74,0-14.44,0-28.88,0-43.31,0-2.41,1.22-3.74,3.43-3.74,16.89,0,33.77.02,50.66-.02,1.94,0,3.29.67,3.88,2.77v45.36Zm-2.24-6.95c0-.31,0-.58,0-.84,0-12.17,0-24.35,0-36.52,0-1.15-.23-1.39-1.31-1.39-16.94,0-33.89,0-50.83,0-1.15,0-1.35.22-1.35,1.48,0,12.22,0,24.43,0,36.65,0,.2,0,.4,0,.64h53.49Zm-53.5,2.51c0,1.17,0,2.28,0,3.39,0,1.03.25,1.3,1.22,1.3,16.62,0,33.24,0,49.86,0,.51,0,1.02.01,1.53,0,.47-.01.84-.27.86-.79.04-1.29.01-2.58.01-3.9H15.75Z"/>
      <path class="cls-1" d="m51.8,67.52v4.27h3.55v2.4h-25.7v-2.36h3.53v-4.3h2.21v4.19h14.18v-4.2h2.23Z"/>
      <path class="cls-1" d="m43.42,30.33c1.67,0,3.29-.06,4.9.02,1.54.07,2.84,1.57,2.88,3.24.04,1.69.04,3.37,0,5.06-.03,1.67-1.2,3.15-2.72,3.26-1.67.12-3.34.03-5.07.03v-11.6Zm2.19,9.23c.86,0,1.65.03,2.44,0,.55-.03.93-.43.94-1.03.02-1.58.02-3.17,0-4.75,0-.54-.3-.95-.78-.98-.86-.06-1.72-.02-2.6-.02v6.79Z"/>
      <path class="cls-1" d="m60.8,30.36v2.38h-5.58v2.18h2.75v2.41h-2.75v2.23h5.59v2.39c-.15.02-.29.05-.44.05-2.3,0-4.6,0-6.9,0-.33,0-.52-.05-.52-.49.01-3.62,0-7.24.01-10.87,0-.08.02-.16.03-.28h7.81Z"/>
      <path class="cls-1" d="m33.78,36.12c0-.8-.02-1.61,0-2.41.05-1.9,1.43-3.38,3.17-3.39.71,0,1.45-.05,2.14.1,1.44.3,2.45,1.57,2.5,3.16.06,1.73.06,3.46,0,5.19-.06,1.63-1.23,2.97-2.71,3.15-.74.09-1.51.1-2.26.02-1.65-.18-2.81-1.61-2.85-3.41-.02-.8,0-1.61,0-2.41h0Zm5.64,0h0c0-.72.02-1.44,0-2.16-.02-.82-.38-1.2-1.12-1.22-.41,0-.83-.01-1.24,0-.66.02-1.03.39-1.04,1.1-.02,1.52-.02,3.04,0,4.56,0,.72.4,1.12,1.08,1.15.36.02.72,0,1.07,0,.89-.01,1.25-.41,1.27-1.4,0-.68,0-1.36,0-2.04Z"/>
      <path class="cls-1" d="m31.99,35h-2.17c0-.35,0-.69,0-1.03-.02-.8-.39-1.2-1.13-1.22-.45-.01-.91-.02-1.36,0-.55.03-.92.43-.93,1.03-.02,1.56-.02,3.13,0,4.69,0,.65.39,1.04,1.02,1.08.43.03.87.02,1.3,0,.69-.03,1.07-.45,1.1-1.21.01-.34,0-.69,0-1.07h2.12c.59,2.08-.71,4.39-2.67,4.63-.78.1-1.58.09-2.36,0-1.53-.18-2.71-1.64-2.73-3.33-.02-1.6-.02-3.21,0-4.81.01-1.71,1.17-3.21,2.73-3.41.8-.11,1.63-.11,2.42,0,1.43.2,2.47,1.43,2.66,3.01.06.52,0,1.05,0,1.62Z"/>
      <rect class="cls-1" x="21.82" y="46.01" width="40.59" height="7.13"/>
      <rect class="cls-2" x="36.86" y="48.21" width="1.97" height="2.15"/>
      <rect class="cls-2" x="40.58" y="48.21" width="1.97" height="2.15"/>
      <rect class="cls-2" x="44.29" y="48.21" width="1.97" height="2.15"/>
      <rect class="cls-1" x="22.26" y="18.58" width="40.59" height="7.13"/>
      <rect class="cls-2" x="37.3" y="20.79" width="1.97" height="2.15"/>
      <rect class="cls-2" x="41.02" y="20.79" width="1.97" height="2.15"/>
      <rect class="cls-2" x="44.73" y="20.79" width="1.97" height="2.15"/>
    </g>
  </g>
</svg>